<svg xmlns="http://www.w3.org/2000/svg" viewBox="0 0 20 20">
  <defs>
    <style>
      .a {
        fill: #ffba51;
      }

      .b {
        fill: #fff;
      }
    </style>
  </defs>
  <title>Artboard 1</title>
  <path class="a" d="M19.511,16.55878a.81315.81315,0,0,0-.55243.03027.67176.67176,0,0,0-.3667.3667,2.86535,2.86535,0,0,1-2.207,1.716,3.20615,3.20615,0,0,1-2.79547-.81189.146.146,0,0,1,.0058-.21979l1.24524-1.09656a.29158.29158,0,0,0,.07788-.347A.36508.36508,0,0,0,14.58447,16h-3.2229a.38775.38775,0,0,0-.25568.09332A.30062.30062,0,0,0,11,16.3186v2.83984a.32091.32091,0,0,0,.22308.29486.398.398,0,0,0,.39447-.06934l.70068-.618a.19957.19957,0,0,1,.25958.00385,4.78408,4.78408,0,0,0,4.14246,1.14313A4.25577,4.25577,0,0,0,19.96082,17.368.62223.62223,0,0,0,19.511,16.55878Z"/>
  <path class="b" d="M17.5,0H2.5A2.50584,2.50584,0,0,0,0,2.51166V15.48834A2.50584,2.50584,0,0,0,2.5,18H7.91669a.83723.83723,0,0,0,0-1.67444H2.5a.83524.83524,0,0,1-.83331-.83722V4.39618A.20881.20881,0,0,1,1.87415,4.186H18.125a.20879.20879,0,0,1,.20831.20929V8.79071a.83335.83335,0,1,0,1.66669,0V2.51166A2.50584,2.50584,0,0,0,17.5,0Z"/>
  <path class="a" d="M19.77734,11.49908a.39116.39116,0,0,0-.3927.07043l-.73926.66284a.1906.1906,0,0,1-.129.04718.193.193,0,0,1-.12823-.04974,4.72506,4.72506,0,0,0-4.127-1.1391,4.26479,4.26479,0,0,0-3.22247,2.57715.63285.63285,0,0,0,.44891.81995.7571.7571,0,0,0,.87311-.31335l.042-.088a2.86231,2.86231,0,0,1,2.18829-1.7406,3.16117,3.16117,0,0,1,2.78339.80707.15089.15089,0,0,1-.00433.22418L16.174,14.44891a.29907.29907,0,0,0-.07776.35156A.36285.36285,0,0,0,16.42828,15h3.21143A.34317.34317,0,0,0,20,14.677V11.79755A.32476.32476,0,0,0,19.77734,11.49908Z"/>
</svg>