<svg xmlns="http://www.w3.org/2000/svg" viewBox="0 0 100 100">
  <defs>
    <style>
      .a {
        fill: #ff8787;
      }

      .b {
        fill: #cc5e5e;
      }

      .c {
        fill: #e27d7d;
      }

      .d {
        fill: #c44545;
      }

      .e {
        opacity: 0.13;
      }

      .f {
        fill: #fff;
      }

      .g {
        fill: #e8f4fa;
      }

      .h {
        fill: none;
        stroke: #191816;
      }

      .h, .i {
        stroke-linecap: round;
        stroke-linejoin: round;
      }

      .i {
        fill: #ff6242;
        stroke: #000;
      }
    </style>
  </defs>
  <title>Artboard 1</title>
  <circle class="a" cx="50" cy="50" r="39"/>
  <g>
    <path class="b" d="M42.99893,72.05156a1.59431,1.59431,0,0,0,1.37562,1.79061h.22287a1.5975,1.5975,0,0,0,1.59849-1.40636l3.89632-28.25791-2.30551-6.87043Z"/>
    <path class="c" d="M45.83471,28.27755l-6.04044,43.774a1.59431,1.59431,0,0,0,1.37562,1.79061h.22287a1.5975,1.5975,0,0,0,1.59849-1.40636l5.149-37.28783Z"/>
    <path class="c" d="M34.9988,73.8268a2.17039,2.17039,0,0,1-.22287-.01537,1.60027,1.60027,0,0,1-1.36794-1.7983h0l6.40164-46.39461a1.584,1.584,0,0,1,1.75219-1.37562c.01537,0,.03074.00768.04611.00768a1.60452,1.60452,0,0,1,1.36794,1.7983h0L36.57423,72.44349A1.58522,1.58522,0,0,1,34.9988,73.8268Z"/>
    <path class="b" d="M31.80182,73.8268a2.1704,2.1704,0,0,1-.22287-.01537,1.60027,1.60027,0,0,1-1.36794-1.7983h0l6.40164-46.40229a1.584,1.584,0,0,1,1.75219-1.37562c.01537,0,.03074.00768.04611.00768a1.60452,1.60452,0,0,1,1.36794,1.7983h0l-6.394,46.40229A1.59865,1.59865,0,0,1,31.80182,73.8268Z"/>
    <path class="d" d="M28.60484,73.8268a2.1704,2.1704,0,0,1-.22287-.01537,1.60027,1.60027,0,0,1-1.36794-1.7983h0l6.40164-46.39461a1.584,1.584,0,0,1,1.75219-1.37562c.01537,0,.03074.00768.04611.00768a1.60452,1.60452,0,0,1,1.36794,1.7983h0L30.18027,72.44349A1.591,1.591,0,0,1,28.60484,73.8268Z"/>
    <polygon class="e" points="45.224 32.824 49.788 46.482 49.341 49.541 44.706 36.259 45.224 32.824"/>
    <polyline class="e" points="46.188 35.875 45.721 38.544 39.781 72.563 45.219 33.031"/>
    <path class="f" d="M38.20346,73.8268a2.17039,2.17039,0,0,1-.22287-.01537,1.60027,1.60027,0,0,1-1.36794-1.7983h0l6.40164-46.39461a1.584,1.584,0,0,1,1.75219-1.37562c.01537,0,.03074.00768.04611.00768a1.60452,1.60452,0,0,1,1.36794,1.7983h0L39.77889,72.44349A1.591,1.591,0,0,1,38.20346,73.8268Z"/>
    <path class="f" d="M66.58432,25.64158A1.77726,1.77726,0,0,0,65.055,24.15837a1.68227,1.68227,0,0,0-1.70608,1.45247L55.30268,53.17709,46.10335,25.30155a1.489,1.489,0,0,1,.03074.52258l-.991,6.85695,8.7379,26.36738a1.59666,1.59666,0,0,0,3.051-.0538l7.5006-25.62193L69.812,72.36664A1.59865,1.59865,0,0,0,71.39516,73.75a2.17044,2.17044,0,0,0,.22287-.01537,1.60452,1.60452,0,0,0,1.36794-1.7983h0Z"/>
  </g>
  <g>
    <path class="f" d="M93.92372,74.9696A7.70431,7.70431,0,0,0,81.7,67.05551a15.60243,15.60243,0,0,0-21.94005-1.72386,15.78763,15.78763,0,0,0-5.485,11.7536v.07836a3.815,3.815,0,0,0-.94029-.07836,7.75738,7.75738,0,0,0,0,15.51475H88.282a9.71458,9.71458,0,0,0,9.71631-9.71284v-.08182A10.02418,10.02418,0,0,0,93.92372,74.9696Z"/>
    <path class="g" d="M88.282,87.58513H53.25626a7.84562,7.84562,0,0,1-7.36559-5.24994,6.73207,6.73207,0,0,0-.39179,2.50744A7.75894,7.75894,0,0,0,53.1779,92.6H88.282a9.71458,9.71458,0,0,0,9.71631-9.71284v-.00346h0a8.80367,8.80367,0,0,0-.31343-2.50744A9.80412,9.80412,0,0,1,88.282,87.58513Z"/>
    <path class="h" d="M93.92372,74.9696A7.70431,7.70431,0,0,0,81.7,67.05551a15.60243,15.60243,0,0,0-21.94005-1.72386,15.78763,15.78763,0,0,0-5.485,11.7536v.07836a3.815,3.815,0,0,0-.94029-.07836,7.75738,7.75738,0,0,0,0,15.51475H88.282a9.71458,9.71458,0,0,0,9.71631-9.71284v-.08182A10.02418,10.02418,0,0,0,93.92372,74.9696Z"/>
  </g>
  <path class="i" d="M79.145,73.212A9.98965,9.98965,0,1,0,81,79,10.04075,10.04075,0,0,0,79.145,73.212ZM64.33333,79a6.65718,6.65718,0,0,1,10.048-5.73839l-9.11974,9.11974A6.6259,6.6259,0,0,1,64.33333,79ZM71,85.66667a6.6259,6.6259,0,0,1-3.38135-.92828l9.11974-9.11974A6.65718,6.65718,0,0,1,71,85.66667Z"/>
</svg>
