<svg xmlns="http://www.w3.org/2000/svg" viewBox="0 0 100 100">
  <defs>
    <style>
      .a {
        fill: #ff8787;
      }

      .b {
        fill: #aa8d72;
      }

      .c {
        fill: #f0d5a8;
      }

      .d {
        fill: #fff5e3;
        opacity: 0.7;
        isolation: isolate;
      }

      .e, .i {
        fill: none;
      }

      .e, .f, .i {
        stroke: #191816;
        stroke-linejoin: round;
      }

      .e, .f {
        stroke-linecap: round;
      }

      .f {
        fill: #fff;
      }

      .g {
        fill: #ff6242;
      }

      .h {
        fill: #ff866e;
      }
    </style>
  </defs>
  <title>Artboard 1</title>
  <circle class="a" cx="50" cy="50" r="39"/>
  <g>
    <g>
      <polygon class="b" points="30.2 40.6 36.1 29.5 63.5 29.5 69.8 40.8 30.2 40.6"/>
      <path class="c" d="M31.5,40.4H68.1a1.538,1.538,0,0,1,1.5,1.5V68.5A1.538,1.538,0,0,1,68.1,70H31.5A1.538,1.538,0,0,1,30,68.5V41.9A1.47268,1.47268,0,0,1,31.5,40.4Z"/>
      <path class="d" d="M30,56.7,46.3,40.4H32a2.00588,2.00588,0,0,0-2,2Z"/>
      <path class="e" d="M63.6,29.5l6.2,11.3V68.5A1.538,1.538,0,0,1,68.3,70H31.5A1.538,1.538,0,0,1,30,68.5V40.7l6.2-11.2Z"/>
      <rect class="f" x="50.2" y="57.3" width="13.2" height="6.3"/>
      <line class="e" x1="30" y1="40.7" x2="69.7" y2="40.7"/>
      <line class="e" x1="49.8" y1="29.6" x2="49.8" y2="40.6"/>
    </g>
    <g>
      <path class="g" d="M79.7,46.7a1.872,1.872,0,0,0,0-2.6h0l-5.2-5.2a.85416.85416,0,0,1,0-1.3l5.2-5.2a1.872,1.872,0,0,0,0-2.6h0l-3.3-3.3a1.872,1.872,0,0,0-2.6,0l-5.2,5.2a.85265.85265,0,0,1-1.3,0L62,26.4a1.872,1.872,0,0,0-2.6,0l-3.3,3.3a1.872,1.872,0,0,0,0,2.6h0l5.2,5.2a.85416.85416,0,0,1,0,1.3L56.1,44a1.872,1.872,0,0,0,0,2.6h0l3.3,3.3a1.872,1.872,0,0,0,2.6,0h0l5.2-5.2a.85265.85265,0,0,1,1.3,0l5.2,5.2a1.872,1.872,0,0,0,2.6,0h0Z"/>
      <path class="h" d="M73.8,26.4l-5.2,5.2a.85265.85265,0,0,1-1.3,0L62,26.4a1.872,1.872,0,0,0-2.6,0l-3.3,3.3a1.872,1.872,0,0,0,0,2.6h0l5.2,5.2a.85416.85416,0,0,1,0,1.3L56.1,44a1.872,1.872,0,0,0,0,2.6h0l2,2L78.5,28.3l-2-2a2.00324,2.00324,0,0,0-2.7.1Z"/>
      <path class="i" d="M79.7,46.7a1.872,1.872,0,0,0,0-2.6h0l-5.2-5.2a.85416.85416,0,0,1,0-1.3l5.2-5.2a1.872,1.872,0,0,0,0-2.6h0l-3.3-3.3a1.872,1.872,0,0,0-2.6,0l-5.2,5.2a.85265.85265,0,0,1-1.3,0L62,26.4a1.872,1.872,0,0,0-2.6,0l-3.3,3.3a1.872,1.872,0,0,0,0,2.6h0l5.2,5.2a.85416.85416,0,0,1,0,1.3L56.1,44a1.872,1.872,0,0,0,0,2.6h0l3.3,3.3a1.872,1.872,0,0,0,2.6,0h0l5.2-5.2a.85265.85265,0,0,1,1.3,0l5.2,5.2a1.872,1.872,0,0,0,2.6,0h0Z"/>
    </g>
  </g>
</svg>
