<svg xmlns="http://www.w3.org/2000/svg" xmlns:xlink="http://www.w3.org/1999/xlink" viewBox="0 0 100 112">
  <defs>
    <style>
      .a {
        fill: #ffad26;
      }

      .b {
        fill: #df4c53;
      }

      .c {
        fill: #95c15d;
      }

      .d {
        fill: #4bafff;
      }

      .e {
        fill: #8e459a;
      }

      .f {
        opacity: 0.13;
      }

      .g {
        fill: url(#a);
      }

      .h {
        fill: #fff;
      }

      .i {
        fill: #e8f4fa;
      }

      .j, .m {
        fill: none;
        stroke: #191816;
        stroke-linejoin: round;
      }

      .j {
        stroke-linecap: round;
      }

      .k {
        fill: #ff6242;
      }

      .l {
        fill: #ff866e;
      }
    </style>
    <linearGradient id="a" x1="39.0484" y1="35.94341" x2="45.1451" y2="85.59695" gradientTransform="matrix(1, 0, 0, -1, -0.7, 115.8)" gradientUnits="userSpaceOnUse">
      <stop offset="0.3505" stop-color="#f5eb0c"/>
      <stop offset="0.4094" stop-color="#f5eb20"/>
      <stop offset="0.5369" stop-color="#f7ee6b"/>
      <stop offset="0.7217" stop-color="#fcf9d7"/>
      <stop offset="0.7878" stop-color="#fff"/>
    </linearGradient>
  </defs>
  <title>Artboard 1</title>
  <circle class="a" cx="50" cy="56" r="39"/>
  <g>
    <path class="b" d="M42.99893,78.05156a1.59431,1.59431,0,0,0,1.37562,1.79061h.22287a1.5975,1.5975,0,0,0,1.59849-1.40636l3.89632-28.25791-2.30551-6.87043Z"/>
    <path class="a" d="M45.83471,34.27755l-6.04044,43.774a1.59431,1.59431,0,0,0,1.37562,1.79061h.22287a1.5975,1.5975,0,0,0,1.59849-1.40636l5.149-37.28783Z"/>
    <path class="c" d="M34.9988,79.8268a2.17039,2.17039,0,0,1-.22287-.01537,1.60027,1.60027,0,0,1-1.36794-1.7983h0l6.40164-46.39461a1.584,1.584,0,0,1,1.75219-1.37562c.01537,0,.03074.00768.04611.00768a1.60452,1.60452,0,0,1,1.36794,1.7983h0L36.57423,78.44349A1.58522,1.58522,0,0,1,34.9988,79.8268Z"/>
    <path class="d" d="M31.80182,79.8268a2.1704,2.1704,0,0,1-.22287-.01537,1.60027,1.60027,0,0,1-1.36794-1.7983h0l6.40164-46.40229a1.584,1.584,0,0,1,1.75219-1.37562c.01537,0,.03074.00768.04611.00768a1.60452,1.60452,0,0,1,1.36794,1.7983h0l-6.394,46.40229A1.59865,1.59865,0,0,1,31.80182,79.8268Z"/>
    <path class="e" d="M28.60484,79.8268a2.1704,2.1704,0,0,1-.22287-.01537,1.60027,1.60027,0,0,1-1.36794-1.7983h0l6.40164-46.39461a1.584,1.584,0,0,1,1.75219-1.37562c.01537,0,.03074.00768.04611.00768a1.60452,1.60452,0,0,1,1.36794,1.7983h0L30.18027,78.44349A1.591,1.591,0,0,1,28.60484,79.8268Z"/>
    <polygon class="f" points="45.224 38.824 49.788 52.482 49.341 55.541 44.706 42.259 45.224 38.824"/>
    <polyline class="f" points="46.188 41.875 45.721 44.544 39.781 78.563 45.219 39.031"/>
    <path class="g" d="M38.20346,79.8268a2.17039,2.17039,0,0,1-.22287-.01537,1.60027,1.60027,0,0,1-1.36794-1.7983h0l6.40164-46.39461a1.584,1.584,0,0,1,1.75219-1.37562c.01537,0,.03074.00768.04611.00768a1.60452,1.60452,0,0,1,1.36794,1.7983h0L39.77889,78.44349A1.591,1.591,0,0,1,38.20346,79.8268Z"/>
    <path class="h" d="M66.58432,31.64158A1.77726,1.77726,0,0,0,65.055,30.15837a1.68227,1.68227,0,0,0-1.70608,1.45247L55.30268,59.17709,46.10335,31.30155a1.489,1.489,0,0,1,.03074.52258l-.991,6.85695,8.7379,26.36738a1.59666,1.59666,0,0,0,3.051-.0538l7.5006-25.62193L69.812,78.36664A1.59865,1.59865,0,0,0,71.39516,79.75a2.17044,2.17044,0,0,0,.22287-.01537,1.60452,1.60452,0,0,0,1.36794-1.7983h0Z"/>
  </g>
  <g>
    <path class="h" d="M93.92372,80.9696A7.70431,7.70431,0,0,0,81.7,73.05551a15.60243,15.60243,0,0,0-21.94005-1.72386,15.78763,15.78763,0,0,0-5.485,11.7536v.07836a3.815,3.815,0,0,0-.94029-.07836,7.75738,7.75738,0,0,0,0,15.51475H88.282a9.71458,9.71458,0,0,0,9.71631-9.71284v-.08182A10.02418,10.02418,0,0,0,93.92372,80.9696Z"/>
    <path class="i" d="M88.282,93.58513H53.25626a7.84562,7.84562,0,0,1-7.36559-5.24994,6.73207,6.73207,0,0,0-.39179,2.50744A7.75894,7.75894,0,0,0,53.1779,98.6H88.282a9.71458,9.71458,0,0,0,9.71631-9.71284v-.00346h0a8.80367,8.80367,0,0,0-.31343-2.50744A9.80412,9.80412,0,0,1,88.282,93.58513Z"/>
    <path class="j" d="M93.92372,80.9696A7.70431,7.70431,0,0,0,81.7,73.05551a15.60243,15.60243,0,0,0-21.94005-1.72386,15.78763,15.78763,0,0,0-5.485,11.7536v.07836a3.815,3.815,0,0,0-.94029-.07836,7.75738,7.75738,0,0,0,0,15.51475H88.282a9.71458,9.71458,0,0,0,9.71631-9.71284v-.08182A10.02418,10.02418,0,0,0,93.92372,80.9696Z"/>
  </g>
  <g>
    <path class="k" d="M78,77.96137A.94907.94907,0,0,0,77.03863,77H74.57511a.94907.94907,0,0,0-.96137.96137V91.30043a.94907.94907,0,0,0,.96137.96137h2.40343a.94907.94907,0,0,0,.96137-.96137V77.96137Z"/>
    <path class="l" d="M76.97854,77H74.515a.94907.94907,0,0,0-.96137.96137V84.6309L78,80.18455V78.02146A1.01274,1.01274,0,0,0,76.97854,77Z"/>
    <path class="m" d="M78,77.96137A.94907.94907,0,0,0,77.03863,77H74.57511a.94907.94907,0,0,0-.96137.96137V91.30043a.94907.94907,0,0,0,.96137.96137h2.40343a.94907.94907,0,0,0,.96137-.96137V77.96137Z"/>
    <path class="k" d="M68.38627,77.96137A.94907.94907,0,0,0,67.42489,77H64.96137A.94907.94907,0,0,0,64,77.96137V91.30043a.94907.94907,0,0,0,.96137.96137h2.46352a.94907.94907,0,0,0,.96137-.96137Z"/>
    <path class="l" d="M67.42489,77H64.96137A.94907.94907,0,0,0,64,77.96137V84.6309l4.44635-4.44635V78.02146A1.05165,1.05165,0,0,0,67.42489,77Z"/>
    <path class="m" d="M68.38627,77.96137A.94907.94907,0,0,0,67.42489,77H64.96137A.94907.94907,0,0,0,64,77.96137V91.30043a.94907.94907,0,0,0,.96137.96137h2.46352a.94907.94907,0,0,0,.96137-.96137Z"/>
  </g>
</svg>
