<?xml version="1.0" encoding="utf-8"?>
<!-- Generator: Adobe Illustrator 21.1.0, SVG Export Plug-In . SVG Version: 6.00 Build 0)  -->
<svg version="1.1" id="Layer_1" xmlns="http://www.w3.org/2000/svg" xmlns:xlink="http://www.w3.org/1999/xlink" x="0px" y="0px"
	 viewBox="0 0 100 112" style="enable-background:new 0 0 100 112;" xml:space="preserve">
<style type="text/css">
	.st0{fill:#FF8787;}
	.st1{fill:#AA8D72;}
	.st2{fill:#F0D5A8;}
	.st3{opacity:0.7;fill:#FFF5E3;enable-background:new    ;}
	.st4{fill:none;stroke:#191816;stroke-linecap:round;stroke-linejoin:round;}
	.st5{fill:#FFFFFF;stroke:#191816;stroke-linecap:round;stroke-linejoin:round;}
	.st6{fill:#FF6242;}
	.st7{fill:#FF866E;}
	.st8{fill:none;stroke:#191816;stroke-linejoin:round;}
</style>
<title>Artboard 1</title>
<circle class="st0" cx="50" cy="56" r="39"/>
<g>
	<g>
		<polygon class="st1" points="30.2,46.6 36.1,35.5 63.5,35.5 69.8,46.8 		"/>
		<path class="st2" d="M31.5,46.4h36.6c0.8,0,1.5,0.7,1.5,1.5v26.6c0,0.8-0.7,1.5-1.5,1.5H31.5c-0.8,0-1.5-0.7-1.5-1.5V47.9
			C30,47,30.7,46.4,31.5,46.4z"/>
		<path class="st3" d="M30,62.7l16.3-16.3H32c-1.1,0-2,0.9-2,2V62.7z"/>
		<path class="st4" d="M63.6,35.5l6.2,11.3v27.7c0,0.8-0.7,1.5-1.5,1.5H31.5c-0.8,0-1.5-0.7-1.5-1.5V46.7l6.2-11.2H63.6z"/>
		<rect x="50.2" y="63.3" class="st5" width="13.2" height="6.3"/>
		<line class="st4" x1="30" y1="46.7" x2="69.7" y2="46.7"/>
		<line class="st4" x1="49.8" y1="35.6" x2="49.8" y2="46.6"/>
	</g>
	<g>
		<path class="st6" d="M79.7,52.7c0.7-0.7,0.7-1.9,0-2.6l0,0l-5.2-5.2c-0.4-0.4-0.4-0.9,0-1.3l5.2-5.2c0.7-0.7,0.7-1.9,0-2.6l0,0
			l-3.3-3.3c-0.7-0.7-1.9-0.7-2.6,0l-5.2,5.2c-0.4,0.4-1,0.4-1.3,0L62,32.4c-0.7-0.7-1.9-0.7-2.6,0l-3.3,3.3c-0.7,0.7-0.7,1.9,0,2.6
			l0,0l5.2,5.2c0.4,0.4,0.4,0.9,0,1.3L56.1,50c-0.7,0.7-0.7,1.9,0,2.6l0,0l3.3,3.3c0.7,0.7,1.9,0.7,2.6,0l0,0l0,0l5.2-5.2
			c0.4-0.4,1-0.4,1.3,0l5.2,5.2c0.7,0.7,1.9,0.7,2.6,0l0,0L79.7,52.7z"/>
		<path class="st7" d="M73.8,32.4l-5.2,5.2c-0.4,0.4-1,0.4-1.3,0L62,32.4c-0.7-0.7-1.9-0.7-2.6,0l-3.3,3.3c-0.7,0.7-0.7,1.9,0,2.6
			l0,0l5.2,5.2c0.4,0.4,0.4,0.9,0,1.3L56.1,50c-0.7,0.7-0.7,1.9,0,2.6l0,0l2,2l20.4-20.3l-2-2C75.8,31.7,74.6,31.6,73.8,32.4
			C73.8,32.3,73.8,32.3,73.8,32.4L73.8,32.4z"/>
		<path class="st8" d="M79.7,52.7c0.7-0.7,0.7-1.9,0-2.6l0,0l-5.2-5.2c-0.4-0.4-0.4-0.9,0-1.3l5.2-5.2c0.7-0.7,0.7-1.9,0-2.6l0,0
			l-3.3-3.3c-0.7-0.7-1.9-0.7-2.6,0l-5.2,5.2c-0.4,0.4-1,0.4-1.3,0L62,32.4c-0.7-0.7-1.9-0.7-2.6,0l-3.3,3.3c-0.7,0.7-0.7,1.9,0,2.6
			l0,0l5.2,5.2c0.4,0.4,0.4,0.9,0,1.3L56.1,50c-0.7,0.7-0.7,1.9,0,2.6l0,0l3.3,3.3c0.7,0.7,1.9,0.7,2.6,0l0,0l0,0l5.2-5.2
			c0.4-0.4,1-0.4,1.3,0l5.2,5.2c0.7,0.7,1.9,0.7,2.6,0l0,0L79.7,52.7z"/>
	</g>
</g>
</svg>
