<svg xmlns="http://www.w3.org/2000/svg" xmlns:xlink="http://www.w3.org/1999/xlink" viewBox="0 0 100 112">
  <defs>
    <style>
      .a {
        fill: #e8f4fa;
      }

      .b {
        fill: #191816;
        opacity: 0.15;
      }

      .b, .g, .i, .p {
        isolation: isolate;
      }

      .c, .h, .j {
        fill: #fff;
      }

      .d, .m {
        fill: none;
      }

      .d, .h {
        stroke: #191816;
        stroke-linejoin: round;
      }

      .d, .h, .m {
        stroke-linecap: round;
      }

      .e {
        fill: #aa8d72;
      }

      .f {
        fill: #f0d5a8;
      }

      .g {
        fill: #fff5e3;
        opacity: 0.7;
      }

      .i {
        opacity: 0.25;
        fill: url(#a);
      }

      .j, .k, .m, .n, .o {
        stroke: #000;
      }

      .k, .l {
        fill: #ab1aff;
      }

      .n {
        fill: #8d19e0;
      }

      .o {
        fill: #b06cff;
      }

      .p {
        opacity: 0.3;
      }
    </style>
    <linearGradient id="a" x1="98.45883" y1="58.09318" x2="97.98463" y2="58.83278" gradientTransform="matrix(12.9, 0, 0, -19, -1207.40006, 1173.3)" gradientUnits="userSpaceOnUse">
      <stop offset="0.0012" stop-opacity="0"/>
      <stop offset="1"/>
    </linearGradient>
  </defs>
  <title>Artboard 1</title>
  <circle class="a" cx="50" cy="56" r="39"/>
  <ellipse class="b" cx="50" cy="85" rx="29" ry="1.9"/>
  <g>
    <path class="c" d="M74.3,45.1A9.83227,9.83227,0,0,0,58.7,35a19.91189,19.91189,0,0,0-28-2.2,20.14825,20.14825,0,0,0-7,15v.1a4.86871,4.86871,0,0,0-1.2-.1,9.9,9.9,0,0,0,0,19.8H67.1A12.39779,12.39779,0,0,0,79.5,55.2v-.1A12.7929,12.7929,0,0,0,74.3,45.1Z"/>
    <path class="a" d="M67.1,61.2H22.4A10.01262,10.01262,0,0,1,13,54.5a8.5915,8.5915,0,0,0-.5,3.2,9.902,9.902,0,0,0,9.8,9.9H67.1A12.39779,12.39779,0,0,0,79.5,55.2h0a11.23541,11.23541,0,0,0-.4-3.2A12.51207,12.51207,0,0,1,67.1,61.2Z"/>
    <path class="d" d="M74.3,45.1A9.83227,9.83227,0,0,0,58.7,35a19.91189,19.91189,0,0,0-28-2.2,20.14825,20.14825,0,0,0-7,15v.1a4.86871,4.86871,0,0,0-1.2-.1,9.9,9.9,0,0,0,0,19.8H67.1A12.39779,12.39779,0,0,0,79.5,55.2v-.1A12.7929,12.7929,0,0,0,74.3,45.1Z"/>
  </g>
  <g>
    <polygon class="e" points="33.15 46.9 38.15 37.4 61.65 37.4 67.05 47.1 33.15 46.9"/>
    <path class="f" d="M34.25,46.7h31.4a1.32372,1.32372,0,0,1,1.3,1.3V70.8a1.32372,1.32372,0,0,1-1.3,1.3H34.25a1.32372,1.32372,0,0,1-1.3-1.3V48A1.32372,1.32372,0,0,1,34.25,46.7Z"/>
    <path class="g" d="M32.95,60.7l14-14H34.65a1.75238,1.75238,0,0,0-1.7,1.7Z"/>
    <path class="d" d="M61.75,37.4l5.3,9.7V70.8a1.32372,1.32372,0,0,1-1.3,1.3H34.25a1.32372,1.32372,0,0,1-1.3-1.3V47l5.3-9.6Z"/>
    <rect class="h" x="50.25" y="61.2" width="11.3" height="5.4"/>
    <line class="d" x1="32.95" y1="47" x2="66.95" y2="47"/>
    <line class="d" x1="49.95" y1="37.5" x2="49.95" y2="46.9"/>
  </g>
  <path class="i" d="M67,71V61.3a8.02784,8.02784,0,0,0-5.4,1.4l-5.3-9.9s-2.1.3-2.2.1l4.5,11.3c-2.5,2.4-2.8,6.2-2.8,7.5l9.8.1Z"/>
  <g>
    <path class="j" d="M60.2,46.2s-4.8,5.5-5.4,6.2c-.9,1,1.1,2.5,1.9,1.6,1-1.1,5.3-6,5.3-6Z"/>
    <path class="k" d="M73.5,48.8c-2.9,3.4-8.8,3.1-13-.6-4.3-3.7-5.4-9.4-2.5-12.8s9.4-3.7,13.7,0C75.9,39,76.4,45.4,73.5,48.8Z"/>
    <polygon class="l" points="61.2 38.7 74.9 25.5 81 30.7 69.3 46.1 61.2 38.7"/>
    <line class="m" x1="74.7" y1="25.6" x2="63.2" y2="36.7"/>
    <line class="m" x1="80.8" y1="30.9" x2="71" y2="44"/>
    <ellipse class="n" cx="78.52499" cy="26.87019" rx="5.79988" ry="8.49982" transform="translate(8.72197 71.76696) rotate(-51.63907)"/>
    <ellipse class="o" cx="79.90907" cy="25.32849" rx="5.79988" ry="8.49982" transform="translate(10.45594 72.26734) rotate(-51.63907)"/>
    <path class="p" d="M75.6,32,66.7,43.2l-2.5,7.1s7.2,2.8,10.2-3a8.52976,8.52976,0,0,0,0-8.2l4.2-5.6,4.8-.1.7-1.1-5.4-1.2Z"/>
  </g>
</svg>
