<svg xmlns="http://www.w3.org/2000/svg" xmlns:xlink="http://www.w3.org/1999/xlink" viewBox="0 0 100 112">
  <defs>
    <style>
      .a {
        fill: #e8f4fa;
      }

      .b {
        fill: #191816;
        opacity: 0.15;
      }

      .b, .g, .i, .p {
        isolation: isolate;
      }

      .c, .h, .j {
        fill: #fff;
      }

      .d, .m {
        fill: none;
      }

      .d, .h {
        stroke: #191816;
        stroke-linejoin: round;
      }

      .d, .h, .m {
        stroke-linecap: round;
      }

      .e {
        fill: #aa8d72;
      }

      .f {
        fill: #f0d5a8;
      }

      .g {
        fill: #fff5e3;
        opacity: 0.7;
      }

      .i {
        opacity: 0.2;
        fill: url(#a);
      }

      .j, .k, .m, .n, .o {
        stroke: #000;
      }

      .k, .l {
        fill: #ab1aff;
      }

      .n {
        fill: #8d19e0;
      }

      .o {
        fill: #b06cff;
      }

      .p {
        opacity: 0.3;
      }
    </style>
    <linearGradient id="a" x1="96.22038" y1="80.08803" x2="93.77537" y2="81.86813" gradientTransform="matrix(6.4, 0, 0, -4.4, -546.30001, 425.20011)" gradientUnits="userSpaceOnUse">
      <stop offset="0.0012" stop-opacity="0"/>
      <stop offset="1"/>
    </linearGradient>
  </defs>
  <title>Artboard 1</title>
  <circle class="a" cx="50" cy="56" r="39"/>
  <ellipse class="b" cx="48" cy="85" rx="25" ry="1.9"/>
  <g>
    <path class="c" d="M69.8,45.1A9.83227,9.83227,0,0,0,54.2,35a19.91189,19.91189,0,0,0-28-2.2,20.14825,20.14825,0,0,0-7,15v.1a4.86871,4.86871,0,0,0-1.2-.1,9.9,9.9,0,0,0,0,19.8H62.6A12.39779,12.39779,0,0,0,75,55.2v-.1A12.79291,12.79291,0,0,0,69.8,45.1Z"/>
    <path class="a" d="M62.6,61.2H17.9a10.01262,10.01262,0,0,1-9.4-6.7A8.59149,8.59149,0,0,0,8,57.7a9.902,9.902,0,0,0,9.8,9.9H62.6A12.39779,12.39779,0,0,0,75,55.2h0a11.23541,11.23541,0,0,0-.4-3.2A12.51207,12.51207,0,0,1,62.6,61.2Z"/>
    <path class="d" d="M69.8,45.1A9.83227,9.83227,0,0,0,54.2,35a19.91189,19.91189,0,0,0-28-2.2,20.14825,20.14825,0,0,0-7,15v.1a4.86871,4.86871,0,0,0-1.2-.1,9.9,9.9,0,0,0,0,19.8H62.6A12.39779,12.39779,0,0,0,75,55.2v-.1A12.79291,12.79291,0,0,0,69.8,45.1Z"/>
  </g>
  <g>
    <polygon class="e" points="14.1 64.1 16.4 53.7 39.1 47.5 46.8 55.4 14.1 64.1"/>
    <path class="f" d="M15.2,63.6l30.3-8.3a1.28413,1.28413,0,0,1,1.6.9h0l6,22a1.28413,1.28413,0,0,1-.9,1.6h0L21.9,88a1.28413,1.28413,0,0,1-1.6-.9h0l-6-22C14,64.5,14.5,63.8,15.2,63.6Z"/>
    <path class="g" d="M17.6,77.4l9.8-17.2L15.5,63.5a1.79139,1.79139,0,0,0-1.2,2.1Z"/>
    <path class="d" d="M39.3,47.5l7.6,7.9,6.2,22.9a1.28413,1.28413,0,0,1-.9,1.6h0L21.9,88.1a1.28413,1.28413,0,0,1-1.6-.9h0l-6.2-23,2.6-10.6Z"/>
    <rect class="h" x="34.89602" y="71.79535" width="11.29955" height="5.39979" transform="translate(-18.10841 13.23198) rotate(-15.19532)"/>
    <line class="d" x1="14" y1="64.2" x2="46.8" y2="55.3"/>
    <line class="d" x1="27.9" y1="50.7" x2="30.3" y2="59.7"/>
  </g>
  <path class="i" d="M53.9,63.6s-.2.5-.4.3L57.1,68h2.8Z"/>
  <g>
    <polygon class="j" points="65.1 40.7 59.8 46.9 56.7 52.4 61.7 48.4 66.9 42.4 65.1 40.7"/>
    <path class="k" d="M78.4,43.3c-2.9,3.4-8.8,3.1-13-.6C61.1,39,60,33.3,62.9,29.9s9.4-3.7,13.7,0C80.8,33.5,81.3,39.9,78.4,43.3Z"/>
    <polygon class="l" points="66.1 33.2 79.8 20 85.9 25.2 74.2 40.6 66.1 33.2"/>
    <line class="m" x1="79.6" y1="20.1" x2="68.1" y2="31.3"/>
    <line class="m" x1="85.7" y1="25.4" x2="75.9" y2="38.5"/>
    <ellipse class="n" cx="83.48573" cy="21.25913" rx="5.79988" ry="8.49982" transform="translate(15.00374 73.52799) rotate(-51.63907)"/>
    <ellipse class="o" cx="84.80106" cy="19.83899" rx="5.79988" ry="8.49982" transform="translate(16.61631 74.02059) rotate(-51.63907)"/>
    <path class="p" d="M80.5,26.5,71.6,37.7l-2.5,7.1s7.2,2.8,10.2-3a8.52976,8.52976,0,0,0,0-8.2L83.5,28l4.8-.1.7-1.1-5.4-1.2Z"/>
  </g>
  <path class="m" d="M18.2,88.4a2.55979,2.55979,0,0,0,2.5,2"/>
  <path class="m" d="M16.4,89.4a3.84366,3.84366,0,0,0,3.7,2.9"/>
  <path class="m" d="M41.7,45.6a3.13833,3.13833,0,0,0-3.8-1"/>
</svg>
