<svg id="svg2" xmlns="http://www.w3.org/2000/svg" height="50mm" width="50mm" version="1.1"  viewBox="0 0 177.16536 177.16535">
  <g id="layer1" transform="translate(-164.6 -442.73)">
    <g id="g3484" transform="translate(-121.9 -37.427)">
      <path id="path3498" fill="#d1dac8" d="m381.57 632.83c-2.1189-0.3598-1.9874 0.0632-3.3081-10.642l-0.49528-4.0149 2.1435 0.42673c9.4364 1.8786 13.452 1.4296 16.755-1.8735 1.2451-1.2451 2.2638-2.8608 2.2638-3.5904 0-0.72963-2.9552-7.3693-6.5671-14.755-3.6119-7.3855-7.7711-15.93-9.2426-18.988l-2.6755-5.5597-6.2271 12.685c-3.4249 6.9766-7.7247 15.807-9.5551 19.622l-3.328 6.9375h-10.298-10.298l-10.091-21.137-10.091-21.137-0.24323 5.5749-0.24324 5.5749-4.4814 2.8125c-2.4648 1.5469-4.8022 2.8125-5.1943 2.8125-1.3111 0-0.73154-2.893 0.66856-3.3374 1.8116-0.57498 5.0197-4.0116 4.3604-4.6709-0.2828-0.28282-1.6853 0.62091-3.1167 2.0083-3.0325 2.9392-3.8652 2.7131-2.2121-0.60065 0.89228-1.7886 0.97566-2.7062 0.35186-3.8718-0.71779-1.3412-0.59607-1.5276 0.99758-1.5276 1.9991 0 4.2376-2.7438 4.2376-5.194 0-0.82325 0.44833-1.9156 0.99629-2.4275 1.4657-1.3691-2.5498-5.1285-5.4779-5.1285-1.1989 0-2.3885-0.3375-2.6434-0.75-0.30351-0.49109 5.0863-0.75 15.613-0.75h16.077l4.2715 12.188c2.3493 6.7031 4.8682 13.831 5.5976 15.84l1.326 3.6521 2.076-5.5271c1.1418-3.0399 3.5264-9.5771 5.299-14.527 1.7727-4.95 3.4599-9.5906 3.7494-10.312 0.48064-1.1985 2.0776-1.3125 18.392-1.3125h17.866l1.6177 4.3125c1.3585 3.6215 8.7101 24.29 9.937 27.938 0.49499 1.4714 0.23994 2.1299 6.391-16.5l5.0764-15.375 8.9273-0.21246c7.8877-0.18773 9.0476-0.38423 9.9604-1.6875 0.56823-0.81127 1.4968-1.475 2.0635-1.475 0.56667 0 1.1382-0.75938 1.27-1.6875 0.13181-0.92812 0.60515-1.6875 1.0518-1.6875 0.44671 0 1.7071-1.0125 2.8009-2.25 1.9714-2.2304 1.9928-2.2353 2.4628-0.5625 0.35753 1.2727 1.0517 1.7005 2.8241 1.7402 5.3685 0.12043 5.8259 1.5637 1.3528 4.2686l-2.4972 1.51 1.702 1.1921c0.93608 0.65565 1.5536 1.322 1.3722 1.4808-0.18136 0.15879-2.2834 0.48101-4.6712 0.71605l-4.3415 0.42734-0.44754-2.2377c-0.34322-1.7161-0.80348-2.1849-1.9748-2.0113-2.13 0.31569-2.5565 2.1014-0.50199 2.1014 1.1045 0 1.51 0.34604 1.2374 1.0562-0.25984 0.67714 0.25806 1.2227 1.443 1.5201 1.0166 0.25515 2.4697 1.4857 3.2292 2.7345 1.0751 1.7679 1.4804 2.0111 1.8307 1.0984 0.24741-0.64473 1.298-1.5587 2.3347-2.0311 1.6605-0.75658 2.0662-0.62834 3.4078 1.0772 0.83758 1.0648 2.6988 2.3241 4.1362 2.7985 1.4373 0.47435 2.6133 1.1106 2.6133 1.414 0 0.30334-0.98942 1.4994-2.1987 2.658-2.0945 2.0066-2.1814 2.3422-1.8327 7.0778 0.49717 6.7527-0.37675 7.9318-3.6234 4.8885-4.5082-4.2258-5.5971-4.6957-8.9254-3.8509-2.141 0.54345-2.8829 1.0732-2.5861 1.8467 0.22892 0.59656 0.41622 2.0582 0.41622 3.248v2.1634l2.5539-1.5068c3.1704-1.8706 6.0845-1.3067 7.5333 1.4578 0.56916 1.086 2.2449 3.1377 3.7238 4.5592 1.479 1.4215 2.689 3.0019 2.689 3.512 0 1.1619-2.2679 1.9002-6.6926 2.1786-3.1764 0.19993-3.5261 0.42906-4.7242 3.0954-0.71164 1.5837-1.3027 3.5637-1.3136 4.4-0.0209 1.6163-1.9708 4.8544-2.9233 4.8544-0.7797 0-3.0964-4.9856-3.0964-6.6635 0-0.74945-0.35438-2.3792-0.78752-3.6217l-0.78752-2.2591-5.2125 0.37295c-3.1929 0.22845-5.2125 0.0851-5.2125-0.36997 0-0.40861 1.1559-2.2567 2.5686-4.1069 1.464-1.9174 2.6735-4.4575 2.8125-5.9068 0.32666-3.4059 3.4597-4.7272 5.9733-2.5192 1.5442 1.3564 1.6177 1.3612 1.1477 0.0754-0.27621-0.75561-0.50218-1.6201-0.50218-1.9211 0-0.30098-0.68815-1.2859-1.5292-2.1887-3.2889-3.5302-3.6853-2.9565-12.987 18.796-9.6618 22.595-12.17 26.717-18.109 29.757-3.4923 1.7882-4.5232 1.9278-15 2.0322-6.1875 0.0616-12.143-0.0395-13.234-0.22476zm62.306-56.646c0.029-1.11-0.28478-2.2268-0.69728-2.4818-1.2359-0.76381-0.86005-1.7683 1.1557-3.0891 1.5108-0.9899 2.2805-1.0779 3.714-0.42477 1.5674 0.71417 1.7479 0.65342 1.3553-0.45611-0.8321-2.3512-2.6884-3.9051-4.6537-3.8957-1.7298 0.008-2.1899 0.64344-4.137 5.711-2.0034 5.2143-2.0826 5.7621-0.92651 6.4091 0.69529 0.38911 1.6811 1.1591 2.1907 1.7111 0.76878 0.83275 1.0133 0.79343 1.4363-0.23092 0.28039-0.67898 0.53351-2.1427 0.5625-3.2528zm-116.2-8.8568c3.1478-1.7234 2.3997-2.0038-0.85526-0.32057-1.5092 0.78047-3.336 1.0431-5.4003 0.77641-2.3266-0.3006-2.6429-0.23813-1.2445 0.2458 2.9281 1.0132 4.6643 0.85081 7.5-0.70164zm9.138-2.25c0.79778 0 1.2488-0.32644 1.0022-0.72543-0.49116-0.79473-4.6008-0.22974-6.3902 0.8785-0.76581 0.47432-0.31683 0.56112 1.4062 0.27186 1.3922-0.23371 3.184-0.42493 3.9818-0.42493zm-39.888 37.89v-10.11l3.0257-1.5436c1.6642-0.84898 3.3516-1.3422 3.75-1.096 1.5006 0.92742 0.67822 3.3444-1.5257 4.4841-2.3161 1.1977-2.8118 2.1892-1.5 3 0.4125 0.25494 0.75-0.0626 0.75-0.70574 0-0.64309 0.3099-1.1693 0.68866-1.1693s1.3069-0.21842 2.0625-0.48539c1.124-0.39713 1.2034-0.30167 0.43634 0.525-2.3546 2.5376 0.39784 10.339 4.204 11.915 3.1812 1.3177 4.2573 0.7098 5.1803-2.9266 1.058-4.1684-0.0101-7.7267-3.0351-10.111-1.3264-1.0455-1.9453-1.9046-1.3752-1.9092 0.57005-0.005 2.1646-1.2045 3.5434-2.6665l2.507-2.6582 2.2471 2.4707 2.2471 2.4707 0.022 10.312 0.022 10.312h-8.946-8.946l-0.54757-4.3125c-0.30116-2.3719-0.58893-5.3916-0.63948-6.7105-0.0506-1.3189-0.38192-2.6689-0.73637-3-0.62466-0.58349-0.20508 5.4372 0.78126 11.211 0.4704 2.7534 0.43118 2.8125-1.8676 2.8125h-2.3481v-10.11zm0.14065-17.317 0.0284-4.9263 1.603 1.4576c0.88163 0.80168 2.3623 1.8491 3.2905 2.3277 3.5438 1.8272 1.0687 6.0673-3.5417 6.0673-1.238 0-1.4052-0.59647-1.3802-4.9263zm20.859 2.6739-1.875-1.4313 1.6667-1.679c2.0461-2.0613 2.6292-1.5896 2.3206 1.8769l-0.23726 2.6647-1.875-1.4313zm-18.624-8.1649c-2.2699-3.5031-2.3763-4.0068-2.3763-11.25v-7.5827h5.1582c6.4681 0 8.0382 1.2548 5.2644 4.2075-1.4338 1.5262-1.7993 2.7302-1.806 5.9489-0.005 2.2195-0.42649 4.4535-0.9375 4.9645-0.51102 0.51102-0.92912 2.3804-0.92912 4.1541 0 4.3246-1.3749 4.1856-4.3737-0.44227zm17.179-21.597c-1.001-0.20611-2.5862-0.87681-3.5228-1.4904-2.0084-1.316-7.2058-1.1382-10.224 0.34971-2.6552 1.3091-6.6367 0.12082-8.7969-2.6254-2.1528-2.7368-1.8626-6.9696 0.47787-6.9696 0.71719 0 0.21636-1.1299-1.4933-3.369-1.4148-1.8529-3.5227-5.605-4.6842-8.338-2.0758-4.8842-2.0869-4.9877-0.64945-6.0655 1.4455-1.0838 6.0442-1.0088 9.8276 0.16044 1.2669 0.39152 1.7307 0.12048 2.1508-1.2569 1.5314-5.0207 11-21.631 12.331-21.631 1.0056 0 2.7838 2.5951 4.1113 6 0.85866 2.2023 1.459 6.4455 1.7278 12.212 0.22658 4.8604 0.65489 8.9873 0.95179 9.1708s3.6217-1.1664 7.3885-2.9997c6.6447-3.234 6.8487-3.2826 6.8487-1.6289 0 2.7888-2.9097 10.559-5.6715 15.145-2.6631 4.4226-3.1938 7.634-1.847 11.176 0.60964 1.6035 0.51598 1.9252-0.5625 1.9321-0.71167 0.005-2.4752 0.1419-3.9189 0.30523-1.4438 0.16333-3.444 0.12833-4.445-0.0778zm-13.3-12.09c-1.1024-1.6554-1.3849-1.7806-1.6038-0.71088-0.14612 0.7142 0.26412 2.0549 0.91164 2.9794 0.64751 0.92446 1.2313 2.3651 1.2973 3.2015 0.066 0.83634 0.25793 0.39986 0.42648-0.96996 0.19393-1.5762-0.18484-3.2283-1.0317-4.5z"/>
      <path id="path3496" fill="#c5d1b8" d="m382.43 632.7-2.625-0.49787-0.9474-6.6776c-0.52107-3.6727-0.8491-6.7759-0.72895-6.8961 0.12015-0.12015 1.559 0.0924 3.1974 0.47221 7.8077 1.8102 14.535 0.16136 16.926-4.1486l1.2483-2.25-9.5582-19.5-9.5582-19.5-9.6078 19.708-9.6078 19.708-10.168-0.20782-10.168-0.20781-10.139-21.117-10.139-21.117-0.21783 5.9296c-0.11981 3.2613-0.46869 5.9296-0.77529 5.9296-0.30661 0-2.391 1.1812-4.6319 2.625s-4.3091 2.625-4.5958 2.625c-1.287 0 0.0221-2.1271 3.0439-4.9457 1.9872-1.8536 2.968-3.2676 2.4771-3.571-0.447-0.27627-2.0555 0.76761-3.5744 2.3197-2.4881 2.5425-2.7088 2.6363-2.2276 0.94702 0.29369-1.0312 0.583-2.7188 0.64292-3.75 0.0668-1.1502 0.90003-2.3743 2.1554-3.1667 1.4072-0.88822 2.3169-2.3656 2.9121-4.7295 0.66437-2.6385 1.1398-3.3326 2.0446-2.9854 3.3905 1.3011 7.3462 1.1773 10.218-0.31963 1.6341-0.85181 4.0534-1.5488 5.3762-1.5488 2.833 0 4.7778-0.64322 4.7778-1.5802 0-1.2468-3.6864-0.67899-8.012 1.234-2.3676 1.0471-5.3304 1.9394-6.5839 1.9828-3.0205 0.10468-7.1541-0.84439-7.1541-1.6426 0-1.4575-2.5292-2.994-4.9286-2.994-1.4143 0-2.5714-0.3375-2.5714-0.75 0-0.47591 5.6881-0.75 15.564-0.75h15.564l5.6999 16.235 5.6999 16.235 2.3788-6.6724c1.3083-3.6698 3.9675-10.976 5.9092-16.235l3.5304-9.5625h17.756 17.756l2.2368 6.1875c1.2303 3.4031 3.8703 10.828 5.8668 16.5 1.9965 5.6719 3.8098 10.312 4.0296 10.312 0.21983 0 2.7733-7.3406 5.6743-16.312l5.2746-16.312 8.9142-0.21246c7.8747-0.18769 9.0347-0.38447 9.9473-1.6875 0.56823-0.81127 1.5203-1.475 2.1156-1.475 0.59536 0 1.0825-0.675 1.0825-1.5s0.4092-1.5 0.90933-1.5c0.50012 0 1.6799-0.92812 2.6218-2.0625 1.5577-1.8761 1.8004-1.9501 2.6852-0.81927 0.53502 0.68378 2.577 1.4838 4.5377 1.7778 3.5021 0.52518 3.5412 0.56097 2.218 2.0303-0.74084 0.82266-2.1509 1.8031-3.1335 2.1787-1.7292 0.66108-1.7433 0.73067-0.44209 2.1685 0.73941 0.81704 1.2058 1.6088 1.0365 1.7596-0.16935 0.15073-2.0978 0.43835-4.2854 0.63915-3.9015 0.35813-3.9858 0.32342-4.414-1.8175-0.33274-1.6637-0.79959-2.1288-1.9637-1.9562-2.13 0.31569-2.5565 2.1014-0.50199 2.1014 1.1263 0 1.5116 0.34161 1.2258 1.0866-0.25121 0.65467 0.1563 1.2686 1.0252 1.5443 1.5362 0.48758 4.4813 3.8204 4.4813 5.0714 0 0.4125-0.6995-0.13927-1.5544-1.2261-1.006-1.279-2.2821-1.9762-3.6169-1.9762-2.0817 0-2.5174 0.7285-6.6172 11.062-0.20457 0.51562 0.11811 0.9375 0.71706 0.9375s1.7071 0.68298 2.4625 1.5177c1.0492 1.1593 1.5167 1.2922 1.9798 0.5625 0.8584-1.3526 0.77471-5.6518-0.12079-6.2052-1.3128-0.81135-0.81552-1.8026 1.5068-3.0035 1.6029-0.8289 2.6544-0.9542 3.6293-0.43247 1.1394 0.6098 1.5737 0.31279 2.5567-1.7487 1.5237-3.1952 3.9605-3.9167 5.4664-1.6184 0.6106 0.93189 2.4558 2.1384 4.1005 2.6812 1.6447 0.54279 2.9903 1.1718 2.9903 1.3977 0 0.22596-1.2492 1.6902-2.7761 3.2538-2.1611 2.2132-2.5765 3.0426-1.875 3.7441 0.98239 0.98239 1.2167 7.194 0.32429 8.5966-0.37718 0.5928-1.9192-0.16176-4.8339-2.3653-4.1254-3.1189-4.3909-3.2076-7.3509-2.4563-2.1963 0.55748-2.9523 1.0884-2.6546 1.8641 0.22892 0.59656 0.41622 2.1084 0.41622 3.3596 0 2.2455 0.0238 2.2593 1.8486 1.0637 3.0888-2.0238 6.0555-1.5673 7.968 1.2262 0.91779 1.3406 2.8344 3.6712 4.2591 5.1792 2.5089 2.6554 2.5422 2.7675 1.0567 3.5625-0.84355 0.45145-3.0669 0.82083-4.9408 0.82083-3.816 0-5.1143 1.2806-6.0833 6-0.29642 1.4438-1.0481 3.6206-1.6704 4.8374l-1.1314 2.2124-1.3793-1.7034c-0.75862-0.93686-1.5844-2.9449-1.835-4.4624-0.25063-1.5174-0.79937-3.6648-1.2194-4.7719-0.7513-1.9802-0.84801-2.0059-5.9433-1.5787-2.8487 0.23883-5.1795 0.17738-5.1795-0.13656s1.1812-2.18 2.625-4.1468 2.625-4.4066 2.625-5.4217c0-1.0152 0.70085-2.48 1.5574-3.2552 1.475-1.3349 1.6734-1.3429 3.75-0.15113 2.4298 1.3945 2.7259 0.78506 1.1238-2.3131-0.90863-1.7571-4.6782-4.37-5.3368-3.6994-0.11643 0.11857-3.7617 8.5333-8.1006 18.699-11.588 27.151-12.818 29.16-19.8 32.35-3.0347 1.3866-5.0841 1.6517-13.694 1.771-5.5688 0.0772-11.306-0.0837-12.75-0.35754zm-84.75-29.972v-10.349l2.4375-0.88141c3.4177-1.2359 3.8958-1.1452 3.8958 0.73868 0 1.1454-0.57367 1.7949-1.8542 2.0991-1.7685 0.42011-1.8536 0.69861-1.8408 6.0289 0.007 3.0736 0.29879 7.1916 0.64766 9.151 0.62372 3.5031 0.60161 3.5625-1.3258 3.5625h-1.9602v-10.349zm4.0526 6.0368c-0.95588-7.4231-0.67503-11.56 0.86101-12.683 1.7135-1.253 3.2139-1.3315 1.9864-0.10402-2.1499 2.1499-0.2393 9.1361 3.0963 11.322 3.1613 2.0713 4.926 1.6476 6.2405-1.4985 1.5533-3.7176 0.85877-7.4123-1.9352-10.295l-2.2525-2.324 2.1808-1.4657c1.1994-0.80612 2.3582-2.1443 2.5751-2.9738 0.36425-1.3929 0.59681-1.3119 3.0447 1.0607l2.6503 2.5688v10.353 10.353h-8.946-8.946l-0.55532-4.3125zm-4.1762-22.633 0.25146-4.4487 2.9076 2.0098c3.7048 2.5609 3.9372 4.899 0.60258 6.0615-3.8695 1.3489-4.0337 1.1908-3.7616-3.6226zm20.374 2.1627-1.875-1.4668 1.875-1.4668c1.8608-1.4557 1.8768-1.4557 2.1147 0 0.13182 0.80671 0.13182 2.1268 0 2.9335-0.23785 1.4557-0.25383 1.4557-2.1147 0zm-16.618-5.7792c-3.2466-3.8716-3.6319-5.281-3.6319-13.286v-7.9014h4.3566c2.5005 0 4.954 0.43683 5.7588 1.0253 1.3439 0.9827 1.3152 1.1122-0.69072 3.1182-1.8524 1.8524-2.0528 2.5102-1.7439 5.7243 0.2399 2.4967 0.0318 3.8946-0.66594 4.4737-0.59931 0.4974-1.0149 2.3401-1.0149 4.5004 0 3.887-0.58756 4.469-2.3681 2.3457zm12.493-25.126c-0.825-0.49127-3.1875-1.0716-5.25-1.2897l-3.75-0.39646-0.452-4.727c-0.45267-4.734-1.3191-6.5576-2.87-6.0407-0.54149 0.18049-0.32308 1.2669 0.6309 3.1381 0.80252 1.5741 1.5625 4.2722 1.6888 5.9958l0.2297 3.1338-3.4657 0.2251c-2.7477 0.17847-3.8838-0.13453-5.4839-1.5109-2.646-2.276-3.026-6.4972-0.69232-7.6902 1.5486-0.79172 1.5198-0.88461-1.2376-3.9918-3.388-3.8178-7.2157-12.714-5.9954-13.935 0.94975-0.94975 6.1674-1.09 9.4374-0.25371 2.2695 0.58041 2.3121 0.53546 4.7499-5.0118 2.8292-6.4378 9.5793-17.707 10.606-17.707 0.38181 0 1.1954 0.7649 1.8079 1.6998 2.4254 3.7016 3.5521 8.5684 3.8184 16.494 0.14915 4.4376 0.46275 8.3784 0.69691 8.7572 0.62583 1.0126 4.2865-0.22539 9.8253-3.3228 4.527-2.5316 4.8302-2.6032 4.8302-1.1409 0 2.7205-3.0355 10.729-5.7886 15.272-2.4554 4.0517-2.6263 4.7196-2.2552 8.8125l0.40157 4.4286-4.9914-0.0228c-2.7453-0.0125-5.6664-0.42476-6.4914-0.91604z"/>
      <path id="path3494" fill="#b6c6a6" d="m382.81 632.7c-3.3-0.5478-2.9074 0.41419-4.3691-10.703l-0.45446-3.4565 3.1586 0.61135c8.4742 1.6402 14.691 0.11629 17.128-4.1983l1.2708-2.25-9.5899-19.5-9.5899-19.5-9.6281 19.688-9.628 19.688h-10.006-10.006l-8.0511-16.688c-4.4281-9.1781-9.1123-18.881-10.409-21.562l-2.3584-4.875-0.049 6.1875c-0.0297 3.7501-0.35609 6.1875-0.82858 6.1875-0.42877 0-2.5336 1.1812-4.6775 2.625-2.1438 1.4438-4.1257 2.625-4.404 2.625-1.2924 0 0.0713-2.218 2.979-4.8448 2.345-2.1186 2.9737-3.1081 2.3568-3.7097-0.6141-0.59885-1.5315-0.0102-3.3968 2.1796-1.73 2.0309-2.5591 2.5903-2.5666 1.7318-0.006-0.69752 0.35879-1.4969 0.81094-1.7763 0.45214-0.27945 0.67994-1.4766 0.5062-2.6604-0.23339-1.5901 0.0365-2.2641 1.0334-2.5805 1.9456-0.61751 4.3883-4.3598 4.3883-6.7231 0-1.632 0.25573-1.9239 1.3125-1.4978 3.4124 1.3757 6.9065 1.2802 10.123-0.27682 1.8086-0.87551 4.3354-1.5918 5.6152-1.5918 2.7617 0 4.6996-0.65161 4.6996-1.5802 0-1.2675-4.1323-0.6517-8.137 1.2126-5.6725 2.6407-13.087 2.4553-13.978-0.34949-0.53003-1.67-3.8863-3.213-5.7216-2.6305-0.79356 0.25187-1.4138 0.0908-1.4138-0.36703 0-0.56798 4.7269-0.75418 15.562-0.61304l15.562 0.20272 5.6987 16.029 5.6987 16.029 3.5045-9.6542c1.9275-5.3098 4.585-12.607 5.9056-16.217l2.4011-6.5625h17.724 17.724l5.9109 16.5c3.251 9.075 6.0911 16.5 6.3113 16.5s2.5273-6.4969 5.1269-14.438c2.5996-7.9406 5.0808-15.366 5.5137-16.5l0.78719-2.0625h8.8826c8.115 0 8.952-0.12962 9.6854-1.5 0.44153-0.825 1.4343-1.5 2.2062-1.5 1.0342 0 1.3002-0.39466 1.0111-1.5-0.24695-0.94435-0.023-1.5 0.60454-1.5 0.54824 0 1.7674-0.92812 2.7093-2.0625 1.5984-1.9252 1.7806-1.9751 2.7358-0.75002 0.58528 0.75061 2.5664 1.524 4.6278 1.8065l3.6044 0.49405-1.8917 1.5685c-1.0404 0.86267-2.5309 1.9585-3.3121 2.4352-1.3865 0.84604-1.3846 0.89389 0.0784 2.0012 1.9454 1.4724 1.5523 1.7408-3.1863 2.1756-4.045 0.37112-4.4048 0.0968-3.981-3.0352 0.0895-0.66151-0.54835-0.91122-1.9158-0.75-2.1828 0.25734-3.4812 2.1167-1.4782 2.1167 0.65312 0 1.1875 0.48351 1.1875 1.0745 0 0.59095 0.6662 1.2859 1.4804 1.5443 1.5668 0.49729 4.5196 3.8185 4.5196 5.0835 0 0.4125-0.6995-0.13927-1.5544-1.2261-1.006-1.279-2.2821-1.9762-3.6169-1.9762-2.0817 0-2.5174 0.7285-6.6172 11.062-0.20457 0.51562 0.0643 0.9375 0.59747 0.9375 0.53318 0 1.7102 0.69595 2.6156 1.5466l1.6462 1.5466 0.84409-2.4214c0.66942-1.9203 0.62387-2.7574-0.22008-4.0455-0.5853-0.89327-0.84044-1.9628-0.56699-2.3768 0.99687-1.5092 3.4269-2.3465 5.0351-1.7351 1.3584 0.51646 1.8045 0.22128 2.7904-1.8463 1.5459-3.2417 3.954-3.8884 5.5289-1.4846 0.6508 0.99324 2.496 2.1992 4.1005 2.6799 1.6045 0.48071 2.9172 1.096 2.9172 1.3673s-1.2165 1.5702-2.7032 2.8865c-1.9726 1.7464-2.5547 2.7466-2.1536 3.7005 1.0427 2.4798 1.2761 4.6697 0.77959 7.3162l-0.49805 2.6548-3.1499-2.5452c-4.808-3.8851-5.9029-4.2943-9.1158-3.4072-2.3784 0.6567-2.7384 1.0228-2.3673 2.4066 0.24076 0.89765 0.44236 2.4303 0.44799 3.4059 0.01 1.7126 0.074 1.732 1.8588 0.5625 3.0888-2.0238 6.0555-1.5673 7.968 1.2262 0.91779 1.3406 2.8344 3.6712 4.2591 5.1792 2.5089 2.6554 2.5422 2.7675 1.0567 3.5625-0.84355 0.45145-3.0669 0.82083-4.9408 0.82083-3.9908 0-4.8598 0.98487-6.7494 7.6493-0.66654 2.3509-1.5301 4.471-1.9191 4.7114-1.1109 0.68659-2.8056-2.5894-3.7456-7.2406-0.94445-4.6733-2.0726-6.1829-3.8026-5.0887-1.1313 0.71548-8.2248 1.0133-8.2248 0.34531 0-0.20529 1.2592-2.126 2.7983-4.2682 1.6823-2.3416 2.7103-4.5664 2.5776-5.5784-0.14835-1.132 0.40906-2.096 1.7017-2.943 1.7841-1.169 2.0572-1.1712 3.7973-0.0311 1.757 1.1512 1.8748 1.1448 1.8713-0.10124-0.005-1.7486-2.9576-5.2063-4.9319-5.7754-1.421-0.40966-2.3271 1.3458-10.125 19.616-10.205 23.911-12.544 27.789-18.521 30.713-3.9256 1.9206-5.0176 2.0936-14.025 2.2213-5.3724 0.0762-11.115-0.0851-12.762-0.35845zm-85.124-29.934 0.008-10.312 2.9214-1.2265c2.9194-1.2256 2.9216-1.2252 3.2747 0.62161 0.19431 1.0165-0.0269 1.9579-0.4915 2.092-3.7344 1.0783-3.5966 0.74996-3.2284 7.6973 0.19138 3.6111 0.59118 7.6625 0.88843 9.0031 0.50246 2.2661 0.40263 2.4375-1.4197 2.4375h-1.9601l0.008-10.312zm4.1302 6.375c-0.4499-3.7682-0.6597-8.6602-0.47473-11.07 0.0478-0.62265 0.73881-1.5392 1.5356-2.0368 1.3453-0.84014 1.4195-0.72499 1.04 1.6134-0.86818 5.35 2.8409 10.93 7.265 10.93 1.7843 0 2.1717-0.42956 2.9751-3.2992 1.1803-4.2156 0.48146-7.3229-2.2468-9.9902l-2.166-2.1177 2.1723-1.46c1.1948-0.80301 2.3498-2.1386 2.5667-2.9681 0.36425-1.3929 0.59681-1.3119 3.0447 1.0607l2.6503 2.5688v10.353 10.353h-8.946-8.946l-0.47011-3.9375zm-4.1378-23.055v-4.4929l2.9715 2.0554c3.7862 2.6188 3.9794 4.7852 0.53771 6.0297-1.3699 0.49537-2.7199 0.90067-3 0.90067-0.28009 0-0.50925-2.0218-0.50925-4.4929zm20.354 2.1874-1.7706-1.4445 1.7706-1.4445c1.7479-1.426 1.7737-1.426 2.0102 0 0.13182 0.79446 0.13182 2.0945 0 2.889-0.23659 1.426-0.26234 1.426-2.0102 0zm-16.723-5.757c-3.2466-3.8716-3.6319-5.281-3.6319-13.286v-7.9014h4.4464c3.0815 0 4.8159 0.36948 5.6501 1.2037 1.1049 1.1049 1.0415 1.343-0.77262 2.9018-1.7327 1.4889-1.9438 2.1579-1.7126 5.4289 0.15382 2.1763-0.10994 4.1818-0.63304 4.8134-0.4932 0.59544-0.99945 2.673-1.125 4.6168-0.2499 3.8691-0.57128 4.1907-2.2214 2.2229zm12.118-25.312c-1.0312-0.58952-3.2672-1.0838-4.9688-1.0984-2.8572-0.0245-3.1296-0.20582-3.5625-2.3703-0.25781-1.2891-0.46875-3.2767-0.46875-4.4169 0-2.3045-2.4828-5.9329-3.2312-4.722-0.25861 0.41845 0.19386 2.0634 1.0055 3.6553 0.81164 1.592 1.4757 4.3419 1.4757 6.1109v3.2164h-3.2739c-3.7803 0-6.8015-1.9561-7.535-4.8785-0.56878-2.2662 0.64735-4.8715 2.274-4.8715 0.78636 0 0.22574-1.064-1.7332-3.2895-2.9211-3.3186-7.3636-12.736-6.5947-13.98 0.841-1.3608 5.6358-1.6503 8.9982-0.54334 1.8982 0.62493 3.3645 0.79204 3.3645 0.38345 0-2.2745 9.2013-19.181 12.556-23.07 0.1779-0.20625 0.97165 0.42454 1.7639 1.4018 2.3324 2.877 3.8062 9.3784 3.9354 17.36 0.0779 4.8141 0.45115 7.7448 1.0644 8.3578 0.75898 0.75873 2.2869 0.24938 7.7845-2.5952l6.8402-3.5392-0.48056 3.0052c-0.53726 3.3598-3.2765 9.9061-6.2807 15.009-1.9279 3.2751-2.158 5.1512-1.2185 9.9375l0.40484 2.0625-5.1221-0.0266c-3.0184-0.0157-5.8922-0.46678-6.9971-1.0984z"/>
      <path id="path3492" fill="#a4b88f" d="m383.19 632.65-3.3682-0.44986-0.546-4.125c-0.3003-2.2688-0.70231-5.2113-0.89336-6.5391l-0.34737-2.4141 6.913 0.4541c7.8262 0.51408 10.433-0.31533 13.199-4.2001l1.582-2.2217-6.4867-13.352c-3.5677-7.3436-7.8017-16.153-9.4089-19.577-1.6072-3.4237-3.1891-6.06-3.5152-5.8585-0.32616 0.20158-4.7931 8.9952-9.9265 19.541l-9.3335 19.175-10.085-0.19137-10.085-0.19136-10.165-21.256-10.165-21.256-0.21783 6.0686c-0.12191 3.3964-0.54776 6.0686-0.96709 6.0686-0.41209 0-2.5033 1.1812-4.6472 2.625-2.1438 1.4438-4.1257 2.625-4.404 2.625-1.2924 0 0.0713-2.218 2.979-4.8448 2.218-2.0038 2.9586-3.1288 2.4166-3.6708s-1.5864-0.001-3.408 1.7642c-1.4446 1.4001-2.6265 2.1619-2.6265 1.6928 0-0.46908 0.36994-1.0815 0.82209-1.3609 0.45215-0.27945 0.67935-1.4806 0.50489-2.6693-0.20813-1.4181 0.0118-2.1612 0.63975-2.1612 1.5294 0 4.7833-4.822 4.7833-7.0885 0-1.6749 0.25154-1.9705 1.3125-1.5428 3.2464 1.3088 6.9662 1.2878 9.7282-0.055 1.5589-0.7579 4.4951-1.5604 6.525-1.7833 2.0298-0.22296 3.8298-0.82724 4-1.3429 0.50533-1.5314-3.5124-1.0783-8.4406 0.95183-2.475 1.0196-5.3859 1.8553-6.4688 1.8572-3.5195 0.006-6.6562-0.91087-6.6562-1.946 0-1.4139-4.2701-3.4746-6.0375-2.9136-0.83812 0.266-1.4625 0.11591-1.4625-0.35158 0-0.56797 4.7262-0.75418 15.56-0.61304l15.56 0.20272 5.5975 15.905c3.0786 8.7477 5.7459 15.757 5.9273 15.575 0.18137-0.18138 2.791-7.0862 5.7991-15.344s5.6775-15.351 5.9319-15.763c0.28641-0.46342 7.1389-0.74847 17.993-0.74847 17.526 0 17.53 0.00038 18.047 1.6875 0.84669 2.763 10.05 28.535 10.895 30.509 0.68169 1.5928 1.4878-0.31749 6.409-15.188l5.6292-17.009h8.7839c7.8558 0 8.9196-0.15849 10.068-1.5 0.70638-0.825 1.7623-1.5 2.3465-1.5 0.69288 0 0.92577-0.52147 0.66987-1.5-0.26365-1.0082-0.023-1.5 0.73396-1.5 0.61942 0 1.6791-0.84375 2.3548-1.875 1.4824-2.2624 2.6962-2.4035 3.2267-0.375 0.317 1.2122 1.023 1.5 3.6798 1.5 3.9688 0 4.1868 1.02 0.66253 3.0994-2.9432 1.7365-3.223 2.4914-1.3188 3.5571 1.8376 1.0284 1.1152 1.4276-3.0419 1.6811-3.7444 0.22829-5.2821-0.76722-4.4668-2.8918 0.30514-0.79516-0.12569-1.0026-1.699-0.81801-2.2233 0.26081-3.5706 2.1223-1.536 2.1223 0.65312 0 1.1875 0.48783 1.1875 1.0841 0 0.59624 0.89368 1.5244 1.986 2.0625 1.0923 0.53813 2.5112 1.8222 3.1533 2.8534l1.1673 1.875-1.8891-1.6875c-1.039-0.92812-2.7487-1.6875-3.7993-1.6875-1.6697 0-2.2118 0.71861-4.3062 5.708-1.3178 3.1394-2.2927 5.7562-2.1665 5.815 0.12624 0.0589 1.3027 0.85785 2.6143 1.7755l2.3848 1.6684 0.8764-2.6555c0.72866-2.2079 0.68073-2.8717-0.28435-3.9381-1.9326-2.1355 1.4034-5.0082 4.4644-3.8444 1.3854 0.52675 1.7971 0.28609 2.5276-1.4776 0.47996-1.1587 1.6674-2.4689 2.6387-2.9114 1.5118-0.68883 1.9359-0.54539 2.9463 0.99669 0.64915 0.99074 2.5316 2.2062 4.1833 2.7011 3.5024 1.0493 3.7037 1.6686 1.0976 3.3762-2.7477 1.8004-3.5174 3.5862-2.5041 5.81 0.52047 1.1423 0.64386 3.2165 0.31986 5.377l-0.52746 3.5174-2.0039-1.8385c-4.8601-4.459-6.5967-5.2137-9.931-4.3158-2.6695 0.71884-3.0366 1.0603-2.6578 2.4725 0.24168 0.90117 0.44403 2.4065 0.44966 3.3452 0.01 1.6482 0.0862 1.6675 2.223 0.5625 3.4061-1.7614 5.8086-1.4582 7.2777 0.91824 0.70128 1.1344 2.6225 3.4835 4.2693 5.2203l2.9942 3.1578-2.0508 0.77972c-1.128 0.42885-3.3711 0.77972-4.9847 0.77972-3.4618 0-4.4484 1.2025-6.2763 7.6493-0.66654 2.3509-1.5067 4.4565-1.867 4.6792-1.1407 0.70498-2.4031-1.5926-3.5305-6.4255-1.3732-5.8864-2.0745-6.7947-4.5265-5.8625-2.0983 0.79779-6.5269 0.95052-7.2282 0.24928-0.25304-0.25304 0.87861-2.2331 2.5148-4.4002 1.905-2.5231 2.8045-4.384 2.5012-5.1745-1.0504-2.7373 4.0453-4.8141 6.2942-2.5652 0.7 0.7 0.9 0.52051 0.9-0.80769 0-1.8997-3.7723-6.0923-5.4815-6.0923-0.72185 0-4.0847 6.9875-9.8359 20.438-9.0792 21.233-11.783 26.203-15.721 28.894-4.9982 3.4156-17.327 4.7968-28.955 3.2438zm-85.507-29.685v-10.11l3-1.5305 3-1.5305v2.2131c0 1.724-0.3729 2.266-1.6875 2.4527-1.6209 0.2302-1.6846 0.52086-1.6133 7.3647 0.0408 3.9188 0.33328 8.0531 0.64993 9.1875 0.52231 1.8712 0.39369 2.0625-1.3867 2.0625h-1.9624v-10.11zm4.2269 6.6301c-0.26232-1.9138-0.47694-5.5451-0.47694-8.0696 0-3.7234 0.27347-4.7607 1.4487-5.4946 1.3453-0.84014 1.4195-0.72499 1.04 1.6134-0.86326 5.3196 2.8387 10.93 7.2118 10.93 1.5823 0 2.1856-0.51837 2.8988-2.4908 1.7568-4.8583 0.72426-9.2195-2.7165-11.474l-1.886-1.2357 2.0361-1.0668c1.1199-0.58676 2.3704-1.946 2.7789-3.0204l0.74276-1.9536 2.5977 2.5178 2.5977 2.5178v10.353 10.353h-8.8981-8.898l-0.47695-3.4797zm-4.2269-23.513v-4.4929l2.9715 2.0554c3.5567 2.4602 3.8075 4.239 0.8157 5.7861-3.4645 1.7916-3.7872 1.5062-3.7872-3.3486zm20.444 2.0554-1.5678-1.6875 1.8121-1.3475 1.8121-1.3475v3.035c0 1.6692-0.10992 3.035-0.24426 3.035-0.13435 0-0.94979-0.75938-1.8121-1.6875zm-16.812-5.625c-3.2466-3.8716-3.6319-5.281-3.6319-13.286v-7.9014h4.3838c3.2593 0 4.6953 0.34425 5.5983 1.342 1.1296 1.2481 1.0818 1.4417-0.6816 2.766-1.6595 1.2462-1.8734 1.9148-1.714 5.3567 0.10019 2.163-0.19743 4.3902-0.66139 4.9492-0.46396 0.55903-0.94628 2.6068-1.0718 4.5506-0.2499 3.8691-0.57128 4.1907-2.2214 2.2229zm11.781-25.763c-2.0195-1.0824-3.7183-1.4494-5.4264-1.1722-2.3791 0.38607-2.4867 0.30019-2.4907-1.9868-0.006-3.35-1.3116-7.6788-2.6518-8.791-1.9763-1.6402-2.1529-0.0864-0.41262 3.6293 1.0224 2.1829 1.5889 4.6168 1.4397 6.1853-0.22734 2.389-0.45804 2.6037-3.0268 2.817-3.6491 0.30298-5.7276-0.89356-7.05-4.0584-1.2207-2.9215-0.39027-5.5475 1.7542-5.5475 0.93231 0 0.65182-0.61328-1.1148-2.4375-3.3207-3.429-8.1672-14.039-6.8154-14.92 2.6314-1.7151 5.9518-1.5497 10.775 0.53686 0.4224 0.18275 1.7399-1.9486 2.9279-4.7362 2.0599-4.8339 7.4967-14.624 9.8956-17.818 1.1263-1.5 1.1263-1.5 2.285 0 0.63727 0.825 1.6135 2.5491 2.1693 3.8314 1.3005 3 2.76 14.687 2.1418 17.151-0.6303 2.5113 0.20605 5.6431 1.507 5.6431 0.57252 0 3.9411-1.456 7.4857-3.2357 3.7545-1.885 6.4448-2.8572 6.4448-2.329 0 2.4058-3.2758 10.973-5.918 15.477-1.6252 2.7703-2.8358 5.6391-2.6902 6.375 0.1456 0.73593 0.43329 2.6037 0.63931 4.1506l0.37458 2.8125h-4.6514c-3.293 0-5.51-0.46017-7.5913-1.5757z"/>
      <path id="path3490" fill="#8aa56d" d="m384.12 632.77c-2.1656-0.1515-3.9597-0.3422-3.9869-0.42377-0.0272-0.0816-0.45839-3.0288-0.95825-6.5495l-0.90884-6.4012 8.0173 0.0262c7.5339 0.0246 8.1385-0.0869 10.027-1.8488 4.0193-3.7497 4.1927-3.0566-6.102-24.391-5.2604-10.901-9.6767-19.708-9.8139-19.571-0.13722 0.13721-4.0629 7.9754-8.7237 17.418-4.6608 9.4428-9.0486 18.266-9.7505 19.606l-1.2763 2.4375h-9.705-9.705l-5.4632-11.423c-3.0048-6.2826-7.7163-15.986-10.47-21.562l-5.0069-10.139-0.0556 6.1875c-0.0419 4.6669-0.3044 6.1875-1.0681 6.1875-0.55686 0-2.4438 1.0368-4.1932 2.3041-2.0157 1.4602-3.6364 2.1215-4.425 1.8055-1.0644-0.42649-0.97313-0.67839 0.63066-1.7416 3.6334-2.4086 5.4973-4.6707 4.5935-5.5745-0.62078-0.62077-1.552-0.16435-3.5611 1.7455-2.1742 2.0668-2.5367 2.2303-1.8051 0.81449 0.50349-0.97434 0.76137-2.5775 0.57307-3.5625-0.20655-1.0805 0.0135-1.791 0.55466-1.791 1.6668 0 4.895-4.4127 4.895-6.6912 0-2.1292 0.0827-2.1804 2.4326-1.5065 3.5572 1.0202 6.333 0.85742 9.0132-0.52859 1.3042-0.67442 4.0442-1.4338 6.0889-1.6875 2.1931-0.27211 3.8612-0.89323 4.0676-1.5146 0.50498-1.5198-5.6967-0.56417-9.7466 1.5019-4.2572 2.1719-10.075 1.6022-12.105-1.1855-0.75649-1.0385-1.9379-1.9227-2.6254-1.965-0.68746-0.0422-0.23744-0.3084 1.0001-0.5915s7.5542-0.3815 14.037-0.21867c11.275 0.28319 11.808 0.36591 12.27 1.904 2.4254 8.0698 10.413 29.666 10.8 29.202 0.43447-0.52078 4.787-12.192 9.7591-26.17l1.6278-4.576 8.6794-0.46514c4.7737-0.25583 12.829-0.25483 17.901 0.002l9.2215 0.46737 5.8518 16.378c3.2185 9.008 6.0385 16.382 6.2668 16.386 0.22828 0.005 2.7754-7.3325 5.6602-16.304l5.2451-16.312 9.1523-0.21058c5.0338-0.11585 9.1523-0.51361 9.1523-0.88395 0-0.98247 2.211-3.0343 3.2411-3.0077 0.48616 0.0125 0.29331 0.36681-0.42857 0.78726-1.6057 0.93526-1.7336 2.9399-0.1875 2.9399 0.61875 0 1.125 0.31908 1.125 0.70908 0 0.38999 0.89368 1.1494 1.986 1.6875 1.0923 0.53813 2.4792 1.8222 3.0821 2.8534 0.77432 1.3245 0.7968 1.5256 0.0766 0.685-1.1769-1.3736-3.9104-2.935-5.138-2.935-0.73037 0-6.0148 10.437-6.0019 11.854 0.004 0.42001 3.1193 2.5935 5.33 3.7185 0.94526 0.48102 1.323-5.2414 0.4416-6.6894-0.76541-1.2574-0.63632-1.6981 0.85576-2.9211 1.3169-1.0794 2.1032-1.2551 3.1382-0.70115 1.9076 1.0209 1.9368 1.0069 2.9394-1.4136 0.49043-1.184 1.6692-2.507 2.6194-2.9399 1.4924-0.68 1.9482-0.489 3.3468 1.4027 0.89049 1.2044 2.1374 2.1899 2.7709 2.1899 0.63352 0 1.8309 0.36342 2.6609 0.8076 1.4346 0.7678 1.3697 0.92801-1.3169 3.2504-2.7069 2.3399-2.7859 2.5394-1.8754 4.7376 0.61553 1.486 0.76522 3.5304 0.42473 5.8009l-0.52578 3.5062-1.9696-1.8057c-1.0833-0.99314-3.0966-2.5794-4.474-3.525-2.2349-1.5344-2.812-1.6272-5.363-0.86287-2.828 0.84728-2.8574 0.89569-2.7456 4.5122l0.11301 3.6558 2.6638-1.5322c3.0192-1.7366 6.4771-1.3584 7.2238 0.78992 0.24663 0.70958 1.9778 2.8795 3.8471 4.8221l3.3987 3.5319-2.053 0.78056c-1.1292 0.42931-3.3733 0.78056-4.9869 0.78056-3.4715 0-4.4854 1.2284-6.334 7.6736-1.9455 6.7834-3.1594 6.4053-5.1974-1.6192-1.5402-6.0645-2.2229-6.9439-4.6691-6.0138-2.1428 0.81471-6.5322 0.94526-7.2614 0.21599-0.27135-0.27135 0.75385-2.0154 2.2782-3.8757s2.836-4.3133 2.9148-5.4512c0.0788-1.1378 0.36724-2.4313 0.64104-2.8743 0.80578-1.3038 4.7547-0.94848 5.5658 0.50077 1.2744 2.2772 1.7283 0.46815 0.5751-2.2918-1.1336-2.7132-4.2788-5.3736-5.7665-4.8778-0.45814 0.15272-4.6033 9.0823-9.2115 19.844-4.6082 10.761-9.4286 21.246-10.712 23.3-5.4537 8.7279-12.855 10.833-33.104 9.4165zm-86.438-29.746v-10.049l3-1.5637 3-1.5637v2.238c0 1.7153-0.33999 2.238-1.4557 2.238-0.80065 0-1.6865 0.37335-1.9685 0.82967-0.80676 1.3054-0.50959 12.425 0.37628 14.081 1.3429 2.5093 0.96976 3.8396-1.077 3.8396h-1.875v-10.049zm4.7992 9.1767c-0.29661-0.47992-0.6872-4.108-0.86797-8.0625-0.29259-6.4004-0.17647-7.2807 1.0575-8.0167 1.2854-0.76665 1.3862-0.50319 1.3862 3.624 0 4.0791 0.20457 4.6336 2.4493 6.6393 3.4241 3.0594 6.4998 2.9892 7.6023-0.17344 1.679-4.8163 0.33248-10.144-3.0169-11.936-1.5376-0.8229-1.5214-0.87519 0.6908-2.2205 1.246-0.75776 2.504-2.1293 2.7956-3.0479 0.5084-1.6018 0.63283-1.5502 3.0388 1.2608l2.5087 2.931 0.0282 9.9375 0.0282 9.9375h-8.5807c-5.7151 0-8.7608-0.29141-9.12-0.87259zm-4.7992-26.194v-4.5667l2.2223 1.8699c1.2223 1.0285 2.617 2.0015 3.0995 2.1623 1.6068 0.5356-0.0702 3.4538-2.4644 4.2884-1.2822 0.44697-2.4497 0.81268-2.5944 0.81268-0.14469 0-0.26308-2.055-0.26308-4.5667zm20.356 1.7542-1.5605-1.3125 1.8524-1.3475 1.8524-1.3475v2.66c0 3.0663-0.0577 3.1026-2.1443 1.3475zm-17.918-7.1626c-2.3455-3.4642-2.4375-3.8819-2.4375-11.062v-7.4624h4.725c5.6423 0 7.2697 1.0733 4.6965 3.0974-1.9843 1.5608-3.106 6.0095-2.0093 7.969 0.53084 0.94856 0.39399 1.6809-0.49835 2.6669-0.67658 0.74761-1.4121 2.9416-1.6345 4.8755l-0.40433 3.5162-2.4375-3.6001zm146.56-17.531c-0.27142-0.27142-0.49349-1.281-0.49349-2.2435s-0.3014-1.75-0.66976-1.75c-1.8811 0-1.3505-2.5298 1.0298-4.9101 1.4245-1.4245 2.7306-2.5899 2.9025-2.5899 0.17188 0 0.48904 0.675 0.70478 1.5 0.32045 1.2254 1.023 1.5 3.8375 1.5 4.1186 0 4.3826 0.99752 0.82022 3.0994-2.9457 1.738-3.2229 2.4904-1.3125 3.5629 1.248 0.70064 1.2475 0.76187-0.0112 1.2468-0.72804 0.28048-2.0605 0.31731-2.961 0.0818-0.9005-0.23548-2.0234-0.10771-2.4953 0.28395-0.47192 0.39166-1.0801 0.49003-1.3515 0.21861zm-131.37-5.2829c-0.825-0.20098-2.083-0.88229-2.7957-1.514-0.90644-0.80354-2.202-1.027-4.3125-0.74394l-3.0168 0.40465-0.003-3.4911c-0.003-3.4918-2.1796-8.3661-3.7362-8.3661-1.1394 0-0.92994 1.2286 0.78111 4.5826 0.95099 1.8641 1.4541 4.0808 1.3125 5.7826-0.20078 2.413-0.4989 2.7906-2.3728 3.0049-3.234 0.36985-6.2394-1.2193-7.557-3.9959-1.3398-2.8235-0.94893-4.6068 1.1563-5.275 1.321-0.41926 1.2228-0.71467-1.1635-3.5025-1.4334-1.6746-3.6158-5.447-4.8499-8.3832l-2.2438-5.3385 2.3476-0.99457c2.2282-0.94397 4.8328-0.68386 8.8284 0.88164 0.84549 0.33127 2.2796-1.9292 5.7719-9.0981 2.5558-5.2464 5.6335-10.712 6.8395-12.145l2.1926-2.606 2.0712 4.0874c1.7963 3.5448 2.1136 5.1848 2.3907 12.356 0.39645 10.262 0.6708 11.644 2.311 11.642 0.71401-0.0009 3.9186-1.3509 7.1212-3 3.2027-1.6491 5.9786-2.9984 6.1688-2.9984 1.4451 0-2.99 11.988-6.4025 17.306-2.3069 3.595-2.4562 5.226-0.97326 10.632 0.31479 1.1475-0.18836 1.3016-4.003 1.2255-2.3997-0.0478-5.038-0.25144-5.863-0.45243z"/>
      <path id="path3488" fill="#6d9143" d="m387.3 632.87c-7.4583-1.0586-6.9004-0.64261-7.8015-5.8174-1.4204-8.1563-1.8589-7.6436 6.2837-7.3466 6.1931 0.22593 7.4372 0.0561 9.6623-1.3191 1.4047-0.86815 2.9508-2.5364 3.4358-3.7073 0.81623-1.9706 0.28934-3.3507-7.084-18.556-10.991-22.665-11.05-22.78-11.578-22.454-0.25843 0.15973-4.6642 8.9308-9.7906 19.491l-9.3207 19.201-10.073-0.20763c-8.0108-0.16512-10.205-0.43795-10.718-1.3326-0.35473-0.61875-3.2182-6.525-6.3633-13.125s-7.5161-15.712-9.7134-20.25l-3.9951-8.25-0.0346 6.211c-0.029 5.2146-0.24512 6.2874-1.347 6.6871-0.72188 0.26182-2.7463 1.4893-4.4988 2.7277-4.2565 3.008-5.1266 1.8454-1.1137-1.4879 3.0718-2.5516 4.1272-4.7629 2.2731-4.7629-0.49599 0-2.0571 1.0969-3.4691 2.4375-1.9158 1.8189-2.3531 2.0218-1.7232 0.7993 0.46424-0.901 0.84407-2.5041 0.84407-3.5625 0-1.1698 0.42107-1.9243 1.0739-1.9243 1.3953 0 4.1761-3.918 4.1761-5.884 0-2.1622 1.0363-2.5487 4.4031-1.6421 2.4813 0.66814 3.5035 0.54422 6.5798-0.79763 2.0032-0.87377 5.3296-1.8052 7.3921-2.07 4.2805-0.54939 4.9935-1.8625 1.2076-2.2241-1.5861-0.1515-4.2227 0.51121-7.0095 1.7619-5.6947 2.5556-10.252 2.1435-13.385-1.2104l-2.0398-2.1836h13.338c13.222 0 13.342 0.0148 13.712 1.6875 0.20546 0.92812 2.1286 6.5812 4.2737 12.562 2.1451 5.9812 4.4346 12.492 5.0879 14.469 0.79145 2.3946 1.3881 3.2704 1.7882 2.625 0.33024-0.53276 3.0566-7.803 6.0585-16.156l5.4581-15.188h17.7 17.7l3.9204 11.062c6.4059 18.076 7.8794 21.938 8.3714 21.938 0.25699 0 2.8949-7.4059 5.862-16.458l5.3948-16.458 9.1558-0.22991c11.098-0.27867 12.584-0.11606 12.034 1.3168-0.27467 0.71577 0.0895 1.0783 1.0834 1.0783 0.82343 0 2.2939 0.67143 3.2677 1.4921l1.7706 1.4921-2.5514-1.2288c-1.6452-0.79235-2.9296-0.98934-3.616-0.55456-0.58552 0.37085-2.112 3.1848-3.3922 6.2531-2.2052 5.2854-2.2555 5.6207-0.95703 6.375 0.75382 0.43791 1.9003 1.3868 2.5478 2.1087 0.64749 0.72188 1.3966 1.3125 1.6647 1.3125 0.94314 0 1.4546-6.0512 0.64003-7.5732-0.59906-1.1194-0.57815-1.808 0.0789-2.5998 1.0287-1.2396 4.146-1.4422 4.8428-0.31483 0.66707 1.0794 1.8674 0.15357 1.8674-1.4402 0-1.6144 2.2792-3.822 3.946-3.822 0.6616 0 1.4148 0.66756 1.6737 1.4835 0.28387 0.89441 1.6441 1.835 3.4255 2.3687 1.6251 0.48689 2.9547 1.1911 2.9547 1.565 0 0.37384-0.9859 1.5093-2.1909 2.5232-2.1485 1.8078-2.1827 1.9521-1.7667 7.4516 0.45902 6.0693 0.006 6.7116-2.7017 3.8296-3.1913-3.3969-6.119-4.4737-9.609-3.5339-3.0537 0.82228-3.1048 0.88963-2.4382 3.214 0.96097 3.3507 0.45882 3.3326-1.0279-0.0371-1.2668-2.8712-4.0781-5.052-5.781-4.4843-0.50236 0.16746-4.67 9.0661-9.2615 19.775-4.5914 10.709-9.2696 21.038-10.396 22.954-2.6925 4.5802-5.7771 7.0843-10.55 8.5649-3.8532 1.1952-15.284 1.9949-19.652 1.375zm-89.62-30.111 0.005-9.5625 2.306-1.3125c3.0539-1.7381 3.8375-1.6553 3.5492 0.375-0.15402 1.0845-0.8427 1.7731-1.9272 1.9272-0.92812 0.13181-1.7146 0.63806-1.7476 1.125-0.47143 6.9388-0.0421 12.54 1.203 15.698 0.41279 1.0467 0.12168 1.3125-1.4376 1.3125h-1.9552l0.005-9.5625zm4.7985 8.6963c-0.29442-0.47639-0.69525-4.0201-0.89072-7.875-0.31893-6.2894-0.2218-7.0088 0.9463-7.0088 0.90347 0 1.1559 0.37999 0.82507 1.2421-0.71715 1.8689 1.73 8.4242 3.5734 9.5721 0.88979 0.55407 2.5353 1.2201 3.6567 1.48 1.7263 0.40014 2.215 0.13208 3.1875-1.7485 0.63173-1.2216 1.1486-3.7904 1.1486-5.7084 0-2.9659-0.38124-3.8685-2.55-6.0372-1.4025-1.4025-2.1075-2.55-1.5667-2.55 0.54083 0 1.8482-1.0278 2.9052-2.284l1.9219-2.284 2.2478 2.4715c2.2473 2.4709 2.2478 2.4738 2.2698 12.034l0.022 9.5625h-8.5807c-5.6787 0-8.7618-0.29294-9.1161-0.86617zm142.33-1.1321c-0.40361-0.75721-1.1217-2.8955-1.5958-4.7517-1.6275-6.3722-2.3664-7.6614-4.0941-7.1434-3.553 1.0653-7.0221 1.2843-7.5223 0.47494-0.28548-0.46192 0.65567-2.2734 2.0914-4.0256 1.6118-1.967 2.7057-4.1891 2.8593-5.8084 0.33429-3.5234 2.8927-3.9787 5.9418-1.0574 2.1184 2.0296 2.1832 2.0412 3.7064 0.66277 1.8722-1.6944 6.829-1.9177 7.3578-0.33156 0.19642 0.58926 2.0254 2.8354 4.0645 4.9914 4.186 4.4261 4.3235 4.2212-3.5819 5.3402l-3.7398 0.52934-1.9974 5.8688c-2.3153 6.8026-2.508 7.0926-3.4899 5.2506zm-147.03-23.922 0.0486-4.0718 2.1008 1.4959c1.1554 0.82274 2.4705 1.4959 2.9225 1.4959 0.9341 0 1.0699 1.4742 0.24774 2.6896-0.30306 0.44806-1.6349 1.1854-2.9596 1.6384l-2.4086 0.82376 0.0486-4.0718zm20.474 1.5882c-1.4311-1.0634-1.4272-1.1108 0.23165-2.7917l1.6875-1.7099v2.7917c0 3.1848 0.0299 3.1581-1.9192 1.7099zm-18.51-7.96c-1.9133-2.7658-2.0625-3.5234-2.0625-10.472v-7.49h4.8307c2.6569 0 5.0548 0.36248 5.3286 0.80552 0.27382 0.44304-0.29689 1.6515-1.2682 2.6855-1.372 1.4605-1.7731 2.7451-1.7976 5.757-0.0173 2.1324-0.4392 4.6142-0.9375 5.5152-0.49831 0.90101-0.90602 2.6729-0.90602 3.9375 0 3.0262-0.69413 2.8652-3.1875-0.73917zm146.95-16.949c-0.28188-0.28187-0.5125-1.3-0.5125-2.2625s-0.29814-1.75-0.66253-1.75c-1.2992 0-1.513-3.0757-0.24753-3.5613 0.67293-0.25823 1.9861-1.3345 2.9181-2.3916 1.6899-1.9168 1.6946-1.9174 1.7183-0.23462 0.0214 1.5218 0.39183 1.6875 3.7737 1.6875 2.0625 0 3.75 0.33064 3.75 0.73476 0 0.40411-1.4192 1.4588-3.1537 2.3436l-3.1537 1.6089 1.7368 1.4064 1.7368 1.4064h-2.9331c-1.6132 0-3.2762 0.34313-3.6956 0.7625-0.41937 0.41937-0.99312 0.53187-1.275 0.25zm-5.7625-2.7957c0-0.15574 0.59062-0.74636 1.3125-1.3125 1.1896-0.9329 1.2161-0.90637 0.28317 0.28317-0.97978 1.2493-1.5957 1.6466-1.5957 1.0293zm-125.49-2.7293c-1.1608-0.34842-2.5888-1.0305-3.1734-1.5156-0.58462-0.48519-2.4193-0.75282-4.077-0.59472l-3.0141 0.28744v-3.2815c0-3.7423-1.9157-8.3832-3.4605-8.3832-1.454 0-1.2954 1.8082 0.46046 5.25 1.9897 3.9002 1.9826 7.2458-0.0168 7.8804-5.6324 1.7876-11.952-5.7161-7.4619-8.8608 1.503-1.0528 1.4953-1.0933-0.64811-3.3878-2.5308-2.7092-6.2088-10.124-6.3797-12.861-0.1145-1.8335 0.0301-1.8951 4.3816-1.8673 2.475 0.0158 5.0062 0.27263 5.625 0.57065 0.86642 0.41732 1.9347-1.1408 4.6478-6.7788 1.9376-4.0264 4.9161-9.4838 6.6191-12.128l3.0962-4.8071 1.4477 2.1821c2.3518 3.5448 3.0878 6.914 3.5896 16.432 0.57309 10.869 0.70675 10.96 9.4939 6.4124 3.2283-1.6706 5.947-3.0374 6.0414-3.0374 0.0945 0-0.32976 1.9406-0.94278 4.3125-1.166 4.5113-4.8302 12.408-6.7659 14.581-0.86576 0.97188-1.005 2.1772-0.59554 5.1544 0.40153 2.9195 0.28065 4.0467-0.48607 4.5325-1.2633 0.80039-5.5639 0.75273-8.381-0.0929z"/>
      <path id="path3486" fill="#648a38" d="m392.01 632.78c1.764-0.15842 4.464-0.1562 6 0.005 1.536 0.16115 0.0927 0.29078-3.2073 0.28805-3.3-0.003-4.5567-0.13457-2.7927-0.29301zm-7.5111-0.73031c0.93293-0.1794 2.2829-0.17259 3 0.0152 0.71706 0.18771-0.0463 0.33449-1.6962 0.32617-1.65-0.008-2.2367-0.16192-1.3038-0.34131zm17.241 0.0338c0.51562-0.20806 1.3594-0.20806 1.875 0 0.51562 0.20805 0.0937 0.37829-0.9375 0.37829s-1.4531-0.17024-0.9375-0.37829zm-21.562-1.3783c0-0.61875 0.13264-1.125 0.29476-1.125s0.48902 0.50625 0.72646 1.125 0.10479 1.125-0.29475 1.125c-0.39956 0-0.72647-0.50625-0.72647-1.125zm27.75 0.0802c0-0.16212 0.52378-0.49575 1.164-0.74141 0.66744-0.25612 0.9685-0.13039 0.70574 0.29476-0.44045 0.71266-1.8697 1.0541-1.8697 0.44665zm-28.354-3.8302c0.0153-1.2375 0.18338-1.653 0.37353-0.92323 0.19016 0.72973 0.17766 1.7422-0.0278 2.25-0.20545 0.50777-0.36103-0.0893-0.34574-1.3268zm34.682-0.62164c1.155-1.5143 2.2518-2.7534 2.4371-2.7534 0.521 0-2.7259 4.3873-3.6861 4.9807-0.46814 0.28932 0.0939-0.71297 1.2489-2.2273zm-35.389-4.6284c0.008-1.65 0.16191-2.2367 0.34131-1.3038 0.17939 0.93293 0.17258 2.2829-0.0152 3-0.18772 0.71706-0.3345-0.0463-0.32618-1.6962zm39.234-1.3448c0.28164-0.73966 0.70101-1.1559 0.93193-0.92499s0.00048 0.83609-0.51208 1.3448c-0.74072 0.7352-0.82686 0.64905-0.41985-0.41985zm-33.963-0.33235c1.9718-0.15501 5.0093-0.15314 6.75 0.005 1.7407 0.15729 0.12737 0.28411-3.5851 0.28182-3.7125-0.002-5.1367-0.13098-3.1649-0.28598zm12.915-2.4478c0.74662-0.825 1.5262-1.5 1.7325-1.5 0.20626 0-0.23586 0.675-0.98248 1.5s-1.5262 1.5-1.7325 1.5c-0.20625 0 0.23587-0.675 0.98249-1.5zm2.6842-4.2512c-0.0326-0.48189-0.25345-1.4944-0.49084-2.25-0.41029-1.3059-0.38913-1.3076 0.42808-0.0331 0.47284 0.73741 0.69372 1.7499 0.49084 2.25-0.26624 0.65624-0.38534 0.66545-0.42808 0.0331zm-102.06-10.75c0-5.3625 0.25451-9.75 0.56558-9.75s0.48024 4.1953 0.37592 9.323c-0.18593 9.1396-0.15648 9.3294 1.4969 9.6479 1.4449 0.27836 1.3911 0.33954-0.37592 0.42704l-2.0625 0.10214v-9.75zm4.8515 8.625c-0.1933-0.61875-0.51634-1.6488-0.71787-2.289-0.20369-0.64704-0.0371-0.96045 0.375-0.70573 0.40778 0.25201 0.74141 1.1022 0.74141 1.8894 0 1.3092 0.71884 1.4516 8.4375 1.6704l8.4375 0.23925-8.461 0.16031c-6.9615 0.13191-8.5233-0.0391-8.8125-0.96468zm38.388 0.5625c-0.19217-0.30937 4.1552-0.46012 9.6608-0.33499l10.01 0.22752 1.1399-2.1025c0.62694-1.1564 1.1534-1.7557 1.1699-1.3319 0.0165 0.42384-0.49536 1.5207-1.1375 2.4375-1.1038 1.5758-1.6953 1.6669-10.831 1.6669-5.3148 0-9.8204-0.25313-10.013-0.5625zm81.684-1.1574c0.28164-0.73966 0.70101-1.1559 0.93193-0.92499s0.00048 0.83609-0.51208 1.3448c-0.74072 0.7352-0.82686 0.64905-0.41985-0.41985zm22.077-0.51191c0-0.47122 0.30868-0.66599 0.68594-0.43283 0.37727 0.23316 0.85821 0.0759 1.0688-0.34949 0.21055-0.42538 0.30265-0.36421 0.20469 0.13595-0.23297 1.1894-1.9594 1.7589-1.9594 0.64637zm-135-0.76824c-1.7454-0.55899-1.7615-0.60565-0.23176-0.67524 0.90378-0.0411 1.8518 0.26274 2.1068 0.67524 0.25494 0.4125 0.35923 0.71635 0.23176 0.67524-0.12747-0.0411-1.0755-0.34498-2.1068-0.67524zm29.216-1.5642c-0.46043-0.86032-0.69588-1.7055-0.52322-1.8782 0.17267-0.17267 0.69903 0.53124 1.1697 1.5642 1.0336 2.2684 0.53032 2.5128-0.64647 0.31393zm58.5 0c-0.46043-0.86032-0.69588-1.7055-0.52322-1.8782 0.17267-0.17267 0.69903 0.53124 1.1697 1.5642 1.0336 2.2684 0.53032 2.5128-0.64647 0.31393zm-91.912-0.87326-1.4287-1.6875 1.6875 1.4287c1.5858 1.3427 2.0289 1.9463 1.4287 1.9463-0.14232 0-0.90169-0.75938-1.6875-1.6875zm-3.7555-5.003c0.0852-5.3416 1.518-7.1497 1.6779-2.1173 0.0706 2.2226-0.0748 2.7303-0.4821 1.6828-0.44878-1.1542-0.66269-0.72196-0.92791 1.875-0.24938 2.4418-0.32345 2.0435-0.26791-1.4405zm141.51 3.253c0.036-0.87371 0.21371-1.0514 0.45312-0.45313 0.21666 0.54141 0.19001 1.1883-0.0592 1.4375-0.24923 0.24921-0.42648-0.19376-0.39392-0.98438zm-79.136-0.53235c0.28164-0.73966 0.70101-1.1559 0.93193-0.92499s0.00048 0.83609-0.51208 1.3448c-0.74072 0.7352-0.82686 0.64905-0.41985-0.41985zm83.682 0.21985c0-0.61875 0.29005-1.8 0.64457-2.625 0.40629-0.94548 0.64457-1.0841 0.64457-0.375 0 0.61875-0.29005 1.8-0.64457 2.625-0.40629 0.94548-0.64457 1.0841-0.64457 0.375zm-111.51-2.2999c-0.2719-0.43994-0.33351-0.96075-0.13692-1.1574 0.1966-0.19659 0.5573 0.16336 0.80157 0.7999 0.50714 1.3216 0.0749 1.554-0.66465 0.35745zm106.22-0.3876c0.036-0.87371 0.21371-1.0514 0.45312-0.45313 0.21666 0.54141 0.19002 1.1883-0.0592 1.4375-0.24923 0.24921-0.42648-0.19376-0.39392-0.98438zm7.3451-2.75c0.68392-0.87205 1.9423-1.2722 3.75-1.1925l2.7207 0.12002-2.622 0.31625c-1.4421 0.17395-3.1296 0.71056-3.75 1.1925-0.98254 0.76323-0.99527 0.70697-0.0987-0.43627zm-18.247-0.51068c-0.23733-0.384-0.0364-0.94239 0.44662-1.2409 0.52879-0.32681 0.67778-0.21855 0.37451 0.27213-0.30374 0.49147 0.31997 0.93933 1.5716 1.1285l2.0752 0.31367-2.0182 0.11238c-1.11 0.0618-2.2124-0.20181-2.4497-0.58581zm4.843-0.33935c0-0.15814 0.67546-0.46416 1.501-0.68005 0.82558-0.21589 1.3119-0.0865 1.0807 0.28753-0.40369 0.65318-2.5818 0.98433-2.5818 0.39252zm-67.702-3.5226c0.2652-1.0142 0.60517-1.3541 0.79241-0.79241 0.18036 0.54108-0.0287 1.3404-0.46448 1.7762-0.55655 0.55655-0.65416 0.26373-0.32793-0.98378zm63.952 1.277c0-0.15574 0.59062-0.74636 1.3125-1.3125 1.1896-0.9329 1.2161-0.90638 0.28317 0.28317-0.97978 1.2493-1.5957 1.6466-1.5957 1.0293zm-100.08-1.747c-0.40701-1.0689-0.32087-1.155 0.41985-0.41985 0.51256 0.50875 0.743 1.1139 0.51208 1.3448-0.23091 0.23092-0.65028-0.18533-0.93193-0.92499zm-21.423-0.59485c-0.53816-0.64844-0.61105-1.125-0.17208-1.125 0.41888 0 0.95586 0.50625 1.1933 1.125s0.31487 1.125 0.17207 1.125c-0.14279 0-0.67977-0.50625-1.1933-1.125zm-8.25-1.4375c0-0.58437-0.42188-1.2327-0.9375-1.4408-0.56006-0.22599-0.40908-0.40213 0.375-0.4375 0.83224-0.0376 1.3125 0.48966 1.3125 1.4408 0 0.825-0.16875 1.5-0.375 1.5s-0.375-0.47813-0.375-1.0625zm13.976-1.6247c-1.182-1.0394-2.0011-2.0377-1.8203-2.2185 0.18079-0.18079 1.2954 0.68027 2.4769 1.9135 2.6104 2.7247 2.2732 2.8813-0.65654 0.30502zm35.547 1.5622c0-0.4125 0.32716-1.2562 0.72703-1.875 0.39987-0.61875 0.72703-0.7875 0.72703-0.375s-0.32716 1.2562-0.72703 1.875c-0.39987 0.61875-0.72703 0.7875-0.72703 0.375zm101.88-1.6875c-0.9329-1.1896-0.90638-1.2161 0.28317-0.28317 0.72188 0.56614 1.3125 1.1568 1.3125 1.3125 0 0.61728-0.61589 0.21998-1.5957-1.0293zm-41.481-0.40735c0.28164-0.73966 0.70101-1.1559 0.93193-0.92499s0.00048 0.83609-0.51208 1.3448c-0.74072 0.7352-0.82686 0.64905-0.41985-0.41985zm23.666-0.56765c-0.17347-3.739 3.1425-4.9365 5.6075-2.025l1.4287 1.6875-1.6317-1.3782c-2.2542-1.904-4.2547-1.3301-4.8363 1.3874-0.44674 2.0876-0.48561 2.11-0.56828 0.32834zm-138.84-1.4182c0-1.2132 0.26697-2.3707 0.59326-2.5724 0.32629-0.20166 0.45811 0.79093 0.29294 2.2057-0.36798 3.152-0.8862 3.3664-0.8862 0.36665zm51.059 1.0182c0.036-0.87371 0.21371-1.0514 0.45313-0.45313 0.21665 0.54141 0.19 1.1883-0.0592 1.4375-0.24922 0.24921-0.42648-0.19376-0.39391-0.98438zm39.656-0.37674c-0.46043-0.86032-0.69588-1.7055-0.52322-1.8782 0.17267-0.17267 0.69903 0.53124 1.1697 1.5642 1.0336 2.2684 0.53032 2.5128-0.64647 0.31393zm56.284 1.2811c0-0.15574 0.59062-0.74636 1.3125-1.3125 1.1896-0.9329 1.2161-0.90638 0.28317 0.28317-0.97978 1.2493-1.5957 1.6466-1.5957 1.0293zm-145.44-0.74024c0.17187-0.15038 1.1562-0.67524 2.1875-1.1664 1.768-0.84199 1.7919-0.82637 0.41915 0.2734-1.1948 0.9572-3.6359 1.7935-2.6066 0.89297zm30.282-1.2765c-0.2719-0.43994-0.33351-0.96075-0.13692-1.1574 0.1966-0.19659 0.5573 0.16336 0.80157 0.7999 0.50714 1.3216 0.0749 1.554-0.66465 0.35745zm24.47 0.0499c-0.0226-0.61875 0.28593-1.6312 0.6858-2.25 0.88599-1.371 0.88599-0.18682 0 1.875-0.42501 0.98905-0.65861 1.1168-0.6858 0.375zm-36.47-0.7999c-0.76955-1.2452-0.0788-1.4178 0.99791-0.24946 0.53189 0.57715 0.63618 1.0494 0.23176 1.0494s-0.95777-0.35995-1.2297-0.7999zm55.216-0.7001c1.0934-2.2958 1.4398-2.7212 1.4398-1.7684 0 0.40241-0.52486 1.3868-1.1664 2.1875-1.0998 1.3727-1.1154 1.3488-0.2734-0.41915zm75.69 0.75c0.61875-0.39987 1.6312-0.70848 2.25-0.6858 0.74179 0.0272 0.61405 0.26079-0.375 0.6858-2.0618 0.88599-3.246 0.88599-1.875 0zm-100.78-1.154c-0.72373-1.886-0.51023-2.3727 0.3739-0.85226 0.43777 0.75281 0.63795 1.5268 0.44485 1.7198-0.1931 0.1931-0.56154-0.19732-0.81875-0.86759zm-36.896-0.51476c0.11498-0.52594 0.84904-0.83979 1.6312-0.69745 0.7822 0.14234 1.1643-0.003 0.84919-0.323-0.31515-0.31999 0.31931-1.5132 1.4099-2.6515 1.2269-1.2806 1.8061-2.5306 1.5191-3.2784-0.26967-0.70275-0.15347-1.0169 0.27758-0.75051 1.175 0.72619 0.86764 2.273-0.7409 3.7287-0.81528 0.73782-1.3252 1.5956-1.1333 1.9063 0.49834 0.80633-1.6766 2.4517-2.5375 1.9196-0.39534-0.24434-0.89106-0.0962-1.1016 0.32918-0.21055 0.42538-0.28873 0.34311-0.17375-0.18283zm-10.37-0.95608c-0.78265-0.59242-1.7108-0.89926-2.0625-0.68188-0.35173 0.21738-0.63951-0.15392-0.63951-0.8251 0-1.0423 0.32831-0.98655 2.25 0.38181 1.2375 0.88118 2.25 1.7479 2.25 1.9261 0 0.48503-0.24094 0.37771-1.798-0.8009zm157.6-0.43529c0.2652-1.0142 0.60517-1.3541 0.79241-0.79241 0.18036 0.54108-0.0287 1.3404-0.46448 1.7762-0.55656 0.55655-0.65416 0.26373-0.32793-0.98378zm-15.09-0.45026c-0.28958-0.89945-1.4393-2.2494-2.555-3-2.4409-1.642-3.2455-3.743-0.96636-2.5233 1.9399 1.0382 4.7617 5.0678 4.3642 6.2321-0.17765 0.52029-0.54722 0.20949-0.84285-0.70881zm-115.61-0.28952c-0.2719-0.43994-0.33351-0.96075-0.13692-1.1574 0.1966-0.19659 0.5573 0.16336 0.80157 0.7999 0.50714 1.3216 0.0749 1.554-0.66465 0.35745zm58.5 0c-0.2719-0.43994-0.33351-0.96075-0.13691-1.1574 0.19659-0.19659 0.55729 0.16336 0.80156 0.7999 0.50714 1.3216 0.0749 1.554-0.66465 0.35745zm29.329-0.16995c0.28164-0.73966 0.70101-1.1559 0.93193-0.92499s0.00048 0.83609-0.51208 1.3448c-0.74072 0.7352-0.82686 0.64905-0.41985-0.41985zm-99.423-0.0633c0-0.15574 0.59062-0.74636 1.3125-1.3125 1.1895-0.9329 1.2161-0.90638 0.28317 0.28317-0.97978 1.2493-1.5957 1.6466-1.5957 1.0293zm30.809-0.21799c-0.0326-0.48189-0.25344-1.4944-0.49084-2.25-0.41029-1.3059-0.38912-1.3076 0.42808-0.0331 0.47284 0.73741 0.69372 1.7499 0.49084 2.25-0.26623 0.65624-0.38534 0.66545-0.42808 0.0331zm28.501-0.99884c1.0934-2.2958 1.4398-2.7212 1.4398-1.7684 0 0.40241-0.52486 1.3868-1.1664 2.1875-1.0998 1.3727-1.1154 1.3488-0.2734-0.41915zm78.594 0.1875c-0.9329-1.1896-0.90638-1.2161 0.28317-0.28317 1.2493 0.97978 1.6466 1.5957 1.0293 1.5957-0.15574 0-0.74636-0.59062-1.3125-1.3125zm-152.25-0.70647c-0.58819-0.72512-0.64942-1.0411-0.14287-0.73728 0.57583 0.34538 0.99636-0.19549 1.2001-1.5435 0.25465-1.6848 0.33482-1.546 0.42605 0.73729 0.12674 3.1721-0.03 3.3352-1.4833 1.5435zm8.9082 0.5203c0.51562-0.57823 0.9375-1.9764 0.9375-3.1071 0-1.1306 0.26697-2.2207 0.59326-2.4224 1.1673-0.72143-0.0266 4.7446-1.2348 5.6532-1.0387 0.78111-1.0854 0.76157-0.29601-0.12372zm45.96-0.37633c0-0.4125 0.32716-1.2562 0.72703-1.875 0.39987-0.61875 0.72703-0.7875 0.72703-0.375s-0.32716 1.2562-0.72703 1.875c-0.39987 0.61875-0.72703 0.7875-0.72703 0.375zm48.445-0.77899c-0.72373-1.886-0.51023-2.3727 0.3739-0.85226 0.43777 0.75281 0.63795 1.5268 0.44485 1.7198-0.1931 0.1931-0.56154-0.19732-0.81875-0.86759zm39.294-0.95176c0.009-0.99826 0.14916-1.052 0.65631-0.25158 0.44303 0.69918 1.3693 0.85854 2.9599 0.5092 1.2733-0.27966 2.808-0.23136 3.4105 0.10733 0.69293 0.38953-0.39886 0.6688-2.9714 0.76005-3.381 0.11993-4.0649-0.0697-4.0553-1.125zm-60.417-0.94415c-0.2719-0.43994-0.33351-0.96075-0.13691-1.1574 0.19659-0.19659 0.55729 0.16336 0.80156 0.7999 0.50713 1.3216 0.0749 1.554-0.66465 0.35745zm33.497-0.7001c-0.0127-0.61875 0.44038-2.1375 1.007-3.375 1.3263-2.8966 1.3458-1.5493 0.0271 1.875-0.55598 1.4438-1.0213 2.1188-1.0341 1.5zm40.528-1.5c0-1.0312 0.17023-1.4531 0.37829-0.9375 0.20806 0.51562 0.20806 1.3594 0 1.875-0.20806 0.51562-0.37829 0.0937-0.37829-0.9375zm-79.945-0.21985c0.28164-0.73966 0.70101-1.1559 0.93193-0.92499s0.00048 0.83609-0.51208 1.3448c-0.74072 0.7352-0.82686 0.64905-0.41985-0.41985zm67.195-0.53015c0-1.0312 0.17023-1.4531 0.37829-0.9375 0.20806 0.51562 0.20806 1.3594 0 1.875-0.20806 0.51562-0.37829 0.0937-0.37829-0.9375zm-146.96-6.5625-0.15697-7.6875 4.6875 0.14181 4.6875 0.14182-4.2858 0.26981-4.2858 0.26982-0.24475 7.2759-0.24474 7.2759-0.15697-7.6875zm25.451 5.25c-0.8184-1.9125-0.79989-1.9566 0.25461-0.60665 0.62546 0.80071 1.1372 1.7288 1.1372 2.0625 0 1.1399-0.50875 0.60777-1.3918-1.4558zm-8.5078-0.5625c0.81092-1.2375 1.6434-2.925 1.85-3.75 0.37557-1.5 0.37557-1.5 0.45884 0 0.0458 0.825-0.78669 2.5125-1.85 3.75l-1.9332 2.25 1.4744-2.25zm-10.291-0.0625c0.036-0.87371 0.21371-1.0514 0.45313-0.45312 0.21665 0.5414 0.19 1.1883-0.0592 1.4375-0.24922 0.24922-0.42648-0.19376-0.39391-0.98438zm76.785 0.38761c-0.2719-0.43995-0.33351-0.96075-0.13691-1.1574 0.19659-0.1966 0.55729 0.16335 0.80156 0.7999 0.50713 1.3216 0.0749 1.554-0.66465 0.35745zm-38.127-1.1041c-0.72373-1.886-0.51023-2.3727 0.3739-0.85226 0.43777 0.75282 0.63795 1.5268 0.44485 1.7198-0.1931 0.1931-0.56154-0.19732-0.81875-0.86759zm117.15-0.45273c1.2976-1.4759 1.489-2.0829 0.75-2.3783-0.65849-0.26315-0.55078-0.4165 0.32015-0.45579 1.8728-0.0845 1.6256 0.90325-0.75 2.9976l-2.0625 1.8182 1.7424-1.9817zm-58.65-0.29727c-0.72373-1.886-0.51023-2.3727 0.3739-0.85226 0.43777 0.75282 0.63795 1.5268 0.44485 1.7198-0.1931 0.1931-0.56154-0.19732-0.81875-0.86759zm41.532-0.30177c0-0.38815 0.33364-0.91194 0.74141-1.164 0.42515-0.26276 0.55088 0.0383 0.29476 0.70573-0.49859 1.2993-1.0362 1.537-1.0362 0.45822zm-139.45-1.6068c0.029-0.99687 0.35854-2.4875 0.73231-3.3125 0.47364-1.0454 0.54116-0.59085 0.22279 1.5-0.53023 3.4822-1.0313 4.4332-0.9551 1.8125zm143.2 0.0625c-1.7454-0.55899-1.7615-0.60565-0.23177-0.67524 0.90378-0.0411 1.8518 0.26274 2.1068 0.67524 0.25494 0.4125 0.35924 0.71635 0.23176 0.67524-0.12746-0.0411-1.0755-0.34498-2.1068-0.67524zm-104.94-0.50116c-0.0326-0.48189-0.25344-1.4944-0.49084-2.25-0.41029-1.3059-0.38912-1.3076 0.42808-0.0331 0.47284 0.73741 0.69372 1.7499 0.49084 2.25-0.26623 0.65624-0.38534 0.66545-0.42808 0.0331zm-22.934-1.5125-2.25-1.0508 2.2485 0.4682c2.3231 0.48373 3.105 0.89994 2.564 1.3649-0.17188 0.14773-1.325-0.20428-2.5625-0.78224zm41.681 0.51363c-0.003-1.0808 2.113-5.3744 2.1675-4.3986 0.0146 0.26202-0.46646 1.612-1.0691 3-0.60261 1.388-1.0969 2.0174-1.0984 1.3986zm39.753 0.24884c-0.0326-0.48189-0.25345-1.4944-0.49084-2.25-0.41029-1.3059-0.38913-1.3076 0.42808-0.0331 0.47284 0.73741 0.69372 1.7499 0.49084 2.25-0.26624 0.65624-0.38534 0.66545-0.42808 0.0331zm19.505-0.24884c-0.0226-0.61875 0.28593-1.6312 0.6858-2.25 0.88599-1.371 0.88599-0.18682 0 1.875-0.42501 0.98905-0.65861 1.1168-0.6858 0.375zm-90.814-2.25c0.61875-0.39987 1.4625-0.72703 1.875-0.72703s0.24375 0.32716-0.375 0.72703-1.4625 0.72703-1.875 0.72703-0.24375-0.32716 0.375-0.72703zm111.75 0.0443c0-0.38816 0.33364-0.91194 0.74141-1.164 0.42515-0.26275 0.55088 0.0383 0.29476 0.70574-0.49859 1.2993-1.0362 1.5371-1.0362 0.45823zm-118.3-0.56399c0.72973-0.19016 1.7422-0.17765 2.25 0.0277 0.50778 0.20545-0.0893 0.36102-1.3268 0.34574-1.2375-0.0153-1.653-0.18338-0.92323-0.37353zm131.8-0.23026c-0.67597-0.43685-0.76847-0.73161-0.23177-0.73852 0.49129-0.006 1.1018 0.32602 1.3568 0.73852 0.57548 0.93115 0.31584 0.93115-1.125 0zm-135.14-0.51234c0.54141-0.21665 1.1883-0.19 1.4375 0.0592 0.24921 0.24922-0.19376 0.42648-0.98438 0.39391-0.87371-0.036-1.0514-0.2137-0.45313-0.45312zm14.212-0.0181c0.93294-0.17939 2.2829-0.17258 3 0.0151 0.71707 0.18772-0.0462 0.3345-1.6962 0.32617-1.65-0.008-2.2367-0.16191-1.3038-0.34131zm-5.7587-0.49296c0.17187-0.15037 1.1562-0.67524 2.1875-1.1664 1.768-0.84199 1.7919-0.82638 0.41915 0.27341-1.1948 0.95719-3.6359 1.7935-2.6066 0.89296zm116.94-0.47659c-1.7454-0.55899-1.7615-0.60565-0.23177-0.67524 0.90378-0.0411 1.8518 0.26274 2.1068 0.67524 0.25494 0.4125 0.35924 0.71636 0.23176 0.67524-0.12746-0.0411-1.0755-0.34498-2.1068-0.67524zm-105-1.1875c-0.00002-0.38278-5.7054-0.76941-12.872-0.8723-7.0798-0.10163-13.042-0.35476-13.25-0.5625-0.20773-0.20773 5.5649-0.3777 12.828-0.3777 12.254 0 15.335 0.45954 13.744 2.0499-0.24755 0.24755-0.45012 0.14072-0.45014-0.2374zm23.262-0.5c-0.0106-1.2139 1.3413-1.3125 17.989-1.3125 9.9 0 18 0.25313 18.001 0.5625 0.00035 0.30937-7.819 0.46575-17.376 0.34749-13.535-0.16747-17.512-0.002-17.989 0.75-0.4514 0.71145-0.6153 0.62015-0.62377-0.34749zm59.237-0.70714c0.00075-0.28579 4.2046-0.62329 9.3417-0.75 5.1371-0.1267 9.1028 0.003 8.8125 0.28726-0.69995 0.68652-18.156 1.1315-18.154 0.46274zm20.111-0.3677c0.54141-0.21665 1.1883-0.19 1.4375 0.0592 0.24921 0.24922-0.19376 0.42648-0.98438 0.39391-0.87371-0.036-1.0514-0.2137-0.45313-0.45312zm7.4619-0.76811c0.93293-0.17939 2.2829-0.17258 3 0.0151 0.71706 0.18772-0.0463 0.3345-1.6962 0.32617-1.65-0.008-2.2367-0.16191-1.3038-0.34131zm-4.7271-3.2694c-0.2719-0.43994-0.33351-0.96075-0.13691-1.1573 0.19659-0.1966 0.55729 0.16335 0.80156 0.79989 0.50713 1.3216 0.0749 1.554-0.66465 0.35745zm-126.17-0.46c0.72973-0.19016 1.7422-0.17765 2.25 0.0278 0.50778 0.20545-0.0893 0.36103-1.3268 0.34575-1.2375-0.0153-1.653-0.18338-0.92323-0.37353zm133.3 0.22498c0-0.16212 0.52378-0.49575 1.164-0.74141 0.66744-0.25612 0.9685-0.13038 0.70574 0.29476-0.44045 0.71265-1.8697 1.0541-1.8697 0.44665zm-157.45-3.18c-2.3175-2.9462-1.7075-7.0804 1.0331-7.001 0.43312 0.0125 0.19688 0.36681-0.525 0.78726-1.8779 1.0938-1.6192 4.2014 0.52841 6.349 1.0125 1.0125 1.5432 1.8409 1.1794 1.8409-0.36381 0-1.361-0.88926-2.2159-1.9761zm8.0229-0.18773c0.17467-1.1901-0.0711-2.962-0.54627-3.9375-0.82148-1.6866-0.80664-1.7022 0.30252-0.31778 1.2132 1.5143 1.6306 6.4192 0.54626 6.4192-0.34105 0-0.47719-0.97374-0.30251-2.1639zm152.77 1.4601c0.23923-0.38708-0.83773-0.8366-2.3932-0.99892-2.5418-0.26525-2.4582-0.3079 0.82613-0.42121 3.1706-0.10939 3.5307 0.0229 2.7207 0.99892-1.0282 1.2389-1.8427 1.5363-1.1536 0.42121zm-150.35-3.5545c0-1.7292-0.35873-4.0942-0.79718-5.2554-0.62114-1.6451-0.59777-1.914 0.10585-1.218 0.49667 0.49135 1.0654 2.5833 1.2639 4.6489l0.36086 3.7555 3.0958 0.23707 3.0958 0.23707-3.5625 0.36947-3.5625 0.36948v-3.1441zm140.25 2.9555c0.61875-0.23888 1.566-1.056 2.105-1.8158 1.075-1.5154 2.395-1.839 2.395-0.58722 0 0.43685-0.32057 0.59614-0.71237 0.354-0.3918-0.24215-1.0787 0.24418-1.5264 1.0807-0.44771 0.83656-1.3928 1.4944-2.1001 1.4618-1.0415-0.048-1.0721-0.14183-0.16111-0.49352zm-122.25-5.028c0-1.0069 0.27643-2.0016 0.61429-2.2104 0.33786-0.20881 0.46831 0.61503 0.28988 1.8307-0.3934 2.6804-0.90417 2.8949-0.90417 0.37965zm3.0728-5.9992c0.86646-1.4685 1.7194-2.6701 1.8956-2.6701 0.53291 0-1.9016 4.3702-2.7143 4.8725-0.41614 0.25719-0.0477-0.7339 0.81875-2.2024zm-32.38-0.23256-1.8182-2.0625 2.0625 1.8182c1.9277 1.6994 2.4064 2.3068 1.8182 2.3068-0.13435 0-1.0625-0.92812-2.0625-2.0625zm6.116 0.875c0.036-0.87371 0.21371-1.0514 0.45313-0.45313 0.21665 0.54141 0.19 1.1883-0.0592 1.4375-0.24922 0.24921-0.42648-0.19376-0.39391-0.98438zm29.614-7.2824c0.28165-0.73966 0.70102-1.1559 0.93193-0.925 0.23092 0.23092 0.00048 0.8361-0.51208 1.3448-0.74072 0.7352-0.82686 0.64905-0.41985-0.41985zm-40.801-1.6873c-0.47951-1.0524-0.85862-2.3194-0.84247-2.8157 0.0161-0.49622 0.52757 0.24573 1.1365 1.6488 1.2817 2.9531 1.0104 4.0297-0.29404 1.1669zm31.003-1.0929c0.825-0.35451 2.0062-0.64457 2.625-0.64457 0.70911 0 0.57048 0.23828-0.375 0.64457-0.825 0.35451-2.0062 0.64457-2.625 0.64457-0.70911 0-0.57048-0.23828 0.375-0.64457zm-3.0534-0.99376c-0.20974-0.54657-0.28089-4.1747-0.15812-8.0625l0.22321-7.0687 0.36917 8.0641c0.20304 4.4352 0.27419 8.0634 0.15812 8.0625s-0.38264-0.44877-0.59238-0.99534zm9.2284-1.3493c0.50875-0.51256 1.1139-0.743 1.3448-0.51208 0.23091 0.23091-0.18534 0.65028-0.925 0.93193-1.0689 0.40701-1.155 0.32087-0.41985-0.41985zm-38.611-1.4069c0.21901-0.81167 1.436-1.1459 4.3696-1.2001l4.066-0.0751-3.7355 0.31074c-2.0545 0.17091-4.0208 0.71095-4.3696 1.2001-0.4406 0.61796-0.54147 0.54605-0.33055-0.23566zm41.715-0.1875c0.56614-0.72188 1.4943-1.3125 2.0625-1.3125 0.56824 0 1.028 0.59062 1.0217 1.3125-0.009 1.0779-0.13329 1.12-0.69284 0.23573-0.59209-0.9357-0.86081-0.9357-2.051 0-1.2539 0.98577-1.2827 0.96585-0.34033-0.23573zm-22.779-14.812c0.63994-1.2375 1.3323-2.25 1.5385-2.25 0.20625 0-0.14858 1.0125-0.78852 2.25s-1.3323 2.25-1.5385 2.25c-0.20625 0 0.14858-1.0125 0.78852-2.25zm9.4342 1.0625c0.036-0.87371 0.21371-1.0514 0.45313-0.45313 0.21665 0.54141 0.19 1.1883-0.0592 1.4375-0.24922 0.24921-0.42648-0.19376-0.39391-0.98438zm-1.886-6.0926c-0.40701-1.0689-0.32087-1.155 0.41985-0.41985 0.51256 0.50875 0.743 1.1139 0.51208 1.3448-0.23091 0.23091-0.65028-0.18534-0.93193-0.925zm-1.8158-2.3876c-0.62569-0.39646-0.72817-0.82363-0.26609-1.1092 0.41332-0.25545 0.945 0.0399 1.1815 0.65625 0.49697 1.2951 0.45017 1.3182-0.91544 0.45296z"/>
    </g>
  </g>
</svg>
