<svg xmlns:rdf="http://www.w3.org/1999/02/22-rdf-syntax-ns#" xmlns="http://www.w3.org/2000/svg" height="32mm" width="32mm" version="1.1" xmlns:cc="http://creativecommons.org/ns#" xmlns:dc="http://purl.org/dc/elements/1.1/" viewBox="0 0 113.38583 113.38582">
 <g transform="translate(-212.06 -472.38)">
  <g transform="translate(8.4853 -1.4142)">
   <path fill="#e8a1a2" d="m240.91 580.01c-1.4824-4.2852-3.0745-9.2894-3.538-11.12-1.1372-4.4931-1.6472-4.8098-4.1569-2.5813-2.1418 1.9018-2.1462 1.9003-0.97095-0.33946 1.0077-1.9204 0.9278-2.25-0.54562-2.25-1.5731 0-1.5619-0.12023 0.12599-1.3544 1.7365-1.2698 1.6088-1.5199-2.041-4-2.4685-1.6774-3.2594-2.6456-2.1612-2.6456 2.1818 0 2.2506 0.42403-1.1547-7.1117-6.3934-14.148-9.1638-31.223-8.7054-53.655 0.26565-13 0.57841-15.561 2.1071-17.25 2.169-2.3967 2.745-2.4287 7.0398-0.39064 2.1654 1.0275 4.0683 3.0685 5.3612 5.75 2.5118 5.2098 4.2463 18.35 2.7926 21.157-0.92374 1.7835-0.85705 1.8525 0.61602 0.63738 2.0383-1.6814 2.7958-0.21965 3.0241 5.835 0.0833 2.209 0.54518 4.0188 1.0264 4.0219 0.48125 0.003 0.605 1.3557 0.275 3.0057s-0.19352 3 0.30328 3c2.6941 0 3.7428 17.64 1.4808 24.906-1.6203 5.2051 1.6784 0.7327 5.5919-7.5816 7.4605-15.85 18.983-31.543 33.937-46.223 10.047-9.862 14.218-12.61 16.932-11.158 7.3999 3.9603 4.4295 17.155-6.47 28.741-2.791 2.9668-4.4785 5.1654-3.75 4.8858 2.3126-0.88743 1.4341 1.8404-1.8925 5.8761-1.7694 2.1466-3.3115 4.5462-3.4269 5.3325s-1.1503 2.0883-2.2997 2.8934c-1.1494 0.80509-1.8715 1.8172-1.6045 2.2491 0.64529 1.0441-4.8466 9.7279-8.8005 13.915-3.6411 3.8562-9.5531 7.1556-12.862 7.1777-1.6096 0.0108-1.8993 0.26298-0.97519 0.84897 1.5334 0.97236 6.1197 0.31492 7.9595-1.141 0.70079-0.55456 1.5178-0.76462 1.8157-0.46679 0.68106 0.68106-5.8716 5.7435-7.4342 5.7435-0.63559 0-1.1556 0.43588-1.1556 0.96861 0 0.53274 0.74882 0.68127 1.664 0.33007 1.1573-0.44408 1.4322-0.26346 0.90287 0.59306-1.0808 1.7487-5.096 3.1042-9.7336 3.2859-3.501 0.13718-3.9164 0.40636-3.456 2.2391 0.50216 1.9991 0.4667 2.0075-0.87842 0.20849-1.2384-1.6564-1.0516-2.5682 1.604-7.8289 2.721-5.3903 13.868-24.641 17.811-30.758 0.8725-1.3537 1.0905-2.1559 0.4845-1.7825-1.7197 1.0594-17.765 28.347-24.189 41.136l-2.5006 4.9786 2.7335 8.3935c3.4677 10.648 2.7166 11.942-0.88644 1.5269zm-0.10056-17.041c0.42418-1.404 0.25625-2.25-0.44662-2.25-0.61952 0-0.86751 0.41891-0.55108 0.9309 0.31644 0.512 0.16515 1.1844-0.33619 1.4943-0.50134 0.30984-1.1943-0.17347-1.5398-1.074-0.34558-0.90056-0.85533-1.4104-1.1328-1.133-0.27744 0.27744-0.0251 1.7651 0.5607 3.306 1.1274 2.9652 2.2955 2.5332 3.4458-1.2742zm-5.5256-9.9968c-1.0612-3.7108-1.9294-7.1608-1.9294-7.6667 0-0.50592-0.25022-0.66963-0.55604-0.36381-0.52233 0.52233 2.1863 12.37 3.2048 14.018 1.2636 2.0446 1.0362 0.15112-0.71935-5.9875zm-4.4557-17.727c-0.93421-4.1991-1.9183-7.415-2.1869-7.1464-0.26861 0.2686 0.31288 3.8871 1.2922 8.0411 0.97931 4.154 1.9634 7.3699 2.1869 7.1464 0.2235-0.22351-0.35799-3.842-1.2922-8.0411zm-3.0737-14.426c-0.36648-2.2918-0.87608-3.9572-1.1324-3.7009-0.25636 0.25637-0.15176 2.3268 0.23245 4.6009s0.89381 3.9395 1.1324 3.7009c0.23863-0.23864 0.13403-2.309-0.23245-4.6009zm45.009-6.1437c3.0475-4.424 5.0948-7.768 4.5497-7.4311-1.1721 0.72439-11.233 15.475-10.555 15.475 0.25562 0 2.9582-3.6196 6.0056-8.0437zm-46.726-1.1438c-0.31922-0.79773-0.55618-0.56078-0.60416 0.60417-0.0434 1.0542 0.19292 1.6448 0.52522 1.3125 0.33229-0.3323 0.36781-1.1948 0.0789-1.9167zm-0.99378-9.5625c-0.25153-0.9625-0.45733-0.175-0.45733 1.75s0.2058 2.7125 0.45733 1.75c0.25152-0.9625 0.25152-2.5375 0-3.5zm55.438 0c1.2439-1.5861 1.2085-1.6214-0.37756-0.37756-1.6658 1.3064-2.1955 2.1276-1.3724 2.1276 0.20765 0 0.99515-0.7875 1.75-1.75zm-50.173 80.37c1.8714-4.922 6.1906-12.808 6.7233-12.275 0.64112 0.64113-5.4132 13.374-6.7529 14.202-0.54189 0.33491-0.52977-0.45565 0.0295-1.9267z"/>
   <path fill="#f8a52a" d="m233.34 578.74c2.2061-4.3878 4.0112-8.9144 4.0112-10.059 0-1.1447 0.36736-1.8542 0.81635-1.5767 0.44899 0.27749 1.5191-1.046 2.3781-2.941 1.2158-2.6824 1.275-3.4455 0.26698-3.4455-0.7121 0-1.4875 0.5625-1.723 1.25-1.3539 3.9511-11.385-39.693-14.286-62.157l-1.368-10.593 0.37967 10c0.51206 13.487 5.5806 38.798 12.514 62.493 1.2478 4.2643 1.2661 4.9404 0.0831 3.0709-0.70095-1.1077-1.2282-1.1704-2.3079-0.27424-1.1575 0.96065-1.324 0.64698-0.96271-1.8143 0.24021-1.6367 0.0482-2.9858-0.42675-2.998-0.47493-0.0122-1.9885-0.95412-3.3635-2.0931-1.7885-1.4815-1.9782-1.9019-0.66644-1.4771 1.0085 0.32657 1.6639 0.25596 1.4566-0.15691-8.5314-16.99-11.952-33.628-11.87-57.739 0.0614-18.043 0.65624-20.888 4.4601-21.335 7.1233-0.83622 11.788 7.2931 11.99 20.896 0.0995 6.7048 0.41125 8.5089 1.3385 7.7456 1.6189-1.3328 2.7298 3.0911 1.9629 7.8168-0.49112 3.0264-0.36328 3.3534 0.90085 2.3043 1.1834-0.98217 1.3868-0.94897 1.0338 0.1688-0.24165 0.76529-0.73025 2.7075-1.0858 4.3161-0.54261 2.455-0.41766 2.7348 0.7782 1.7423 1.1895-0.98722 1.6353-0.18963 2.7012 4.8334 1.5414 7.2635 0.83326 14.446-1.9652 19.931-1.1416 2.2376-1.649 4.0684-1.1278 4.0684 1.6726 0 4.659-4.6191 10.471-16.196 6.6604-13.266 15.19-25.095 27.19-37.705 15.39-16.173 21.504-19.166 24.479-11.986 1.047 2.5278 1.06 4.0393 0.0665 7.7627-2.0495 7.6813-10.5 19.159-15.205 20.653-2.5932 0.82304-1.4824 2.4338 1.1954 1.7336 2.0694-0.54117 2.0658-0.49392-0.23563 3.0169-1.2859 1.9617-3.6686 4.3527-5.295 5.3134-2.5848 1.5269-2.7263 1.8276-1.1244 2.3896 1.576 0.55283 1.3578 0.9467-1.5584 2.8134-2.2594 1.4463-2.8101 2.1762-1.6502 2.1875 1.4874 0.0144 1.3089 0.71866-1.2265 4.8392-5.5503 9.0204-14.408 16.082-20.264 16.156-0.9625 0.0121-1.75 0.47196-1.75 1.022 0 1.3119 5.5942 1.2875 8.0657-0.0352 1.0638-0.56935 1.9343-0.75399 1.9343-0.4103 0 1.1947-4.5108 4.3792-6.25 4.4122-1.9687 0.0374-2.4476 2.0155-0.5 2.0651 0.70412 0.0179 0.40229 0.67298-0.69113 1.5-1.0894 0.82402-4.077 1.4682-6.809 1.4682-3.4249 0-4.6564 0.34222-4.1544 1.1545 0.43457 0.70315 0.2751 0.88354-0.40791 0.46142-2.661-1.6446 23.158-44.042 37.881-62.204 9.6668-11.925 10.352-13.178 2.9574-5.4121-11.195 11.758-25.777 33.509-40.138 59.871-6.1651 11.317-7.6224 14.756-6.8581 16.184 0.53378 0.99738 0.94199 2.4055 0.90712 3.1292-0.0349 0.72366-0.52319 0.19074-1.0852-1.1843-0.97068-2.375-1.2182-2.1124-4.9487 5.25-2.1598 4.2625-4.1515 7.75-4.426 7.75-0.27449 0 1.306-3.59 3.5121-7.9778zm9.0901 5.3096c-0.0434-0.64252-0.33793-1.9925-0.65446-3-0.54705-1.7412-0.51883-1.7434 0.57078-0.0441 0.63045 0.98322 0.92496 2.3332 0.65445 3-0.35498 0.87499-0.51379 0.88727-0.57077 0.0441z"/>
   <path fill="#ee8a2e" d="m233.34 578.74c2.2061-4.3878 4.0112-8.9144 4.0112-10.059 0-1.1447 0.36736-1.8542 0.81635-1.5767 0.44899 0.27749 1.5191-1.046 2.3781-2.941 1.2158-2.6824 1.275-3.4455 0.26698-3.4455-0.7121 0-1.4875 0.5625-1.723 1.25-1.4444 4.2152-12.641-45.572-14.224-63.25l-0.67174-7.5 3.9696-3.8462 3.9696-3.8462 1.2942 3.8462c0.71181 2.1154 1.3235 7.2934 1.3593 11.507 0.0499 5.8679 0.34798 7.4268 1.2739 6.6618 1.6189-1.3376 2.7301 3.0854 1.9629 7.8133-0.49112 3.0264-0.36328 3.3534 0.90085 2.3043 1.1834-0.98217 1.3868-0.94897 1.0338 0.1688-0.24165 0.76529-0.73025 2.7075-1.0858 4.3161-0.54261 2.455-0.41766 2.7348 0.7782 1.7423 1.1895-0.98722 1.6353-0.18963 2.7012 4.8334 1.5414 7.2635 0.83326 14.446-1.9652 19.931-1.1416 2.2376-1.649 4.0684-1.1278 4.0684 1.6726 0 4.659-4.6191 10.471-16.196 3.1212-6.217 8.5466-15.168 12.056-19.89 6.4511-8.6802 22.123-25.914 23.566-25.914 0.4305 0 1.0767 1.1712 1.4359 2.6026 0.51967 2.0705-0.0742 3.4504-2.9048 6.75-10.644 12.407-25.113 34.515-37.644 57.518-6.1651 11.317-7.6224 14.756-6.8581 16.184 0.53378 0.99738 0.94199 2.4055 0.90712 3.1292-0.0349 0.72366-0.52319 0.19074-1.0852-1.1843-0.97068-2.375-1.2182-2.1124-4.9487 5.25-2.1598 4.2625-4.1515 7.75-4.426 7.75-0.27449 0 1.306-3.59 3.5121-7.9778zm9.0901 5.3096c-0.0434-0.64252-0.33793-1.9925-0.65446-3-0.54705-1.7412-0.51883-1.7434 0.57078-0.0441 0.63045 0.98322 0.92496 2.3332 0.65445 3-0.35498 0.87499-0.51379 0.88727-0.57077 0.0441zm-9.2887-21.356c0.24021-1.6367 0.0482-2.9858-0.42675-2.998-0.47493-0.0122-1.9885-0.95412-3.3635-2.0931-1.7885-1.4815-1.9782-1.9019-0.66644-1.4771 1.0085 0.32657 1.6639 0.25596 1.4566-0.15691-8.9594-17.843-12.488-36.385-11.898-62.524l0.10773-4.7731 2.3532 1.5419c2.083 1.3648 2.42 2.5444 2.9354 10.273 0.87913 13.184 6.336 39.513 12.689 61.225 1.2478 4.2643 1.2661 4.9404 0.0831 3.0709-0.70095-1.1077-1.2282-1.1704-2.3079-0.27424-1.1575 0.96065-1.324 0.64698-0.96271-1.8143zm11.943 0.42401c-1.8279-1.8279 24.6-44.87 37.239-60.65l6.2075-7.75h5.9103c7.0286 0 7.2251 0.58116 2.5402 7.5134-4.0552 6.0005-8.1478 10.199-10.746 11.023-2.5763 0.81769-1.4423 2.422 1.2199 1.7258 2.0694-0.54117 2.0658-0.49392-0.23563 3.0169-1.2859 1.9617-3.6686 4.3527-5.295 5.3134-2.5848 1.5269-2.7263 1.8276-1.1244 2.3896 1.576 0.55283 1.3578 0.9467-1.5584 2.8134-2.2594 1.4463-2.8101 2.1762-1.6502 2.1875 1.4874 0.0144 1.3089 0.71866-1.2265 4.8392-5.5503 9.0204-14.408 16.082-20.264 16.156-0.9625 0.0121-1.75 0.47196-1.75 1.022 0 1.3119 5.5942 1.2875 8.0657-0.0352 1.0638-0.56935 1.9343-0.75399 1.9343-0.4103 0 1.1947-4.5108 4.3792-6.25 4.4122-1.9687 0.0374-2.4476 2.0155-0.5 2.0651 0.70412 0.0179 0.40229 0.67298-0.69113 1.5-1.0894 0.82402-4.077 1.4682-6.809 1.4682-2.9906 0-4.6295 0.38564-4.2498 1 0.67773 1.0966 0.18616 1.3528-0.76691 0.39976z"/>
   <path fill="#a0579b" d="m233.34 578.74c2.2061-4.3878 4.0112-8.9144 4.0112-10.059 0-1.1447 0.36736-1.8542 0.81635-1.5767 0.44899 0.27749 1.5191-1.046 2.3781-2.941 1.2158-2.6824 1.275-3.4455 0.26698-3.4455-0.7121 0-1.4875 0.5625-1.723 1.25-1.4255 4.1602-13.738-50.443-13.738-60.925 0-3.9763 0.2069-4.3251 2.5657-4.3251 1.4112 0 3.4251-0.45991 4.4754-1.022 1.6085-0.86085 2.0116-0.61573 2.5563 1.5543 0.35564 1.417 0.38906 4.1634 0.0743 6.1032-0.47971 2.9561-0.34429 3.3376 0.83677 2.3575 1.1386-0.94491 1.5364-0.66207 2.0723 1.4731 0.36478 1.4534 0.40568 4.2296 0.0909 6.1694-0.49112 3.0264-0.36327 3.3534 0.90086 2.3043 1.1834-0.98217 1.3868-0.94897 1.0338 0.1688-0.24166 0.76529-0.73026 2.7075-1.0858 4.3161-0.54261 2.455-0.41766 2.7348 0.7782 1.7423 1.1895-0.98722 1.6353-0.18963 2.7012 4.8334 1.5414 7.2635 0.83326 14.446-1.9652 19.931-1.1416 2.2376-1.649 4.0684-1.1278 4.0684 1.6726 0 4.659-4.6191 10.471-16.196 5.815-11.583 14.544-24.164 23.356-33.663 4.7543-5.1249 5.0822-5.2996 7.5078-4l2.5364 1.359-7.9171 10.904c-9.8621 13.583-20.076 29.991-29.524 47.428-5.6996 10.52-7.063 13.813-6.3051 15.229 0.53191 0.99388 0.93859 2.3991 0.90372 3.1228-0.0349 0.72366-0.52319 0.19074-1.0852-1.1843-0.97068-2.375-1.2182-2.1124-4.9487 5.25-2.1598 4.2625-4.1515 7.75-4.426 7.75-0.27449 0 1.306-3.59 3.5121-7.9778zm9.0901 5.3096c-0.0434-0.64252-0.33793-1.9925-0.65446-3-0.54705-1.7412-0.51883-1.7434 0.57078-0.0441 0.63045 0.98322 0.92496 2.3332 0.65445 3-0.35498 0.87499-0.51379 0.88727-0.57077 0.0441zm-9.2887-21.356c0.24021-1.6367 0.0482-2.9858-0.42675-2.998-0.47493-0.0122-1.9885-0.95412-3.3635-2.0931-1.7885-1.4815-1.9782-1.9019-0.66644-1.4771 1.0085 0.32657 1.6639 0.25596 1.4566-0.15691-7.5974-15.13-11.778-32.994-11.786-50.362-0.004-8.5328 0.0177-8.6072 2.3774-8.1561 2.1048 0.40235 2.4608 1.1704 3.0642 6.6113 1.4438 13.019 7.1395 39.22 12.532 57.649 1.2478 4.2643 1.2661 4.9404 0.0831 3.0709-0.70095-1.1077-1.2282-1.1704-2.3079-0.27424-1.1575 0.96065-1.324 0.64698-0.96271-1.8143zm11.943 0.42401c-1.6524-1.6524 24.342-44.54 35.278-58.204 4.2053-5.2544 4.2649-5.2867 6.367-3.4544 1.1671 1.0173 3.3335 2.4537 4.8144 3.1922 2.6064 1.2997 2.6383 1.4164 1 3.6512-0.93085 1.2697-3.1274 3.0951-4.8813 4.0563-3.4635 1.8982-3.5904 3.506-0.20681 2.6212 2.0694-0.54117 2.0658-0.49392-0.23563 3.0169-1.2859 1.9617-3.6686 4.3527-5.295 5.3134-2.5848 1.5269-2.7263 1.8276-1.1244 2.3896 1.576 0.55283 1.3578 0.9467-1.5584 2.8134-2.2594 1.4463-2.8101 2.1762-1.6502 2.1875 1.4874 0.0144 1.3089 0.71866-1.2265 4.8392-5.5503 9.0204-14.408 16.082-20.264 16.156-0.9625 0.0121-1.75 0.47196-1.75 1.022 0 1.3119 5.5942 1.2875 8.0657-0.0352 1.0638-0.56935 1.9343-0.75399 1.9343-0.4103 0 1.1947-4.5108 4.3792-6.25 4.4122-1.9687 0.0374-2.4476 2.0155-0.5 2.0651 0.70412 0.0179 0.40229 0.67298-0.69113 1.5-1.0894 0.82402-4.077 1.4682-6.809 1.4682-2.9906 0-4.6295 0.38564-4.2498 1 0.67773 1.0966 0.18616 1.3528-0.76691 0.39976z"/>
   <path fill="#d9555d" d="m232.38 581.22c0-0.55 0.43621-1.675 0.96937-2.5s0.96937-1.05 0.96937-0.5-0.43621 1.675-0.96937 2.5-0.96937 1.05-0.96937 0.5zm1.9694-18.927c0-0.78508-1.1097-2.3003-2.4661-3.3672s-2.1836-2.2223-1.8383-2.5676c0.34526-0.34526-0.53192-2.7675-1.9493-5.3828-5.633-10.394-9.7349-29.495-9.7423-45.366-0.004-8.5328 0.0177-8.6072 2.3774-8.1561 2.1048 0.40235 2.4608 1.1704 3.0642 6.6113 1.3157 11.864 7.161 39.457 12.161 57.406 0.38001 1.3642 0.18716 2.25-0.48987 2.25-0.61415 0-1.1166-0.64234-1.1166-1.4274zm13.085-1.4621c-1.1463-0.75519-0.12074-3.2717 5.4085-13.271 7.5732-13.696 20.99-34.488 27.517-42.643 4.2053-5.2544 4.2649-5.2867 6.367-3.4544 1.1671 1.0173 3.3335 2.4537 4.8144 3.1922 2.6064 1.2997 2.6383 1.4164 1 3.6512-0.93085 1.2697-3.1274 3.0951-4.8813 4.0563-3.4635 1.8982-3.5904 3.506-0.20681 2.6212 2.0694-0.54117 2.0658-0.49392-0.23563 3.0169-1.2859 1.9617-3.6686 4.3527-5.295 5.3134-2.5848 1.5269-2.7263 1.8276-1.1244 2.3896 1.576 0.55283 1.3578 0.9467-1.5584 2.8134-2.2594 1.4463-2.8101 2.1762-1.6502 2.1875 1.4874 0.0144 1.3089 0.71866-1.2265 4.8392-5.7488 9.343-14.425 16.094-20.764 16.156-1.2375 0.0121-2.25 0.52921-2.25 1.1492 0 0.75009 1.6731 0.96646 5.0007 0.64673 4.0039-0.38473 4.7874-0.22358 3.9309 0.80849-0.58837 0.70895-2.3887 1.5787-4.0007 1.9327-3.1838 0.69928-4.0133 2.466-1.1809 2.5152 1.4792 0.0257 1.5179 0.16633 0.25 0.90866-2.5006 1.4641-8.4104 2.1624-9.9146 1.1714zm-10.35-2.8605c-0.27024-1.5125-1.9027-7.925-3.6276-14.25-3.8171-13.997-8.108-36.524-8.108-42.567 0-4.0926 0.19724-4.4334 2.5657-4.4334 1.4112 0 3.4251-0.45991 4.4754-1.022 1.6085-0.86085 2.0116-0.61573 2.5563 1.5543 0.35564 1.417 0.38906 4.1634 0.0743 6.1032-0.47971 2.9561-0.34429 3.3376 0.83677 2.3575 1.1386-0.94491 1.5364-0.66207 2.0723 1.4731 0.36478 1.4534 0.40568 4.2296 0.0909 6.1694-0.49112 3.0264-0.36327 3.3534 0.90086 2.3043 1.1834-0.98217 1.3868-0.94897 1.0338 0.1688-0.24166 0.76529-0.73026 2.7075-1.0858 4.3161-0.54261 2.455-0.41766 2.7348 0.7782 1.7423 1.1895-0.98722 1.6353-0.18963 2.7012 4.8334 1.6176 7.6223 0.76802 14.931-2.3929 20.587-1.3565 2.4271-2.0831 4.4129-1.6147 4.4129 1.1318 0 8.0075-8.072 8.0075-9.4007 0-0.57236 2.0354-5.1039 4.5232-10.07 4.7721-9.5263 13.911-22.441 22.211-31.388 4.7543-5.1249 5.0822-5.2996 7.5078-4l2.5364 1.359-7.9327 10.926c-7.9323 10.925-20.408 30.492-27.181 42.63-1.9776 3.5442-4.045 6.3369-4.5942 6.206-0.54923-0.13091-0.74165 0.43159-0.4276 1.25 0.42714 1.1131-0.18318 1.488-2.4225 1.488-2.4798 0-3.0778-0.47187-3.4848-2.75zm8.3919-7c1.2439-1.5861 1.2085-1.6214-0.37756-0.37756-0.9625 0.75485-1.75 1.5424-1.75 1.75 0 0.82304 0.82119 0.29331 2.1276-1.3724z"/>
   <path fill="#e56636" d="m232.38 581.22c0-0.55 0.43621-1.675 0.96937-2.5s0.96937-1.05 0.96937-0.5-0.43621 1.675-0.96937 2.5-0.96937 1.05-0.96937 0.5zm1.9694-18.927c0-0.78508-1.1097-2.3003-2.4661-3.3672s-2.2127-2.1932-1.903-2.5029c0.30969-0.30968-0.82795-3.4069-2.5281-6.8828-5.2654-10.765-9.0932-30.085-9.1-45.931-0.003-6.4246 0.0644-6.5985 2.3772-6.1564 2.1594 0.4128 2.4441 1.1183 3.0718 7.6113 1.2154 12.574 5.1314 30.731 12.165 56.406 0.37202 1.358 0.1737 2.25-0.50025 2.25-0.61415 0-1.1166-0.64234-1.1166-1.4274zm13.104-1.4505c-1.1331-0.7471-0.60134-2.3678 2.8256-8.6118 10.132-18.462 19.444-33.053 29.884-46.83 4.3859-5.7876 4.4216-5.8091 6.5482-3.9544 1.176 1.0257 3.3498 2.469 4.8307 3.2075 2.6064 1.2997 2.6383 1.4164 1 3.6512-0.93085 1.2697-3.155 3.1099-4.9424 4.0892-3.581 1.9619-4.4062 3.8275-1.25 2.8258 2.4434-0.77549 2.495-0.14656 0.29394 3.5796-0.93834 1.5885-3.3008 3.6544-5.25 4.591-3.3984 1.6329-3.4459 1.7267-1.1565 2.2847 2.2951 0.55931 2.2467 0.65759-1.25 2.5407-3.5284 1.9002-5.1631 4.3035-2.1374 3.1424 0.825-0.31658 1.5-0.24622 1.5 0.15636 0 1.1908-6.5289 10.495-9.2884 13.237-3.1139 3.094-10.659 6.968-13.571 6.968-1.1773 0-2.1405 0.50725-2.1405 1.1272 0 0.75009 1.6731 0.96646 5.0007 0.64673 4.0039-0.38473 4.7874-0.22358 3.9309 0.80849-0.58837 0.70895-2.3887 1.5787-4.0007 1.9327-3.1838 0.69928-4.0133 2.466-1.1809 2.5152 1.4792 0.0257 1.5179 0.16633 0.25 0.90866-2.4882 1.4568-8.4073 2.1645-9.8958 1.183zm-10.397-2.8721c-0.28577-1.5125-2.0781-8.8284-3.9828-16.257-3.797-14.809-7.7246-35.885-7.7246-41.451 0-3.1933 0.27052-3.5432 2.75-3.557 1.5125-0.008 3.4131-0.43467 4.2236-0.94722 3.1162-1.9707 4.1457 4.8974 1.5007 10.012-1.7991 3.479-1.3116 3.7654 1.4196 0.83387l1.9718-2.1165 0.7143 3.8075c0.41102 2.191 0.25033 5.0367-0.37849 6.7026-0.93555 2.4786-0.86844 2.809 0.46645 2.2968 1.3089-0.50226 1.4477-0.004 0.86477 3.1034-0.60046 3.2007-0.49366 3.5351 0.78905 2.4706 1.2738-1.0572 1.653-0.22631 2.6826 5.8779 1.3301 7.8859 0.41614 13.825-3.0354 19.724-1.0458 1.7875-1.5018 3.25-1.0132 3.25 1.615 0 7.5499-7.7426 8.934-11.655 3.177-8.9807 16.825-29.501 26.607-40.005 4.0422-4.3404 4.3511-4.4839 6.8431-3.1782l2.6098 1.3674-5.7565 7.4853c-5.5704 7.2434-16.25 22.982-18.921 27.883-0.71861 1.3188-2.8308 4.9188-4.6938 8s-4.7645 8.0772-6.4478 11.102c-1.6833 3.025-3.51 5.3929-4.0594 5.262-0.5494-0.13091-0.74195 0.43159-0.4279 1.25 0.42714 1.1131-0.18318 1.488-2.4225 1.488-2.473 0-3.0838-0.47816-3.5131-2.75zm8.4202-7c1.2439-1.5861 1.2085-1.6214-0.37756-0.37756-0.9625 0.75485-1.75 1.5424-1.75 1.75 0 0.82304 0.82119 0.29331 2.1276-1.3724z"/>
   <path fill="#953a8a" d="m232.38 581.22c0-0.55 0.43621-1.675 0.96937-2.5s0.96937-1.05 0.96937-0.5-0.43621 1.675-0.96937 2.5-0.96937 1.05-0.96937 0.5zm1.9694-18.927c0-0.78508-1.1097-2.3003-2.4661-3.3672s-2.1836-2.2223-1.8383-2.5676c0.34526-0.34526-0.52619-2.7675-1.9366-5.3828-4.3364-8.041-6.7059-17.289-9.1878-35.861-0.53866-4.0306-0.49396-4.104 2.4378-4 1.6426 0.0583 2.9875 0.19557 2.9888 0.30515 0.0403 3.5253 6.5198 31.436 11.619 50.051 0.37202 1.358 0.1737 2.25-0.50025 2.25-0.61415 0-1.1166-0.64234-1.1166-1.4274zm13.16-1.4157c-1.0904-0.72083-0.96415-1.6213 0.67868-4.8416 3.6946-7.2419 15.279-26.709 20.784-34.927l5.4342-8.112 5.5666 1.294c3.0616 0.7117 6.1987 1.0515 6.9712 0.75503 3.9642-1.5212-1.2122 6.2605-5.5515 8.3455-3.3984 1.6329-3.4459 1.7267-1.1565 2.2847 2.2951 0.55931 2.2467 0.65759-1.25 2.5407-3.5284 1.9002-5.1631 4.3035-2.1374 3.1424 0.825-0.31658 1.5-0.24622 1.5 0.15636 0 1.1908-6.5289 10.495-9.2884 13.237-3.1139 3.094-10.659 6.968-13.571 6.968-1.1773 0-2.1405 0.50725-2.1405 1.1272 0 0.75009 1.6731 0.96646 5.0007 0.64673 4.0039-0.38473 4.7874-0.22358 3.9309 0.80849-0.58837 0.70895-2.3887 1.5787-4.0007 1.9327-3.1838 0.69928-4.0133 2.466-1.1809 2.5152 1.4792 0.0257 1.5179 0.16633 0.25 0.90866-2.4503 1.4347-8.398 2.1708-9.8395 1.2178zm-10.808-4.4068c-3.9503-15.231-8.4522-35.009-8.9341-39.25-0.55928-4.9215-0.50815-5.0392 3.2567-7.4996 2.1037-1.3748 4.347-3.1691 4.9851-3.9874 1.7148-2.199 2.9854 5.4383 1.5413 9.2642-0.93555 2.4786-0.86844 2.809 0.46645 2.2968 1.3089-0.50226 1.4477-0.004 0.86477 3.1034-0.60046 3.2007-0.49366 3.5351 0.78905 2.4706 1.2738-1.0572 1.653-0.22631 2.6826 5.8779 1.3301 7.8859 0.41614 13.825-3.0354 19.724-1.0458 1.7875-1.5018 3.25-1.0132 3.25 1.615 0 7.5499-7.7426 8.934-11.655 2.7833-7.8678 19.916-34.345 22.223-34.345 0.41358 0 1.0679 1.0125 1.4541 2.25s1.0456 2.475 1.4654 2.75c0.41975 0.275-2.3409 5.1993-6.1348 10.943-3.7939 5.7436-6.898 10.565-6.898 10.715 0 0.14937-1.9826 3.55-4.4059 7.557-2.4232 4.007-5.7825 9.7605-7.4651 12.785-1.6826 3.025-3.5088 5.3929-4.0581 5.262-0.5494-0.13091-0.74195 0.43159-0.4279 1.25 0.42404 1.105-0.17012 1.488-2.3086 1.488-2.5482 0-3.0065-0.48911-3.9819-4.25zm8.7751-5.5c1.2439-1.5861 1.2085-1.6214-0.37756-0.37756-0.9625 0.75485-1.75 1.5424-1.75 1.75 0 0.82304 0.82119 0.29331 2.1276-1.3724z"/>
   <path fill="#b93368" d="m229.62 550.73c-4.5614-2.7739-7.6998-13.229-10.692-35.62-0.53866-4.0306-0.49396-4.104 2.4378-4 1.6426 0.0583 2.9875 0.19557 2.9888 0.30515 0.0207 1.8074 4.784 24.184 6.6332 31.161 1.3645 5.1484 2.3225 9.5192 2.1287 9.713-0.19376 0.19375-1.7671-0.50814-3.4964-1.5598zm3.3618-8.7222c-3.6221-15.214-5.6262-25.062-5.6183-27.607 0.004-1.4075 1.3383-3.0738 3.75-4.6842 2.0587-1.3748 4.2652-3.1691 4.9033-3.9874 1.7148-2.199 2.9854 5.4383 1.5413 9.2642-0.93555 2.4786-0.86844 2.809 0.46645 2.2968 1.3089-0.50226 1.4477-0.004 0.86477 3.1034-0.60046 3.2007-0.49366 3.5351 0.78905 2.4706 2.2862-1.8974 4.3241 11.23 2.7275 17.571-1.3475 5.3514-3.3184 9.43-5.3861 11.146-1.2562 1.0426-1.8405-0.3426-4.038-9.5728zm18.076 10.076c-0.64872-0.64871 10.414-19.771 17.923-30.98l5.4342-8.112 5.5666 1.294c3.0616 0.7117 6.1987 1.0515 6.9712 0.75503 3.9642-1.5212-1.2122 6.2605-5.5515 8.3455-3.3984 1.6329-3.4459 1.7267-1.1565 2.2847 2.2951 0.55931 2.2467 0.65759-1.25 2.5407-3.5284 1.9002-5.1631 4.3035-2.1374 3.1424 0.825-0.31658 1.5-0.24622 1.5 0.15636 0 1.1908-6.5289 10.495-9.2884 13.237-4.225 4.198-16.251 9.0958-18.011 7.3356zm-3.7203-5.4144c-1.6525-3.9895-0.58695-7.2754 6.0354-18.612 5.1782-8.8643 14.889-22.341 16.097-22.341 0.41358 0 1.0679 1.0125 1.4541 2.25s1.0456 2.475 1.4654 2.75c0.41975 0.275-2.3409 5.1993-6.1348 10.943-3.7939 5.7436-6.898 10.565-6.898 10.715 0 0.41204-9.2079 15.725-10.011 16.648-0.38541 0.4431-1.2894-0.61555-2.0089-2.3526z"/>
   <path fill="#d0334d" d="m268.92 543.41c0.39936-1.0407 0.16314-1.6939-0.61257-1.6939-0.69443 0-2.7035-1.099-4.4647-2.4423-2.5028-1.909-3.4785-2.182-4.4679-1.25-1.964 1.8499 3.5846-7.9204 9.6087-16.92l5.4301-8.112 5.5666 1.294c3.0616 0.7117 6.1987 1.0515 6.9712 0.75503 3.9642-1.5212-1.2122 6.2605-5.5515 8.3455-3.3984 1.6329-3.4459 1.7267-1.1565 2.2847 2.2951 0.55931 2.2467 0.65759-1.25 2.5407-3.5284 1.9002-5.1631 4.3035-2.1374 3.1424 2.1429-0.82232 1.8896 0.0794-1.5114 5.3794-3.4044 5.3054-7.5528 9.6161-6.4246 6.6761zm-46.308-7.299c-1.065-3.6153-2.3791-11.094-3.6902-21.001-0.53331-4.0299-0.48805-4.104 2.4446-4 2.6018 0.0922 3.0678 0.55823 3.6051 3.6059 0.33938 1.925 1.4647 7.712 2.5008 12.86 1.036 5.148 1.8837 9.5355 1.8837 9.75 0 0.21446-1.0875 0.38992-2.4167 0.38992s-2.5884 0.5152-2.7983 1.1449c-0.20989 0.62969-0.89795-0.60781-1.529-2.75zm6.8793-9.4428c-2.8681-13.469-2.8186-13.987 1.6215-16.952 2.0587-1.3748 4.2652-3.1691 4.9033-3.9874 1.7148-2.199 2.9854 5.4383 1.5413 9.2642-0.93555 2.4786-0.86844 2.809 0.46645 2.2968 1.3089-0.50226 1.4477-0.004 0.86477 3.1034-0.60089 3.203-0.4943 3.5356 0.79119 2.4688 1.2587-1.0446 1.5813-0.65346 2.1116 2.5604 1.4575 8.8336 1.4278 9.864-0.28538 9.8878-0.90753 0.0126-3.5016 0.32963-5.7647 0.70445l-4.1146 0.68151-2.1354-10.028zm25.578 6.8509c-0.98257-1.0318-2.2201-1.608-2.75-1.2804-0.52994 0.32752-0.96237 0.23144-0.96096-0.21352 0.008-2.4071 16.461-26.309 18.111-26.309 0.41358 0 1.0679 1.0125 1.4541 2.25s1.0456 2.475 1.4654 2.75c0.41975 0.275-2.3409 5.1993-6.1348 10.943-3.7939 5.7436-6.898 10.751-6.898 11.128 0 2.0224-2.63 2.4718-4.2865 0.73246z"/>
  </g>
 </g>
</svg>
