<svg id="Layer_1" data-name="Layer 1" xmlns="http://www.w3.org/2000/svg" viewBox="0 0 9.18 13.75"><defs><style>.cls-1{fill:#3a3a3a;}</style></defs><title>cf-logo</title><path class="cls-1" d="M3.59,8.31a2.44,2.44,0,0,0-.8-2.08l0,0A2.88,2.88,0,0,1,5,1.45H5A2.88,2.88,0,0,1,7.24,6.19l0,0a2.76,2.76,0,0,0-.8,2.08,4.21,4.21,0,0,0,2.84-4,4.25,4.25,0,0,0-4-4.23H4.76a4.25,4.25,0,0,0-4,4.23A4.21,4.21,0,0,0,3.59,8.31Z" transform="translate(-0.41 -0.13)"/><path class="cls-1" d="M9,11.66l0.25-.07,0.29,0V11.47a0.74,0.74,0,0,0,0-.18l0-.09,0-.08,0-.07L9.12,11l-0.27-.09a1.18,1.18,0,0,1-.38-0.23h0a0.28,0.28,0,0,1-.11-0.23,0.2,0.2,0,0,1,0-.1,0.33,0.33,0,0,1,.11-0.09l-0.09-.05-0.09-.05-0.11-.05L8,10l-0.1,0L7.67,10H7.41a2.49,2.49,0,0,1-.48-0.08L6.74,9.8,6.59,9.72a0.24,0.24,0,0,1-.13-0.17l-0.12,0L6,9.49s0,0,0,.06L6,9.67a0.47,0.47,0,0,0,.32.55A1.64,1.64,0,0,1,7.43,11c0.25,0.68-.81,1.35-2.42,1.35S2.34,11.67,2.59,11a1.6,1.6,0,0,1,1.09-.77A0.49,0.49,0,0,0,4,9.65l0-.16-0.22,0-0.26,0-0.12,0a0.21,0.21,0,0,1-.11.17l-0.14.08L3,9.9H3l-0.23.05L2.48,10A2.48,2.48,0,0,1,2,10h0L1.88,10l-0.21.1-0.2.11-0.07,0h0a0.28,0.28,0,0,1,.18.19,0.26,0.26,0,0,1-.08.24l-0.15.12L1.11,11a2.37,2.37,0,0,1-.57.18,0.38,0.38,0,0,0,0,.08l-0.06.17,0,0.18a0.3,0.3,0,0,0,0,.08,1.62,1.62,0,0,1,.57.1,0.7,0.7,0,0,1,.36.25,0.39,0.39,0,0,1,0,.37,0.87,0.87,0,0,1-.32.41l0,0,0.08,0.06L1.42,13l0.3,0.17,0.11,0.05,0,0a2.71,2.71,0,0,1,.78-0.19,2.3,2.3,0,0,1,.39,0,2.15,2.15,0,0,1,.38,0h0a2.32,2.32,0,0,1,.34.11,1.94,1.94,0,0,1,.29.16,1,1,0,0,1,.37.47H4.65c0.14,0,.32,0,0.5,0l0.5,0,0.22,0A0.68,0.68,0,0,1,6,13.57l0.09-.11,0.11-.1a1.14,1.14,0,0,1,.27-0.17,1.53,1.53,0,0,1,.33-0.12A2.83,2.83,0,0,1,7.16,13a3.38,3.38,0,0,1,.39,0,2.75,2.75,0,0,1,.79.17l0.14-.08a2.39,2.39,0,0,0,.28-0.17L9,12.75l0.09-.09a1.05,1.05,0,0,1-.36-0.4,0.45,0.45,0,0,1,0-.19,0.27,0.27,0,0,1,0-.17A0.59,0.59,0,0,1,9,11.66Z" transform="translate(-0.41 -0.13)"/><path class="cls-1" d="M5.37,10.9V10.71c0-.62-0.11-1.81-0.09-2.84a3.24,3.24,0,0,1,1-2.36A1.48,1.48,0,0,0,6.9,4.34,1.78,1.78,0,0,0,5,2.75a1.78,1.78,0,0,0-1.9,1.6,1.48,1.48,0,0,0,.58,1.17,3.24,3.24,0,0,1,1,2.36c0,1,0,2.22-.09,2.84V10.9l-0.18,0a1.23,1.23,0,0,0-.74.26,1.94,1.94,0,0,0,1.3.37,1.75,1.75,0,0,0,1.3-.39,1.59,1.59,0,0,0-.74-0.24Z" transform="translate(-0.41 -0.13)"/></svg>