<?xml version="1.0" encoding="utf-8"?>
<!-- Generator: Adobe Illustrator 21.1.0, SVG Export Plug-In . SVG Version: 6.00 Build 0)  -->
<svg version="1.1" id="Layer_1" xmlns="http://www.w3.org/2000/svg" xmlns:xlink="http://www.w3.org/1999/xlink" x="0px" y="0px"
	 viewBox="0 0 24 24" style="enable-background:new 0 0 24 24;" xml:space="preserve">
<path d="M18,8.5c-0.3,0-0.6-0.1-0.9-0.4L12,3L6.9,8.1c-0.5,0.5-1.3,0.5-1.8,0s-0.5-1.3,0-1.8l6-6c0.5-0.5,1.3-0.5,1.8,0l6,6
	c0.5,0.5,0.5,1.3,0,1.8C18.6,8.4,18.3,8.5,18,8.5z"/>
<path d="M12,24c-0.3,0-0.6-0.1-0.9-0.4l-6-6c-0.5-0.5-0.5-1.3,0-1.8s1.3-0.5,1.8,0L12,21l5.1-5.1c0.5-0.5,1.3-0.5,1.8,0
	s0.5,1.3,0,1.8l-6,6C12.6,23.9,12.3,24,12,24z"/>
</svg>
