<?xml version="1.0" encoding="utf-8"?>
<!-- Generator: Adobe Illustrator 21.1.0, SVG Export Plug-In . SVG Version: 6.00 Build 0)  -->
<svg version="1.1" id="Layer_1" xmlns="http://www.w3.org/2000/svg" xmlns:xlink="http://www.w3.org/1999/xlink" x="0px" y="0px"
	 viewBox="0 0 24 24" style="enable-background:new 0 0 24 24;" xml:space="preserve">
<title>Artboard 1</title>
<path d="M1,24h15c0.6,0,1-0.5,1-1v-9.7c0-0.1,0-0.2-0.1-0.3c0,0,0,0,0-0.1c0-0.1-0.1-0.1-0.1-0.2l-2.4-3.3C14.3,9.2,14,9,13.6,9H3.4
	C3,9,2.7,9.2,2.5,9.4l-2.4,3.3c0,0.1-0.1,0.1-0.1,0.2c0,0,0,0,0,0.1C0,13.1,0,13.2,0,13.3V23C0,23.5,0.5,24,1,24z M1,23l0-9.3h15
	l0,9.3L1,23z M13.6,10L13.6,10l1.9,2.6H9V10L13.6,10C13.6,10,13.6,10,13.6,10z M3.4,10H8v2.7H1.5L3.4,10z"/>
<path d="M13.3,18H8.8C8.3,18,8,18.4,8,18.8l0,0l0,0v1.3C8,20.6,8.3,21,8.7,21c0,0,0,0,0,0l0,0h4.5c0.4,0,0.8-0.4,0.8-0.8l0,0l0,0
	v-1.3C14,18.4,13.7,18,13.3,18C13.3,18,13.3,18,13.3,18L13.3,18z M13,20H9v-1h4V20z"/>
<path d="M20.7,4l3.1-3.1c0.2-0.2,0.2-0.5,0-0.7s-0.5-0.2-0.7,0c0,0,0,0,0,0L20,3.3l-3.1-3.1c-0.2-0.2-0.5-0.2-0.7,0
	c-0.2,0.2-0.2,0.5,0,0.7L19.3,4l-3.1,3.1c-0.2,0.2-0.2,0.5,0,0.7c0.2,0.2,0.5,0.2,0.7,0c0,0,0,0,0,0L20,4.7l3.1,3.1
	c0.2,0.2,0.5,0.2,0.7,0c0.2-0.2,0.2-0.5,0-0.7c0,0,0,0,0,0L20.7,4z"/>
</svg>
