<?xml version="1.0" encoding="utf-8"?>
<!-- Generator: Adobe Illustrator 22.1.0, SVG Export Plug-In . SVG Version: 6.00 Build 0)  -->
<svg version="1.1" id="Light" xmlns="http://www.w3.org/2000/svg" xmlns:xlink="http://www.w3.org/1999/xlink" x="0px" y="0px"
	 viewBox="0 0 24 24" style="enable-background:new 0 0 24 24;" xml:space="preserve">
<g>
	<title>cake-birthday</title>
	<path d="M0.5,24C0.224,24,0,23.775,0,23.5S0.224,23,0.5,23h23c0.276,0,0.5,0.224,0.5,0.5S23.776,24,23.5,24H0.5z"/>
	<path d="M3.5,22c-1.375-0.003-2.496-1.125-2.5-2.499V11.5C1,10.672,1.673,10,2.5,10H4V7c0-0.551,0.449-1,1-1h1c0.551,0,1,0.449,1,1
		v3h3.5V7c0-0.551,0.449-1,1-1h1c0.552,0,1,0.449,1,1v3H17V7c0-0.551,0.448-1,1-1h1c0.552,0,1,0.449,1,1v3h1.5
		c0.827,0,1.5,0.673,1.5,1.5v8c-0.003,1.375-1.124,2.497-2.499,2.5C20.501,22,3.5,22,3.5,22z M2,19.5
		c0.002,0.825,0.676,1.498,1.501,1.5H20.5c0.825-0.002,1.498-0.676,1.5-1.501v-4.21c-0.573,0.532-1.329,0.836-2.125,0.836
		c-1.069,0-2.054-0.549-2.625-1.431c-0.571,0.882-1.556,1.431-2.625,1.431S12.571,15.576,12,14.694
		c-0.57,0.882-1.556,1.431-2.625,1.431S7.32,15.576,6.75,14.694c-0.57,0.882-1.556,1.431-2.625,1.431
		c-0.796,0-1.552-0.304-2.125-0.836V19.5z M17.25,12.5c0.276,0,0.5,0.224,0.5,0.5c0,1.172,0.953,2.125,2.125,2.125S22,14.171,22,13
		v-1.5c0-0.276-0.224-0.5-0.5-0.5h-19C2.224,11,2,11.224,2,11.5V13c0,1.172,0.953,2.125,2.125,2.125S6.25,14.171,6.25,13
		c0-0.276,0.224-0.5,0.5-0.5s0.5,0.224,0.5,0.5c0,1.172,0.953,2.125,2.125,2.125S11.5,14.171,11.5,13c0-0.276,0.224-0.5,0.5-0.5
		c0.276,0,0.5,0.224,0.5,0.5c0,1.172,0.953,2.125,2.125,2.125S16.75,14.171,16.75,13C16.75,12.724,16.974,12.5,17.25,12.5z M19,10V7
		h-1l0,3H19z M12.5,10V7h-1l0,3H12.5z M6,10V7H5l0,3H6z"/>
	<path d="M5.5,5c-1.103,0-2-0.897-2-2c0-0.035,0.004-0.071,0.011-0.106c0.2-0.918,0.618-1.79,1.209-2.52
		C4.909,0.136,5.194-0.001,5.5-0.001c0.225,0,0.447,0.077,0.623,0.218c0.059,0.047,0.112,0.1,0.158,0.158
		c0.59,0.729,1.007,1.6,1.207,2.518C7.496,2.928,7.5,2.964,7.5,3C7.5,4.102,6.603,5,5.5,5z M4.501,3.049C4.527,3.576,4.969,4,5.5,4
		s0.973-0.424,0.999-0.95C6.327,2.304,5.983,1.597,5.502,1.002L5.5,0.999C5.018,1.596,4.673,2.304,4.501,3.049z"/>
	<path d="M18.5,5c-1.103,0-2-0.897-2-2c0-0.036,0.004-0.072,0.012-0.108c0.2-0.917,0.618-1.788,1.208-2.519
		c0.165-0.207,0.403-0.338,0.668-0.368c0.038-0.004,0.076-0.007,0.115-0.007c0.224,0,0.444,0.078,0.621,0.219
		c0.057,0.045,0.111,0.098,0.158,0.158c0.59,0.729,1.007,1.6,1.207,2.518C20.496,2.93,20.5,2.965,20.5,3C20.5,4.102,19.603,5,18.5,5
		z M17.501,3.049C17.527,3.576,17.969,4,18.5,4s0.973-0.424,0.999-0.95c-0.172-0.745-0.516-1.453-0.996-2.047L18.501,1
		C18.018,1.596,17.673,2.304,17.501,3.049z"/>
	<path d="M12,5c-1.103,0-2-0.897-2-2c0-0.035,0.004-0.071,0.011-0.106c0.2-0.918,0.618-1.79,1.209-2.52
		c0.165-0.207,0.402-0.338,0.668-0.368c0.038-0.004,0.077-0.007,0.115-0.007c0.223,0,0.444,0.078,0.62,0.219
		c0.057,0.045,0.111,0.098,0.158,0.158c0.59,0.729,1.007,1.6,1.207,2.518C13.996,2.93,14,2.965,14,3C14,4.102,13.103,5,12,5z
		 M11.001,3.049C11.027,3.576,11.469,4,12,4s0.973-0.424,0.999-0.95c-0.172-0.745-0.516-1.453-0.997-2.047l-0.005-0.003
		C11.518,1.596,11.173,2.304,11.001,3.049z"/>
</g>
</svg>
