<svg xmlns="http://www.w3.org/2000/svg" viewBox="0 0 24 24">
  <title>Artboard 1</title>
  <path d="M23.995,5.401A5.49653,5.49653,0,0,0,13.641,2.92578H.5a.49971.49971,0,0,0-.5.5v20a.49971.49971,0,0,0,.5.5h23a.49971.49971,0,0,0,.5-.5v-18C24,5.417,23.99542,5.40967,23.995,5.401ZM13,8.92578h1.20154A5.46212,5.46212,0,0,0,20,10.786v2.13977H13Zm-4-5h4.23151a5.45748,5.45748,0,0,0,.338,4H9Zm3,5v4H5v-4Zm-11-5H8v4H1Zm0,5H4v4H1Zm0,5H7v4H1Zm9,9H1v-4h9Zm-2-5v-4h8v4Zm11,5H11v-4h8Zm4,0H20v-4h3Zm0-5H17v-4h6Zm0-5H21V10.39227a5.52314,5.52314,0,0,0,1.7951-1.46649H23Zm-.7196-5a4.49541,4.49541,0,0,1-.89386,1A4.5058,4.5058,0,0,1,21,9.24011a4.48209,4.48209,0,0,1-1,.48438,4.35119,4.35119,0,0,1-4.38654-.79871A4.43541,4.43541,0,0,1,14,5.5a4.46451,4.46451,0,0,1,.29858-1.57422,4.48054,4.48054,0,0,1,8.38959-.038,4.39915,4.39915,0,0,1-.40778,4.038Z"/>
  <path d="M17.80469,8.02393a1.1193,1.1193,0,0,1-.67578-.22656c-.0166-.0127-.09766-.083-.11328-.09766l-1.25391-1.2544a.49995.49995,0,0,1,.707-.707l1.25,1.25a.14561.14561,0,0,0,.18945-.01465l2.41992-3.22705a.50034.50034,0,0,1,.80078.6001h0L18.708,7.57373a1.11984,1.11984,0,0,1-.74414.439A1.09055,1.09055,0,0,1,17.80469,8.02393Z"/>
</svg>
