<svg xmlns="http://www.w3.org/2000/svg" viewBox="0 0 24 24">
  <title>Artboard 1</title>
  <path d="M18.27344,12.14014,15.72852,11.053a5.09174,5.09174,0,0,0-5.33105-3.44366l-.01611.002A5.22922,5.22922,0,0,0,5.833,12.88281V13.459a5.24449,5.24449,0,0,1-4.09814-1.72363,1.00006,1.00006,0,0,0-1.73242.7749C.333,15.7666,1.70947,18.084,4.09619,19.4082a7.22321,7.22321,0,0,1-.57275.59961L1.08984,22.26855A1,1,0,0,0,1.771,24H7.77881A8.23006,8.23006,0,0,0,16,15.7793v-.4895l2.375-1.36108a.99985.99985,0,0,0-.10156-1.78857ZM15,15.7793A7.22907,7.22907,0,0,1,7.77881,23H1.77148l2.43311-2.25977A8.17153,8.17153,0,0,0,5.27,19.52832a.5004.5004,0,0,0-.19629-.74512c-2.38721-1.10352-3.75879-3.248-4.07959-6.376A6.2043,6.2043,0,0,0,6.397,14.41309a.50044.50044,0,0,0,.436-.49609V12.874a4.2324,4.2324,0,0,1,3.6709-4.27051A4.10072,4.10072,0,0,1,15,12.667Zm1-1.64209V12.665c-.00055-.14032-.01166-.27936-.02374-.41815l1.90265.81366Z"/>
  <path d="M20.707,4,23.85352.85352a.49995.49995,0,1,0-.707-.707L20,3.293,16.85352.14648a.49995.49995,0,0,0-.707.707L19.293,4,16.14648,7.14648a.49995.49995,0,1,0,.707.707L20,4.707l3.14648,3.14648a.49995.49995,0,1,0,.707-.707Z"/>
  <circle cx="11.75" cy="11.75" r="0.75"/>
</svg>
