<?xml version="1.0" encoding="utf-8"?>
<!-- Generator: Adobe Illustrator 21.1.0, SVG Export Plug-In . SVG Version: 6.00 Build 0)  -->
<svg version="1.1" id="Layer_1" xmlns="http://www.w3.org/2000/svg" xmlns:xlink="http://www.w3.org/1999/xlink" x="0px" y="0px"
	 viewBox="0 0 24 24" style="enable-background:new 0 0 24 24;" xml:space="preserve">
<title>cloud-waiting</title>
<path d="M3.5,14.8c0,0-0.1,0-0.1,0c-1.8-0.4-3-2-2.9-3.8c0-0.2,0-0.5,0.1-0.8C1,8.2,2.9,6.9,4.9,7C5.4,3.6,8.4,0.9,12,1c0,0,0,0,0,0
	c2.6,0,5,1.4,6.3,3.7c1.3,0,2.6,0.5,3.6,1.5c1,1,1.6,2.3,1.6,3.7c0.1,1.9-1,3.7-2.8,4.5c-0.3,0.1-0.5,0-0.7-0.2
	c-0.1-0.3,0-0.5,0.2-0.7c1.4-0.6,2.3-2,2.2-3.6c0-1.1-0.5-2.2-1.3-3c-0.8-0.8-1.9-1.2-3-1.2l-0.2,0c-0.2,0-0.4-0.1-0.5-0.3
	c-1-2.1-3.3-3.5-5.6-3.4C8.8,1.9,6.1,4.4,5.8,7.6c0,0.1-0.1,0.3-0.2,0.4C5.5,8.1,5.4,8.1,5.2,8.1c-0.8-0.2-1.6,0-2.3,0.4
	c-0.7,0.4-1.2,1.1-1.3,1.9c0,0.2-0.1,0.4-0.1,0.6c-0.1,1.3,0.8,2.5,2.1,2.8C3.9,13.9,4,14.1,4,14.4C3.9,14.6,3.7,14.8,3.5,14.8z"/>
<path d="M12,23c-3.6,0-6.5-2.9-6.5-6.5S8.4,10,12,10s6.5,2.9,6.5,6.5S15.6,23,12,23z M12,11c-3,0-5.5,2.5-5.5,5.5S9,22,12,22
	c3,0,5.5-2.5,5.5-5.5S15,11,12,11z"/>
<g>
	<circle cx="9" cy="16.5" r="0.8"/>
	<circle cx="12" cy="16.5" r="0.8"/>
	<circle cx="15" cy="16.5" r="0.8"/>
</g>
</svg>
