<svg xmlns="http://www.w3.org/2000/svg" viewBox="0 0 24 24">
  <path d="M7 4v3H4V4h3zm0-1H4c-.6 0-1 .4-1 1v3c0 .6.4 1 1 1h3c.6 0 1-.4 1-1V4c0-.6-.4-1-1-1zM14 4v3h-3V4h3zm0-1h-3c-.6 0-1 .4-1 1v3c0 .6.4 1 1 1h3c.6 0 1-.4 1-1V4c0-.6-.4-1-1-1zM21 4v3h-3V4h3zm0-1h-3c-.6 0-1 .4-1 1v3c0 .6.4 1 1 1h3c.6 0 1-.4 1-1V4c0-.6-.4-1-1-1zM7 11v3H4v-3h3zm0-1H4c-.6 0-1 .4-1 1v3c0 .6.4 1 1 1h3c.6 0 1-.4 1-1v-3c0-.6-.4-1-1-1zM14 11v3h-3v-3h3zm0-1h-3c-.6 0-1 .4-1 1v3c0 .6.4 1 1 1h3c.6 0 1-.4 1-1v-3c0-.6-.4-1-1-1zM21 11v3h-3v-3h3zm0-1h-3c-.6 0-1 .4-1 1v3c0 .6.4 1 1 1h3c.6 0 1-.4 1-1v-3c0-.6-.4-1-1-1zM7 18v3H4v-3h3zm0-1H4c-.6 0-1 .4-1 1v3c0 .6.4 1 1 1h3c.6 0 1-.4 1-1v-3c0-.6-.4-1-1-1zM14 18v3h-3v-3h3zm0-1h-3c-.6 0-1 .4-1 1v3c0 .6.4 1 1 1h3c.6 0 1-.4 1-1v-3c0-.6-.4-1-1-1zM21 18v3h-3v-3h3zm0-1h-3c-.6 0-1 .4-1 1v3c0 .6.4 1 1 1h3c.6 0 1-.4 1-1v-3c0-.6-.4-1-1-1z"/>
</svg>
