<svg xmlns="http://www.w3.org/2000/svg" viewBox="0 0 24 24">
  <title>Artboard 1</title>
  <path d="M1.542,24a1.50183,1.50183,0,0,1-1.5-1.5V1.5A1.50183,1.50183,0,0,1,1.542,0H14.835a1.51389,1.51389,0,0,1,1.064.45l3.703,3.696a1.48935,1.48935,0,0,1,.44,1.061V8.5a.5.5,0,0,1-1,0V5.207a.497.497,0,0,0-.146-.353l-3.707-3.7A.507.507,0,0,0,14.832,1H1.542a.50018.50018,0,0,0-.5.5v21a.50018.50018,0,0,0,.5.5h8a.5.5,0,1,1,0,1Z"/>
  <path d="M19,21.00391a.49971.49971,0,0,1-.5-.5V16.62207l-.55273,1.10547a.52141.52141,0,0,1-.89453,0L16.5,16.62207v3.88184a.5.5,0,0,1-1,0v-6a.49937.49937,0,0,1,.38477-.48633.49213.49213,0,0,1,.5625.2627L17.5,16.38574l1.05273-2.10547a.49159.49159,0,0,1,.5625-.2627.49937.49937,0,0,1,.38477.48633v6A.49971.49971,0,0,1,19,21.00391Z"/>
  <path d="M17.5,11.004c-.02008,0-.03949.00281-.05951.003a6.52584,6.52584,0,0,0-6.41565,6.00629C11.01263,17.17584,11,17.33838,11,17.504c0,.17743.01263.35187.02667.52576A6.49742,6.49742,0,1,0,17.5,11.004Zm0,12a5.50169,5.50169,0,0,1-5.48785-5.25995C12.00867,17.66388,12,17.585,12,17.504a5.49384,5.49384,0,0,1,5.24652-5.48718c.08459-.00391.16791-.01282.25348-.01282a5.5,5.5,0,0,1,0,11Z"/>
  <path d="M6.542,12a.49936.49936,0,0,1-.354-.146l-3-3a.50216.50216,0,0,1,0-.708l3-3a.50028.50028,0,0,1,.708.707L4.25,8.499l2.646,2.646A.501.501,0,0,1,6.542,12Z"/>
  <path d="M9.542,12a.49936.49936,0,0,1-.354-.146.49352.49352,0,0,1-.146-.354.49936.49936,0,0,1,.146-.354L11.834,8.5,9.188,5.853a.50028.50028,0,0,1,.708-.707l3,3a.50216.50216,0,0,1,0,.708l-3,3A.49936.49936,0,0,1,9.542,12Z"/>
</svg>
