<?xml version="1.0" encoding="utf-8"?>
<!-- Generator: Adobe Illustrator 22.1.0, SVG Export Plug-In . SVG Version: 6.00 Build 0)  -->
<svg version="1.1" id="Layer_1" xmlns="http://www.w3.org/2000/svg" xmlns:xlink="http://www.w3.org/1999/xlink" x="0px" y="0px"
	 viewBox="0 0 24 24" style="enable-background:new 0 0 24 24;" xml:space="preserve">
<g>
	<title>file-code</title>
	<path d="M3.5,24C2.673,24,2,23.327,2,22.5v-21C2,0.673,2.673,0,3.5,0h13.293c0.4,0.003,0.787,0.167,1.064,0.45l3.703,3.696
		C21.844,4.43,22,4.807,22,5.207V22.5c0,0.827-0.673,1.5-1.5,1.5H3.5z M3.5,1C3.224,1,3,1.224,3,1.5v21C3,22.776,3.224,23,3.5,23h17
		c0.276,0,0.5-0.224,0.5-0.5V5.207c0-0.133-0.052-0.259-0.146-0.354l-3.707-3.699C17.051,1.056,16.922,1.001,16.789,1H3.5z"/>
	<path d="M10,16.504c-0.134,0-0.259-0.052-0.354-0.146l-3.5-3.5C6.052,12.763,6,12.637,6,12.504s0.052-0.259,0.146-0.354l3.5-3.5
		C9.741,8.556,9.866,8.504,10,8.504s0.259,0.052,0.354,0.146S10.5,8.87,10.5,9.004s-0.052,0.259-0.146,0.354l-3.146,3.146
		l3.146,3.146c0.094,0.094,0.146,0.22,0.146,0.354s-0.052,0.259-0.146,0.354S10.134,16.504,10,16.504z"/>
	<path d="M14,16.504c-0.134,0-0.259-0.052-0.354-0.146s-0.146-0.22-0.146-0.354s0.052-0.259,0.146-0.354l3.146-3.146l-3.146-3.146
		C13.552,9.263,13.5,9.138,13.5,9.004s0.052-0.259,0.146-0.354S13.866,8.504,14,8.504s0.259,0.052,0.354,0.146l3.5,3.5
		C17.948,12.245,18,12.37,18,12.504s-0.052,0.259-0.146,0.354l-3.5,3.5C14.259,16.452,14.134,16.504,14,16.504z"/>
</g>
</svg>
