<svg xmlns="http://www.w3.org/2000/svg" viewBox="0 0 24 24">
  <title>Artboard 1</title>
  <path d="M.507,24a.50535.50535,0,0,1-.354-.146.49685.49685,0,0,1-.121-.511l2.121-6.364a.3959.3959,0,0,1,.021-.047.46946.46946,0,0,1,.087-.133l.009-.01L18.033,1.025A3.48325,3.48325,0,0,1,20.466.036l.065.001a3.5,3.5,0,0,1,2.457,5.931l-.698.698-.015.016L7.225,21.732a.304.304,0,0,1-.033.028.529.529,0,0,1-.112.071l-.005.002a.24026.24026,0,0,1-.054.023L.665,23.974A.48928.48928,0,0,1,.507,24Zm.791-1.291L5.946,21.16,2.847,18.061Zm5.574-2.037L21.215,6.329,17.679,2.793,3.336,17.136ZM21.921,5.621l.354-.354a2.5,2.5,0,0,0-1.761-4.23h-.045a2.48751,2.48751,0,0,0-1.736.702l-.347.347Z"/>
</svg>
