<svg xmlns="http://www.w3.org/2000/svg" viewBox="0 0 24 24">
  <path d="M17 13v-2h1v2h2v1h-2v2h-1v-2h-2v-1zM8.3 18.8c-.3 0-.5 0-.8-.1s-.4-.1-.5-.2l.3-1.1c.3.1.6.2.9.2.6 0 1-.2 1.2-.7s.4-1.2.5-2.1l.4-3.9H8.8V9.8l1.2-.1h.5l.1-1c.1-1.2.4-2.1.9-2.7.4-.7 1.1-1 2.1-1 .3 0 .5 0 .8.1s.5.1.6.2l-.3 1.1c-.1-.1-.3-.1-.4-.2-.2-.1-.3-.1-.6-.1s-.5.1-.7.2c-.2.1-.4.3-.5.5s-.2.5-.3.7-.2.7-.2 1l-.1 1.1h2.3v1.1h-2.4l-.5 4.3c-.1.6-.2 1.1-.3 1.5-.1.5-.3.8-.5 1.2-.2.3-.5.6-.9.8s-.8.3-1.3.3z"/>
  <path d="M12 1c6.1 0 11 4.9 11 11s-4.9 11-11 11S1 18.1 1 12 5.9 1 12 1zm0-1C5.4 0 0 5.4 0 12s5.4 12 12 12 12-5.4 12-12S18.6 0 12 0z"/>
</svg>
