<?xml version="1.0" encoding="utf-8"?>
<!-- Generator: Adobe Illustrator 22.1.0, SVG Export Plug-In . SVG Version: 6.00 Build 0)  -->
<svg version="1.1" id="Layer_1" xmlns="http://www.w3.org/2000/svg" xmlns:xlink="http://www.w3.org/1999/xlink" x="0px" y="0px"
	 viewBox="0 0 24 24" style="enable-background:new 0 0 24 24;" xml:space="preserve">
<g>
	<title>alert-triangle</title>
	<path d="M22.089,23.983c-0.042,0-0.085-0.002-0.127-0.008H2.03c-0.041,0.005-0.082,0.007-0.123,0.007
		c-0.528,0-0.973-0.377-1.057-0.897c-0.043-0.265,0.014-0.534,0.161-0.758l10.091-20.18c0.291-0.583,0.722-0.645,0.894-0.645
		c0.214,0,0.614,0.084,0.894,0.645l10.091,20.181c0.311,0.473,0.192,1.122-0.269,1.454C22.529,23.913,22.314,23.983,22.089,23.983z
		 M1.891,22.805c-0.012,0.023-0.025,0.046-0.041,0.067c-0.012,0.017-0.016,0.034-0.013,0.052c0.006,0.036,0.038,0.058,0.066,0.058
		c0.039-0.006,0.066-0.008,0.093-0.008h20c0.027,0,0.054,0.002,0.081,0.007c0.003,0,0.005,0,0.008,0c0.02,0,0.031-0.004,0.042-0.012
		c0.031-0.022,0.038-0.065,0.016-0.096c-0.015-0.02-0.029-0.043-0.041-0.067L11.996,2.594h0L1.891,22.805z"/>
	<path d="M11.996,17.479c-0.276,0-0.5-0.224-0.5-0.5v-7c0-0.276,0.224-0.5,0.5-0.5c0.276,0,0.5,0.224,0.5,0.5v7
		C12.496,17.255,12.272,17.479,11.996,17.479z"/>
	<path d="M12.01,19.979c-0.412-0.001-0.747-0.319-0.763-0.725c-0.004-0.207,0.069-0.398,0.207-0.543
		c0.138-0.145,0.324-0.228,0.524-0.231c0.424,0.008,0.753,0.327,0.768,0.726c0.004,0.207-0.069,0.398-0.207,0.543
		c-0.138,0.145-0.324,0.227-0.524,0.231C12.014,19.979,12.012,19.979,12.01,19.979C12.01,19.979,12.01,19.979,12.01,19.979z"/>
</g>
</svg>
