<svg xmlns="http://www.w3.org/2000/svg" viewBox="0 0 24 24">
  <title>Artboard 1</title>
  <path d="M12,23.501a11.5,11.5,0,1,1,11.5-11.5A11.5131,11.5131,0,0,1,12,23.501Zm0-22a10.5,10.5,0,1,0,10.5,10.5A10.51211,10.51211,0,0,0,12,1.501Z"/>
  <path d="M14.5,17.50488H13a1.50164,1.50164,0,0,1-1.5-1.5v-6.5H10a.5.5,0,0,1,0-1h1.5a1.001,1.001,0,0,1,1,1v6.5a.501.501,0,0,0,.5.5h1.5a.5.5,0,0,1,0,1Z"/>
  <path d="M11.75,7a.50832.50832,0,0,1-.36035-.14014A.52482.52482,0,0,1,11.25,6.5a.49938.49938,0,0,1,.13965-.3501.53382.53382,0,0,1,.71,0,.50026.50026,0,0,1,.14063.3501.7078.7078,0,0,1-.03027.19971.91228.91228,0,0,1-.11035.16016A.49951.49951,0,0,1,11.75,7Z"/>
  <path d="M11.74512,7.5a.75.75,0,1,1,.75-.75A.75082.75082,0,0,1,11.74512,7.5Zm0-1a.25048.25048,0,0,0-.25.25c0,.27539.5.27539.5,0A.25048.25048,0,0,0,11.74512,6.5Z"/>
</svg>
