<?xml version="1.0" encoding="utf-8"?>
<!-- Generator: Adobe Illustrator 21.1.0, SVG Export Plug-In . SVG Version: 6.00 Build 0)  -->
<svg version="1.1" id="Layer_1" xmlns="http://www.w3.org/2000/svg" xmlns:xlink="http://www.w3.org/1999/xlink" x="0px" y="0px"
	 viewBox="0 0 24 24" style="enable-background:new 0 0 24 24;" xml:space="preserve">
<title>legal-hammer-1</title>
<path d="M4.5,21c-0.2,0-0.5-0.1-0.7-0.2l-0.1-0.1l-1.3-1.3c-0.2-0.2-0.2-0.5,0-0.7s0.5-0.2,0.7,0l1.2,1.2c0.1,0,0.1,0,0.2,0l2.6-3.2
	c0.2-0.2,0.5-0.3,0.7-0.1s0.3,0.5,0.1,0.7l0,0l-2.4,3.2c-0.2,0.2-0.4,0.4-0.7,0.4C4.6,21,4.6,21,4.5,21z"/>
<path d="M5.3,24C2.4,24,0,21.6,0,18.7s2.4-5.3,5.3-5.3s5.3,2.4,5.3,5.3S8.2,24,5.3,24z M5.3,14.4c-2.4,0-4.3,1.9-4.3,4.3
	S2.9,23,5.3,23s4.3-1.9,4.3-4.3S7.7,14.4,5.3,14.4z"/>
<path d="M22,18.6c-0.5,0-1-0.2-1.4-0.6l-6-6.7l-1.4,1.4c0.5,0.7,0.5,1.7-0.2,2.3c-0.3,0.3-0.8,0.5-1.2,0.5s-0.9-0.2-1.2-0.5
	l-4.6-4.6c-0.7-0.7-0.7-1.8,0-2.5c0.3-0.3,0.8-0.5,1.2-0.5c0.4,0,0.7,0.1,1,0.3l5-5c-0.2-0.3-0.3-0.7-0.3-1c0-0.5,0.2-0.9,0.5-1.2
	C13.7,0.2,14.1,0,14.6,0s0.9,0.2,1.2,0.5l4.6,4.6c0.3,0.3,0.5,0.8,0.5,1.2c0,0.5-0.2,0.9-0.5,1.2c-0.3,0.3-0.8,0.5-1.2,0.5
	c-0.4,0-0.8-0.1-1.1-0.3l-1.4,1.4l6.7,6c0.8,0.8,0.8,2,0,2.8C23,18.4,22.5,18.6,22,18.6z M21.3,17.3c0.2,0.2,0.4,0.3,0.7,0.3
	c0.3,0,0.5-0.1,0.7-0.3c0.4-0.4,0.4-1,0-1.4l-6.7-6l-0.7,0.7L21.3,17.3z M7.1,8.4c-0.2,0-0.4,0.1-0.5,0.2c-0.3,0.3-0.3,0.8,0,1.1
	l4.6,4.6c0.1,0.1,0.3,0.2,0.5,0.2s0.4-0.1,0.5-0.2c0.3-0.3,0.3-0.8,0-1.1L7.7,8.6C7.5,8.5,7.3,8.4,7.1,8.4z M12.4,12l4.9-4.9
	l-3.5-3.5L8.9,8.5L12.4,12z M18.6,6.9C18.8,7,19,7.1,19.2,7.1c0.2,0,0.4-0.1,0.5-0.2s0.2-0.3,0.2-0.5c0-0.2-0.1-0.4-0.2-0.5
	l-4.6-4.6C14.9,1.1,14.8,1,14.6,1S14.2,1.1,14,1.2c-0.1,0.1-0.2,0.3-0.2,0.5s0.1,0.4,0.2,0.5c0,0,0.2,0.2,0.2,0.2l4.2,4.2
	c0,0,0,0,0,0L18.6,6.9z"/>
</svg>
