<?xml version="1.0" encoding="utf-8"?>
<!-- Generator: Adobe Illustrator 22.1.0, SVG Export Plug-In . SVG Version: 6.00 Build 0)  -->
<svg version="1.1" id="Layer_1" xmlns="http://www.w3.org/2000/svg" xmlns:xlink="http://www.w3.org/1999/xlink" x="0px" y="0px"
	 viewBox="0 0 24 24" style="enable-background:new 0 0 24 24;" xml:space="preserve">
<g>
	<title>legal-hammer-1</title>
	<path d="M0.997,24.001c-0.551,0-1-0.448-1-1v-1.5c0-0.827,0.673-1.5,1.5-1.5h7c0.827,0,1.5,0.673,1.5,1.5v1.5c0,0.552-0.449,1-1,1
		H0.997z M1.497,21.001c-0.276,0-0.5,0.224-0.5,0.5v1.5h8v-1.5c0-0.276-0.224-0.5-0.5-0.5H1.497z"/>
	<path d="M21.963,18.581c-0.521,0-1.015-0.199-1.389-0.56l-6.036-6.705l-1.408,1.408c0.517,0.688,0.463,1.667-0.16,2.29
		c-0.33,0.33-0.77,0.512-1.238,0.512c-0.468,0-0.907-0.182-1.237-0.512l-4.6-4.6c-0.682-0.682-0.682-1.793,0-2.475
		c0.33-0.33,0.77-0.512,1.238-0.512c0.383,0,0.747,0.122,1.048,0.347l4.975-4.975c-0.226-0.301-0.348-0.665-0.348-1.048
		c0-0.468,0.182-0.907,0.513-1.237c0.33-0.33,0.769-0.512,1.237-0.512s0.907,0.182,1.238,0.512l4.6,4.6
		c0.331,0.332,0.512,0.772,0.511,1.24c-0.001,0.468-0.184,0.907-0.516,1.236c-0.33,0.329-0.768,0.51-1.235,0.51
		c-0.386-0.001-0.75-0.124-1.051-0.35l-1.407,1.407l6.68,6.012c0.772,0.798,0.778,2.024,0.025,2.803
		C23.021,18.365,22.511,18.581,21.963,18.581z M21.292,17.326c0.168,0.161,0.409,0.257,0.666,0.257c0.276,0,0.533-0.109,0.724-0.306
		c0.376-0.39,0.376-1,0-1.39l-6.694-6.023l-0.743,0.743L21.292,17.326z M7.132,8.426c-0.201,0-0.389,0.078-0.531,0.219
		c-0.292,0.292-0.292,0.768,0,1.061l4.6,4.6c0.141,0.141,0.33,0.219,0.531,0.219c0.201,0,0.389-0.078,0.53-0.219
		c0.292-0.292,0.292-0.769,0-1.061l-4.6-4.6C7.521,8.504,7.333,8.426,7.132,8.426z M12.436,12.003l4.949-4.949l-3.536-3.536
		L8.9,8.467L12.436,12.003z M18.622,6.877c0.142,0.143,0.331,0.221,0.531,0.222c0.201,0,0.389-0.078,0.531-0.219
		c0.142-0.141,0.22-0.33,0.221-0.53c0-0.2-0.077-0.389-0.219-0.531L15.087,1.22c-0.141-0.141-0.33-0.219-0.531-0.219
		s-0.389,0.078-0.531,0.219c-0.142,0.142-0.22,0.33-0.22,0.53c0,0.2,0.078,0.389,0.22,0.531c0,0,0.172,0.171,0.177,0.176L18.446,6.7
		c0.004,0.004,0.009,0.009,0.013,0.014L18.622,6.877z"/>
</g>
</svg>
