<svg xmlns="http://www.w3.org/2000/svg" viewBox="0 0 24 24">
  <path d="M19.056 7.438a1.937 1.937 0 100-3.873 1.937 1.937 0 000 3.873zm0-1a.937.937 0 110-1.874.937.937 0 010 1.874z"/>
  <path d="M20.806 2.129a.235.235 0 00.278.16l1.094-.254A1.493 1.493 0 0123.6 4.504l-.766.836a.24.24 0 00.001.328l.763.823a1.492 1.492 0 01-1.425 2.47l-1.085-.256a.235.235 0 00-.278.159l-.33 1.078a1.485 1.485 0 01-2.844.002l-.327-1.074a.235.235 0 00-.278-.16l-1.095.254a1.491 1.491 0 01-1.42-2.471l.764-.825a.24.24 0 00-.001-.328l-.762-.822a1.492 1.492 0 011.423-2.472l1.091.253a.235.235 0 00.278-.157l.327-1.087a1.484 1.484 0 012.846-.002l.327 1.073zm-1.284-.783a.486.486 0 00-.931-.002l-.328 1.092a1.237 1.237 0 01-1.46.84l-1.088-.252a.493.493 0 00-.467.816l.762.822a1.24 1.24 0 01.001 1.688l-.764.825a.492.492 0 00.465.816l1.091-.253a1.237 1.237 0 011.46.841l.329 1.078a.486.486 0 00.93-.002l.331-1.082a1.236 1.236 0 011.461-.839l1.082.255a.492.492 0 00.467-.815l-.762-.823a1.238 1.238 0 01-.002-1.686l.767-.836a.492.492 0 00-.465-.816l-1.091.253a1.236 1.236 0 01-1.46-.841l-.328-1.076zM7.401 9.29a.802.802 0 001.198 0l.63-.693a1.806 1.806 0 013.144 1.302l-.048.933a.808.808 0 00.846.846l.934-.048a1.806 1.806 0 011.302 3.144l-.696.629a.8.8 0 00.002 1.194l.694.627a1.806 1.806 0 01-1.302 3.144l-.933-.048a.808.808 0 00-.846.846l.048.934a1.806 1.806 0 01-3.144 1.302l-.629-.696a.8.8 0 00-1.196.004l-.633.691a1.806 1.806 0 01-3.144-1.302l.048-.933a.808.808 0 00-.846-.846l-.937.048a1.804 1.804 0 01-1.295-3.142l.696-.629a.8.8 0 00-.002-1.194l-.694-.627A1.806 1.806 0 011.9 11.632l.933.048a.808.808 0 00.846-.846l-.048-.939a1.807 1.807 0 013.14-1.303l.631.694zM6.03 9.269a.807.807 0 00-1.401.579l.048.937a1.809 1.809 0 01-1.896 1.896l-.934-.048a.804.804 0 00-.581 1.403l.692.625a1.798 1.798 0 01.002 2.682l-.693.626a.808.808 0 00.576 1.402l.935-.048a1.809 1.809 0 011.896 1.896l-.048.934a.804.804 0 001.405.579l.631-.69a1.798 1.798 0 012.682-.002l.627.694a.804.804 0 001.403-.581l-.048-.935a1.809 1.809 0 011.896-1.896l.934.048a.804.804 0 00.581-1.403l-.692-.625a1.798 1.798 0 01-.002-2.682l.694-.627a.804.804 0 00-.581-1.403l-.935.048a1.809 1.809 0 01-1.896-1.896l.048-.934a.804.804 0 00-1.404-.58l-.628.691a1.798 1.798 0 01-2.682.002l-.629-.692z"/>
  <path d="M8 20.001a4 4 0 100-8 4 4 0 000 8zm0-1a3 3 0 110-6 3 3 0 010 6z"/>
</svg>
