<svg xmlns="http://www.w3.org/2000/svg" viewBox="0 0 24 24">
  <path d="M19.5 11.85a.421.421 0 00-.257-.199l-.003-.001a.411.411 0 00-.323.001l.003-.001-.6.34a.498.498 0 01-.591-.07 4.095 4.095 0 00-1.511-.892l-.029-.008a.5.5 0 01-.35-.477V9.92a.42.42 0 00-.42-.42h-.92a.42.42 0 00-.42.42v.683a.5.5 0 01-.346.476l-.004.001a4.155 4.155 0 00-1.533.902l.003-.002a.498.498 0 01-.592.069l.002.001-.61-.35a.42.42 0 00-.323.001l.003-.001a.423.423 0 00-.259.198l-.001.002-.46.8a.421.421 0 00.148.579l.002.001.61.35a.5.5 0 01.239.544l.001-.003a4.1 4.1 0 00.005 1.787l-.005-.027a.507.507 0 01-.238.539l-.002.001-.6.35a.42.42 0 00-.158.582l-.001-.002.46.8a.421.421 0 00.582.149l.598-.339a.498.498 0 01.591.07 4.09 4.09 0 001.501.892l.029.008a.5.5 0 01.35.477v.673c0 .232.188.42.42.42h.92a.42.42 0 00.42-.42v-.73-.003a.5.5 0 01.346-.476l.004-.001a4.141 4.141 0 001.533-.902l-.003.002a.498.498 0 01.592-.069l-.002-.001.6.35a.42.42 0 00.579-.158l.001-.002.46-.8a.42.42 0 00-.158-.579l-.002-.001-.6-.35a.5.5 0 01-.239-.544l-.001.003a4.041 4.041 0 00-.005-1.787l.005.027a.507.507 0 01.238-.539l.002-.001.6-.35a.421.421 0 00.149-.582l.001.002zm-4.5 5.5h-.04A2.35 2.35 0 1117.31 15a2.35 2.35 0 01-2.308 2.35H15z"/>
  <path d="M16.31 15a1.35 1.35 0 11-2.699.001A1.35 1.35 0 0116.31 15z"/>
  <path d="M15 6a8.953 8.953 0 00-4.119 1.024L10.93 7 10.2.44a.502.502 0 00-1-.092V.35L7.7 5.19 6.18.35a.503.503 0 10-1 .092V.44l-1 9a.503.503 0 001 .112V9.55l.74-6.64L7.23 7a.5.5 0 001 0l1.29-4.1.48 4.63C7.585 9.169 6.02 11.902 6.02 15c0 4.971 4.029 9 9 9s9-4.029 9-9a9 9 0 00-9-9h-.021H15zm5 9.73l.3.17a1.42 1.42 0 01.516 1.947l.004-.007-.46.8a1.42 1.42 0 01-1.947.516l.007.004-.3-.16a5.083 5.083 0 01-1.246.737l-.034.013v.33a1.42 1.42 0 01-1.42 1.42h-.92a1.42 1.42 0 01-1.42-1.42v-.32a5.169 5.169 0 01-1.289-.767L11.8 19l-.29.17a1.43 1.43 0 01-1.936-.513l-.004-.007-.46-.8a1.428 1.428 0 01.513-1.946l.007-.004.3-.17a5.191 5.191 0 01.003-1.498l-.003.028-.3-.17a1.42 1.42 0 01-.516-1.947l-.004.007.46-.8a1.42 1.42 0 011.947-.516l-.007-.004.3.17a5.122 5.122 0 011.236-.737l.034-.013v-.33c0-.784.636-1.42 1.42-1.42h.92c.784 0 1.42.636 1.42 1.42v.32c.489.2.912.453 1.29.758l-.01-.008.29-.17a1.418 1.418 0 011.936.514l.004.007.46.8a1.418 1.418 0 01-.514 1.936l-.007.004-.3.17a5.205 5.205 0 01.007 1.507l.003-.027zM3.76 0a.51.51 0 00-.55.437V.44l-1 9a.5.5 0 00.437.55H2.703a.5.5 0 00.496-.438V9.55l1-9a.499.499 0 00-.437-.549H3.76zM1.76 0a.51.51 0 00-.55.437V.44l-1 9a.5.5 0 00.438.56H.704a.5.5 0 00.496-.438V9.56l1-9A.5.5 0 001.762 0H1.76z"/>
</svg>
