<?xml version="1.0" encoding="utf-8"?>
<!-- Generator: Adobe Illustrator 22.1.0, SVG Export Plug-In . SVG Version: 6.00 Build 0)  -->
<svg version="1.1" id="Layer_1" xmlns="http://www.w3.org/2000/svg" xmlns:xlink="http://www.w3.org/1999/xlink" x="0px" y="0px"
	 viewBox="-1 0 24 24" style="enable-background:new 0 0 24 24;" xml:space="preserve">
<g>
	<title>science-molecule-strucutre</title>
	<path d="M7.5,23.452c-0.169,0-0.337-0.044-0.487-0.127l-3.999-2.221C2.697,20.927,2.5,20.592,2.5,20.229v-3.912
		c0-0.363,0.197-0.698,0.514-0.874l4-2.222c0.149-0.083,0.317-0.127,0.486-0.127s0.337,0.044,0.486,0.127l4,2.222
		c0.02,0.011,0.04,0.023,0.06,0.036l4.571-3.383L14,10.601c-0.311-0.181-0.501-0.514-0.5-0.87V6.862L8.995,5.06
		c-0.013,0.008-0.026,0.015-0.04,0.021L7.343,5.91C7.235,5.964,7.117,5.992,6.999,5.992c-0.117,0-0.234-0.027-0.337-0.08L4.907,5.01
		C4.658,4.882,4.502,4.628,4.5,4.347V2.178c0-0.285,0.158-0.542,0.413-0.671l1.751-0.876C6.769,0.58,6.885,0.553,7,0.553
		c0.116,0,0.231,0.027,0.334,0.078l1.752,0.876C9.342,1.636,9.5,1.893,9.5,2.178v2.007l4.462,1.785
		c0.013-0.008,0.026-0.017,0.039-0.024l2.975-1.713c0.151-0.087,0.324-0.133,0.499-0.133s0.348,0.046,0.5,0.134l3.022,1.714
		c0.31,0.18,0.502,0.511,0.502,0.866v2.92c0,0.358-0.193,0.691-0.504,0.868l-2.974,1.699L12.5,16.387v3.842
		c0,0.363-0.197,0.698-0.514,0.874l-4,2.222C7.837,23.408,7.669,23.452,7.5,23.452z M3.5,16.317l0,3.912l4,2.222l4-2.222l0-3.912
		l-4-2.222L3.5,16.317z M14.5,6.812l0,2.921l2.996,1.714L20.5,9.733V6.814l-3.021-1.713l-0.004-0.252l0,0.25c0,0,0.001,0,0.001,0
		L14.5,6.812z M7,4.962L8.5,4.191l0-1.859L7,1.582l-1.5,0.75v1.859L7,4.962z"/>
	<path d="M5,19.523c-0.276,0-0.5-0.224-0.5-0.5v-1.691c0-0.381,0.212-0.724,0.552-0.894l1.724-0.862
		c0.07-0.035,0.147-0.053,0.224-0.053c0.191,0,0.362,0.106,0.447,0.277c0.06,0.119,0.069,0.255,0.027,0.382S7.343,16.41,7.224,16.47
		L5.5,17.332l0,1.691C5.5,19.299,5.276,19.523,5,19.523z"/>
	<path d="M16,9.523c-0.276,0-0.5-0.224-0.5-0.5V7.832c0-0.38,0.211-0.723,0.551-0.894l0.725-0.362
		C16.845,6.541,16.922,6.523,17,6.523c0.191,0,0.362,0.106,0.448,0.277c0.06,0.119,0.069,0.255,0.027,0.381
		s-0.131,0.229-0.251,0.289L16.5,7.832l0,1.191C16.5,9.299,16.276,9.523,16,9.523z"/>
</g>
</svg>
