<?xml version="1.0" encoding="utf-8"?>
<!-- Generator: Adobe Illustrator 22.1.0, SVG Export Plug-In . SVG Version: 6.00 Build 0)  -->
<svg version="1.1" id="Layer_1" xmlns="http://www.w3.org/2000/svg" xmlns:xlink="http://www.w3.org/1999/xlink" x="0px" y="0px"
	 viewBox="0 0 24 24" style="enable-background:new 0 0 24 24;" xml:space="preserve">
<g>
	<title>time-clock-three</title>
	<path d="M11.526,13c-0.276,0-0.5-0.224-0.5-0.5v-12c0-0.276,0.224-0.5,0.5-0.5c3.63,0,6.901,1.328,9.212,3.741
		c2.247,2.346,3.406,5.464,3.263,8.781C23.988,12.79,23.769,13,23.501,13H11.526z M23.012,12c0.006-2.859-1.053-5.538-2.997-7.568
		c-2.009-2.098-4.838-3.308-7.99-3.423V12H23.012z"/>
	<path d="M12.026,22.001c-0.276,0-0.5-0.224-0.5-0.5v-2c0-0.276,0.224-0.5,0.5-0.5s0.5,0.224,0.5,0.5v2
		C12.526,21.777,12.301,22.001,12.026,22.001z"/>
	<path d="M2.526,12.501c-0.276,0-0.5-0.224-0.5-0.5s0.224-0.5,0.5-0.5h2c0.276,0,0.5,0.224,0.5,0.5s-0.224,0.5-0.5,0.5H2.526z"/>
	<path d="M6.723,7.197c-0.134,0-0.259-0.052-0.354-0.146L4.955,5.637c-0.195-0.195-0.195-0.512,0-0.707
		c0.094-0.094,0.22-0.146,0.354-0.146S5.568,4.835,5.662,4.93l1.414,1.414c0.195,0.195,0.195,0.512,0,0.707
		C6.982,7.145,6.856,7.197,6.723,7.197z"/>
	<path d="M17.33,7.197c-0.134,0-0.259-0.052-0.354-0.146c-0.195-0.195-0.195-0.512,0-0.707L18.39,4.93
		c0.094-0.094,0.22-0.146,0.354-0.146s0.259,0.052,0.354,0.146c0.195,0.195,0.195,0.512,0,0.707l-1.414,1.414
		C17.589,7.145,17.463,7.197,17.33,7.197z"/>
	<path d="M18.744,19.218c-0.134,0-0.259-0.052-0.354-0.146l-1.414-1.414c-0.195-0.195-0.195-0.512,0-0.707
		c0.094-0.094,0.22-0.146,0.354-0.146s0.259,0.052,0.354,0.146l1.414,1.414c0.195,0.195,0.195,0.512,0,0.707
		C19.003,19.166,18.877,19.218,18.744,19.218z"/>
	<path d="M5.309,19.218c-0.134,0-0.259-0.052-0.354-0.146c-0.195-0.195-0.195-0.512,0-0.707l1.414-1.414
		c0.094-0.094,0.22-0.146,0.354-0.146s0.259,0.052,0.354,0.146c0.195,0.195,0.195,0.512,0,0.707l-1.414,1.414
		C5.568,19.166,5.442,19.218,5.309,19.218z"/>
</g>
</svg>
