<?xml version="1.0" encoding="utf-8"?>
<!-- Generator: Adobe Illustrator 22.1.0, SVG Export Plug-In . SVG Version: 6.00 Build 0)  -->
<svg version="1.1" id="Layer_1" xmlns="http://www.w3.org/2000/svg" xmlns:xlink="http://www.w3.org/1999/xlink" x="0px" y="0px"
	 viewBox="0 0 24 24" style="enable-background:new 0 0 24 24;" xml:space="preserve">
<g>
	<title>construction-cone</title>
	<path d="M0.5,24C0.224,24,0,23.776,0,23.5S0.224,23,0.5,23h3.622c0,0,3.86-13.66,3.863-13.669l1.077-3.814c0-0.005,0-0.011,0-0.017
		c0-0.094,0.028-0.185,0.08-0.266l1.104-3.908C10.468,0.545,11.189,0,12,0c0.798,0,1.508,0.537,1.725,1.305L19.878,23H23.5
		c0.276,0,0.5,0.224,0.5,0.5S23.776,24,23.5,24H0.5z M18.838,23l-1.134-4H6.291l-1.13,4H18.838z M17.42,18l-0.851-3H7.422l-0.848,3
		H17.42z M16.286,14l-1.134-4H8.835l-1.13,4H16.286z M14.868,9l-0.851-3H9.965L9.117,9H14.868z M13.734,5l-0.971-3.422
		C12.667,1.238,12.353,1,12,1c-0.366,0-0.691,0.246-0.791,0.598L10.248,5H13.734z"/>
</g>
</svg>
