<svg xmlns="http://www.w3.org/2000/svg" viewBox="0 0 24 24">
  <title>Artboard 1</title>
  <path d="M3.76,0a.51.51,0,0,0-.55.44l-1,9a.49994.49994,0,0,0,.44.55H2.7a.5.5,0,0,0,.5-.44l1-9A.5.5,0,0,0,3.76,0Z"/>
  <path d="M1.76715.00085,1.76,0a.51.51,0,0,0-.55.44l-1,9a.49993.49993,0,0,0,.4328.55914L.65,10H.7a.5.5,0,0,0,.5-.44l1-9A.5.5,0,0,0,1.76715.00085Z"/>
  <path d="M15,9.5A5.5,5.5,0,1,0,20.5,15,5.50654,5.50654,0,0,0,15,9.5Zm2,6H15a.49971.49971,0,0,1-.5-.5V12a.5.5,0,0,1,1,0v2.5H17a.5.5,0,0,1,0,1Z"/>
  <path d="M22.48987,9.9801A8.95688,8.95688,0,0,0,10.93,7L10.2.44a.502.502,0,0,0-1-.09L7.7,5.19,6.18.35a.502.502,0,0,0-1,.09l-1,9a.503.503,0,0,0,1,.11l.74-6.64L7.23,7a.5.5,0,0,0,1,0L9.52,2.9,10,7.53A9,9,0,1,0,22.48987,9.9801ZM15,21.5A6.5,6.5,0,1,1,21.5,15,6.50753,6.50753,0,0,1,15,21.5Z"/>
</svg>
