<svg xmlns="http://www.w3.org/2000/svg" viewBox="0 0 24 24">
  <path d="M3.76 0a.51.51 0 00-.55.437V.44l-1 9a.5.5 0 00.437.55H2.703a.5.5 0 00.496-.438V9.55l1-9a.499.499 0 00-.437-.549H3.76zM1.76 0a.51.51 0 00-.55.437V.44l-1 9a.5.5 0 00.438.56H.704a.5.5 0 00.496-.438V9.56l1-9A.5.5 0 001.762 0H1.76zM11.08 17.88h7.84L15 11.09l-3.92 6.79z"/>
  <path d="M15 6a8.953 8.953 0 00-4.119 1.024L10.93 7 10.2.44a.502.502 0 00-1-.092V.35L7.7 5.19 6.18.35a.503.503 0 10-1 .092V.44l-1 9a.503.503 0 001 .112V9.55l.74-6.64L7.23 7a.5.5 0 001 0l1.29-4.1.48 4.63C7.585 9.169 6.02 11.902 6.02 15c0 4.971 4.029 9 9 9s9-4.029 9-9a9 9 0 00-9-9h-.021H15zm5.54 12.81a.62.62 0 01-.537.31H10a.63.63 0 01-.539-.943l-.002.003 5-8.66a.65.65 0 011.079-.002l.001.002 5 8.66a.614.614 0 01-.002.633l.002-.003z"/>
</svg>
