<?xml version="1.0" encoding="utf-8"?>
<!-- Generator: Adobe Illustrator 22.1.0, SVG Export Plug-In . SVG Version: 6.00 Build 0)  -->
<svg version="1.1" id="Layer_1" xmlns="http://www.w3.org/2000/svg" xmlns:xlink="http://www.w3.org/1999/xlink" x="0px" y="0px"
	 viewBox="0 0 24 24" style="enable-background:new 0 0 24 24;" xml:space="preserve">
<g>
	<title>pin</title>
	<path d="M0.499,24c-0.134,0-0.259-0.052-0.354-0.146c-0.195-0.195-0.195-0.512,0-0.707l9.06-9.061l-3.439-3.439
		c-0.585-0.585-0.585-1.536,0-2.121l0.5-0.5c0.283-0.283,0.66-0.439,1.061-0.439h3.172c0.133,0,0.259-0.052,0.353-0.146l4.207-4.207
		c0.039-0.039,0.061-0.091,0.061-0.147c0-0.055-0.021-0.107-0.061-0.146c-0.47-0.471-0.47-1.237,0-1.707l0.793-0.793
		c0.283-0.283,0.659-0.438,1.061-0.438c0.401,0,0.778,0.156,1.061,0.438l5.586,5.586c0.585,0.585,0.585,1.536,0,2.121L22.767,8.94
		c-0.228,0.228-0.531,0.353-0.853,0.353l0,0c-0.323,0-0.626-0.125-0.854-0.353c-0.039-0.039-0.091-0.06-0.146-0.06
		c-0.056,0-0.108,0.021-0.146,0.061l-4.208,4.207c-0.093,0.093-0.146,0.222-0.146,0.354v3.171c0,0.401-0.156,0.777-0.439,1.061
		l-0.5,0.5c-0.283,0.283-0.659,0.438-1.061,0.438s-0.778-0.156-1.061-0.438l-3.439-3.439l-9.06,9.061
		C0.758,23.948,0.633,24,0.499,24z M7.327,8.586c-0.133,0-0.259,0.052-0.354,0.146l-0.5,0.5c-0.195,0.195-0.195,0.512,0,0.707
		l7.586,7.586c0.094,0.094,0.22,0.146,0.354,0.146s0.259-0.052,0.354-0.146l0.5-0.5c0.093-0.093,0.146-0.222,0.146-0.354v-3.171
		c0-0.401,0.156-0.777,0.439-1.061l4.207-4.207c0.228-0.228,0.531-0.354,0.854-0.354c0.32,0,0.621,0.123,0.847,0.348
		c0.002,0.002,0.005,0.005,0.005,0.005c0.04,0.04,0.09,0.061,0.146,0.061c0.056,0,0.107-0.021,0.146-0.061l0.793-0.793
		c0.195-0.195,0.195-0.512,0-0.707l-5.586-5.586c-0.094-0.094-0.22-0.146-0.354-0.146s-0.259,0.052-0.354,0.146L15.767,1.94
		c-0.081,0.081-0.081,0.212,0,0.293c0.47,0.47,0.471,1.236,0.001,1.707L11.56,8.147C11.277,8.43,10.9,8.586,10.5,8.586H7.327z"/>
</g>
</svg>
