<?xml version="1.0" encoding="utf-8"?>
<!-- Generator: Adobe Illustrator 21.1.0, SVG Export Plug-In . SVG Version: 6.00 Build 0)  -->
<svg version="1.1" id="Layer_1" xmlns="http://www.w3.org/2000/svg" xmlns:xlink="http://www.w3.org/1999/xlink" x="0px" y="0px"
	 viewBox="0 0 24 24" style="enable-background:new 0 0 24 24;" xml:space="preserve">
<style type="text/css">
	.st0{fill:none;}
</style>
<title>Artboard 1</title>
<g>
	<path d="M19.5,14.5h-4c-0.3,0-0.5,0.2-0.5,0.5s0.2,0.5,0.5,0.5H17V21c0,0.3,0.2,0.5,0.5,0.5S18,21.3,18,21v-5.5h1.5
		c0.3,0,0.5-0.2,0.5-0.5S19.8,14.5,19.5,14.5z"/>
	<path d="M17.5,11C17.5,11,17.5,11,17.5,11c-3.4,0-6.2,2.7-6.5,6c0,0.2,0,0.3,0,0.5c0,0.2,0,0.4,0,0.5c0.3,3.6,3.4,6.2,7,5.9
		c3.6-0.3,6.2-3.4,5.9-7C23.7,13.6,20.9,11,17.5,11z M17.5,23c-2.9,0-5.4-2.3-5.5-5.3c0-0.1,0-0.2,0-0.2c0-2.9,2.3-5.4,5.2-5.5
		c0.1,0,0.2,0,0.3,0c3,0,5.5,2.5,5.5,5.5C23,20.5,20.5,23,17.5,23z"/>
</g>
<g>
	<path class="st0" d="M10.1,2.8C10.1,2.8,10,2.8,10.1,2.8c-0.1,0-0.2,0-0.2,0L2.2,5.3l7.3,2.5l7.4-2.5L10.1,2.8z"/>
	<path class="st0" d="M1,6v10.5c0,0.2,0.1,0.4,0.3,0.5L9,19.5V8.6L1,6C1,6,1,6,1,6z"/>
	<path class="st0" d="M1,6v10.5c0,0.2,0.1,0.4,0.3,0.5L9,19.5V8.6L1,6C1,6,1,6,1,6z"/>
	<path class="st0" d="M10,2.8c0,0-0.1,0-0.1,0L2.2,5.3l7.3,2.5l7.4-2.5L10,2.8C10.1,2.8,10,2.8,10,2.8z"/>
	<path class="st0" d="M1,6v10.5c0,0.2,0.1,0.4,0.3,0.5L9,19.5V8.6L1,6C1,6,1,6,1,6z"/>
	<path class="st0" d="M10,2.8c0,0-0.1,0-0.1,0L2.2,5.3l7.3,2.5l7.4-2.5L10,2.8C10.1,2.8,10,2.8,10,2.8z"/>
	<path d="M18,8.5C18,8.8,18.2,9,18.5,9S19,8.8,19,8.5V6c0-0.4-0.1-0.7-0.4-1c0-0.1-0.1-0.1-0.1-0.1c-0.2-0.2-0.4-0.3-0.6-0.3
		l-7.5-2.7c-0.3-0.1-0.5-0.1-0.8,0L1.1,4.6C0.9,4.6,0.7,4.7,0.5,4.9C0.5,4.9,0.4,5,0.4,5C0.1,5.3,0,5.6,0,6v10.5
		c0,0.6,0.4,1.2,1,1.4l8.2,2.7c0.6,0.2,0.8-0.1,0.8-0.5l0-11.6l8-2.7L18,8.5z M9,19.5L1.3,17C1.1,16.9,1,16.8,1,16.5V6
		c0,0,0,0,0-0.1l8,2.7V19.5z M9.5,7.7L2.2,5.3l7.7-2.5c0,0,0.1,0,0.1,0c0,0,0,0,0.1,0l6.8,2.5L9.5,7.7z"/>
</g>
</svg>
