<svg xmlns="http://www.w3.org/2000/svg" viewBox="0 0 24 24">
  <path d="M20.451 11c-.805 0-3.611-.002-4.416.002a.186.186 0 01-.215-.147v-.001a3.936 3.936 0 00-.185-.497l.01.024c-.004-.008-.005-.017-.009-.026l-.009-.015a3.92 3.92 0 00-.571-.921l.005.006a4.107 4.107 0 00-.609-.572l-.01-.007a3.899 3.899 0 00-2.322-.834h-.005a3.53 3.53 0 00-.272-.003 4.215 4.215 0 00-.659.084l.024-.004-.126.027a3.765 3.765 0 00-.486.155l.026-.009c-.033.012-.067.018-.1.032-.01.004-.017.01-.026.014l-.042.015c-.086.037-.154.091-.235.132-.209.099-.386.2-.554.313l.015-.009c-.099.069-.178.155-.268.232a3.767 3.767 0 00-.359.325l-.001.001a3.752 3.752 0 00-.373.51l-.009.017c-.032.052-.072.096-.102.15a4.088 4.088 0 00-.312.707l-.009.03c-.008.024-.022.044-.03.069a.243.243 0 01-.24.207l-.034-.002h.001c-1.314-.005-3.627-.003-4.941-.003v2.001c1.323 0 3.646.001 4.969-.003.121 0 .19.034.221.149.045.16.089.289.14.415l-.009-.026c.051.119.123.216.182.327.072.147.141.268.215.384l-.009-.016c.097.139.193.259.296.374l-.003-.004c.073.085.143.17.223.248.117.114.243.221.376.319l.01.007a4.411 4.411 0 00.631.391l.023.01c.147.073.324.144.507.203l.028.008c.061.02.113.052.176.069.035.01.071.014.107.023.059.014.117.026.176.038a3.685 3.685 0 001.423.021l-.022.003c.057-.009.112-.022.169-.034.052-.012.105-.017.157-.032.051-.014.09-.04.139-.056.16-.038.29-.078.418-.124l-.027.008c.162-.07.294-.138.422-.212l-.019.01.052-.026c.262-.152.488-.318.695-.505l-.003.003q.077-.069.151-.143a4.01 4.01 0 001.013-1.661l.008-.028a.238.238 0 01.219-.145l.027.002h-.001c.974.005 3.948.003 4.922.002V11h-.549zM12 14.002a2 2 0 112-2 2 2 0 01-2 2z"/>
</svg>
