<svg xmlns="http://www.w3.org/2000/svg" viewBox="0 0 24 24">
  <path d="M22 4v-.014a4 4 0 10-5.028 3.867l.028.006V9c0 1.711-1.248 2-5 2a12.558 12.558 0 00-5.086.693l.088-.027q0-1.815-.003-3.63c0-.127.031-.202.163-.229.103-.026.191-.055.275-.091l-.012.004a3.998 3.998 0 002.559-3.724 3.99 3.99 0 10-7.681 1.513l-.01-.027a3.887 3.887 0 002.478 2.3l.027.007a.243.243 0 01.207.241l-.002.034v-.001c-.006 1.83-.004 3.66-.004 5.49L5 14.978l-.001.021H5c0 .323-.001.646.001.97.001.12-.031.185-.154.219a2.926 2.926 0 00-.51.189l.018-.008a3.933 3.933 0 00-2.318 3.148l-.002.018a3.706 3.706 0 00.297 2.04l-.009-.023a3.925 3.925 0 002.61 2.293l.027.006c.317.096.681.151 1.059.151.549 0 1.072-.117 1.543-.328l-.024.01a3.93 3.93 0 002.315-2.627l.006-.027c.094-.311.148-.668.148-1.037 0-.346-.047-.681-.136-.998l.006.026a3.924 3.924 0 00-2.652-2.807l-.028-.007a.243.243 0 01-.197-.28v.001c.002-.315 0-.63.001-.945.009-1.694 1.261-1.982 4.999-1.982 2.954 0 7 0 7-4V7.86a3.999 3.999 0 003-3.858z"/>
</svg>
