<svg xmlns="http://www.w3.org/2000/svg" viewBox="0 0 24 24">
  <path d="M4.055 0a3.99 3.99 0 011.397 7.711l-.027.009c-.073.031-.16.061-.251.084l-.012.003c-.132.027-.163.101-.163.229.004 1.396.003 2.792.003 4.187 0 1.235.003 2.469-.002 3.704a.244.244 0 00.196.279h.002a3.922 3.922 0 012.674 2.787l.006.027a3.7 3.7 0 01-.025 2.036l.007-.026a3.925 3.925 0 01-2.295 2.644l-.026.009a3.724 3.724 0 01-1.519.319 3.77 3.77 0 01-1.085-.158l.027.007a3.928 3.928 0 01-2.627-2.274l-.01-.026a3.74 3.74 0 01-.285-2.035l-.002.02a3.933 3.933 0 012.295-3.156l.025-.01a2.85 2.85 0 01.471-.176l.021-.005c.123-.035.155-.099.154-.219-.004-.805-.002-1.611-.002-2.416 0-1.83-.002-3.66.004-5.49a.242.242 0 00-.204-.273h-.001A3.89 3.89 0 01.305 5.51l-.009-.026a3.898 3.898 0 01-.293-1.495c0-1.22.552-2.311 1.419-3.037l.006-.005A3.975 3.975 0 014.009.001h.05-.003zM13.461 5.022l1.559 1.521c-.071.081-.103.122-.14.159-.393.394-.788.785-1.177 1.182-.089.091-.146.093-.238.001q-1.574-1.581-3.153-3.157a.986.986 0 01-.001-1.449l.001-.001q1.575-1.58 3.153-3.158c.089-.09.147-.094.237-.002.396.404.799.802 1.199 1.202.027.027.05.059.087.103l-1.553 1.558c.107.009.168.018.229.018q1.574.001 3.148-.001l.121-.002c.595 0 1.162.123 1.676.344l-.028-.011a4 4 0 012.195 2.363l.008.028c.136.391.214.841.214 1.31l-.001.075v-.004q.003 4.407-.003 8.815a.25.25 0 00.201.289h.002a3.9 3.9 0 012.383 2.03l.01.023c.258.5.41 1.091.41 1.718 0 .381-.056.75-.161 1.097l.007-.027a3.904 3.904 0 01-2.293 2.628l-.026.009a3.805 3.805 0 01-2.604.157l.027.007a3.921 3.921 0 01-2.631-2.289l-.009-.026a3.704 3.704 0 01-.316-1.511c0-.292.033-.577.096-.85l-.005.025a3.937 3.937 0 012.247-2.82l.025-.01c.137-.066.3-.129.469-.178l.023-.006a.18.18 0 00.147-.21v.001c-.003-.83-.001-1.659-.001-2.489l.001-6.428.001-.061a1.98 1.98 0 00-.722-1.531l-.003-.003a1.887 1.887 0 00-1.237-.458h-.015.001c-1.137-.003-2.274-.001-3.411-.001-.056.004-.108.01-.158.019l.009-.001z"/>
</svg>
