<svg xmlns="http://www.w3.org/2000/svg" viewBox="0 0 24 24">
  <path d="M12.055 0a3.99 3.99 0 011.397 7.711l-.027.009c-.073.031-.16.061-.251.084l-.012.003c-.132.027-.163.101-.163.229.004 1.396.003 2.792.003 4.187 0 1.235.003 2.469-.002 3.704a.244.244 0 00.196.279h.001a3.922 3.922 0 012.674 2.787l.006.027a3.7 3.7 0 01-.025 2.036l.007-.026a3.925 3.925 0 01-2.295 2.644l-.026.009a3.724 3.724 0 01-1.519.319 3.77 3.77 0 01-1.085-.158l.027.007a3.928 3.928 0 01-2.627-2.274l-.01-.026a3.74 3.74 0 01-.285-2.035l-.002.02a3.933 3.933 0 012.295-3.156l.025-.01a2.85 2.85 0 01.471-.176l.021-.005c.123-.035.155-.099.154-.219-.004-.805-.002-1.611-.002-2.416 0-1.83-.002-3.66.004-5.49a.242.242 0 00-.204-.273H10.8A3.89 3.89 0 018.304 5.51l-.009-.026A4 4 0 0112.01.001h.048-.002z"/>
</svg>
