<svg xmlns="http://www.w3.org/2000/svg" viewBox="0 0 24 24">
  <title>Artboard 1</title>
  <path d="M18,0a4.01525,4.01525,0,0,0-1,7.9V9c0,1.7-1.2,2-5,2a12.14873,12.14873,0,0,0-5,.7V8c0-.1,0-.2.2-.2.1,0,.2-.1.3-.1A3.9745,3.9745,0,1,0,4.6.3,3.99645,3.99645,0,0,0,2.3,5.4v.1A3.81891,3.81891,0,0,0,4.8,7.8c.1,0,.2.1.2.3V15H5v1c0,.1,0,.2-.2.2s-.3.1-.5.2A3.86156,3.86156,0,0,0,2,19.6a3.39816,3.39816,0,0,0,.3,2,3.97792,3.97792,0,0,0,2.6,2.3,3.85373,3.85373,0,0,0,2.6-.2A3.89464,3.89464,0,0,0,9.8,21a3.40386,3.40386,0,0,0,0-2,3.82437,3.82437,0,0,0-2.7-2.8c-.1,0-.2-.1-.2-.3V15c0-1.7,1.3-2,5-2,3,0,7,0,7-4V7.9a3.96653,3.96653,0,0,0,3-3.9A3.8655,3.8655,0,0,0,18,0Zm0,6.2A2.2,2.2,0,1,1,20.2,4,2.21953,2.21953,0,0,1,18,6.2Z"/>
</svg>
