<svg xmlns="http://www.w3.org/2000/svg" viewBox="0 0 24 24">
  <title>Artboard 1</title>
  <path d="M15.9,19a3.82437,3.82437,0,0,0-2.7-2.8c-.1,0-.2-.1-.2-.3V8c0-.1,0-.2.2-.2.1,0,.2-.1.3-.1A3.924,3.924,0,0,0,16,4a3.92728,3.92728,0,0,0-3.9-4A4.089,4.089,0,0,0,8.3,5.5a3.81891,3.81891,0,0,0,2.5,2.3c.1,0,.2.1.2.3V16c0,.1,0,.2-.2.2s-.3.1-.5.2A3.86156,3.86156,0,0,0,8,19.6a3.39816,3.39816,0,0,0,.3,2,3.97792,3.97792,0,0,0,2.6,2.3,3.85373,3.85373,0,0,0,2.6-.2A3.89464,3.89464,0,0,0,15.8,21,3.37755,3.37755,0,0,0,15.9,19Zm-4-12.9a2.2,2.2,0,1,1,2.2-2.2A2.09842,2.09842,0,0,1,11.9,6.1Z"/>
</svg>
