<?xml version="1.0" encoding="utf-8"?>
<!-- Generator: Adobe Illustrator 21.1.0, SVG Export Plug-In . SVG Version: 6.00 Build 0)  -->
<svg version="1.1" id="Layer_1" xmlns="http://www.w3.org/2000/svg" xmlns:xlink="http://www.w3.org/1999/xlink" x="0px" y="0px"
	 viewBox="0 0 24 24" style="enable-background:new 0 0 24 24;" xml:space="preserve">
<style type="text/css">
	.st0{fill:none;}
</style>
<title>Artboard 1</title>
<circle class="st0" cx="14" cy="5.9" r="1"/>
<path d="M10.3,15.2c0.4-0.8,1.3-1.2,2.2-1.2c0.2,0,0.4,0,0.6,0.1l0.4,0.1l0.1-0.4c0.3-1,1.3-1.8,2.4-1.8c0,0,0,0,0,0l0,0h0h0
	c0.6,0,1.2,0.2,1.6,0.6c0.2-0.6,0.3-1.2,0.3-1.8c0-0.2,0.1-0.3,0.3-0.4L20.7,9c0.3-0.2,0.4-0.5,0.2-0.8C20.9,8.1,20.8,8,20.6,8
	l-2.4-1C18.1,6.9,18,6.7,18,6.5c-0.3-2.8-2.8-4.8-5.6-4.5C9.8,2.4,7.8,4.6,7.8,7.3c0,0.3-0.3,0.6-0.6,0.6c0,0,0,0,0,0
	C5.9,7.7,4.6,7.1,3.7,6.1C3.4,5.8,3,5.7,2.6,5.9C2.2,6.1,2,6.5,2,6.9c0.1,2.6,1.4,5.1,3.6,6.6c0.2,0.2,0.3,0.5,0.1,0.7
	c0,0,0,0.1-0.1,0.1c-0.4,0.3-0.9,0.9-2.6,2.4c-0.4,0.4-0.4,1-0.1,1.4c0.2,0.2,0.5,0.3,0.7,0.3h6c0.4,0,0.7,0,1-0.1l-0.1-0.1
	C9.9,17.4,9.8,16.2,10.3,15.2z M14,4.9c0.6,0,1,0.4,1,1c0,0.6-0.4,1-1,1c-0.6,0-1-0.4-1-1C13,5.4,13.4,4.9,14,4.9z"/>
<path d="M20.6,19.5l-0.8-0.8c-0.1-0.1-0.1-0.2,0-0.3l0.8-0.8c0.5-0.5,0.5-1.2,0.2-1.8c-0.3-0.6-1-0.9-1.6-0.7l-1.1,0.3
	c-0.1,0-0.2,0-0.3-0.2l-0.3-1.1C17.3,13.4,16.7,13,16,13l0,0c-0.7,0-1.3,0.4-1.4,1.1l-0.3,1.1c0,0.1-0.2,0.2-0.3,0.2L12.8,15
	c-0.6-0.2-1.3,0.1-1.6,0.7c-0.3,0.6-0.3,1.3,0.2,1.8l0.8,0.8c0.1,0.1,0.1,0.2,0,0.3l-0.8,0.8c-0.6,0.6-0.5,1.5,0.1,2.1
	c0.4,0.3,0.9,0.5,1.4,0.4l1.1-0.3c0.1,0,0.2,0,0.3,0.2l0.3,1.1c0.2,0.6,0.8,1.1,1.4,1.1l0,0c0.7,0,1.3-0.4,1.4-1.1l0.3-1.1
	c0-0.1,0.2-0.2,0.3-0.2l1.1,0.3c0.8,0.2,1.6-0.3,1.8-1.1C21.1,20.4,20.9,19.9,20.6,19.5z M16,20.4c-1.1,0-2-0.9-2-1.9
	c0-1.1,0.9-1.9,2-1.9s2,0.9,2,1.9c0,0,0,0,0,0C18,19.6,17.1,20.4,16,20.4L16,20.4z"/>
</svg>
