<svg xmlns="http://www.w3.org/2000/svg" viewBox="0 0 24 24">
  <title>Artboard 1</title>
  <path d="M20.99219,18.32129a.96412.96412,0,0,1-.96387.96387H16.81543a.96412.96412,0,0,1-.96387-.96387V15.1084a.96412.96412,0,0,1,.96387-.96387h.96387V12.2168H12.63867v1.92773h.96387a.96412.96412,0,0,1,.96387.96387v3.21289a.96412.96412,0,0,1-.96387.96387H10.38965a.96412.96412,0,0,1-.96387-.96387V15.1084a.96412.96412,0,0,1,.96387-.96387h.96387V12.2168H6.21289v1.92773h.96387a.96412.96412,0,0,1,.96387.96387v3.21289a.96412.96412,0,0,1-.96387.96387H3.96387A.96412.96412,0,0,1,3,18.32129V15.1084a.96412.96412,0,0,1,.96387-.96387h.96387V12.2168a1.29416,1.29416,0,0,1,1.28516-1.28516h5.14062V9.00391h-.96387A.96412.96412,0,0,1,9.42578,8.04V4.82715a.96412.96412,0,0,1,.96387-.96387h3.21289a.96412.96412,0,0,1,.96387.96387V8.04a.96412.96412,0,0,1-.96387.96387h-.96387v1.92773H17.7793a1.29416,1.29416,0,0,1,1.28516,1.28516v1.92773h.96387a.96412.96412,0,0,1,.96387.96387Z"/>
</svg>
