<svg xmlns="http://www.w3.org/2000/svg" viewBox="0 0 24 24">
  <title>Artboard 1</title>
  <path d="M8.14063,7.75488a.96412.96412,0,0,1-.96387.96387H3.96387A.96412.96412,0,0,1,3,7.75488V5.82715a.96412.96412,0,0,1,.96387-.96387H7.17676a.96412.96412,0,0,1,.96387.96387Zm0,5.14062a.96412.96412,0,0,1-.96387.96387H3.96387A.96412.96412,0,0,1,3,12.89551V10.96777a.96412.96412,0,0,1,.96387-.96387H7.17676a.96412.96412,0,0,1,.96387.96387Zm0,5.14063A.96412.96412,0,0,1,7.17676,19H3.96387A.96412.96412,0,0,1,3,18.03613V16.1084a.96412.96412,0,0,1,.96387-.96387H7.17676a.96412.96412,0,0,1,.96387.96387ZM14.56641,7.75488a.96412.96412,0,0,1-.96387.96387H10.38965a.96412.96412,0,0,1-.96387-.96387V5.82715a.96412.96412,0,0,1,.96387-.96387h3.21289a.96412.96412,0,0,1,.96387.96387Zm0,5.14062a.96412.96412,0,0,1-.96387.96387H10.38965a.96412.96412,0,0,1-.96387-.96387V10.96777a.96412.96412,0,0,1,.96387-.96387h3.21289a.96412.96412,0,0,1,.96387.96387Zm0,5.14063A.96412.96412,0,0,1,13.60254,19H10.38965a.96412.96412,0,0,1-.96387-.96387V16.1084a.96412.96412,0,0,1,.96387-.96387h3.21289a.96412.96412,0,0,1,.96387.96387ZM20.99219,7.75488a.96412.96412,0,0,1-.96387.96387H16.81543a.96412.96412,0,0,1-.96387-.96387V5.82715a.96412.96412,0,0,1,.96387-.96387h3.21289a.96412.96412,0,0,1,.96387.96387Zm0,5.14062a.96412.96412,0,0,1-.96387.96387H16.81543a.96412.96412,0,0,1-.96387-.96387V10.96777a.96412.96412,0,0,1,.96387-.96387h3.21289a.96412.96412,0,0,1,.96387.96387Zm0,5.14063A.96412.96412,0,0,1,20.02832,19H16.81543a.96412.96412,0,0,1-.96387-.96387V16.1084a.96412.96412,0,0,1,.96387-.96387h3.21289a.96412.96412,0,0,1,.96387.96387Z"/>
</svg>
