<svg xmlns="http://www.w3.org/2000/svg" viewBox="0 0 24 24">
  <title>Artboard 1</title>
  <path d="M21,0H3A3,3,0,0,0,0,3V18.5a3,3,0,0,0,3,3H9.5a1,1,0,0,0,0-2H3a1,1,0,0,1-1-1V5.251A.25.25,0,0,1,2.249,5H21.75a.25.25,0,0,1,.25.25V10.5a1,1,0,0,0,2,0V3A3,3,0,0,0,21,0Z"/>
  <path d="M22.95923,19.43085a.84615.84615,0,0,0-1.075.52572l-.00049.00143a3.46162,3.46162,0,0,1-5.85369,1.20069.21154.21154,0,0,1,.00677-.29192l1.45708-1.45623a.42308.42308,0,0,0-.29954-.72177H13.42308A.42308.42308,0,0,0,13,19.11185v3.77131a.42308.42308,0,0,0,.72262.29954l.81992-.82077a.21154.21154,0,0,1,.29916.00031l.00461.00477a5.14969,5.14969,0,0,0,8.63923-1.86154A.84615.84615,0,0,0,22.95923,19.43085Z"/>
  <path d="M23.73854,13.65416a.42308.42308,0,0,0-.46115.09223l-.86815.86815a.21069.21069,0,0,1-.15146.06177.21407.21407,0,0,1-.15061-.06515,5.16154,5.16154,0,0,0-8.63077,1.88354.84651.84651,0,0,0,1.60177.54831h0a3.46161,3.46161,0,0,1,5.83846-1.22269.21323.21323,0,0,1-.00508.29362L19.50692,17.5177a.42308.42308,0,0,0,.29869.72177h3.77131A.42308.42308,0,0,0,24,17.81639V14.04508A.42308.42308,0,0,0,23.73854,13.65416Z"/>
</svg>
