<svg xmlns="http://www.w3.org/2000/svg" viewBox="0 0 24 24">
  <title>Artboard 1</title>
  <g>
    <path d="M17.491,23.996a3.46293,3.46293,0,0,1-3.03-1.749.5.5,0,1,1,.866-.5,2.47213,2.47213,0,0,0,2.159,1.25c.055,0,.11-.002.166-.005a2.61507,2.61507,0,0,0,2.342-2.647V17.998h-1a.5.5,0,0,1,0-1h1v-2h-2.5a.5.5,0,0,1,0-1h2.5v-2h-1a.5.5,0,0,1,0-1h1v-2h-2.5a.5.5,0,0,1,0-1h2.5v-3.5a.50018.50018,0,0,0-.5-.5h-4a.50018.50018,0,0,0-.5.5v5.5a.5.5,0,1,1-1,0v-5.5a1.50183,1.50183,0,0,1,1.5-1.5h4a1.50183,1.50183,0,0,1,1.5,1.5V20.335a3.62379,3.62379,0,0,1-3.262,3.654C17.645,23.994,17.568,23.996,17.491,23.996Z"/>
    <path d="M8.501,24a7.47729,7.47729,0,0,1-6.953-4.669c-.08-.197-.155-.408-.223-.626a.49844.49844,0,0,1-.035-.115A7.5001,7.5001,0,0,1,5.662,9.554a.49088.49088,0,0,0,.332-.455V2.912a1.49987,1.49987,0,0,1,.5-2.914h4a1.49987,1.49987,0,0,1,.5,2.914V9.06a.51235.51235,0,0,0,.306.485,7.52912,7.52912,0,0,1,4.138,4.124,7.41306,7.41306,0,0,1,.244,4.951.31718.31718,0,0,1-.021.072A7.49248,7.49248,0,0,1,8.502,24ZM2.492,18.997a6.49535,6.49535,0,0,0,11.997.001H2.492Zm12.323-1a6.43087,6.43087,0,0,0-.302-3.951,6.52918,6.52918,0,0,0-3.598-3.578,1.51269,1.51269,0,0,1-.921-1.417V2.997h-3V9.109a1.4875,1.4875,0,0,1-.967,1.376A6.49895,6.49895,0,0,0,2.17,17.997ZM6.494.997a.5.5,0,0,0,0,1h4a.5.5,0,0,0,0-1Z"/>
  </g>
</svg>
