<svg xmlns="http://www.w3.org/2000/svg" viewBox="0 0 24 24">
  <title>Artboard 1</title>
  <path d="M11.294,8.708A.5.5,0,0,1,11,8.252V1a1,1,0,0,0-1-1H6A1,1,0,0,0,5,1V8.252a.5.5,0,0,1-.294.456,8,8,0,1,0,6.588,0Zm2.681,7.838a.5.5,0,0,1-.5.454H2.523a.5.5,0,0,1-.5-.454C2.008,16.366,2,16.184,2,16a5.975,5.975,0,0,1,3.75-5.563A1.993,1.993,0,0,0,7,8.582V2.5A.5.5,0,0,1,7.5,2h1a.5.5,0,0,1,.5.5V8.582a1.991,1.991,0,0,0,1.25,1.854A5.977,5.977,0,0,1,14,16C14,16.184,13.992,16.366,13.975,16.546Z"/>
  <path d="M22,2H18a2,2,0,0,0-2,2v7a1,1,0,0,0,2,0V4.5a.5.5,0,0,1,.5-.5h3a.5.5,0,0,1,.5.5v3a.5.5,0,0,1-.5.5H21a1,1,0,0,0,0,2h.5a.5.5,0,0,1,.5.5v1a.5.5,0,0,1-.5.5H21a1,1,0,0,0,0,2h.5a.5.5,0,0,1,.5.5v1a.5.5,0,0,1-.5.5H21a1,1,0,0,0,0,2h.5a.5.5,0,0,1,.5.5v1.387a2.079,2.079,0,0,1-1.661,2.085,2,2,0,0,1-2.222-1.3A1.018,1.018,0,0,0,17.161,20a.991.991,0,0,0-.945,1.3A4.008,4.008,0,0,0,20.4,23.981,4.122,4.122,0,0,0,24,19.822V4A2,2,0,0,0,22,2Z"/>
</svg>
