<?xml version="1.0" encoding="UTF-8" standalone="no"?>
<svg width="32px" height="32px" viewBox="0 0 32 32" version="1.1" xmlns="http://www.w3.org/2000/svg" xmlns:xlink="http://www.w3.org/1999/xlink" xmlns:sketch="http://www.bohemiancoding.com/sketch/ns">
    <!-- Generator: Sketch 3.4.1 (15681) - http://www.bohemiancoding.com/sketch -->
    <title>shaded-32/compute-engine</title>
    <desc>Created with Sketch.</desc>
    <defs></defs>
    <g id="Page-1" stroke="none" stroke-width="1" fill="none" fill-rule="evenodd" sketch:type="MSPage">
        <g id="shaded-32/compute-engine" sketch:type="MSArtboardGroup">
            <rect id="Container" sketch:type="MSShapeGroup" x="0" y="0" width="32" height="32"></rect>
            <g id="shape" sketch:type="MSLayerGroup" transform="translate(1.000000, 1.000000)">
                <rect id="Rectangle-path" fill="#616161" sketch:type="MSShapeGroup" x="0" y="8" width="4" height="3"></rect>
                <rect id="Rectangle-path" fill="#616161" sketch:type="MSShapeGroup" x="0" y="13" width="4" height="3"></rect>
                <rect id="Rectangle-path" fill="#616161" sketch:type="MSShapeGroup" x="0" y="18" width="4" height="3"></rect>
                <rect id="Rectangle-path" fill="#616161" sketch:type="MSShapeGroup" x="25" y="8" width="4" height="3"></rect>
                <rect id="Rectangle-path" fill="#616161" sketch:type="MSShapeGroup" x="25" y="13" width="4" height="3"></rect>
                <rect id="Rectangle-path" fill="#616161" sketch:type="MSShapeGroup" x="25" y="18" width="4" height="3"></rect>
                <rect id="Rectangle-path" fill="#616161" sketch:type="MSShapeGroup" x="18" y="0" width="3" height="4"></rect>
                <rect id="Rectangle-path" fill="#616161" sketch:type="MSShapeGroup" x="13" y="0" width="3" height="4"></rect>
                <rect id="Rectangle-path" fill="#616161" sketch:type="MSShapeGroup" x="8" y="0" width="3" height="4"></rect>
                <rect id="Rectangle-path" fill="#616161" sketch:type="MSShapeGroup" x="18" y="25" width="3" height="4"></rect>
                <rect id="Rectangle-path" fill="#616161" sketch:type="MSShapeGroup" x="13" y="25" width="3" height="4"></rect>
                <rect id="Rectangle-path" fill="#616161" sketch:type="MSShapeGroup" x="8" y="25" width="3" height="4"></rect>
                <path d="M4,4 L4,25 L25,25 L25,4 L4,4 L4,4 Z M22,22 L7,22 L7,7 L22,7 L22,22 L22,22 Z" id="Shape" fill="#757575" sketch:type="MSShapeGroup"></path>
                <rect id="Rectangle-path" fill="#757575" sketch:type="MSShapeGroup" x="10" y="10" width="9" height="9"></rect>
                <path d="M19,19 L14.5,19 L14.5,14.4998 L19,9.9997 L19,19 Z" id="Shape" fill="#424242" sketch:type="MSShapeGroup"></path>
                <path d="M19,19 L10,19 L14.5,14.4998 L19,19 Z" id="Shape" fill="#616161" sketch:type="MSShapeGroup"></path>
            </g>
        </g>
    </g>
</svg>