<?xml version="1.0" encoding="utf-8"?>
<!DOCTYPE svg PUBLIC "-//W3C//DTD SVG 1.1//EN" "http://www.w3.org/Graphics/SVG/1.1/DTD/svg11.dtd">
<svg version="1.1" xmlns="http://www.w3.org/2000/svg" xmlns:xlink="http://www.w3.org/1999/xlink" width="32" height="32" viewBox="0 0 32 32">
<path d="M30.721 15.934l-6.385-11.059c-0.512-0.886-1.44-1.382-2.394-1.383h-12.77c-1.023 0-1.917 0.556-2.395 1.382l-6.385 11.059c-0.512 0.886-0.477 1.937-0 2.765l6.385 11.059c0.512 0.886 1.44 1.382 2.394 1.383h12.77c1.023 0 1.916-0.556 2.395-1.382l6.385-11.059c0.512-0.887 0.477-1.938 0-2.765zM5.979 17.316v0 0zM7.421 14.817v0 0zM15.556 21.463c-2.29 0-4.146-1.857-4.146-4.146s1.857-4.147 4.146-4.147c2.29 0 4.147 1.857 4.147 4.147s-1.857 4.146-4.147 4.146zM20.345 9.022v0 0z"></path>
</svg>
