<?xml version="1.0" encoding="UTF-8" standalone="no"?>
<svg width="47px" height="40px" viewBox="0 0 47 40" version="1.1" xmlns="http://www.w3.org/2000/svg" xmlns:xlink="http://www.w3.org/1999/xlink">
  <g transform="translate(1.000000, 1.000000)">
    <path d="M30.8746,26.4746 C27.6746,26.4746 25.0746,23.8746 25.0746,20.6746 C25.0746,17.4746 27.6746,14.8746 30.8746,14.8746 C34.0746,14.8746 36.6746,17.4746 36.6746,20.6746 C36.5746,23.8746 34.0746,26.4746 30.8746,26.4746 M14.2746,26.4746 C11.0746,26.4746 8.4746,23.8746 8.4746,20.6746 C8.4746,17.4746 11.0746,14.8746 14.2746,14.8746 C17.4746,14.8746 20.0746,17.4746 20.0746,20.6746 C20.0746,23.8746 17.4746,26.4746 14.2746,26.4746 M38.6746,18.0746 L38.6746,2.1746 L37.5746,2.1746 L37.5746,7.5746 L34.8746,7.5746 C32.4746,3.1746 27.8746,0.1746 22.5746,0.1746 C17.2746,0.1746 12.6746,3.1746 10.2746,7.5746 L7.0746,7.5746 L7.0746,2.1746 L5.9746,2.1746 L5.9746,17.9746 C2.7746,17.9746 0.1746,20.5746 0.1746,23.7746 C0.1746,26.9746 2.7746,29.5746 5.9746,29.5746 C6.1746,29.5746 6.3746,29.4746 6.4746,29.4746 L6.4746,37.6746 L38.4746,37.6746 L38.4746,29.5746 C41.6746,29.5746 44.2746,26.9746 44.2746,23.7746 C44.3746,20.5746 41.7746,18.0746 38.6746,18.0746" id="Fill-1" fill="#000000"></path>
    <path d="M30.8746,26.4746 C27.6746,26.4746 25.0746,23.8746 25.0746,20.6746 C25.0746,17.4746 27.6746,14.8746 30.8746,14.8746 C34.0746,14.8746 36.6746,17.4746 36.6746,20.6746 C36.5746,23.8746 34.0746,26.4746 30.8746,26.4746 L30.8746,26.4746 Z M14.2746,26.4746 C11.0746,26.4746 8.4746,23.8746 8.4746,20.6746 C8.4746,17.4746 11.0746,14.8746 14.2746,14.8746 C17.4746,14.8746 20.0746,17.4746 20.0746,20.6746 C20.0746,23.8746 17.4746,26.4746 14.2746,26.4746 L14.2746,26.4746 Z M38.6746,18.0746 L38.6746,2.1746 L37.5746,2.1746 L37.5746,7.5746 L34.8746,7.5746 C32.4746,3.1746 27.8746,0.1746 22.5746,0.1746 C17.2746,0.1746 12.6746,3.1746 10.2746,7.5746 L7.0746,7.5746 L7.0746,2.1746 L5.9746,2.1746 L5.9746,17.9746 C2.7746,17.9746 0.1746,20.5746 0.1746,23.7746 C0.1746,26.9746 2.7746,29.5746 5.9746,29.5746 C6.1746,29.5746 6.3746,29.4746 6.4746,29.4746 L6.4746,37.6746 L38.4746,37.6746 L38.4746,29.5746 C41.6746,29.5746 44.2746,26.9746 44.2746,23.7746 C44.3746,20.5746 41.7746,18.0746 38.6746,18.0746 L38.6746,18.0746 Z" id="Stroke-3" stroke="#000000" stroke-width="2.349"></path>
  </g>
</svg>
