<svg xmlns="http://www.w3.org/2000/svg" viewBox="0 0 24 24">
  <title>Artboard 1</title>
  <path d="M1.022,24H13.97852A1.02235,1.02235,0,0,0,15,22.97852V14.31934a1.01852,1.01852,0,0,0-.06189-.33838.47584.47584,0,0,0-.03107-.06244,1.03114,1.03114,0,0,0-.0965-.19391l-2.356-3.29688A1.02523,1.02523,0,0,0,11.62254,10H3.37744a1.02388,1.02388,0,0,0-.832.42773l-2.355,3.29688a1.02117,1.02117,0,0,0-.09882.19666.47957.47957,0,0,0-.02869.05707A1.0158,1.0158,0,0,0,0,14.31934v8.65918A1.02277,1.02277,0,0,0,1.022,24ZM1,22.97852l.00372-8.32617H13.99908L13.97852,23ZM11.64063,11.00879l.00049.001,1.88348,2.64258H8V11h3.62256A.02057.02057,0,0,1,11.64063,11.00879ZM3.37744,11H7v2.65234H1.47357Z"/>
  <path d="M11.25144,18h-3.5a.78656.78656,0,0,0-.75063.82092l.00063.01208v1.334a.78656.78656,0,0,0,.73792.83237L7.75144,21h3.5a.78656.78656,0,0,0,.75063-.82092l-.00063-.01208V18.833a.78656.78656,0,0,0-.73792-.83237Zm-.25,2h-3V19h3Z"/>
  <circle cx="22.5" cy="3.5" r="1.5"/>
  <circle cx="17.5" cy="3.5" r="1.5"/>
  <circle cx="12.5" cy="3.5" r="1.5"/>
</svg>
