<?xml version="1.0" encoding="utf-8"?>
<!-- Generator: Adobe Illustrator 22.1.0, SVG Export Plug-In . SVG Version: 6.00 Build 0)  -->
<svg version="1.1" id="Layer_1" xmlns="http://www.w3.org/2000/svg" xmlns:xlink="http://www.w3.org/1999/xlink" x="0px" y="0px"
	 viewBox="0 0 24 24" style="enable-background:new 0 0 24 24;" xml:space="preserve">
<g>
	<path d="M1.5,24C0.673,24,0,23.327,0,22.5V7.82c0-0.165,0.029-0.331,0.085-0.494C0.088,7.318,0.095,7.3,0.099,7.293
		c0.04-0.115,0.104-0.237,0.18-0.345l4.514-6.32C5.074,0.235,5.53,0,6.014,0h11.971c0.485,0,0.941,0.235,1.222,0.628l4.514,6.32
		c0.077,0.107,0.14,0.23,0.189,0.365C23.971,7.488,24,7.655,24,7.82V22.5c0,0.827-0.673,1.5-1.5,1.5H1.5z M1,22.5
		C1,22.776,1.224,23,1.5,23h21c0.276,0,0.5-0.224,0.5-0.5V8H1V22.5z M22.529,7l-4.135-5.791C18.3,1.078,18.147,1,17.986,1H12.5v6
		H22.529z M11.5,7V1H6.014C5.853,1,5.701,1.078,5.607,1.209L1.471,7H11.5z"/>
	<path d="M13.001,21c-0.552,0-1-0.448-1-1v-2c0-0.552,0.448-1,1-1h7c0.552,0,1,0.448,1,1v2c0,0.552-0.448,1-1,1H13.001z M13.001,20
		h7v-2h-7L13.001,20z"/>
</g>
</svg>
