<?xml version="1.0" encoding="utf-8"?>
<!-- Generator: Adobe Illustrator 21.1.0, SVG Export Plug-In . SVG Version: 6.00 Build 0)  -->
<svg version="1.1" id="Layer_1" xmlns="http://www.w3.org/2000/svg" xmlns:xlink="http://www.w3.org/1999/xlink" x="0px" y="0px"
	 viewBox="0 0 24 24" style="enable-background:new 0 0 24 24;" xml:space="preserve">
<style type="text/css">
	.st0{fill:none;}
	.st1{fill:none;stroke:#000000;stroke-linecap:round;stroke-linejoin:round;}
</style>
<title>Artboard 1</title>
<polygon class="st0" points="16,4.6 16,6.5 17.9,5.4 "/>
<circle cx="11.8" cy="4.2" r="0.8"/>
<circle class="st1" cx="17.8" cy="17" r="1.4"/>
<path class="st1" d="M19,11.5l0.4,1.4c0.1,0.5,0.6,0.8,1.1,0.7l1.4-0.3c0.7-0.2,1.4,0.3,1.5,1c0.1,0.4,0,0.8-0.3,1.2l-1,1.1
	c-0.3,0.4-0.3,0.9,0,1.3l1,1.1c0.5,0.5,0.5,1.3-0.1,1.8c-0.3,0.3-0.7,0.4-1.2,0.3l-1.4-0.3c-0.5-0.1-1,0.2-1.1,0.7L19,22.6
	c-0.2,0.7-0.9,1.1-1.6,0.9c-0.4-0.1-0.7-0.4-0.9-0.9l-0.4-1.4c-0.1-0.5-0.6-0.8-1.1-0.7l-1.4,0.3c-0.7,0.2-1.4-0.3-1.5-1
	c-0.1-0.4,0-0.8,0.3-1.2l1-1.1c0.3-0.4,0.3-0.9,0-1.3l-1-1.1c-0.5-0.5-0.5-1.3,0.1-1.8c0.3-0.3,0.7-0.4,1.2-0.3l1.4,0.3
	c0.5,0.1,1-0.2,1.1-0.7l0.4-1.4c0.2-0.7,0.9-1.1,1.6-0.9C18.6,10.7,18.9,11.1,19,11.5z"/>
<polygon class="st0" points="16,6.5 17.9,5.4 16,4.6 "/>
<path d="M18.8,4.9c-0.1-0.2-0.3-0.3-0.5-0.4l-2.5-1.1c-0.7-2.3-2.9-3.7-5.3-3.4C7.8,0.3,5.8,2.6,5.8,5.3v0.6C4.2,6,2.7,5.4,1.7,4.2
	c-0.4-0.4-1-0.4-1.4-0.1C0.1,4.4,0,4.6,0,4.9c0.3,3.3,1.7,5.6,4.1,6.9l-0.6,0.6l-2.4,2.3c-0.4,0.4-0.4,1,0,1.4c0,0,0,0,0,0l0,0
	c0.2,0.2,0.4,0.3,0.7,0.3c0,0,7.5,0,8.1,0s0.7-1,0-1s-8.1,0-8.1,0s3.2-3.1,3.5-3.6c0.3-0.4-0.2-0.6-0.2-0.6C2.7,10.1,1.3,8,1,4.8
	c1.4,1.5,3.4,2.3,5.4,2c0.2,0,0.4-0.3,0.4-0.5v-1c0-2.2,1.6-4,3.7-4.3c2.2-0.2,4.2,1.4,4.5,3.6c0,0,0,0.1,0,0.1c0,0,0,3.2,0,4.5
	c0,0.7,1,0.7,1,0c0-0.5,0-1.5,0-1.5l2.4-1.4C18.9,6,19,5.4,18.8,4.9z M16,6.5V4.6l1.9,0.8L16,6.5z"/>
</svg>
