<svg xmlns="http://www.w3.org/2000/svg" viewBox="0 0 24 24">
  <title>Artboard 1</title>
  <g>
    <path d="M18.27344,12.14014,15.72852,11.053a5.09174,5.09174,0,0,0-5.331-3.44366l-.01611.002A5.22922,5.22922,0,0,0,5.833,12.88281V13.459a5.24449,5.24449,0,0,1-4.09814-1.72363,1.00006,1.00006,0,0,0-1.73242.7749C.333,15.7666,1.70947,18.084,4.09619,19.4082a7.22321,7.22321,0,0,1-.57275.59961l-2.4336,2.26074A1,1,0,0,0,1.771,24H7.77881A8.23006,8.23006,0,0,0,16,15.7793v-.4895l2.375-1.36108a.99986.99986,0,0,0-.10156-1.78858ZM15,15.7793A7.22907,7.22907,0,0,1,7.77881,23H1.77148l2.43311-2.25977A8.1715,8.1715,0,0,0,5.27,19.52832a.5004.5004,0,0,0-.19629-.74512c-2.38721-1.10352-3.75879-3.248-4.07959-6.376A6.2043,6.2043,0,0,0,6.397,14.41309a.50044.50044,0,0,0,.436-.49609V12.874a4.2324,4.2324,0,0,1,3.6709-4.27051,4.10072,4.10072,0,0,1,4.477,3.68619q.01823.18812.01907.37732Zm1-1.64209V12.665c-.00055-.14032-.01166-.27936-.02374-.41815l1.90265.81366Z"/>
    <circle cx="11.75" cy="11.75" r="0.75"/>
  </g>
  <path d="M20.5,9C20,9,19,8.1,19,7.6s1-1.4,1.5-1.4S22,7.1,22,7.6A2.33144,2.33144,0,0,1,20.5,9ZM19,0h3l-.2,5H19.1Z"/>
</svg>
