<?xml version="1.0" encoding="utf-8"?>
<!-- Generator: Adobe Illustrator 22.1.0, SVG Export Plug-In . SVG Version: 6.00 Build 0)  -->
<svg version="1.1" id="Layer_1" xmlns="http://www.w3.org/2000/svg" xmlns:xlink="http://www.w3.org/1999/xlink" x="0px" y="0px"
	 viewBox="0 0 24 24" style="enable-background:new 0 0 24 24;" xml:space="preserve">
<g>
	<path d="M23.5,23.999c-0.134,0-0.259-0.052-0.354-0.146L12,12.706L0.854,23.853c-0.094,0.094-0.22,0.146-0.354,0.146
		s-0.259-0.052-0.354-0.146c-0.195-0.195-0.195-0.512,0-0.707l11.146-11.146L0.147,0.853c-0.195-0.195-0.195-0.512,0-0.707
		C0.241,0.051,0.367-0.001,0.5-0.001s0.259,0.052,0.354,0.146L12,11.292L23.147,0.146c0.094-0.094,0.22-0.146,0.354-0.146
		s0.259,0.052,0.354,0.146c0.195,0.195,0.195,0.512,0,0.707L12.707,11.999l11.146,11.146c0.195,0.195,0.195,0.512,0,0.707
		C23.759,23.947,23.634,23.999,23.5,23.999z"/>
</g>
</svg>
