<?xml version="1.0" encoding="utf-8"?>
<!-- Generator: Adobe Illustrator 22.1.0, SVG Export Plug-In . SVG Version: 6.00 Build 0)  -->
<svg version="1.1" id="Layer_1" xmlns="http://www.w3.org/2000/svg" xmlns:xlink="http://www.w3.org/1999/xlink" x="0px" y="0px"
	 viewBox="0 0 24 24" style="enable-background:new 0 0 24 24;" xml:space="preserve">
<g>
	<title>cloud-check</title>
	<path d="M3.501,14.8c-0.035,0-0.071-0.004-0.107-0.011c-1.773-0.388-2.99-1.985-2.893-3.797c0.005-0.252,0.036-0.516,0.093-0.776
		C0.827,9.156,1.459,8.25,2.373,7.666c0.655-0.419,1.41-0.641,2.182-0.641c0.11,0,0.221,0.005,0.332,0.014
		C5.41,3.579,8.392,1,11.925,1l0.082,0l0.037,0.25V1c2.589,0,5.045,1.454,6.301,3.717c2.806,0.029,5.114,2.321,5.155,5.134
		c0.06,1.926-1.035,3.698-2.79,4.51c-0.065,0.031-0.136,0.047-0.21,0.047l0,0c-0.194,0-0.372-0.114-0.454-0.291
		c-0.056-0.121-0.062-0.257-0.015-0.382c0.046-0.125,0.138-0.225,0.26-0.281c1.39-0.643,2.258-2.048,2.21-3.579
		c-0.034-2.294-1.923-4.157-4.21-4.157l-0.063,0c-0.052,0.001-0.104,0.003-0.156,0.005c0,0-0.001,0-0.002,0
		c-0.216,0-0.388-0.106-0.472-0.277C16.559,3.352,14.386,2,12.064,2l-0.141,0C8.741,2,6.062,4.48,5.824,7.647
		C5.813,7.791,5.74,7.924,5.624,8.01c-0.087,0.064-0.19,0.099-0.298,0.099c-0.036,0-0.072-0.004-0.106-0.011
		c-0.22-0.049-0.443-0.073-0.665-0.073c-0.58,0-1.148,0.167-1.643,0.484c-0.689,0.441-1.165,1.123-1.34,1.922
		c-0.043,0.196-0.067,0.397-0.071,0.598c-0.071,1.334,0.815,2.501,2.107,2.784c0.269,0.059,0.44,0.326,0.382,0.595
		C3.939,14.635,3.734,14.8,3.501,14.8z"/>
	<path d="M12,23.001c-3.584,0-6.5-2.916-6.5-6.5c0-3.584,2.916-6.5,6.5-6.5c3.584,0,6.5,2.916,6.5,6.5
		C18.5,20.085,15.585,23.001,12,23.001z M12,11.001c-3.033,0-5.5,2.467-5.5,5.5s2.467,5.5,5.5,5.5s5.5-2.467,5.5-5.5
		S15.033,11.001,12,11.001z"/>
	<path d="M11.173,19.43c-0.272,0-0.531-0.086-0.749-0.25c-0.047-0.035-0.091-0.073-0.132-0.115l-1.501-1.501
		c-0.094-0.094-0.146-0.22-0.146-0.354s0.052-0.259,0.146-0.354s0.22-0.146,0.354-0.146s0.259,0.052,0.354,0.146l1.5,1.5
		c0.008,0.008,0.018,0.016,0.028,0.024c0.043,0.032,0.094,0.049,0.149,0.049c0.08,0,0.153-0.036,0.2-0.1l2.9-3.874
		c0.094-0.125,0.244-0.2,0.401-0.2c0.109,0,0.212,0.035,0.3,0.1c0.22,0.165,0.265,0.479,0.1,0.7l-2.9,3.874
		C11.94,19.244,11.566,19.43,11.173,19.43z"/>
</g>
</svg>
