<?xml version="1.0" encoding="utf-8"?>
<!-- Generator: Adobe Illustrator 22.1.0, SVG Export Plug-In . SVG Version: 6.00 Build 0)  -->
<svg version="1.1" id="Layer_1" xmlns="http://www.w3.org/2000/svg" xmlns:xlink="http://www.w3.org/1999/xlink" x="0px" y="0px"
	 viewBox="0 0 24 24" style="enable-background:new 0 0 24 24;" xml:space="preserve">
<g>
	<title>cloud-settings</title>
	<path d="M3.501,14.828c-0.035,0-0.071-0.004-0.107-0.011c-1.771-0.388-2.987-1.983-2.893-3.793
		c0.005-0.251,0.036-0.515,0.093-0.775C1,8.4,2.668,7.057,4.561,7.057c0.108,0,0.217,0.004,0.326,0.013
		c0.523-3.46,3.505-6.039,7.038-6.039l0.131,0c2.583,0,5.035,1.454,6.289,3.717c1.339,0.01,2.607,0.532,3.575,1.472
		c0.999,0.969,1.56,2.269,1.58,3.661c0.061,1.927-1.034,3.698-2.79,4.51c-0.067,0.031-0.137,0.046-0.21,0.046l0,0
		c-0.195,0-0.373-0.114-0.454-0.291c-0.115-0.25-0.006-0.548,0.244-0.664c1.391-0.643,2.259-2.048,2.211-3.579
		c-0.017-1.131-0.47-2.184-1.277-2.967c-0.79-0.767-1.832-1.189-2.934-1.189l-0.061,0c-0.052,0.001-0.104,0.003-0.156,0.005
		c-0.004,0-0.022,0.001-0.026,0.001c-0.191,0-0.363-0.107-0.448-0.278c-1.038-2.093-3.219-3.445-5.555-3.445l-0.135-0.001
		c-3.173,0-5.846,2.481-6.085,5.647c-0.011,0.144-0.084,0.277-0.2,0.364C5.538,8.106,5.432,8.141,5.325,8.141
		c-0.036,0-0.072-0.004-0.108-0.012C5.002,8.082,4.781,8.058,4.562,8.058c-1.427,0-2.685,1.012-2.991,2.406
		c-0.043,0.196-0.067,0.396-0.07,0.596c-0.069,1.332,0.817,2.497,2.107,2.78c0.13,0.029,0.242,0.106,0.314,0.219
		c0.072,0.113,0.096,0.246,0.068,0.377C3.939,14.662,3.734,14.828,3.501,14.828z"/>
	<path d="M12.25,17.97c-1.069,0-1.938-0.869-1.938-1.938s0.869-1.938,1.938-1.938s1.938,0.869,1.938,1.938S13.319,17.97,12.25,17.97
		z M12.25,15.094c-0.517,0-0.938,0.421-0.938,0.938s0.421,0.938,0.938,0.938s0.938-0.421,0.938-0.938S12.767,15.094,12.25,15.094z"
		/>
	<path d="M12.257,23.001c-0.174,0-0.346-0.025-0.513-0.076c-0.572-0.172-1.017-0.617-1.189-1.189l-0.428-1.389
		c-0.058-0.192-0.236-0.325-0.433-0.325c-0.034,0-0.068,0.004-0.101,0.012l-1.411,0.327c-0.131,0.029-0.262,0.044-0.393,0.044
		c-0.827,0-1.559-0.585-1.741-1.391c-0.13-0.575,0.033-1.176,0.435-1.607l0.986-1.064c0.16-0.174,0.159-0.447-0.001-0.622
		l-0.986-1.063c-0.324-0.347-0.493-0.801-0.476-1.278s0.218-0.917,0.566-1.241c0.331-0.308,0.762-0.478,1.215-0.478
		c0.132,0,0.264,0.015,0.393,0.044l1.414,0.328c0.034,0.008,0.067,0.012,0.101,0.012c0.197,0,0.375-0.132,0.432-0.322l0.424-1.393
		c0.135-0.452,0.439-0.826,0.857-1.051c0.26-0.14,0.55-0.214,0.841-0.214c0.172,0,0.344,0.025,0.51,0.075
		c0.573,0.171,1.018,0.614,1.191,1.186l0.424,1.392c0.057,0.191,0.235,0.323,0.433,0.323c0.034,0,0.068-0.004,0.101-0.012
		l1.411-0.327c0.132-0.03,0.265-0.045,0.398-0.045c0.335,0,0.664,0.096,0.95,0.276c0.403,0.255,0.682,0.651,0.787,1.115
		c0.13,0.575-0.033,1.176-0.435,1.607l-0.988,1.063c-0.159,0.173-0.159,0.447,0.002,0.621l0.986,1.063
		c0.323,0.347,0.493,0.801,0.476,1.278c-0.017,0.477-0.218,0.917-0.566,1.241c-0.331,0.308-0.763,0.478-1.216,0.478
		c-0.131,0-0.263-0.015-0.391-0.043l-1.414-0.327c-0.03-0.007-0.062-0.01-0.094-0.01c-0.198,0-0.376,0.133-0.432,0.323l-0.425,1.396
		c-0.136,0.453-0.441,0.826-0.859,1.051C12.838,22.928,12.548,23.001,12.257,23.001z M9.693,19.023c0.636,0,1.208,0.425,1.391,1.033
		l0.428,1.389c0.076,0.252,0.27,0.447,0.52,0.522c0.073,0.022,0.149,0.033,0.224,0.033c0.126,0,0.253-0.032,0.366-0.093
		c0.182-0.098,0.315-0.261,0.375-0.459l0.425-1.394c0.181-0.609,0.753-1.035,1.391-1.035c0.106,0,0.212,0.012,0.316,0.035
		l1.415,0.327c0.055,0.013,0.113,0.019,0.171,0.019c0.198,0,0.386-0.075,0.532-0.21c0.153-0.142,0.241-0.336,0.249-0.545
		c0.007-0.209-0.067-0.409-0.209-0.562l-0.988-1.066c-0.51-0.555-0.511-1.424-0.001-1.978l0.99-1.066
		c0.177-0.19,0.248-0.454,0.191-0.706c-0.046-0.204-0.168-0.378-0.345-0.49c-0.126-0.079-0.27-0.121-0.417-0.121
		c-0.058,0-0.117,0.006-0.174,0.019l-1.408,0.326c-0.107,0.025-0.216,0.037-0.325,0.037c-0.636,0-1.208-0.425-1.391-1.034
		l-0.423-1.39c-0.076-0.25-0.27-0.444-0.52-0.519c-0.073-0.022-0.148-0.033-0.223-0.033c-0.127,0-0.253,0.032-0.367,0.093
		c-0.182,0.098-0.315,0.262-0.374,0.46l-0.425,1.394c-0.183,0.607-0.755,1.031-1.392,1.031c-0.108,0-0.217-0.012-0.323-0.037
		L7.956,12.68c-0.054-0.012-0.112-0.019-0.169-0.019c-0.199,0-0.388,0.074-0.534,0.21c-0.153,0.143-0.241,0.336-0.249,0.545
		c-0.007,0.209,0.067,0.408,0.209,0.562l0.988,1.066c0.511,0.555,0.511,1.424,0.001,1.978l-0.988,1.066
		c-0.177,0.19-0.249,0.454-0.192,0.707c0.08,0.354,0.401,0.611,0.764,0.611c0.057,0,0.115-0.007,0.172-0.019l1.408-0.327
		C9.475,19.036,9.584,19.023,9.693,19.023z"/>
</g>
</svg>
