<svg xmlns="http://www.w3.org/2000/svg" viewBox="0 0 24 24">
  <title>Artboard 1</title>
  <path d="M18.9198,8.50061,18.91992,8.5l-.00085-.00409A6.45934,6.45934,0,0,0,12.52539,3H3.5A1.50164,1.50164,0,0,0,2,4.5v18A1.50164,1.50164,0,0,0,3.5,24h14A1.50164,1.50164,0,0,0,19,22.5V9.47852A6.53845,6.53845,0,0,0,18.9198,8.50061ZM17.77435,8H14.5a.50065.50065,0,0,1-.5-.5V4.22552A5.30515,5.30515,0,0,1,17.77435,8ZM18,22.5a.501.501,0,0,1-.5.5H3.5a.50065.50065,0,0,1-.5-.5V4.5A.50034.50034,0,0,1,3.5,4h9.02832c.16022.00006.3139.03265.47168.04626V7.5A1.50164,1.50164,0,0,0,14.5,9h3.45367c.01379.15985.04645.31567.04633.478Z"/>
  <path d="M20.5,21H20a.5.5,0,0,1,0-1h.5a.501.501,0,0,0,.5-.5V6.478A5.47475,5.47475,0,0,0,15.52832,1H6.5a.50034.50034,0,0,0-.5.5V2A.5.5,0,0,1,5,2V1.5A1.50164,1.50164,0,0,1,6.5,0h9.02539A6.47417,6.47417,0,0,1,22,6.47852V19.5A1.50164,1.50164,0,0,1,20.5,21Z"/>
</svg>
