<svg xmlns="http://www.w3.org/2000/svg" viewBox="0 0 24 24">
  <defs>
    <style>
      .a {
        isolation: isolate;
      }
    </style>
  </defs>
  <title>Artboard 1</title>
  <path d="M20,5.6A6.47119,6.47119,0,0,0,14.6.1h-.1a3.40193,3.40193,0,0,0-1-.1H1.5A1.538,1.538,0,0,0,0,1.5v16a.47239.47239,0,0,0,.5.5.47239.47239,0,0,0,.5-.5V1.5A.47239.47239,0,0,1,1.5,1H14V4.5A1.538,1.538,0,0,0,15.5,6H19v6.5a.5.5,0,0,0,1,0V5.6ZM15,4.5V1.2A5.39983,5.39983,0,0,1,18.8,5H15.5A.47239.47239,0,0,1,15,4.5Z"/>
  <g class="a">
    <path d="M2.3,23.8a2.37541,2.37541,0,0,1-1.2-.3,3.04352,3.04352,0,0,1-.8-.8l.9-.7a1.205,1.205,0,0,0,.5.5,1.42131,1.42131,0,0,0,.6.2.90783.90783,0,0,0,.7-.3c.2-.2.2-.5.2-1V17H4.4v4.5a1.94945,1.94945,0,0,1-.1.8A4.87527,4.87527,0,0,1,4,23a2.65131,2.65131,0,0,1-.6.5A2.9,2.9,0,0,1,2.3,23.8Z"/>
    <path d="M7.8,23.8a5.85259,5.85259,0,0,1-1.3-.2,4.12929,4.12929,0,0,1-1.1-.7l.8-.9a2.17737,2.17737,0,0,0,.8.5,2.91985,2.91985,0,0,0,.9.2,1.99683,1.99683,0,0,0,.9-.2c.2-.1.2-.3.2-.6a.36736.36736,0,0,0-.1-.3c-.1-.1-.1-.2-.2-.2-.1-.1-.2-.1-.3-.2s-.3-.2-.4-.3l-.9-.4c-.2-.1-.3-.2-.5-.2a.78077.78077,0,0,1-.4-.4,2.1859,2.1859,0,0,1-.3-.5,1.26834,1.26834,0,0,1-.1-.6,1.44532,1.44532,0,0,1,.2-.7,2.65132,2.65132,0,0,1,.5-.6,1.61176,1.61176,0,0,1,.7-.4A1.7192,1.7192,0,0,1,8,17a4.25282,4.25282,0,0,1,1.1.2,2.03375,2.03375,0,0,1,.9.6l-.6.7a1.61175,1.61175,0,0,0-.7-.4A1.95227,1.95227,0,0,0,8,18a1.88389,1.88389,0,0,0-.8.2.60467.60467,0,0,0-.3.6.36736.36736,0,0,0,.1.3c.1.1.1.2.2.2.1.1.2.1.3.2s.3.1.4.2l1,.3a2.186,2.186,0,0,1,.5.3.78077.78077,0,0,1,.4.4,2.18588,2.18588,0,0,1,.3.5,1.26834,1.26834,0,0,1,.1.6,2.35351,2.35351,0,0,1-.2.8,2.65133,2.65133,0,0,1-.5.6,1.61175,1.61175,0,0,1-.7.4A2.9585,2.9585,0,0,1,7.8,23.8Z"/>
    <path d="M13.9,23.8a5.01935,5.01935,0,0,1-1.2-.2,2.17763,2.17763,0,0,1-.9-.7,2.38376,2.38376,0,0,1-.6-1.1,5.9019,5.9019,0,0,1-.2-1.4,5.902,5.902,0,0,1,.2-1.4,2.38377,2.38377,0,0,1,.6-1.1,5.49576,5.49576,0,0,1,.9-.7,2.16546,2.16546,0,0,1,1.2-.2,4.29756,4.29756,0,0,1,1.2.2,1.59584,1.59584,0,0,1,.9.7,1.97532,1.97532,0,0,1,.6,1.1,5.9019,5.9019,0,0,1,.2,1.4,5.9019,5.9019,0,0,1-.2,1.4,2.38376,2.38376,0,0,1-.6,1.1,5.49569,5.49569,0,0,1-.9.7A5.01923,5.01923,0,0,1,13.9,23.8Zm0-1.1a1.44531,1.44531,0,0,0,.7-.2,1.205,1.205,0,0,0,.5-.5,1.90932,1.90932,0,0,0,.3-.8,3.08283,3.08283,0,0,0,.1-1,2.86022,2.86022,0,0,0-.5-1.7,1.5,1.5,0,0,0-2.4,0,2.86022,2.86022,0,0,0-.5,1.7,3.08283,3.08283,0,0,0,.1,1c.1.3.2.5.3.8a.82146.82146,0,0,0,.5.5A2.91984,2.91984,0,0,0,13.9,22.7Z"/>
    <path d="M18.1,23.6V17.1h1.2l2,3.7.7,1.4h0c0-.3-.1-.7-.1-1.1s-.1-.8-.1-1.1V17.2H23v6.5H21.8l-2-3.7-.7-1.4h0c0,.3.1.7.1,1.1s.1.8.1,1.1v2.9H18.1Z"/>
  </g>
</svg>
