<svg xmlns="http://www.w3.org/2000/svg" viewBox="0 0 24 24">
  <title>Artboard 1</title>
  <path d="M11.3,24a11.86394,11.86394,0,0,1-9.8-6.1c-.1-.1-.1-.1-.1-.2a11.31867,11.31867,0,0,1-1.4-6v-.2a11.61483,11.61483,0,0,1,2-6c0-.1.1-.1.1-.2a11.82771,11.82771,0,0,1,9-5.1h1.4a12.03016,12.03016,0,0,1,11.2,9.9.60122.60122,0,0,1-.1.4c-.1.1-.2.2-.3.2h-.1c-.2,0-.5-.2-.5-.4A8.51549,8.51549,0,0,0,21.2,6H16.7a24.54291,24.54291,0,0,1,.8,2.9.54835.54835,0,0,1-.4.6H17c-.2,0-.5-.2-.5-.4A28.06291,28.06291,0,0,0,15.7,6H8.3a14.3692,14.3692,0,0,0-1,5H11a.5.5,0,0,1,0,1H7.3a18.4862,18.4862,0,0,0,1,5H9.5a.5.5,0,0,1,0,1H8.7a27.79274,27.79274,0,0,0,3,5.2v.4h0v.3c0,.1,0,0-.1.1h-.3ZM2.8,18a11.298,11.298,0,0,0,7.5,4.9A21.07777,21.07777,0,0,1,7.7,18Zm4.5-1a18.4862,18.4862,0,0,1-1-5H1a10.84281,10.84281,0,0,0,1.2,5Zm-1-6a14.3692,14.3692,0,0,1,1-5H2.8a9.97759,9.97759,0,0,0-1.7,5ZM20.5,5A10.63916,10.63916,0,0,0,14,1.2,14.83683,14.83683,0,0,1,16.3,5ZM15.2,5a15.63932,15.63932,0,0,0-2.7-4h-1A20.09818,20.09818,0,0,0,8.8,5ZM7.7,5A21.3779,21.3779,0,0,1,10,1.2,10.91952,10.91952,0,0,0,3.5,5Z"/>
  <path d="M17.5,24A6.5,6.5,0,1,1,24,17.5,6.487,6.487,0,0,1,17.5,24Zm0-12A5.5,5.5,0,1,0,23,17.5,5.54882,5.54882,0,0,0,17.5,12Z"/>
  <path d="M16.6,20.3a.616.616,0,0,1-.7-.1l-2-2a.495.495,0,1,1,.7-.7l1.8,1.7,3.9-3.9a.495.495,0,1,1,.7.7S17.3,19.7,16.6,20.3Z"/>
</svg>
