<svg xmlns="http://www.w3.org/2000/svg" viewBox="0 0 24 24">
  <title>Artboard 1</title>
  <path d="M11.338,23.985a11.94427,11.94427,0,0,1-9.8-6.14.49147.49147,0,0,1-.116-.208A11.96408,11.96408,0,0,1,.024,11.602a.40291.40291,0,0,1-.013-.099.50771.50771,0,0,1,.02-.139l.001-.022A11.96543,11.96543,0,0,1,2.05,5.323a.484.484,0,0,1,.129-.187A11.94974,11.94974,0,0,1,11.228.033c.011-.001.026-.002.042-.002.254-.016.522-.025.78-.025.211,0,.422.006.627.017A11.95089,11.95089,0,0,1,23.83,9.915a.501.501,0,0,1-.406.58.51868.51868,0,0,1-.087.007.49926.49926,0,0,1-.493-.413A11.01347,11.01347,0,0,0,21.24,6.002H16.72a16.65568,16.65568,0,0,1,.773,2.916.50124.50124,0,0,1-.41.577A.45741.45741,0,0,1,17,9.502a.49926.49926,0,0,1-.493-.416,15.71893,15.71893,0,0,0-.855-3.084H8.332a14.31637,14.31637,0,0,0-1.022,5h3.691a.5.5,0,0,1,0,1H7.322a16.858,16.858,0,0,0,1.025,5H9.5a.5.5,0,0,1,0,1H8.744a24.97134,24.97134,0,0,0,3.034,5.184.38373.38373,0,0,1,.042.077.33617.33617,0,0,1,.035.078.42545.42545,0,0,1,.017.098.24548.24548,0,0,1,.006.073.27093.27093,0,0,1-.007.046c-.005.028-.012.05-.016.065a.50645.50645,0,0,1-.036.097.51172.51172,0,0,1-.043.064.57614.57614,0,0,1-.06.069.29219.29219,0,0,1-.106.074c-.011.006-.043.022-.056.027a.50971.50971,0,0,1-.175.033C11.369,23.987,11.347,23.986,11.338,23.985Zm-8.54-5.983a11.06879,11.06879,0,0,0,7.526,4.871,24.76468,24.76468,0,0,1-2.646-4.871Zm4.512-1a17.828,17.828,0,0,1-.968-5H1.017a10.97656,10.97656,0,0,0,1.202,5Zm-.98-6a15.36514,15.36514,0,0,1,.952-5H2.801a10.97316,10.97316,0,0,0-1.739,5Zm14.181-6a11.0311,11.0311,0,0,0-6.534-3.821,16.51188,16.51188,0,0,1,2.342,3.821Zm-5.292,0A15.52711,15.52711,0,0,0,12.5,1.015c-.159-.007-.318-.01-.475-.01-.172,0-.347.004-.523.012A17.21518,17.21518,0,0,0,8.775,5.002Zm-7.528,0a17.52059,17.52059,0,0,1,2.356-3.819,11.08221,11.08221,0,0,0-6.51,3.819Z"/>
  <path d="M17.5,24.002a6.5,6.5,0,1,1,6.5-6.5A6.50751,6.50751,0,0,1,17.5,24.002Zm0-12a5.5,5.5,0,1,0,5.5,5.5A5.50586,5.50586,0,0,0,17.5,12.002Z"/>
  <path d="M19.621,20.124a.49936.49936,0,0,1-.354-.146L17.5,18.209l-1.768,1.768a.50028.50028,0,0,1-.708-.707l1.768-1.768-1.768-1.768a.50028.50028,0,0,1,.708-.707L17.5,16.795l1.768-1.768a.50028.50028,0,0,1,.708.707l-1.768,1.768,1.768,1.768a.5005.5005,0,0,1-.355.854Z"/>
</svg>
