<svg xmlns="http://www.w3.org/2000/svg" viewBox="0 0 24 24">
  <title>Artboard 1</title>
  <path d="M11.995,22.013A10.00222,10.00222,0,0,1,4.399,5.502H1.001a.499.499,0,0,1,0-.998h4.5A.49911.49911,0,0,1,6,5.003v4.5a.499.499,0,1,1-.998.003V6.349a8.99793,8.99793,0,0,0,6.993,14.665h0a8.98344,8.98344,0,0,0,4.852-1.423.49858.49858,0,0,1,.27-.08.50038.50038,0,0,1,.272.921,9.98646,9.98646,0,0,1-5.393,1.582h0Z"/>
  <path d="M22.999,19.502h-4.5A.49911.49911,0,0,1,18,19.003v-4.5a.499.499,0,0,1,.998,0v3.162A8.99952,8.99952,0,0,0,7.204,4.386a.48813.48813,0,0,1-.267.077.4984.4984,0,0,1-.265-.921A9.99645,9.99645,0,0,1,19.601,18.501h3.396a.5005.5005,0,0,1,0,1.001h.002Z"/>
</svg>
