<?xml version="1.0" encoding="utf-8"?>
<!-- Generator: Adobe Illustrator 22.1.0, SVG Export Plug-In . SVG Version: 6.00 Build 0)  -->
<svg version="1.1" id="Layer_1" xmlns="http://www.w3.org/2000/svg" xmlns:xlink="http://www.w3.org/1999/xlink" x="0px" y="0px"
	 viewBox="0 0 24 24" style="enable-background:new 0 0 24 24;" xml:space="preserve">
<g>
	<title>love-it</title>
	<path d="M11.998,22.435c-0.135,0-0.266-0.055-0.359-0.152l-9.8-10.091c-1.921-1.884-2.395-4.772-1.174-7.182
		c1.093-2.121,3.256-3.438,5.647-3.438c1,0,2,0.243,2.893,0.703c0.568,0.293,1.088,0.669,1.544,1.118l1.249,1.139l1.263-1.152
		c1.181-1.162,2.756-1.806,4.43-1.806c1.716,0,3.322,0.672,4.522,1.891c0.448,0.455,0.824,0.974,1.116,1.542
		c1.221,2.412,0.746,5.302-1.181,7.193l-9.791,10.083C12.263,22.379,12.132,22.435,11.998,22.435z M6.31,2.571
		c-2.014,0-3.836,1.109-4.755,2.893c-1.022,2.016-0.623,4.437,0.993,6.021l9.45,9.731l9.441-9.723c1.622-1.591,2.022-4.014,1-6.033
		C22.194,4.986,21.878,4.55,21.5,4.166c-1.01-1.027-2.362-1.592-3.807-1.592c-1.412,0-2.742,0.544-3.745,1.531l-1.614,1.472
		c-0.092,0.084-0.212,0.131-0.337,0.131s-0.245-0.046-0.337-0.131l-1.6-1.459C9.665,3.729,9.225,3.41,8.746,3.164
		C7.994,2.776,7.152,2.571,6.31,2.571z"/>
</g>
</svg>
