<?xml version="1.0" encoding="utf-8"?>
<!-- Generator: Adobe Illustrator 22.1.0, SVG Export Plug-In . SVG Version: 6.00 Build 0)  -->
<svg version="1.1" id="Layer_1" xmlns="http://www.w3.org/2000/svg" xmlns:xlink="http://www.w3.org/1999/xlink" x="0px" y="0px"
	 viewBox="0 0 24 24" style="enable-background:new 0 0 24 24;" xml:space="preserve">
<g>
	<title>book-search</title>
	<path d="M3.5,24C2.121,24,1,22.878,1,21.5v-19C1,1.121,2.121,0,3.5,0h17C20.776,0,21,0.224,21,0.5S20.776,1,20.5,1h-17
		C2.673,1,2,1.673,2,2.5S2.673,4,3.5,4h16C20.327,4,21,4.673,21,5.5v6.526c0,0.276-0.224,0.5-0.5,0.5s-0.5-0.224-0.5-0.5V5.5
		C20,5.224,19.776,5,19.5,5h-16C2.952,5,2.428,4.822,2,4.499V21.5C2,22.327,2.673,23,3.5,23h8.581c0.276,0,0.5,0.224,0.5,0.5
		s-0.224,0.5-0.5,0.5H3.5z"/>
	<path d="M3.5,3C3.224,3,3,2.776,3,2.5S3.224,2,3.5,2h16C19.776,2,20,2.224,20,2.5S19.776,3,19.5,3H3.5z"/>
	<path d="M22.5,24c-0.134,0-0.259-0.052-0.354-0.146l-2.938-2.938c-0.9,0.738-2.02,1.142-3.18,1.142
		c-2.773,0-5.029-2.256-5.029-5.029S13.256,12,16.029,12s5.029,2.256,5.029,5.029c0,1.16-0.404,2.28-1.142,3.18l2.938,2.938
		C22.948,23.241,23,23.366,23,23.5s-0.052,0.259-0.146,0.354S22.634,24,22.5,24z M16.029,13C13.807,13,12,14.807,12,17.029
		s1.807,4.029,4.029,4.029s4.029-1.807,4.029-4.029S18.251,13,16.029,13z"/>
</g>
</svg>
