<svg xmlns="http://www.w3.org/2000/svg" viewBox="0 0 24 24">
  <path d="M3.76 0a.51.51 0 00-.55.437V.44l-1 9a.5.5 0 00.437.55H2.703a.5.5 0 00.496-.438V9.55l1-9a.499.499 0 00-.437-.549H3.76zM1.76 0a.51.51 0 00-.55.437V.44l-1 9a.5.5 0 00.438.56H.704a.5.5 0 00.496-.438V9.56l1-9A.5.5 0 001.762 0H1.76zM22.53 11.74A1.26 1.26 0 0021.28 13v4.3a2.51 2.51 0 01-4.999.01l-.001-.01V13a1.26 1.26 0 10-2.51.005V13v4.3a2.51 2.51 0 01-4.999.01l-.001-.01V13a1.26 1.26 0 00-1.26-1.26 1.24 1.24 0 00-1.067.624l-.003.006a8.795 8.795 0 00-.395 2.637c0 4.971 4.029 9 9 9s9-4.029 9-9c0-.941-.144-1.848-.412-2.701l.017.064a1.242 1.242 0 00-1.08-.631l-.042.001h.002z"/>
  <path d="M10 13v4.3a1.26 1.26 0 102.52 0V13a2.51 2.51 0 114.999.01l.001-.01v4.3a1.261 1.261 0 002.51.005V13a2.51 2.51 0 012.51-2.51h.26c-1.589-2.694-4.476-4.474-7.779-4.474a8.97 8.97 0 00-4.141 1.007l.05-.024-.73-6.56a.502.502 0 00-1-.092v.002l-1.5 4.84L6.18.349a.503.503 0 10-1 .092V.439l-1 9a.503.503 0 001 .112v-.002l.74-6.64 1.31 4.09a.5.5 0 001 0l1.29-4.1.48 4.63a9.078 9.078 0 00-2.747 2.956l-.023.044h.27a2.51 2.51 0 012.5 2.468v.002z"/>
</svg>
