<svg viewBox="0 0 24 24" fill="none" xmlns="http://www.w3.org/2000/svg">
    <path fill-rule="evenodd" clip-rule="evenodd"
        d="M2 21C2 21.552 2.449 22 3 22H10C10.276 22 10.5 21.776 10.5 21.5C10.5 21.224 10.276 21 10 21H3V5H5V5.5C5 5.776 5.224 6 5.5 6H13.5C13.776 6 14 5.776 14 5.5V5H16V9.5C16 9.776 16.224 10 16.5 10C16.776 10 17 9.776 17 9.5V5C17 4.449 16.552 4 16 4H14V2.5C14 2.224 13.776 2 13.5 2H11.95C11.716 0.845 10.7 0 9.5 0C8.3 0 7.284 0.845 7.05 2H5.5C5.224 2 5 2.224 5 2.5V4H3C2.449 4 2 4.449 2 5V21ZM11.5 3H13V5H6V3H7.5C7.776 3 8 2.776 8 2.5C8 1.673 8.673 1 9.5 1C10.327 1 11 1.673 11 2.5C11 2.776 11.224 3 11.5 3ZM0 22.5C0 23.327 0.673 24 1.5 24H10C10.276 24 10.5 23.776 10.5 23.5C10.5 23.224 10.276 23 10 23H1.5C1.224 23 1 22.776 1 22.5V3.5C1 3.224 1.224 3 1.5 3H3.5C3.776 3 4 2.776 4 2.5C4 2.224 3.776 2 3.5 2H1.5C0.673 2 0 2.673 0 3.5V22.5ZM18 9.5C18 9.776 18.224 10 18.5 10C18.776 10 19 9.776 19 9.5V3.5C19 2.673 18.327 2 17.5 2H15.5C15.224 2 15 2.224 15 2.5C15 2.776 15.224 3 15.5 3H17.5C17.776 3 18 3.224 18 3.5V9.5ZM5 8.499C5 8.775 5.224 8.999 5.5 8.999H13.5C13.776 8.999 14 8.775 14 8.499C14 8.223 13.776 7.999 13.5 7.999H5.5C5.224 7.999 5 8.223 5 8.499ZM5.5 11.999C5.224 11.999 5 11.775 5 11.499C5 11.223 5.224 10.999 5.5 10.999H11.5C11.776 10.999 12 11.223 12 11.499C12 11.775 11.776 11.999 11.5 11.999H5.5ZM5 14.499C5 14.775 5.224 14.999 5.5 14.999H9.5C9.776 14.999 10 14.775 10 14.499C10 14.223 9.776 13.999 9.5 13.999H5.5C5.224 13.999 5 14.223 5 14.499ZM11 17.499C11 21.083 13.916 23.999 17.5 23.999C21.084 23.999 24 21.083 24 17.499C24 13.915 21.084 10.999 17.5 10.999C13.916 10.999 11 13.915 11 17.499ZM12 17.499C12 14.466 14.467 11.999 17.5 11.999C20.533 11.999 23 14.466 23 17.499C23 20.532 20.533 22.999 17.5 22.999C14.467 22.999 12 20.532 12 17.499ZM15.918 20.179C16.136 20.342 16.396 20.429 16.667 20.429C16.726 20.429 16.786 20.425 16.846 20.418C17.177 20.37 17.47 20.197 17.67 19.93L20.575 16.056C20.655 15.949 20.689 15.817 20.67 15.685C20.651 15.552 20.581 15.435 20.474 15.355C20.386 15.289 20.283 15.255 20.174 15.255C20.017 15.255 19.868 15.33 19.774 15.455L16.869 19.329C16.83 19.382 16.771 19.417 16.705 19.426C16.693 19.428 16.681 19.429 16.669 19.429C16.615 19.429 16.563 19.411 16.52 19.379C16.51 19.372 16.5 19.363 16.493 19.356L14.993 17.856C14.898 17.762 14.773 17.71 14.639 17.71C14.505 17.71 14.379 17.762 14.285 17.856C14.09 18.051 14.09 18.368 14.285 18.563L15.787 20.065C15.828 20.106 15.872 20.144 15.918 20.179Z" />
</svg>