<?xml version="1.0" encoding="utf-8"?>
<!-- Generator: Adobe Illustrator 22.1.0, SVG Export Plug-In . SVG Version: 6.00 Build 0)  -->
<svg version="1.1" id="Layer_1" xmlns="http://www.w3.org/2000/svg" xmlns:xlink="http://www.w3.org/1999/xlink" x="0px" y="0px"
	 viewBox="0 0 24 24" style="enable-background:new 0 0 24 24;" xml:space="preserve">
<g>
	<title>button-play</title>
	<path d="M12.04,23.999c-6.617,0-12-5.383-12-12c0-6.617,5.383-12,12-12c6.617,0,12,5.383,12,12
		C24.04,18.616,18.657,23.999,12.04,23.999z M12.04,0.999c-6.065,0-11,4.935-11,11s4.935,11,11,11s11-4.935,11-11
		S18.105,0.999,12.04,0.999z"/>
	<path d="M9.103,17.16c-0.057,0-0.115-0.005-0.172-0.014c-0.561-0.091-0.957-0.618-0.891-1.18V9.034
		C8.009,8.771,8.079,8.498,8.234,8.283c0.167-0.232,0.414-0.385,0.696-0.43c0.058-0.009,0.116-0.014,0.173-0.014
		c0.209,0,0.411,0.061,0.585,0.175l7.182,3.592c0.561,0.281,0.645,0.681,0.645,0.894s-0.084,0.613-0.644,0.894l-7.182,3.591
		C9.513,17.1,9.312,17.16,9.103,17.16z M9.09,8.84C9.072,8.843,9.057,8.852,9.045,8.868c-0.01,0.014-0.015,0.034-0.012,0.051
		C9.038,8.945,9.04,8.973,9.04,9v7c0,0.026-0.002,0.053-0.006,0.079c-0.004,0.026,0.006,0.044,0.012,0.053
		c0.008,0.01,0.022,0.024,0.045,0.028c0.003,0,0.006,0,0.009,0c0.021,0,0.032-0.004,0.043-0.012
		c0.021-0.015,0.043-0.029,0.067-0.041l7.214-3.607c0,0-7.212-3.607-7.212-3.607C9.187,8.881,9.164,8.867,9.142,8.852
		C9.13,8.843,9.116,8.839,9.102,8.839L9.09,8.84z"/>
</g>
</svg>
