<?xml version="1.0" encoding="utf-8"?>
<!-- Generator: Adobe Illustrator 21.1.0, SVG Export Plug-In . SVG Version: 6.00 Build 0)  -->
<svg version="1.1" id="Layer_1" xmlns="http://www.w3.org/2000/svg" xmlns:xlink="http://www.w3.org/1999/xlink" x="0px" y="0px"
	 viewBox="0 0 24 24" style="enable-background:new 0 0 24 24;" xml:space="preserve">
<style type="text/css">
	.st0{fill:none;}
</style>
<title>Artboard 1</title>
<path d="M4.1,0C6.3,0,8,1.8,8,4c0,0,0,0,0,0c0,1.7-1,3.1-2.6,3.7c-0.1,0-0.2,0.1-0.3,0.1S5,7.9,5,8v7.9c0,0.1,0.1,0.3,0.2,0.3
	c1.3,0.4,2.3,1.5,2.7,2.8c0.2,0.7,0.2,1.3,0,2c-0.3,1.2-1.2,2.2-2.3,2.7C4.8,24,3.9,24.1,3,23.9c-1.2-0.3-2.2-1.2-2.6-2.3
	c-0.3-0.6-0.4-1.3-0.3-2c0.2-1.4,1-2.6,2.3-3.2c0.2-0.1,0.3-0.1,0.5-0.2C3,16.2,3,16.1,3,16V8.1C3,8,2.9,7.8,2.8,7.8
	C1.7,7.5,0.7,6.6,0.3,5.5C-0.4,3.9,0.1,2,1.4,0.9C2.2,0.3,3.1,0,4.1,0z"/>
<polygon points="23.9,1.4 22.5,0 19.9,2.5 17.4,0 16,1.4 18.5,4 16,6.5 17.4,7.9 19.9,5.4 22.5,7.9 23.9,6.5 21.3,4 "/>
<path class="st0" d="M19.9,17.8c-1.2,0-2.2,1-2.2,2.2s1,2.2,2.2,2.2c0.1,0,0.1,0,0.2,0c1.2-0.1,2-1,2-2.2
	C22.1,18.8,21.1,17.8,19.9,17.8z"/>
<path class="st0" d="M19.9,17.8c-1.2,0-2.2,1-2.2,2.2s1,2.2,2.2,2.2c0.1,0,0.1,0,0.2,0c1.2-0.1,2-1,2-2.2
	C22.1,18.8,21.1,17.8,19.9,17.8z"/>
<path d="M23.6,18.3c-0.5-1-1.4-1.7-2.4-2.1c-0.1,0-0.2-0.2-0.2-0.3V9.2h-2V16c0,0.1,0,0.2-0.1,0.2c-0.2,0-0.3,0.1-0.5,0.2
	c-1.2,0.5-2,1.6-2.3,2.8c-0.2,0.8-0.1,1.6,0.2,2.3c0.5,1.1,1.4,2,2.6,2.3c0.9,0.2,1.8,0.2,2.6-0.2c1.1-0.5,2-1.4,2.3-2.6
	C24.1,20.1,24,19.1,23.6,18.3z M20.1,22.2c-0.1,0-0.1,0-0.2,0c-1.2,0-2.2-1-2.2-2.2s1-2.2,2.2-2.2s2.2,1,2.2,2.2
	C22.2,21.2,21.3,22.1,20.1,22.2z"/>
</svg>
