<svg xmlns="http://www.w3.org/2000/svg" viewBox="0 0 24 24">
  <title>Artboard 1</title>
  <path d="M20.45056,10.99957c-.80524,0-3.61053-.00208-4.41577.0022a.1872.1872,0,0,1-.21576-.14838,3.84577,3.84577,0,0,0-.1756-.47253c-.00385-.00818-.00543-.0174-.0094-.02551l-.00928-.01483a3.90219,3.90219,0,0,0-.56567-.91461,4.07051,4.07051,0,0,0-.6189-.57947c-.0564-.04431-.11432-.08655-.17322-.1275a3.93626,3.93626,0,0,0-2.15381-.70648c-.09113-.0036-.18207-.00586-.27228-.00287-.06476.00293-.129.00812-.19385.01428a3.6668,3.6668,0,0,0-.44055.06549c-.04193.00879-.08368.01685-.12555.0271a3.87076,3.87076,0,0,0-.45959.14569c-.03308.01245-.06708.01831-.1.03168-.00958.00391-.01678.01007-.02631.014-.014.00592-.02844.00922-.04242.01532-.08582.03748-.15369.09106-.23517.13239a4.15427,4.15427,0,0,0-.53912.30359c-.09857.06921-.17816.15515-.26843.23169a3.71179,3.71179,0,0,0-.36017.326,3.75886,3.75886,0,0,0-.38251.52686c-.03217.05164-.07227.09589-.10229.14954a4.24781,4.24781,0,0,0-.32074.73657c-.0083.02441-.022.04413-.03.06885a.24314.24314,0,0,1-.27325.205c-1.3136-.00458-3.62732-.00323-4.941-.00293V13.002c1.323-.00012,3.64606.00116,4.96912-.00275.12067-.00043.19025.03394.22058.149a3.935,3.935,0,0,0,.13092.38892c.05145.1192.12347.216.18243.327a3.94269,3.94269,0,0,0,.20532.36823,3.91351,3.91351,0,0,0,.29224.37012c.073.08459.14343.1701.22284.24768a3.71057,3.71057,0,0,0,.38562.32642c.0946.07141.19092.13721.2912.19977a3.94591,3.94591,0,0,0,.36273.20172,4.01929,4.01929,0,0,0,.5354.21051c.06146.01984.11267.05157.176.06921.03546.00989.07111.01385.10663.02277.05859.01428.11682.02594.176.0376a3.68259,3.68259,0,0,0,1.40112.02393c.05658-.00934.11218-.02216.16858-.03406.05237-.012.10516-.01733.15741-.03186.0506-.014.0899-.04034.13928-.05573a3.82185,3.82185,0,0,0,.39142-.11554,3.993,3.993,0,0,0,.40259-.20215c.01691-.009.0351-.01678.05188-.02606a4.009,4.009,0,0,0,.69159-.502q.07736-.0694.15082-.14282a4.01634,4.01634,0,0,0,1.021-1.689.2374.2374,0,0,1,.24475-.14331c.97418.0047,3.9483.00269,4.92249.002V11C20.81683,11.00006,20.63373,10.99957,20.45056,10.99957ZM12,14.002a2,2,0,1,1,2-2A2,2,0,0,1,12,14.002Z"/>
</svg>
