<svg xmlns="http://www.w3.org/2000/svg" viewBox="0 0 24 24">
  <title>Artboard 1</title>
  <path d="M19,16.1V15c0-4-4-4-7-4-3.7,0-5-.3-5-2V8.1c0-.1.1-.3.2-.3A4.20161,4.20161,0,0,0,9.9,5a3.40386,3.40386,0,0,0,0-2A4.03592,4.03592,0,0,0,7.5.3,3.61708,3.61708,0,0,0,5,.1,4.14437,4.14437,0,0,0,2.3,2.4,3.86086,3.86086,0,0,0,2,4.5,4.061,4.061,0,0,0,4.3,7.7c.2.1.3.1.5.2.2-.1.2,0,.2.1V9H5v6.9c0,.1-.1.3-.2.3a3.81891,3.81891,0,0,0-2.5,2.3v.1a3.98688,3.98688,0,0,0,2.3,5.2,4.02057,4.02057,0,1,0,2.9-7.5c-.1,0-.2-.1-.3-.1-.2,0-.2-.1-.2-.2V12.4a12.14872,12.14872,0,0,0,5,.7c3.8,0,5,.3,5,2v1.1a3.82474,3.82474,0,1,0,2-.1ZM6,6.2A2.2,2.2,0,1,1,8.2,4,2.21953,2.21953,0,0,1,6,6.2Z"/>
</svg>
