<svg xmlns="http://www.w3.org/2000/svg" viewBox="0 0 24 24">
  <title>Artboard 1</title>
  <path d="M4.1,0A3.92728,3.92728,0,0,1,8,4,3.9705,3.9705,0,0,1,5.4,7.7c-.1,0-.2.1-.3.1S5,7.9,5,8v7.9c0,.1.1.3.2.3A4.20161,4.20161,0,0,1,7.9,19a3.40386,3.40386,0,0,1,0,2,4.14437,4.14437,0,0,1-2.3,2.7,4.70279,4.70279,0,0,1-2.6.2A3.76794,3.76794,0,0,1,.4,21.6a3.39816,3.39816,0,0,1-.3-2,4.061,4.061,0,0,1,2.3-3.2c.2-.1.3-.1.5-.2.1,0,.1-.1.1-.2V8.1c0-.1-.1-.3-.2-.3A3.81891,3.81891,0,0,1,.3,5.5,4.00369,4.00369,0,0,1,1.4.9,4.38766,4.38766,0,0,1,4.1,0Z"/>
  <path d="M23.6,18.3a4.16211,4.16211,0,0,0-2.4-2.1c-.1,0-.2-.2-.2-.3V7.1a6.75251,6.75251,0,0,0-.2-1.4,4.32668,4.32668,0,0,0-2.2-2.4A5.66256,5.66256,0,0,0,16.8,3H13.5L15,1.4l-.1-.1L13.7.1c-.1-.1-.1-.1-.2,0L10.3,3.3l-.1.1a.972.972,0,0,0,.1,1.4L13.5,8c.1.1.1.1.2,0l1.2-1.2a.34914.34914,0,0,0,.1-.2L13.5,5H17a2.10616,2.10616,0,0,1,1.3.5A1.98969,1.98969,0,0,1,19,7.1V16h0c0,.1,0,.2-.1.2-.2,0-.3.1-.5.2a4.05352,4.05352,0,0,0-2.3,2.8,3.59967,3.59967,0,0,0,.2,2.3,3.97792,3.97792,0,0,0,2.6,2.3,3.85373,3.85373,0,0,0,2.6-.2A3.97792,3.97792,0,0,0,23.8,21,3.5951,3.5951,0,0,0,23.6,18.3Zm-3.7,3.9A2.2,2.2,0,1,1,22.1,20,2.09842,2.09842,0,0,1,19.9,22.2Z"/>
</svg>
