<svg xmlns="http://www.w3.org/2000/svg" viewBox="0 0 24 24">
  <title>Artboard 1</title>
  <path d="M21,0H3A3,3,0,0,0,0,3V18.5a3,3,0,0,0,3,3H9.5a1,1,0,0,0,0-2H3a1,1,0,0,1-1-1V5.251A.25.25,0,0,1,2.249,5H21.75a.25.25,0,0,1,.25.25V10.5a1,1,0,0,0,2,0V3A3,3,0,0,0,21,0Z"/>
  <path d="M18.5,13A5.5,5.5,0,1,0,24,18.5,5.5,5.5,0,0,0,18.5,13Zm3.31641,4.04279-3.21863,4.47778a.97422.97422,0,0,1-.71082.40192c-.02661.002-.05225.00287-.07886.00287a.97342.97342,0,0,1-.688-.2851l-1.835-1.835a.973.973,0,0,1,1.376-1.376l1.02539,1.02539,2.55054-3.5484a.97291.97291,0,1,1,1.57941,1.13654Z"/>
</svg>
