<svg xmlns="http://www.w3.org/2000/svg" viewBox="0 0 24 24"><path d="M8.66,16.63l6.39-9.24h0l-3.64,7.19.57-.05,1.68-.19c.76-.1,1.5-.24,2.25-.41a15,15,0,0,0,6.52-3.41c.51-.45,1-.93,1.49-1.39A.18.18,0,0,1,24,9.08v0a17,17,0,0,1-3.8,4.08A16.49,16.49,0,0,1,14,16.11a18.77,18.77,0,0,1-2.58.43,21.67,21.67,0,0,1-2.67.1Z"/><path d="M0,3.89c.18.25.34.5.51.73a8.14,8.14,0,0,0,2.36,2A11.11,11.11,0,0,0,6.74,8a12.56,12.56,0,0,0,2.52.16,13.35,13.35,0,0,0,4.1-.82l.15,0L7.13,16.5h0l3.63-7.16-.49.15a8.23,8.23,0,0,1-2.47.23,9.15,9.15,0,0,1-3-.66A8.19,8.19,0,0,1,.57,5.21,8.75,8.75,0,0,1,0,3.89Z"/><path d="M13.1,13.3l.15-.27c.06-.11.12-.22.19-.33a.1.1,0,0,1,.08-.06,14.65,14.65,0,0,0,3.23-.55,20.57,20.57,0,0,0,6-2.73l.37-.25s0,0,0,0a17.22,17.22,0,0,1-6.4,3.57,14,14,0,0,1-2.56.52c-.3,0-.6,0-.9.07Z"/><path d="M22.17,8.61c-.4.25-.8.52-1.21.77a11.4,11.4,0,0,1-3.38,1.4,15.07,15.07,0,0,1-1.9.32l-1.57.15H14c.09-.16.19-.31.27-.48a.28.28,0,0,1,.29-.18,24.53,24.53,0,0,0,3.08-.31,13.1,13.1,0,0,0,4.44-1.65l.08-.05Z"/><path d="M9,10.76l-.34.62s-.05,0-.07,0a14,14,0,0,1-3.67-.9A6.86,6.86,0,0,1,2.18,8.43v0A9.13,9.13,0,0,0,9,10.76Z"/><path d="M21.28,7.77c-.19.13-.38.26-.58.38a9.69,9.69,0,0,1-3,1.17,18.39,18.39,0,0,1-2.23.3l-.74.08a3.15,3.15,0,0,0,.22-.39c.08-.23.23-.28.47-.28a13.57,13.57,0,0,0,2.11-.11,11.14,11.14,0,0,0,3.69-1.13l.09,0Z"/><path d="M2.18,10.08A8,8,0,0,0,8,12.47a2,2,0,0,1-.11.2,2.46,2.46,0,0,0-.17.27.14.14,0,0,1-.18.08,12.21,12.21,0,0,1-3.11-1A5.9,5.9,0,0,1,2.18,10.08Z"/><path d="M2.69,11.92A6.4,6.4,0,0,0,7.2,14.11L7,14.38c-.12.16-.12.16-.3.11a10,10,0,0,1-2.29-.89A4.72,4.72,0,0,1,2.69,11.92Z"/><path d="M11.44,4.4a7.5,7.5,0,0,1,6.31,3.44l.83-.08A8.25,8.25,0,0,0,5.2,6.51L6,6.78A7.48,7.48,0,0,1,11.44,4.4Z"/><path d="M11.44,19.43a7.52,7.52,0,0,1-7-4.91l-.92-.4A8.26,8.26,0,0,0,19,15.25l-1.11.51A7.51,7.51,0,0,1,11.44,19.43Z"/></svg>
