<svg xmlns="http://www.w3.org/2000/svg" xmlns:xlink="http://www.w3.org/1999/xlink" viewBox="0 0 24 24">
  <defs>
    <style>
      .a {
        clip-rule: evenodd;
      }

      .b {
        fill-rule: evenodd;
      }

      .c {
        clip-path: url(#a);
      }
    </style>
    <clipPath id="a">
      <path class="a" d="M17.9,8.8l-6.4,7.6a.972.972,0,0,1-1.4.1L6.3,13.3a.99247.99247,0,1,1,1.3-1.5l3.1,2.6,5.8-6.9a.972.972,0,0,1,1.4-.1A1.06459,1.06459,0,0,1,17.9,8.8ZM18.6,4H5.5A1.538,1.538,0,0,0,4,5.5V18.4A1.56054,1.56054,0,0,0,5.5,20h13A1.47268,1.47268,0,0,0,20,18.5V5.5A1.39137,1.39137,0,0,0,18.6,4Z"/>
    </clipPath>
  </defs>
  <title>Artboard 1</title>
  <g>
    <path class="b" d="M17.9,8.8l-6.4,7.6a.972.972,0,0,1-1.4.1L6.3,13.3a.99247.99247,0,1,1,1.3-1.5l3.1,2.6,5.8-6.9a.972.972,0,0,1,1.4-.1A1.06459,1.06459,0,0,1,17.9,8.8ZM18.6,4H5.5A1.538,1.538,0,0,0,4,5.5V18.4A1.56054,1.56054,0,0,0,5.5,20h13A1.47268,1.47268,0,0,0,20,18.5V5.5A1.39137,1.39137,0,0,0,18.6,4Z"/>
    <g class="c">
      <rect x="-1" y="-1" width="26.00955" height="26"/>
    </g>
  </g>
</svg>
