<svg xmlns="http://www.w3.org/2000/svg" viewBox="0 0 24 24">
  <title>Artboard 1</title>
  <path d="M14.39169,12.57422a9.106,9.106,0,0,1,3.745,7.71094h.96387a.31718.31718,0,0,1,.32129.32129V21.249a.31718.31718,0,0,1-.32129.32129H4.32129A.31718.31718,0,0,1,4,21.249v-.64258a.31718.31718,0,0,1,.32129-.32129h.96387a9.106,9.106,0,0,1,3.745-7.71094,9.106,9.106,0,0,1-3.745-7.71094H4.32129A.31718.31718,0,0,1,4,4.542V3.89941a.31718.31718,0,0,1,.32129-.32129h14.7793a.31718.31718,0,0,1,.32129.32129V4.542a.31718.31718,0,0,1-.32129.32129h-.96387A9.106,9.106,0,0,1,14.39169,12.57422ZM6.57031,4.86328a8.90023,8.90023,0,0,0,.85342,3.85547h8.5744a8.90023,8.90023,0,0,0,.85342-3.85547Zm6.29526,8.35352H10.5563a6.66118,6.66118,0,0,0-3.4137,3.85547h9.13666A6.66118,6.66118,0,0,0,12.86557,13.2168Z"/>
</svg>
