<svg xmlns="http://www.w3.org/2000/svg" viewBox="0 0 24 24">
  <title>Artboard 1</title>
  <path d="M5.57031,7.1123a.33036.33036,0,0,1-.32129.32129H3.32129A.33036.33036,0,0,1,3,7.1123V5.18457a.33036.33036,0,0,1,.32129-.32129H5.249a.33036.33036,0,0,1,.32129.32129Zm0,3.85547a.33036.33036,0,0,1-.32129.32129H3.32129A.33036.33036,0,0,1,3,10.96777V9.04a.33036.33036,0,0,1,.32129-.32129H5.249A.33036.33036,0,0,1,5.57031,9.04Zm0,3.85547a.33036.33036,0,0,1-.32129.32129H3.32129A.33036.33036,0,0,1,3,14.82324V12.89551a.33036.33036,0,0,1,.32129-.32129H5.249a.33036.33036,0,0,1,.32129.32129Zm0,3.85547A.33036.33036,0,0,1,5.249,19H3.32129A.33036.33036,0,0,1,3,18.67871V16.751a.33036.33036,0,0,1,.32129-.32129H5.249a.33036.33036,0,0,1,.32129.32129ZM20.99219,7.1123a.33036.33036,0,0,1-.32129.32129H7.17676a.33036.33036,0,0,1-.32129-.32129V5.18457a.33036.33036,0,0,1,.32129-.32129H20.6709a.33036.33036,0,0,1,.32129.32129Zm0,3.85547a.33036.33036,0,0,1-.32129.32129H7.17676a.33036.33036,0,0,1-.32129-.32129V9.04a.33036.33036,0,0,1,.32129-.32129H20.6709a.33036.33036,0,0,1,.32129.32129Zm0,3.85547a.33036.33036,0,0,1-.32129.32129H7.17676a.33036.33036,0,0,1-.32129-.32129V12.89551a.33036.33036,0,0,1,.32129-.32129H20.6709a.33036.33036,0,0,1,.32129.32129Zm0,3.85547A.33036.33036,0,0,1,20.6709,19H7.17676a.33036.33036,0,0,1-.32129-.32129V16.751a.33036.33036,0,0,1,.32129-.32129H20.6709a.33036.33036,0,0,1,.32129.32129Z"/>
</svg>
