<?xml version="1.0" encoding="UTF-8"?>
<svg xmlns="http://www.w3.org/2000/svg" xmlns:xlink="http://www.w3.org/1999/xlink" width="16pt" height="16pt"
     viewBox="0 0 16 16" version="1.1">
  <g id="surface1">
    <path style=" stroke:none;fill-rule:nonzero;fill:rgb(0%,0%,0%);fill-opacity:1;"
          d="M 13.804688 9.375 C 14.078125 9.53125 14.253906 9.761719 14.335938 10.066406 C 14.414062 10.375 14.378906 10.664062 14.222656 10.9375 L 13.652344 11.917969 C 13.496094 12.195312 13.265625 12.371094 12.960938 12.449219 C 12.652344 12.53125 12.363281 12.492188 12.089844 12.339844 L 9.714844 10.972656 L 9.714844 13.714844 C 9.714844 14.023438 9.601562 14.292969 9.375 14.519531 C 9.148438 14.742188 8.882812 14.855469 8.570312 14.855469 L 7.429688 14.855469 C 7.117188 14.855469 6.851562 14.742188 6.625 14.519531 C 6.398438 14.292969 6.285156 14.023438 6.285156 13.714844 L 6.285156 10.972656 L 3.910156 12.339844 C 3.636719 12.492188 3.347656 12.53125 3.039062 12.449219 C 2.734375 12.371094 2.503906 12.195312 2.347656 11.917969 L 1.777344 10.9375 C 1.621094 10.664062 1.585938 10.375 1.664062 10.066406 C 1.746094 9.761719 1.921875 9.53125 2.195312 9.375 L 4.570312 8 L 2.195312 6.625 C 1.921875 6.46875 1.746094 6.238281 1.664062 5.933594 C 1.585938 5.625 1.621094 5.335938 1.777344 5.0625 L 2.347656 4.082031 C 2.503906 3.804688 2.734375 3.628906 3.039062 3.550781 C 3.347656 3.46875 3.636719 3.507812 3.910156 3.660156 L 6.285156 5.027344 L 6.285156 2.285156 C 6.285156 1.976562 6.398438 1.707031 6.625 1.480469 C 6.851562 1.257812 7.117188 1.144531 7.429688 1.144531 L 8.570312 1.144531 C 8.882812 1.144531 9.148438 1.257812 9.375 1.480469 C 9.601562 1.707031 9.714844 1.976562 9.714844 2.285156 L 9.714844 5.027344 L 12.089844 3.660156 C 12.363281 3.507812 12.652344 3.46875 12.960938 3.550781 C 13.265625 3.628906 13.496094 3.804688 13.652344 4.082031 L 14.222656 5.0625 C 14.378906 5.335938 14.414062 5.625 14.335938 5.933594 C 14.253906 6.238281 14.078125 6.46875 13.804688 6.625 L 11.429688 8 Z M 13.804688 9.375 "/>
  </g>
</svg>
