<svg xmlns="http://www.w3.org/2000/svg" viewBox="0 0 24 24">
  <title>Artboard 1</title>
  <path d="M14.679,12.2l.018-.017a.751.751,0,0,0,.018-1.043L12.686,8.966a.249.249,0,0,1,0-.341l2.028-2.174a.75.75,0,0,0-1.078-1.043l-.018.019L10.952,8.283a.752.752,0,0,0,0,1.025l2.666,2.857A.752.752,0,0,0,14.679,12.2Z"/>
  <path d="M16.286,11.14a.75.75,0,0,0,1.078,1.043l.018-.018,2.666-2.857a.752.752,0,0,0,0-1.025L17.382,5.427a.751.751,0,0,0-1.061-.036.731.731,0,0,0-.06224,1.03191L16.285,6.451l2.029,2.174a.249.249,0,0,1,0,.341Z"/>
  <path d="M23.414,3,21,.587A2,2,0,0,0,19.586,0H8A2,2,0,0,0,6,2V9.214a.248.248,0,0,0,.242.25c.366.006,1.038.033,1.485.082A.246.246,0,0,0,8,9.3V2.5A.5.5,0,0,1,8.5,2H19.379a.5.5,0,0,1,.353.146l2.122,2.121A.5.5,0,0,1,22,4.622V18a.5.5,0,0,1-.5.5H14.631a.244.244,0,0,0-.241.208,7.983,7.983,0,0,1-.373,1.459.243.243,0,0,0,.228.332H22a2,2,0,0,0,2-2V4.415A2,2,0,0,0,23.414,3Z"/>
  <path d="M6.5,11A6.5,6.5,0,1,0,13,17.5,6.5,6.5,0,0,0,6.5,11Zm2.49646,9.25861a.7348.7348,0,1,1-1.46954,0V18.32928c0-.16138-.174-.09613-.221,0l-.15045.30365a.7613.7613,0,0,1-1.31445,0s-.11749-.2218-.15985-.32147-.21161-.07831-.21161.0119v1.93524a.7348.7348,0,1,1-1.46954,0v-5.5177A.73368.73368,0,0,1,5.392,14.41s.87823,1.76038.93347,1.88251a.21271.21271,0,0,0,.29852.04974.21537.21537,0,0,0,.0542-.05682L7.60809,14.41a.73171.73171,0,0,1,.98578-.33154A.7421.7421,0,0,1,9,14.74091Z"/>
</svg>
