<svg xmlns="http://www.w3.org/2000/svg" viewBox="0 0 24 24">
  <title>Artboard 1</title>
  <path d="M4.5,24A1.50183,1.50183,0,0,1,3,22.5V4H.5a.5.5,0,0,1,0-1H7V1.5A1.50183,1.50183,0,0,1,8.5,0h7A1.50183,1.50183,0,0,1,17,1.5V3h6.5a.5.5,0,0,1,0,1H21V22.5A1.50183,1.50183,0,0,1,19.5,24ZM4,22.5a.50018.50018,0,0,0,.5.5h15a.50018.50018,0,0,0,.5-.5V4H4ZM16,3V1.5a.50018.50018,0,0,0-.5-.5h-7a.50018.50018,0,0,0-.5.5V3Z"/>
  <path d="M7.5,19.5A.50018.50018,0,0,1,7,19V7A.5.5,0,0,1,8,7V19A.50018.50018,0,0,1,7.5,19.5Z"/>
  <path d="M12,19.5a.50018.50018,0,0,1-.5-.5V7a.5.5,0,0,1,1,0V19A.50018.50018,0,0,1,12,19.5Z"/>
  <path d="M16.5,19.5A.50018.50018,0,0,1,16,19V7a.5.5,0,0,1,1,0V19A.50018.50018,0,0,1,16.5,19.5Z"/>
</svg>
