<svg xmlns="http://www.w3.org/2000/svg" viewBox="0 0 180 180"><defs><style>.cls-1{fill:#b2bde1;}.cls-2{fill:#fff;}.cls-3{fill:#cabc57;}.cls-4{fill:#e9df87;}.cls-5{fill:#464b55;}</style></defs><g id="Layer_3" data-name="Layer 3"><circle class="cls-1" cx="90" cy="90" r="80"/></g><g id="Layer_2" data-name="Layer 2"><path class="cls-2" d="M151.36,115.54l-2.19-.16L127.61,47.7a36.59,36.59,0,0,0-40.33-25h0A36.6,36.6,0,0,0,56.33,58.8l.16,71.12-2,.78c-8,3.44-12.51,6.88-12.19,9.69,1.09,6.88,29.54,8,63.77,2.66s61-15.17,59.86-22C165.43,118.19,160,116.32,151.36,115.54Z"/><path class="cls-2" d="M75.71,101,72.12,59.43a34.64,34.64,0,0,1,.47-10.63A36.54,36.54,0,0,1,95.1,22.23a43.56,43.56,0,0,0-7.82.31A36.89,36.89,0,0,0,56.33,58.8l.16,71.12-2,.78h0A28,28,0,0,0,75.71,101Z"/><ellipse class="cls-3" cx="104.16" cy="130.69" rx="62.52" ry="12.5" transform="translate(-18.96 17.69) rotate(-8.9)"/><path class="cls-4" d="M165,119.44l.31.32Z"/><path class="cls-4" d="M165.43,119.91a.5.5,0,0,1,.16.32A.56.56,0,0,1,165.43,119.91Z"/><path class="cls-4" d="M159.49,116.79c.16,0,.16,0,.31.15C159.65,116.94,159.49,116.94,159.49,116.79Z"/><path class="cls-4" d="M163.71,118.51c.16.15.31.15.31.31A.33.33,0,0,0,163.71,118.51Z"/><path class="cls-4" d="M164.34,119l.31.31A.33.33,0,0,0,164.34,119Z"/><path class="cls-4" d="M160.58,117.1c.16,0,.16,0,.32.16C160.74,117.26,160.74,117.26,160.58,117.1Z"/><path class="cls-4" d="M165.74,120.54c0,.16.16.31.16.62C165.9,120.85,165.74,120.7,165.74,120.54Z"/><path class="cls-4" d="M163.09,118.19c.15,0,.15.16.31.16A.48.48,0,0,0,163.09,118.19Z"/><path class="cls-4" d="M149.17,115.38,127.61,47.7A36.67,36.67,0,0,0,92.28,22.23c10.32,14.22,13.6,14.53,21.26,53.14,4.22,20.79,6.72,32.82,8,40.48A212.15,212.15,0,0,1,149.17,115.38Z"/><path class="cls-4" d="M149.17,132.73a201.53,201.53,0,0,1-24.07,6.88C128.86,145.23,137.92,139.61,149.17,132.73Z"/><path class="cls-4" d="M161.68,117.57c.16,0,.16,0,.31.16A.46.46,0,0,0,161.68,117.57Z"/><path class="cls-4" d="M160.9,117.26c.31.15.47.15.78.31C161.37,117.41,161.21,117.41,160.9,117.26Z"/><path class="cls-4" d="M158.55,116.63a2.27,2.27,0,0,1,.94.31A2.27,2.27,0,0,0,158.55,116.63Z"/><path class="cls-4" d="M151.36,115.54a66.66,66.66,0,0,1,7,1.09A66.66,66.66,0,0,0,151.36,115.54Z"/><path class="cls-4" d="M159.8,116.94a1.15,1.15,0,0,1,.78.32C160.27,117.1,160.12,116.94,159.8,116.94Z"/><path class="cls-4" d="M151.36,115.54c-.78,0-1.4-.16-2.19-.16h0Z"/><path class="cls-4" d="M165.59,120.38s0,.16.15.16Z"/><path class="cls-4" d="M162,117.57a8,8,0,0,1,1.1.47C162.77,117.88,162.3,117.73,162,117.57Z"/><path class="cls-4" d="M165.9,121.16c.16,1.1-1.41,2.5-4.06,4.07-4.38,2.34-8.6,5-12.67,7.5C160,128.67,166.37,124.45,165.9,121.16Z"/><path class="cls-4" d="M163.4,118.35a.56.56,0,0,1,.31.16C163.55,118.35,163.55,118.35,163.4,118.35Z"/><path class="cls-4" d="M164.18,118.66c.16,0,.16.16.31.16C164.34,118.82,164.18,118.82,164.18,118.66Z"/><path class="cls-4" d="M165.27,119.76l.16.15A.15.15,0,0,1,165.27,119.76Z"/><path class="cls-4" d="M164.8,119.29a.15.15,0,0,1,.16.15A.15.15,0,0,1,164.8,119.29Z"/><path class="cls-5" d="M67.59,151.17h0c-25.32,0-29.23-5.62-29.86-10-1.09-6.88,7.35-11.41,14.07-14.38l-.16-68A41,41,0,0,1,86.5,18a43.21,43.21,0,0,1,6.41-.47,41.14,41.14,0,0,1,39.23,28.6L152.61,111c7.51.79,16.73,2.66,17.82,9.38,2.5,16.1-52.67,25.64-63.77,27.35A262.78,262.78,0,0,1,67.59,151.17Zm-19.7-11.56c2.5.94,8.29,2.19,19.54,2.19a244,244,0,0,0,37.67-3.29c31.88-5,50.33-12.66,55-16.41-1.41-.62-4.22-1.4-9.38-1.87l-2-.16a4.88,4.88,0,0,1-4.22-3.28L123.07,49.11A31.69,31.69,0,0,0,92.75,26.92c-1.72,0-3.28.15-5,.31A31.79,31.79,0,0,0,61,58.8l.16,71.12a4.71,4.71,0,0,1-3,4.37l-2,.78A40,40,0,0,0,47.89,139.61Z"/><path class="cls-5" d="M165.9,125.85a4.68,4.68,0,0,1-4.53-3.28c-3.44-2.5-23.76-4.84-58.46.47a4.66,4.66,0,0,1-1.41-9.22c11.1-1.72,66.59-9.54,69.09,6.56a4.63,4.63,0,0,1-3.91,5.32A7.29,7.29,0,0,0,165.9,125.85Z"/><path class="cls-5" d="M82,127a4.28,4.28,0,0,1-3.29-1.41,4.52,4.52,0,0,1-1.4-3.28,4.27,4.27,0,0,1,1.4-3.28,4.83,4.83,0,0,1,6.57,0,4.52,4.52,0,0,1,0,6.56A4.77,4.77,0,0,1,82,127Z"/><path class="cls-5" d="M87.12,27.38a4.86,4.86,0,0,1-4.69-3.9L80.09,8a4.66,4.66,0,1,1,9.22-1.4l2.35,15.47a4.62,4.62,0,0,1-3.91,5.31Z"/><path class="cls-5" d="M56.49,134.61a4.7,4.7,0,0,1-4.38-3.13,4.47,4.47,0,0,1,2.82-5.94l7-2.5a4.46,4.46,0,0,1,5.94,2.81,4.58,4.58,0,0,1-2.81,5.94l-7,2.5A5.42,5.42,0,0,1,56.49,134.61Z"/></g></svg>