<svg xmlns="http://www.w3.org/2000/svg" xmlns:xlink="http://www.w3.org/1999/xlink" viewBox="0 0 100 100">
  <defs>
    <style>
      .a {
        fill: #ffad26;
      }

      .b {
        fill: #df4c53;
      }

      .c {
        fill: #ffc215;
      }

      .d {
        fill: #95c15d;
      }

      .e {
        fill: #6ec8ff;
      }

      .f {
        fill: #8e459a;
      }

      .g {
        opacity: 0.13;
        isolation: isolate;
      }

      .h {
        fill: url(#a);
      }

      .i {
        fill: #fff;
      }

      .j {
        fill: #e8f4fa;
      }

      .k, .n {
        fill: none;
        stroke: #191816;
        stroke-linejoin: round;
      }

      .k {
        stroke-linecap: round;
      }

      .l {
        fill: #ff6242;
      }

      .m {
        fill: #ff866e;
      }
    </style>
    <linearGradient id="a" x1="39.04836" y1="70.05658" x2="45.14506" y2="20.40304" gradientTransform="translate(-0.7 3.8)" gradientUnits="userSpaceOnUse">
      <stop offset="0.3505" stop-color="#f5eb0c"/>
      <stop offset="0.4094" stop-color="#f5eb20"/>
      <stop offset="0.5369" stop-color="#f7ee6b"/>
      <stop offset="0.7217" stop-color="#fcf9d7"/>
      <stop offset="0.7878" stop-color="#fff"/>
    </linearGradient>
  </defs>
  <title>Artboard 1</title>
  <circle class="a" cx="50" cy="50" r="39"/>
  <g>
    <path class="b" d="M42.99893,72.05156a1.59431,1.59431,0,0,0,1.371,1.79l.00466.00061h.22287a1.5975,1.5975,0,0,0,1.59849-1.40636L50.09224,44.1779l-2.30551-6.87043Z"/>
    <path class="c" d="M45.83471,28.27755l-6.04044,43.774a1.59431,1.59431,0,0,0,1.371,1.79l.00466.00061h.22287a1.5975,1.5975,0,0,0,1.59849-1.40636l5.149-37.28783Z"/>
    <path class="d" d="M34.9988,73.8268a2.17027,2.17027,0,0,1-.22287-.01537,1.60027,1.60027,0,0,1-1.36794-1.7983h0l6.40164-46.39461a1.584,1.584,0,0,1,1.75219-1.37562c.01537,0,.03074.00768.04611.00768a1.60452,1.60452,0,0,1,1.36794,1.7983h0L36.57423,72.44349A1.58522,1.58522,0,0,1,34.9988,73.8268Z"/>
    <path class="e" d="M31.80182,73.8268a2.17024,2.17024,0,0,1-.22287-.01537,1.60027,1.60027,0,0,1-1.36794-1.7983h0l6.40164-46.40229a1.584,1.584,0,0,1,1.75219-1.37562c.01537,0,.03074.00768.04611.00768a1.60452,1.60452,0,0,1,1.36794,1.7983h0l-6.394,46.40229A1.59865,1.59865,0,0,1,31.80182,73.8268Z"/>
    <path class="f" d="M28.60484,73.8268a2.17024,2.17024,0,0,1-.22287-.01537,1.60027,1.60027,0,0,1-1.36794-1.7983h0l6.40164-46.39461a1.584,1.584,0,0,1,1.75219-1.37562c.01537,0,.03074.00768.04611.00768a1.60452,1.60452,0,0,1,1.36794,1.7983h0L30.18027,72.44349A1.591,1.591,0,0,1,28.60484,73.8268Z"/>
    <polygon class="g" points="45.224 32.824 49.788 46.482 49.341 49.541 44.706 36.259 45.224 32.824"/>
    <polyline class="g" points="46.188 35.875 45.721 38.544 39.781 72.563 45.219 33.031"/>
    <path class="h" d="M38.20346,73.8268a2.17027,2.17027,0,0,1-.22287-.01537,1.60027,1.60027,0,0,1-1.36794-1.7983h0l6.40164-46.39461a1.584,1.584,0,0,1,1.75219-1.37562c.01537,0,.03074.00768.04611.00768a1.60452,1.60452,0,0,1,1.36794,1.7983h0L39.77889,72.44349A1.591,1.591,0,0,1,38.20346,73.8268Z"/>
    <path class="i" d="M66.58432,25.64158A1.77726,1.77726,0,0,0,65.055,24.15837a1.68227,1.68227,0,0,0-1.70608,1.45247L55.30268,53.17709,46.10335,25.30155a1.489,1.489,0,0,1,.03074.52258l-.991,6.857L53.881,59.04846a1.59666,1.59666,0,0,0,3.051-.0538l7.5006-25.62193L69.812,72.36664A1.59866,1.59866,0,0,0,71.39516,73.75a2.17027,2.17027,0,0,0,.22287-.01537,1.60452,1.60452,0,0,0,1.36794-1.7983h0Z"/>
  </g>
  <g>
    <path class="i" d="M93.92372,74.9696A7.70431,7.70431,0,0,0,81.7,67.05551a15.60243,15.60243,0,0,0-21.94-1.72386,15.78762,15.78762,0,0,0-5.485,11.7536v.07836a3.81528,3.81528,0,0,0-.94029-.07836,7.75738,7.75738,0,0,0,0,15.51475H88.282a9.71458,9.71458,0,0,0,9.71631-9.71284v-.08182A10.02418,10.02418,0,0,0,93.92372,74.9696Z"/>
    <path class="j" d="M88.282,87.58513H53.25626a7.84562,7.84562,0,0,1-7.36559-5.24994,6.732,6.732,0,0,0-.39179,2.50744A7.75894,7.75894,0,0,0,53.1779,92.6H88.282a9.71458,9.71458,0,0,0,9.71631-9.71284V82.8837h0a8.80358,8.80358,0,0,0-.31343-2.50744A9.80413,9.80413,0,0,1,88.282,87.58513Z"/>
    <path class="k" d="M93.92372,74.9696A7.70431,7.70431,0,0,0,81.7,67.05551a15.60243,15.60243,0,0,0-21.94-1.72386,15.78762,15.78762,0,0,0-5.485,11.7536v.07836a3.81528,3.81528,0,0,0-.94029-.07836,7.75738,7.75738,0,0,0,0,15.51475H88.282a9.71458,9.71458,0,0,0,9.71631-9.71284v-.08182A10.02418,10.02418,0,0,0,93.92372,74.9696Z"/>
  </g>
  <g>
    <path class="l" d="M78,71.96137A.94907.94907,0,0,0,77.06339,71q-.01238-.00016-.02477,0H74.57511a.94907.94907,0,0,0-.96137.93661q-.00016.01238,0,.02477V85.30043a.94907.94907,0,0,0,.93661.96137q.01238.00016.02477,0h2.40343a.94907.94907,0,0,0,.96137-.93661q.00016-.01238,0-.02477V71.96137Z"/>
    <path class="m" d="M76.97854,71H74.515a.94907.94907,0,0,0-.96137.93661q-.00016.01238,0,.02477V78.6309L78,74.18455V72.02146A1.01274,1.01274,0,0,0,76.99606,71Q76.9873,70.99992,76.97854,71Z"/>
    <path class="n" d="M78,71.96137A.94907.94907,0,0,0,77.06339,71q-.01238-.00016-.02477,0H74.57511a.94907.94907,0,0,0-.96137.93661q-.00016.01238,0,.02477V85.30043a.94907.94907,0,0,0,.93661.96137q.01238.00016.02477,0h2.40343a.94907.94907,0,0,0,.96137-.93661q.00016-.01238,0-.02477V71.96137Z"/>
    <path class="l" d="M68.38627,71.96137A.94907.94907,0,0,0,67.44966,71q-.01238-.00016-.02477,0H64.96137A.94907.94907,0,0,0,64,71.93661q-.00016.01238,0,.02477V85.30043a.94907.94907,0,0,0,.93661.96137q.01238.00016.02477,0H67.4249a.94907.94907,0,0,0,.96137-.93661q.00016-.01238,0-.02477Z"/>
    <path class="m" d="M67.42489,71H64.96137A.94907.94907,0,0,0,64,71.93661q-.00016.01238,0,.02477V78.6309l4.44635-4.44635V72.02146A1.05165,1.05165,0,0,0,67.42489,71Z"/>
    <path class="n" d="M68.38627,71.96137A.94907.94907,0,0,0,67.44966,71q-.01238-.00016-.02477,0H64.96137A.94907.94907,0,0,0,64,71.93661q-.00016.01238,0,.02477V85.30043a.94907.94907,0,0,0,.93661.96137q.01238.00016.02477,0H67.4249a.94907.94907,0,0,0,.96137-.93661q.00016-.01238,0-.02477Z"/>
  </g>
</svg>
