<?xml version="1.0" encoding="utf-8"?>
<!-- Generator: Adobe Illustrator 22.1.0, SVG Export Plug-In . SVG Version: 6.00 Build 0)  -->
<svg version="1.1" id="Layer_1" xmlns="http://www.w3.org/2000/svg" xmlns:xlink="http://www.w3.org/1999/xlink" x="0px" y="0px"
	 viewBox="0 0 24 24" style="enable-background:new 0 0 24 24;" xml:space="preserve">
<g>
	<title>construction-brick</title>
	<path d="M10.846,19.652c-0.249,0-0.404-0.118-0.474-0.189c-0.074-0.073-0.301-0.35-0.121-0.812l3.312-8.523
		c0.259-0.796,1.007-1.339,1.858-1.339c0.203,0,0.404,0.032,0.598,0.094c0.347,0.111,0.656,0.317,0.893,0.595l1.623,1.621
		l0.979-0.863L16.679,6.96c-0.024-0.023-0.039-0.038-0.053-0.054c-0.002-0.002-0.004-0.005-0.006-0.007
		c-0.722-0.83-0.637-2.092,0.191-2.817l3.854-3.499c0.37-0.307,0.827-0.471,1.294-0.471c0.551,0,1.082,0.23,1.458,0.63
		c0.365,0.389,0.556,0.898,0.539,1.433c-0.018,0.535-0.242,1.03-0.631,1.394l-3.87,3.509c-0.271,0.239-0.597,0.399-0.945,0.466
		l1.761,2.032c0.355,0.415,0.314,1.046-0.092,1.409l-0.934,0.824l1.141,1.141c0.367,0.303,0.614,0.78,0.66,1.292
		c0.047,0.519-0.111,1.025-0.445,1.425c-0.241,0.289-0.559,0.501-0.92,0.614l-8.498,3.303
		C11.066,19.629,10.953,19.652,10.846,19.652z M15.421,9.79c-0.419,0-0.786,0.268-0.914,0.666c-0.002,0.007-3.095,7.965-3.095,7.965
		l7.937-3.084c0.206-0.065,0.362-0.168,0.482-0.311c0.163-0.195,0.24-0.442,0.217-0.695c-0.023-0.253-0.143-0.482-0.338-0.645
		l-1.218-1.216L16.8,13.964c-0.091,0.081-0.208,0.125-0.331,0.125c-0.144,0-0.281-0.062-0.375-0.17
		c-0.088-0.1-0.132-0.229-0.124-0.362c0.009-0.133,0.068-0.255,0.168-0.344l1.646-1.452l-1.606-1.606
		c-0.14-0.162-0.292-0.265-0.464-0.321C15.618,9.806,15.52,9.79,15.421,9.79z M17.36,6.226c0.014,0.011,0.027,0.024,0.036,0.035
		l0.015,0.017c0.18,0.189,0.445,0.303,0.719,0.303c0.242,0,0.475-0.088,0.657-0.248l3.859-3.499
		c0.398-0.373,0.417-1.006,0.041-1.408c-0.188-0.201-0.454-0.316-0.731-0.316c-0.232,0-0.458,0.081-0.636,0.229l-3.843,3.49
		C17.27,5.008,17.148,5.253,17.13,5.52C17.113,5.778,17.195,6.028,17.36,6.226z"/>
	<path d="M0.5,23.93c-0.276,0-0.5-0.224-0.5-0.5v-20c0-0.276,0.224-0.5,0.5-0.5h11c0.276,0,0.5,0.224,0.5,0.5v4.5h1
		c0.276,0,0.5,0.224,0.5,0.5s-0.224,0.5-0.5,0.5H9v4h1c0.276,0,0.5,0.224,0.5,0.5s-0.224,0.5-0.5,0.5H5v4h3.5
		c0.276,0,0.5,0.224,0.5,0.5v4.5h7v-4c0-0.276,0.224-0.5,0.5-0.5s0.5,0.224,0.5,0.5v4h6v-4h-4.484c-0.276,0-0.5-0.224-0.5-0.5
		s0.224-0.5,0.5-0.5H23.5c0.276,0,0.5,0.224,0.5,0.5v5c0,0.276-0.224,0.5-0.5,0.5H0.5z M8,22.93v-4H1v4H8z M4,17.93v-4H1v4H4z
		 M8,12.93v-4H1v4H8z M11,7.93v-4H5v4H11z M4,7.93v-4H1v4H4z"/>
</g>
</svg>
