<svg xmlns="http://www.w3.org/2000/svg" viewBox="0 0 24 24">
  <defs>
    <style>
      .a {
        fill: none;
        stroke: #000;
        stroke-linecap: round;
        stroke-linejoin: round;
      }
    </style>
  </defs>
  <title>Artboard 1</title>
  <polyline class="a" points="11 13.426 0.5 13.426 0.5 18.926"/>
  <polyline class="a" points="0.5 13.926 0.5 8.426 3 8.426"/>
  <line class="a" x1="4.5" y1="13.426" x2="4.5" y2="18.426"/>
  <line class="a" x1="16.5" y1="18.926" x2="16.5" y2="23.426"/>
  <polyline class="a" points="14.516 18.426 23.5 18.426 23.5 23.426 0.5 23.426 0.5 18.426 8 18.426 8.5 18.426 8.5 23.426"/>
  <path class="a" d="M11.164,11.507a5.321,5.321,0,0,1,2.693-3.944.5.5,0,0,1,.729.581,3.943,3.943,0,0,0,.32,3.023,1.23,1.23,0,0,0,1.233-.645.5.5,0,0,1,.763-.108,2.38934,2.38934,0,0,1-.277,3.1485"/>
  <path class="a" d="M18.41667,15.58333C23.75,12.5,23.13334,6.47682,20.628,4.766h-.261L18.5,7.106a9.514,9.514,0,0,1-.014-5.879.5.5,0,0,0-.545-.649,9.511,9.511,0,0,0-7.077,4.884L9.536,4.168a.5.5,0,0,0-.707.00973L8.806,4.203A7.474,7.474,0,0,0,7.45,11.5"/>
</svg>
