<?xml version="1.0" encoding="utf-8"?>
<!-- Generator: Adobe Illustrator 21.1.0, SVG Export Plug-In . SVG Version: 6.00 Build 0)  -->
<svg version="1.1" id="Layer_1" xmlns="http://www.w3.org/2000/svg" xmlns:xlink="http://www.w3.org/1999/xlink" x="0px" y="0px"
	 viewBox="0 0 24 24" style="enable-background:new 0 0 24 24;" xml:space="preserve">
<path d="M18.6,4H5.5C4.7,4,4,4.7,4,5.5v12.9C4,19.3,4.7,20,5.5,20h13c0.9,0,1.5-0.7,1.5-1.5v-13C20.1,4.7,19.4,4,18.6,4z M17.9,8.8
	l-6.4,7.6c-0.4,0.4-1,0.5-1.4,0.1l-3.8-3.2c-0.4-0.4-0.5-1-0.1-1.4c0.4-0.4,1-0.5,1.4-0.1l3.1,2.6l5.8-6.9c0.4-0.4,1-0.5,1.4-0.1
	C18.2,7.8,18.3,8.4,17.9,8.8z"/>
</svg>
