<?xml version="1.0" encoding="utf-8"?>
<!-- Generator: Adobe Illustrator 22.1.0, SVG Export Plug-In . SVG Version: 6.00 Build 0)  -->
<svg version="1.1" id="Layer_1" xmlns="http://www.w3.org/2000/svg" xmlns:xlink="http://www.w3.org/1999/xlink" x="0px" y="0px"
	 viewBox="0 0 24 24" style="enable-background:new 0 0 24 24;" xml:space="preserve">
<g>
	<title>network</title>
	<path d="M12.036,23.998c-2.391,0-4.701-0.704-6.681-2.036c-0.074-0.029-0.139-0.075-0.191-0.135
		c-2.448-1.716-4.159-4.253-4.822-7.15c-0.007-0.016-0.015-0.04-0.02-0.069C0.321,14.6,0.32,14.59,0.319,14.581
		c-0.188-0.853-0.283-1.722-0.283-2.583c0-0.78,0.077-1.566,0.23-2.337C0.267,9.655,0.268,9.649,0.27,9.644
		c1.115-5.588,6.064-9.646,11.766-9.646c1.731,0,3.407,0.366,4.981,1.087c0.031,0.01,0.061,0.024,0.091,0.041
		c4.209,1.971,6.928,6.237,6.928,10.872c0,5.452-3.682,10.224-8.955,11.608c-0.029,0.011-0.06,0.019-0.091,0.024
		C14.027,23.874,13.034,23.998,12.036,23.998z M7.284,21.914c1.479,0.711,3.106,1.084,4.753,1.084c0.378,0,0.761-0.021,1.146-0.062
		c-0.732-0.373-1.693-0.939-2.63-1.717C9.541,21.566,8.446,21.798,7.284,21.914z M11.635,20.791
		c1.549,1.163,3.059,1.735,3.075,1.741l0.216,0.08c2.179-0.594,4.164-1.883,5.61-3.641c-0.006-4.218-1.387-6.155-1.401-6.174
		l-0.226-0.302c-0.04,0.002-0.081,0.004-0.122,0.004c-0.285,0-0.567-0.055-0.831-0.161c-0.242,1.778-0.926,3.47-1.99,4.922
		c0.047,0.16,0.071,0.324,0.071,0.489c0,0.965-0.785,1.75-1.75,1.75c-0.162,0-0.322-0.023-0.478-0.068
		C13.57,19.647,12.865,20.231,11.635,20.791z M1.441,14.952c0.681,2.439,2.192,4.575,4.281,6.045
		c1.42-0.015,2.754-0.204,3.974-0.563c-0.681-0.694-1.22-1.437-1.607-2.211c-0.474-0.987-0.823-2.039-1.04-3.131
		c-1.104-0.165-2.25-0.248-3.41-0.248C2.626,14.844,1.847,14.909,1.441,14.952z M8.11,15.278c0.202,0.871,0.497,1.712,0.877,2.505
		c0.398,0.797,0.995,1.566,1.775,2.283c1.11-0.445,1.823-0.935,2.173-1.21c-0.256-0.311-0.399-0.702-0.399-1.109
		c0-0.295,0.073-0.579,0.212-0.834C11.377,16.174,9.819,15.624,8.11,15.278z M14.286,16.998c-0.414,0-0.75,0.336-0.75,0.75
		s0.336,0.75,0.75,0.75s0.75-0.336,0.75-0.75S14.7,16.998,14.286,16.998z M19.935,12.198c0.056,0.075,1.292,1.765,1.551,5.42
		c1.016-1.699,1.55-3.627,1.55-5.62c0-3.856-2.012-7.402-5.29-9.397c0.516,1.76,0.782,3.576,0.793,5.412
		c0.083-0.01,0.166-0.015,0.248-0.015c1.241,0,2.25,1.009,2.25,2.25c0,0.807-0.427,1.538-1.11,1.939L19.935,12.198z M14.286,15.998
		c0.391,0,0.77,0.133,1.076,0.373c0.956-1.409,1.528-3.036,1.661-4.729c-0.314-0.397-0.487-0.888-0.487-1.393
		c0-0.008,0-0.017,0-0.025c-1.393-1.239-3.161-2.01-5.016-2.188c-0.145,1.38-1.319,2.463-2.734,2.463
		c-0.277,0-0.549-0.041-0.812-0.123c-0.226,1.269-0.246,2.558-0.062,3.848c2.081,0.38,3.959,1.04,5.587,1.964
		C13.744,16.063,14.013,15.998,14.286,15.998z M3.634,13.845c1.101,0,2.193,0.072,3.251,0.215c-0.167-1.4-0.113-2.797,0.161-4.158
		l0.006-0.024C6.558,9.476,6.219,8.916,6.093,8.298c-1.018,0.13-3.447,0.548-4.87,1.69c-0.124,0.666-0.186,1.342-0.186,2.009
		c0,0.662,0.06,1.325,0.178,1.973C1.614,13.925,2.479,13.845,3.634,13.845z M18.786,8.998c-0.689,0-1.25,0.561-1.25,1.25
		s0.561,1.25,1.25,1.25s1.25-0.561,1.25-1.25S19.475,8.998,18.786,8.998z M8.76,5.999C7.807,6.013,7.036,6.794,7.036,7.748
		c0,0.965,0.785,1.75,1.75,1.75s1.75-0.785,1.75-1.75c0-0.954-0.772-1.736-1.724-1.749C8.803,6,8.794,6,8.786,6
		C8.777,6,8.769,6,8.76,5.999z M11.439,7.025c1.96,0.153,3.854,0.903,5.384,2.13c0.174-0.311,0.419-0.578,0.717-0.777
		c0.028-2.123-0.3-4.214-0.977-6.218l-0.089-0.223c-1.335-0.591-2.753-0.905-4.218-0.934C11.143,2.224,10.223,3.601,9.517,5.1
		C10.447,5.357,11.184,6.09,11.439,7.025z M10.889,1.057C6.568,1.504,2.938,4.435,1.586,8.566c1.625-0.861,3.637-1.175,4.49-1.275
		c0.201-1.185,1.179-2.122,2.376-2.27C9.086,3.595,9.905,2.264,10.889,1.057z"/>
</g>
</svg>
