<svg xmlns="http://www.w3.org/2000/svg" viewBox="0 0 24 24">
  <title>Artboard 1</title>
  <path d="M9.3,18.8a2.20184,2.20184,0,0,1-.8-.1c-.3-.1-.4-.1-.5-.2l.3-1.1a2.91985,2.91985,0,0,0,.9.2,1.13234,1.13234,0,0,0,1.2-.7,8.08309,8.08309,0,0,0,.5-2.1l.4-3.9H9.8V9.8L11,9.7h.5l.1-1A4.78846,4.78846,0,0,1,12.5,6a2.18283,2.18283,0,0,1,2.1-1,2.20185,2.20185,0,0,1,.8.1c.3.1.5.1.6.2l-.3,1.1c-.1-.1-.3-.1-.4-.2a1.08273,1.08273,0,0,0-.6-.1,1.44531,1.44531,0,0,0-.7.2,1.205,1.205,0,0,0-.5.5c-.1.2-.2.5-.3.7a2.95849,2.95849,0,0,0-.2,1l-.1,1.1h2.3v1.1H12.8L12.3,15q-.15.9-.3,1.5a4.32829,4.32829,0,0,1-.5,1.2,2.36094,2.36094,0,0,1-.9.8A2.76813,2.76813,0,0,1,9.3,18.8Z"/>
  <path d="M12,1A11,11,0,1,1,1,12,10.96832,10.96832,0,0,1,12,1m0-1A12,12,0,1,0,24,12,12.03528,12.03528,0,0,0,12,0Z"/>
</svg>
