<svg xmlns="http://www.w3.org/2000/svg" viewBox="0 0 24 24">
  <title>Artboard 1</title>
  <path d="M8,2A2,2,0,1,1,6,4,2.00588,2.00588,0,0,1,8,2ZM8,1A2.94645,2.94645,0,0,0,5,4,2.94645,2.94645,0,0,0,8,7a2.94645,2.94645,0,0,0,3-3A2.94645,2.94645,0,0,0,8,1Z"/>
  <path d="M16,2a2,2,0,1,1-2,2A2.00588,2.00588,0,0,1,16,2Zm0-1a2.94645,2.94645,0,0,0-3,3,3,3,0,0,0,6,0,2.94645,2.94645,0,0,0-3-3Z"/>
  <path d="M8,10a2,2,0,1,1-2,2A2.00588,2.00588,0,0,1,8,10ZM8,9a3,3,0,0,0,0,6A3,3,0,0,0,8,9Z"/>
  <path d="M16,10a2,2,0,1,1-2,2A2.00588,2.00588,0,0,1,16,10Zm0-1a3,3,0,1,0,3,3,2.94645,2.94645,0,0,0-3-3Z"/>
  <path d="M8,18a2,2,0,1,1-2,2A2.00588,2.00588,0,0,1,8,18Zm0-1a3,3,0,0,0,0,6,3,3,0,0,0,0-6Z"/>
  <path d="M16,18a2,2,0,1,1-2,2A2.00588,2.00588,0,0,1,16,18Zm0-1a3,3,0,1,0,3,3,2.94645,2.94645,0,0,0-3-3Z"/>
</svg>
