<svg xmlns="http://www.w3.org/2000/svg" viewBox="0 0 24 24">
  <path d="M19.5 23.999c-.827 0-1.5-.673-1.5-1.5v-3c0-.827.673-1.5 1.5-1.5h.977A5.486 5.486 0 0015 13h-2.5v4.999h1c.827 0 1.5.673 1.5 1.5v3c0 .827-.673 1.5-1.5 1.5h-3c-.827 0-1.5-.673-1.5-1.5v-3c0-.827.673-1.5 1.5-1.5h1V13H9a5.486 5.486 0 00-5.477 4.999H4.5c.827 0 1.5.673 1.5 1.5v3c0 .827-.673 1.5-1.5 1.5h-3c-.827 0-1.5-.673-1.5-1.5v-3c0-.827.673-1.5 1.5-1.5h1.02A6.48 6.48 0 019 12h2.5V5.999h-1c-.827 0-1.5-.673-1.5-1.5v-3c0-.827.673-1.5 1.5-1.5h3c.827 0 1.5.673 1.5 1.5v3c0 .827-.673 1.5-1.5 1.5h-1V12H15a6.478 6.478 0 016.479 5.999H22.5c.827 0 1.5.673 1.5 1.5v3c0 .827-.673 1.5-1.5 1.5h-3zm0-5a.5.5 0 00-.5.5v3a.5.5 0 00.5.5h3a.5.5 0 00.5-.5v-3a.5.5 0 00-.5-.5h-1.479L21 19l-.021-.001H19.5zm-9 0a.5.5 0 00-.5.5v3a.5.5 0 00.5.5h3a.5.5 0 00.5-.5v-3a.5.5 0 00-.5-.5h-3zm-9 0a.5.5 0 00-.5.5v3a.5.5 0 00.5.5h3a.5.5 0 00.5-.5v-3a.5.5 0 00-.5-.5H3.021L3 19l-.021-.001H1.5zm9-18a.5.5 0 00-.5.5v3a.5.5 0 00.5.5h3a.5.5 0 00.5-.5v-3a.5.5 0 00-.5-.5h-3z"/>
</svg>
