<svg xmlns="http://www.w3.org/2000/svg" viewBox="0 0 24 24">
  <title>Artboard 1</title>
  <path d="M23,11.2H2.8L5.5,8.5c.2-.1.2-.3.2-.5s0-.4-.2-.5a.78472.78472,0,0,0-1.1,0l-4,4c-.1.1-.1.2-.2.2a.6375.6375,0,0,0,0,.6.21508.21508,0,0,0,.2.2l4,4a.725.725,0,0,0,1,0,.725.725,0,0,0,0-1L2.7,12.8H23a.78874.78874,0,0,0,.8-.8A.86031.86031,0,0,0,23,11.2Z"/>
  <path d="M8,7.8H23a.8.8,0,0,0,0-1.6H8a.86031.86031,0,0,0-.8.8A.86031.86031,0,0,0,8,7.8Z"/>
  <path d="M23,16.2H8a.78874.78874,0,0,0-.8.8.736.736,0,0,0,.8.8H23a.8.8,0,0,0,0-1.6Z"/>
</svg>
