<svg xmlns="http://www.w3.org/2000/svg" viewBox="0 0 24 24">
  <title>Artboard 1</title>
  <path d="M14.5,9h-9A.5.5,0,0,1,5,8.5V5.83224A5.12975,5.12975,0,0,1,8.95327.74318,5.0088,5.0088,0,0,1,15,5.63623V8.5A.5.5,0,0,1,14.5,9ZM6,8h8V5.79285a4.1036,4.1036,0,0,0-3.1629-4.07114A4.007,4.007,0,0,0,6,5.63623Z"/>
  <path d="M16.5,24.00049H3.5a1.50164,1.50164,0,0,1-1.5-1.5V9.5A1.50164,1.50164,0,0,1,3.5,8h13A1.50164,1.50164,0,0,1,18,9.5v2.50049a.5.5,0,0,1-1,0V9.5a.50065.50065,0,0,0-.5-.5H3.5a.50034.50034,0,0,0-.5.5V22.50049a.50065.50065,0,0,0,.5.5h13a.501.501,0,0,0,.5-.5v-2.5a.5.5,0,0,1,1,0v2.5A1.50164,1.50164,0,0,1,16.5,24.00049Z"/>
  <path d="M23.5,16.50049H7.5a.5.5,0,1,1,0-1h16a.5.5,0,1,1,0,1Z"/>
  <path d="M11.5,20.50049a.49838.49838,0,0,1-.35352-.14648l-4-4a.49982.49982,0,0,1,0-.707l4-4a.49995.49995,0,1,1,.707.707L8.207,16.00049,11.85352,19.647a.5.5,0,0,1-.35352.85352Z"/>
</svg>
