<svg xmlns="http://www.w3.org/2000/svg" viewBox="0 0 24 24">
  <path d="M3.2 18.9v-1.6c-.5-.1-1-.2-1.5-.4s-.9-.5-1.2-.8l.6-.9c.3.3.7.6 1.1.8s.9.3 1.4.3c.6 0 1.1-.2 1.3-.5.3-.3.4-.7.4-1.2 0-.4-.1-.8-.3-1.1s-.5-.5-.8-.7c-.3-.2-.7-.4-1.1-.6s-.7-.4-1.1-.7c-.3-.2-.6-.5-.8-.9S.9 9.9.9 9.4c0-.7.2-1.3.6-1.8s1-.8 1.7-.9V5.1h1v1.6c.5.1 1 .2 1.3.4.4.2.7.5 1 .8l-.7.8c-.3-.3-.6-.5-.9-.7-.3-.1-.7-.2-1.1-.2-.5 0-.9.1-1.2.4s-.4.6-.4 1.1c0 .4.1.7.3 1s.5.5.8.7c.3.2.7.4 1.1.5.4.2.8.4 1.1.6.3.3.6.6.8.9.2.4.3.8.3 1.4 0 .8-.2 1.4-.7 1.9-.4.5-1.1.8-1.8.9v1.6h-.9zM14.6 12.4l-.6-.5.9-1.5-1.6-.6.3-.8 1.6.4.1-1.7h.8l.1 1.7L18 9l.2.7-1.6.6.9 1.5-.6.5-1.1-1.3-1.2 1.4zM19.8 18.9v-.8h.4c.4 0 .7-.1.9-.3.1-.2.2-.6.2-1.1v-1.4-1.5c0-.5.1-.9.2-1.2.1-.3.4-.5.7-.6-.3-.1-.6-.3-.7-.6s-.2-.7-.2-1.2V8.7 7.3c0-.5-.1-.9-.2-1.1s-.4-.3-.9-.3h-.4v-.8h.7c.3 0 .6 0 .8.1l.6.3c.2.2.3.4.3.7.1.3.1.6.1 1 0 .6 0 1.1-.1 1.6 0 .5-.1 1-.1 1.5 0 .3.1.6.3.8.2.3.6.4 1.1.4v.8c-.3 0-.5 0-.7.1s-.3.2-.4.3c-.1.1-.2.3-.2.4s-.1.3-.1.5V16.7c0 .4 0 .8-.1 1-.1.3-.2.5-.3.7-.2.2-.4.3-.6.3-.2.1-.5.1-.8.1h-.5zM11.6 5.1v.8h-.4c-.4 0-.7.1-.9.3-.1.2-.2.6-.2 1.1v2.9c0 .5-.1.9-.2 1.2s-.3.5-.7.6c.3.1.6.3.7.6s.2.7.2 1.2v2.9c0 .5.1.9.2 1.1s.4.3.9.3h.4v.8h-.7c-.3 0-.6 0-.8-.1l-.6-.3c-.2-.2-.3-.4-.3-.7-.1-.3-.1-.6-.1-1 0-.6 0-1.1.1-1.6 0-.5.1-1 .1-1.5 0-.3-.1-.6-.3-.8-.2-.3-.6-.4-1.1-.4v-.8c.3 0 .5 0 .7-.1s.3-.2.4-.3c.1-.1.2-.3.2-.4s.1-.3.1-.5v-.8-.7-.8-.8c0-.4 0-.8.1-1s.2-.5.3-.7c.2-.2.4-.3.6-.3.2-.1.5-.1.8-.1h.5z"/>
</svg>
