<svg xmlns="http://www.w3.org/2000/svg" xmlns:xlink="http://www.w3.org/1999/xlink" viewBox="0 0 24 24">
  <defs>
    <style>
      .a {
        clip-path: url(#a);
      }
    </style>
    <clipPath id="a">
      <path d="M14.99669,8.91536a1,1,0,1,1,1-1A1,1,0,0,1,14.99669,8.91536Zm6.646,1.048-2.388-1.043a.5.5,0,0,1-.3-.4,5.086,5.086,0,0,0-5.558-4.495,5.251,5.251,0,0,0-4.563,5.273.58.58,0,0,1-.622.579,5.49,5.49,0,0,1-3.492-1.743,1,1,0,0,0-1.156-.2.978.978,0,0,0-.558.991,8.421,8.421,0,0,0,3.579,6.59.5.5,0,0,1,.076.776c-.354.345-.94.863-2.571,2.391a1,1,0,0,0,.68,1.733h6.006a8.225,8.225,0,0,0,8.192-7.651.5.5,0,0,1,.259-.4l2.476-1.353a.584.584,0,0,0-.06-1.048Z"/>
    </clipPath>
  </defs>
  <title>Artboard 1</title>
  <g>
    <path d="M14.99669,8.91536a1,1,0,1,1,1-1A1,1,0,0,1,14.99669,8.91536Zm6.646,1.048-2.388-1.043a.5.5,0,0,1-.3-.4,5.086,5.086,0,0,0-5.558-4.495,5.251,5.251,0,0,0-4.563,5.273.58.58,0,0,1-.622.579,5.49,5.49,0,0,1-3.492-1.743,1,1,0,0,0-1.156-.2.978.978,0,0,0-.558.991,8.421,8.421,0,0,0,3.579,6.59.5.5,0,0,1,.076.776c-.354.345-.94.863-2.571,2.391a1,1,0,0,0,.68,1.733h6.006a8.225,8.225,0,0,0,8.192-7.651.5.5,0,0,1,.259-.4l2.476-1.353a.584.584,0,0,0-.06-1.048Z"/>
    <g class="a">
      <rect x="-2" y="-1" width="29.00103" height="26.41536"/>
    </g>
  </g>
</svg>
