<svg xmlns="http://www.w3.org/2000/svg" viewBox="0 0 24 24">
  <title>Artboard 1</title>
  <path d="M19.71094,13.13455a.38575.38575,0,0,1-.28113.36145l-1.85745.28113a5.68875,5.68875,0,0,1-.39157.91367c.34137.492.70282.93375,1.07431,1.38556a.39616.39616,0,0,1,.1004.251.33508.33508,0,0,1-.09036.23093c-.241.32129-1.59641,1.79721-1.93777,1.79721a.51082.51082,0,0,1-.261-.09036l-1.38556-1.08435a6.05469,6.05469,0,0,1-.91367.38153,13.12678,13.12678,0,0,1-.29117,1.86749.36783.36783,0,0,1-.36145.28113H10.88553a.35914.35914,0,0,1-.36145-.30121L10.243,17.56232a5.89518,5.89518,0,0,1-.90363-.37149L7.92365,18.26514a.3856.3856,0,0,1-.251.09036.35949.35949,0,0,1-.251-.11044A12.52031,12.52031,0,0,1,5.765,16.55829a.39067.39067,0,0,1-.07028-.23093.379.379,0,0,1,.08032-.23093c.34137-.46185.71286-.90363,1.05423-1.37552a5.32655,5.32655,0,0,1-.41165-.994l-1.83737-.27109a.36623.36623,0,0,1-.29117-.36145V10.86545a.38909.38909,0,0,1,.27109-.36145l1.86749-.28113a5.31217,5.31217,0,0,1,.39157-.92371c-.34137-.48193-.70282-.93375-1.07431-1.38556a.37049.37049,0,0,1-.1004-.241.38925.38925,0,0,1,.09036-.23093c.241-.33133,1.59641-1.79721,1.93777-1.79721a.44659.44659,0,0,1,.261.1004L9.31924,6.81921a6.05469,6.05469,0,0,1,.91367-.38153,13.12678,13.12678,0,0,1,.29117-1.86749.36783.36783,0,0,1,.36145-.28113h2.22894a.35914.35914,0,0,1,.36145.30121L13.757,6.43768a5.89518,5.89518,0,0,1,.90363.37149L16.0864,5.73486a.342.342,0,0,1,.241-.09036.39616.39616,0,0,1,.251.1004A12.67,12.67,0,0,1,18.235,7.45175a.34218.34218,0,0,1,.07028.22089.379.379,0,0,1-.08032.23093c-.34137.46185-.71286.90363-1.05423,1.37552a5.53079,5.53079,0,0,1,.41165.98395l1.83737.28113a.36623.36623,0,0,1,.29117.36145ZM12,9.42969A2.57031,2.57031,0,1,0,14.57031,12,2.57528,2.57528,0,0,0,12,9.42969Z"/>
</svg>
