<svg xmlns="http://www.w3.org/2000/svg" viewBox="0 0 24 24">
  <title>Artboard 1</title>
  <path d="M21.43359,17.896a3.53851,3.53851,0,0,1-3.5376,3.5376H6.104a3.53851,3.53851,0,0,1-3.5376-3.5376V6.104A3.53851,3.53851,0,0,1,6.104,2.56641H17.896a3.53851,3.53851,0,0,1,3.5376,3.5376Zm-3.1691-2.44438a13.81623,13.81623,0,0,0-2.211-1.3266c-.23338-.13512-.5159-.40535-.79842-.40535-.54047,0-1.33888,1.60912-1.81793,1.60912a1.97758,1.97758,0,0,1-.77385-.34393A8.99523,8.99523,0,0,1,9.01515,11.3367a1.97758,1.97758,0,0,1-.34393-.77385c0-.479,1.60912-1.27747,1.60912-1.81793,0-.28252-.27023-.565-.40535-.79842a13.81623,13.81623,0,0,0-1.3266-2.211.54092.54092,0,0,0-.19653-.02457,4.31406,4.31406,0,0,0-1.24062.27023,3.58061,3.58061,0,0,0-1.4003,2.76375,6.77506,6.77506,0,0,0,.61417,2.33383,12.46552,12.46552,0,0,0,6.59615,6.59615,6.77506,6.77506,0,0,0,2.33383.61417,3.58061,3.58061,0,0,0,2.76375-1.4003,4.31406,4.31406,0,0,0,.27023-1.24062A.54092.54092,0,0,0,18.2645,15.45161Z"/>
</svg>
