<svg xmlns="http://www.w3.org/2000/svg" viewBox="0 0 24 24">
  <title>Artboard 1</title>
  <g>
    <path d="M6.75,10.88824V5.5a.75.75,0,0,0-1.5,0v5.38824a2.2365,2.2365,0,0,0,0,4.22351V18.25a.75.75,0,0,0,1.5,0V15.11176a2.2365,2.2365,0,0,0,0-4.22351ZM6,13.75A.75.75,0,1,1,6.75,13,.75113.75113,0,0,1,6,13.75Z"/>
    <path d="M12.75,7.88824V5.5a.75.75,0,0,0-1.5,0V7.88824a2.2365,2.2365,0,0,0,0,4.22351V18.25a.75.75,0,0,0,1.5,0V12.11176a2.2365,2.2365,0,0,0,0-4.22351ZM12,10.75a.75.75,0,1,1,.75-.75A.75113.75113,0,0,1,12,10.75Z"/>
    <path d="M20.25,13a2.24663,2.24663,0,0,0-1.5-2.11176V5.5a.75.75,0,0,0-1.5,0v5.38824a2.2365,2.2365,0,0,0,0,4.22351V18.25a.75.75,0,0,0,1.5,0V15.11176A2.24663,2.24663,0,0,0,20.25,13ZM18,13.75a.75.75,0,1,1,.75-.75A.75113.75113,0,0,1,18,13.75Z"/>
  </g>
</svg>
