<?xml version="1.0" encoding="utf-8"?>
<!-- Generator: Adobe Illustrator 22.1.0, SVG Export Plug-In . SVG Version: 6.00 Build 0)  -->
<svg version="1.1" id="Layer_1" xmlns="http://www.w3.org/2000/svg" xmlns:xlink="http://www.w3.org/1999/xlink" x="0px" y="0px"
	 viewBox="0 0 24 24" style="enable-background:new 0 0 24 24;" xml:space="preserve">
<g>
	<title>module-puzzle</title>
	<path d="M5,21.5c-0.827,0-1.5-0.673-1.5-1.5v-1.051c-0.988-0.191-1.761-0.966-1.957-1.97c-0.264-1.353,0.622-2.668,1.975-2.932
		L3.5,12V9.949C3.493,9.485,3.821,9.074,4.28,8.974c0.61-0.119,1.078-0.585,1.195-1.187c0.158-0.812-0.373-1.601-1.185-1.76
		C3.825,5.927,3.495,5.515,3.5,5.047V4c0-0.827,0.673-1.5,1.5-1.5h10.051c0.471,0,0.876,0.328,0.975,0.78
		c0.119,0.611,0.584,1.078,1.187,1.196c0.096,0.019,0.194,0.028,0.291,0.028c0.297,0,0.585-0.089,0.834-0.256
		c0.332-0.224,0.557-0.564,0.634-0.957c0.099-0.46,0.507-0.79,0.969-0.79H21c0.827,0,1.5,0.673,1.5,1.5v16
		c0,0.827-0.673,1.5-1.5,1.5H5z M21,20.5c0.276,0,0.5-0.224,0.5-0.5v-7.5h-1.55c-0.408,0-0.775-0.248-0.925-0.616
		c-0.021-0.053-0.038-0.107-0.051-0.164c-0.014-0.074-0.034-0.139-0.056-0.203l-0.015-0.042c-0.024-0.065-0.05-0.127-0.082-0.186
		c-0.033-0.061-0.068-0.114-0.105-0.166l-0.028-0.038c-0.039-0.051-0.08-0.099-0.124-0.144c-0.003-0.003-0.027-0.025-0.03-0.027
		c-0.035-0.033-0.072-0.066-0.111-0.096c-0.02-0.015-0.039-0.03-0.06-0.044c-0.042-0.03-0.086-0.058-0.132-0.084l-0.045-0.025
		c-0.052-0.026-0.106-0.051-0.162-0.071l-0.041-0.015c-0.063-0.022-0.13-0.041-0.199-0.055c-0.05-0.01-0.1-0.017-0.15-0.021
		c-0.057-0.004-0.097-0.006-0.137-0.006c0,0-0.053,0.002-0.055,0.002c-0.033,0.001-0.066,0.002-0.099,0.006
		c0,0-0.056,0.008-0.057,0.008c-0.039,0.006-0.063,0.009-0.087,0.014c-0.061,0.012-0.12,0.03-0.178,0.049
		c-0.023,0.008-0.047,0.017-0.07,0.026c-0.037,0.015-0.071,0.03-0.105,0.046c-0.044,0.021-0.088,0.045-0.13,0.071
		c-0.028,0.017-0.05,0.03-0.07,0.044c-0.03,0.021-0.059,0.042-0.087,0.065c-0.017,0.014-0.032,0.027-0.048,0.041
		c-0.049,0.043-0.089,0.083-0.127,0.126c-0.021,0.023-0.041,0.045-0.06,0.069c-0.019,0.024-0.037,0.048-0.055,0.073
		c-0.026,0.037-0.052,0.077-0.075,0.119c-0.011,0.019-0.022,0.039-0.032,0.06c-0.023,0.047-0.045,0.096-0.065,0.147l-0.019,0.053
		c-0.021,0.063-0.04,0.127-0.053,0.193c-0.1,0.46-0.507,0.79-0.97,0.79H13.5c0,0,0,1.549,0,1.549
		c0.091,0.019,0.195,0.048,0.317,0.089c0.019,0.006,0.041,0.014,0.062,0.022c0.115,0.043,0.217,0.088,0.307,0.137
		c0.096,0.053,0.182,0.107,0.272,0.172c0.023,0.017,0.048,0.035,0.073,0.054c0.083,0.064,0.156,0.126,0.221,0.191
		c0.017,0.017,0.07,0.074,0.07,0.074c0.051,0.054,0.099,0.109,0.145,0.168c0.028,0.035,0.054,0.071,0.08,0.107
		c0.014,0.018,0.023,0.03,0.032,0.043c0.037,0.056,0.072,0.114,0.104,0.173c0.017,0.03,0.03,0.052,0.042,0.076
		c0.043,0.083,0.082,0.172,0.119,0.271l0.022,0.06c0.067,0.195,0.11,0.391,0.128,0.584c0.007,0.09,0.011,0.162,0.011,0.234
		c0,0.07-0.004,0.142-0.01,0.214c-0.019,0.213-0.062,0.409-0.129,0.601l-0.022,0.061c-0.038,0.101-0.078,0.19-0.121,0.273
		c-0.013,0.025-0.028,0.052-0.043,0.078c-0.032,0.057-0.065,0.114-0.102,0.169c-0.008,0.012-0.017,0.024-0.027,0.036
		c-0.031,0.043-0.057,0.078-0.084,0.113c-0.046,0.058-0.094,0.113-0.143,0.166l-0.018,0.02c-0.02,0.022-0.041,0.043-0.062,0.064
		c-0.066,0.065-0.137,0.125-0.211,0.182c-0.027,0.021-0.053,0.04-0.08,0.059c-0.083,0.059-0.163,0.11-0.244,0.154
		c-0.009,0.006-0.019,0.012-0.031,0.018c-0.084,0.045-0.181,0.088-0.295,0.13c-0.025,0.01-0.051,0.018-0.077,0.027
		c-0.12,0.041-0.223,0.069-0.324,0.089l0.016,1.546H21z M4.5,14.051c0.007,0.463-0.321,0.875-0.78,0.975
		c-0.82,0.16-1.354,0.95-1.196,1.761c0.118,0.602,0.583,1.067,1.185,1.185c0.466,0.101,0.797,0.514,0.79,0.983V20
		c0,0.276,0.224,0.5,0.5,0.5h7.5v-1.551c-0.007-0.464,0.321-0.875,0.78-0.975c0.073-0.014,0.139-0.033,0.203-0.055l0.042-0.014
		c0.066-0.024,0.128-0.051,0.187-0.082c0.06-0.033,0.113-0.067,0.164-0.104l0.043-0.032c0.047-0.036,0.094-0.075,0.137-0.119
		c0.001-0.001,0.029-0.031,0.03-0.032c0.034-0.036,0.066-0.073,0.095-0.11c0.016-0.02,0.031-0.041,0.046-0.062
		c0.029-0.042,0.057-0.085,0.083-0.131l0.023-0.043c0.027-0.052,0.051-0.107,0.072-0.164l0.015-0.04
		c0.021-0.062,0.041-0.13,0.054-0.199c0.01-0.049,0.017-0.099,0.021-0.148c0.004-0.055,0.006-0.097,0.006-0.139
		s-0.002-0.084-0.006-0.126c-0.005-0.062-0.012-0.111-0.022-0.16c-0.014-0.07-0.033-0.137-0.056-0.203l-0.012-0.035
		c-0.022-0.058-0.046-0.113-0.073-0.166l-0.024-0.044c-0.025-0.045-0.053-0.088-0.082-0.129c-0.015-0.021-0.031-0.042-0.048-0.063
		c-0.028-0.036-0.057-0.069-0.087-0.101c0,0-0.045-0.048-0.045-0.048c-0.04-0.039-0.083-0.076-0.128-0.11
		c-0.015-0.012-0.031-0.023-0.047-0.035c-0.047-0.033-0.095-0.065-0.145-0.092c-0.005-0.003-0.019-0.011-0.024-0.014
		c-0.051-0.027-0.111-0.052-0.172-0.075l-0.046-0.016c-0.065-0.022-0.129-0.041-0.196-0.054c-0.469-0.102-0.797-0.515-0.791-0.984
		V12.5h-1.551c-0.016,0.087-0.044,0.189-0.084,0.308c-0.01,0.029-0.02,0.058-0.031,0.086c-0.033,0.088-0.071,0.174-0.114,0.257
		c-0.012,0.023-0.025,0.047-0.038,0.071c-0.043,0.077-0.091,0.151-0.141,0.223c-0.025,0.036-0.052,0.072-0.08,0.107
		c-0.04,0.05-0.081,0.097-0.123,0.143c-0.05,0.054-0.102,0.105-0.157,0.155c-0.041,0.037-0.083,0.074-0.126,0.108
		c-0.041,0.033-0.083,0.064-0.127,0.095c-0.053,0.037-0.108,0.071-0.164,0.103c-0.051,0.03-0.103,0.058-0.156,0.085
		c-0.067,0.033-0.136,0.064-0.206,0.091C9.358,14.349,9.329,14.36,9.3,14.369c-0.105,0.036-0.207,0.063-0.308,0.084
		c-0.036,0.008-0.059,0.011-0.082,0.014l-0.052,0.008c-0.035,0.006-0.07,0.011-0.105,0.015c-0.038,0.004-0.077,0.006-0.116,0.008
		L8.588,14.5c-0.024,0.001-0.049,0.003-0.073,0.003c-0.007,0-0.013,0-0.019,0c-0.024,0-0.038-0.001-0.051-0.003
		c-0.083-0.002-0.168-0.009-0.252-0.019c-0.039-0.005-0.077-0.01-0.115-0.016c-0.027-0.003-0.041-0.006-0.055-0.008
		c-0.026-0.005-0.05-0.012-0.074-0.02c-0.094-0.023-0.167-0.042-0.239-0.066c-0.052-0.018-0.102-0.038-0.151-0.058
		c0,0-0.034-0.014-0.035-0.014c-0.048-0.02-0.095-0.04-0.141-0.063c-0.069-0.035-0.136-0.074-0.202-0.115
		c-0.036-0.019-0.056-0.031-0.076-0.044c-0.005-0.003-0.028-0.021-0.033-0.024c-0.046-0.033-0.082-0.06-0.118-0.088
		c-0.057-0.045-0.112-0.092-0.164-0.142L6.77,13.806c-0.022-0.02-0.043-0.04-0.064-0.062c-0.065-0.067-0.126-0.138-0.183-0.212
		c-0.02-0.026-0.039-0.052-0.059-0.08c-0.06-0.084-0.111-0.165-0.156-0.246c-0.005-0.007-0.011-0.017-0.016-0.028
		c-0.045-0.085-0.089-0.183-0.131-0.297c-0.009-0.025-0.018-0.05-0.027-0.075C6.097,12.693,6.069,12.595,6.05,12.5l-1.55,0V14.051z
		 M6.062,11.5c0.389,0,0.743,0.233,0.902,0.593c0.032,0.075,0.05,0.13,0.062,0.187c0.014,0.073,0.034,0.139,0.056,0.203l0.015,0.043
		c0.024,0.064,0.05,0.126,0.081,0.185c0.033,0.061,0.068,0.114,0.105,0.166l0.029,0.04c0.038,0.05,0.078,0.097,0.122,0.142
		c0.002,0.002,0.029,0.026,0.031,0.028c0.036,0.035,0.073,0.066,0.111,0.096c0.019,0.014,0.039,0.03,0.059,0.044
		c0.043,0.031,0.087,0.059,0.133,0.085l0.042,0.023c0.053,0.027,0.107,0.051,0.163,0.072l0.041,0.015
		c0.065,0.022,0.131,0.042,0.2,0.055c0.049,0.01,0.099,0.017,0.147,0.021c0.002,0,0.036,0.002,0.038,0.002
		C8.433,13.5,8.466,13.503,8.5,13.503c0.022,0,0.082-0.004,0.082-0.004l0.067-0.004c0.024-0.002,0.047-0.006,0.071-0.01l0.075-0.012
		c0.064-0.013,0.126-0.031,0.187-0.052C9,13.416,9.019,13.408,9.037,13.401c0.046-0.018,0.087-0.037,0.128-0.057
		c0.03-0.015,0.062-0.032,0.093-0.051c0.034-0.02,0.066-0.04,0.097-0.062c0.027-0.019,0.053-0.038,0.078-0.058
		c0.025-0.02,0.049-0.041,0.073-0.063c0.034-0.031,0.066-0.063,0.097-0.097c0.025-0.027,0.049-0.054,0.072-0.083
		c0.017-0.022,0.034-0.044,0.05-0.066c0.03-0.042,0.058-0.085,0.083-0.131l0.024-0.046C9.858,12.64,9.88,12.589,9.9,12.536
		l0.018-0.051c0.021-0.063,0.041-0.128,0.054-0.194c0.1-0.46,0.51-0.79,0.977-0.79H12.5V9.949c-0.09-0.017-0.191-0.044-0.308-0.084
		c-0.026-0.009-0.053-0.018-0.079-0.028c-0.112-0.042-0.208-0.085-0.294-0.13c-0.005-0.003-0.027-0.016-0.032-0.019
		c-0.084-0.047-0.162-0.097-0.238-0.151c-0.029-0.021-0.057-0.041-0.085-0.063c-0.07-0.054-0.137-0.112-0.202-0.174
		c-0.028-0.027-0.054-0.055-0.08-0.083c-0.058-0.062-0.103-0.114-0.146-0.169c-0.028-0.036-0.056-0.073-0.082-0.11
		c-0.014-0.018-0.022-0.029-0.03-0.041c-0.037-0.056-0.07-0.112-0.103-0.17c-0.018-0.031-0.031-0.055-0.044-0.08
		c-0.043-0.082-0.082-0.171-0.12-0.27l-0.023-0.063c-0.066-0.191-0.109-0.387-0.127-0.58c0-0.005-0.001-0.02-0.001-0.025
		C10.501,7.64,10.497,7.57,10.497,7.5c0-0.069,0.004-0.139,0.01-0.209c0.019-0.218,0.062-0.414,0.129-0.606l0.02-0.055
		c0.04-0.107,0.08-0.197,0.124-0.282l0.035-0.065c0.036-0.064,0.07-0.123,0.109-0.18c0.008-0.012,0.017-0.024,0.026-0.035
		c0.032-0.044,0.058-0.079,0.085-0.113c0.047-0.059,0.096-0.116,0.147-0.17L11.2,5.764c0.017-0.018,0.034-0.036,0.052-0.054
		c0.069-0.067,0.142-0.129,0.217-0.188c0.026-0.02,0.052-0.039,0.078-0.058c0.085-0.061,0.167-0.112,0.248-0.157
		c0.001,0,0.023-0.013,0.024-0.014c0.089-0.047,0.186-0.09,0.3-0.133c0.024-0.009,0.049-0.018,0.075-0.026
		c0.121-0.041,0.224-0.069,0.325-0.089L12.502,3.5H5C4.724,3.5,4.5,3.724,4.5,4v1.051c1.337,0.26,2.221,1.575,1.957,2.928
		C6.261,8.983,5.486,9.758,4.482,9.954L4.498,11.5L6.062,11.5z M17.507,9.497c0.273,0,0.545,0.047,0.808,0.138l0.056,0.02
		c0.105,0.039,0.195,0.079,0.28,0.123c0.024,0.012,0.047,0.025,0.071,0.039c0.06,0.034,0.119,0.068,0.175,0.106
		c0.012,0.008,0.024,0.017,0.035,0.026c0.044,0.032,0.079,0.058,0.113,0.085c0.059,0.046,0.117,0.096,0.172,0.148
		c0.035,0.032,0.054,0.049,0.071,0.067c0.063,0.065,0.125,0.136,0.19,0.22c0.02,0.026,0.038,0.051,0.056,0.076
		c0.062,0.088,0.115,0.17,0.159,0.252c0.001,0.001,0.013,0.022,0.014,0.024c0.045,0.085,0.089,0.183,0.132,0.298
		c0.009,0.024,0.018,0.048,0.026,0.074c0.041,0.122,0.07,0.226,0.089,0.326l1.546-0.016V4c0-0.276-0.224-0.5-0.5-0.5h-1.051
		c-0.123,0.639-0.498,1.204-1.052,1.577C18.482,5.356,18,5.504,17.505,5.504c-0.161,0-0.324-0.016-0.483-0.047
		c-1.004-0.196-1.78-0.971-1.975-1.975L13.5,3.497v1.554c0.007,0.464-0.321,0.875-0.78,0.975c-0.072,0.014-0.137,0.033-0.2,0.055
		l-0.052,0.019c-0.052,0.02-0.102,0.042-0.151,0.066c-0.019,0.01-0.039,0.02-0.058,0.031c-0.042,0.024-0.082,0.049-0.121,0.077
		c-0.024,0.017-0.048,0.035-0.071,0.053c-0.025,0.02-0.05,0.042-0.074,0.064c-0.039,0.035-0.076,0.073-0.112,0.112
		c-0.02,0.022-0.037,0.041-0.053,0.061c-0.021,0.027-0.042,0.055-0.062,0.083c-0.018,0.026-0.036,0.054-0.052,0.083
		c-0.023,0.037-0.043,0.074-0.061,0.112c-0.018,0.037-0.036,0.076-0.051,0.115C11.592,6.98,11.585,7,11.577,7.021
		c-0.02,0.059-0.038,0.12-0.05,0.183c0,0-0.02,0.126-0.022,0.144c-0.002,0.022-0.003,0.043-0.004,0.064l-0.004,0.08
		c0,0.041,0.002,0.083,0.005,0.125c0.005,0.069,0.012,0.119,0.022,0.169c0.012,0.062,0.03,0.128,0.055,0.202l0.013,0.035
		c0.022,0.059,0.046,0.114,0.074,0.167l0.022,0.04c0.026,0.047,0.054,0.091,0.084,0.133c0.015,0.022,0.031,0.043,0.047,0.063
		c0.027,0.035,0.057,0.069,0.088,0.101l0.042,0.045c0.041,0.04,0.085,0.077,0.13,0.112l0.046,0.034
		c0.048,0.034,0.097,0.066,0.149,0.095c0.072,0.039,0.132,0.065,0.194,0.088l0.044,0.016c0.064,0.022,0.129,0.041,0.197,0.054
		c0.467,0.101,0.797,0.515,0.79,0.984V11.5h1.551c0.016-0.089,0.045-0.195,0.085-0.312l0.021-0.062
		c0.035-0.094,0.077-0.189,0.125-0.281c0.012-0.023,0.026-0.047,0.039-0.071c0.049-0.087,0.098-0.166,0.153-0.241
		c0.015-0.021,0.032-0.042,0.049-0.063l0.016-0.02c0.044-0.056,0.09-0.109,0.138-0.16l0.021-0.022
		c0.021-0.023,0.042-0.045,0.064-0.066c0.061-0.059,0.125-0.113,0.192-0.165c0.035-0.028,0.071-0.054,0.107-0.08
		c0.072-0.05,0.145-0.097,0.22-0.139c0.026-0.015,0.053-0.028,0.079-0.041c0.1-0.05,0.183-0.088,0.27-0.12l0.051-0.018
		c0.099-0.034,0.2-0.062,0.311-0.085c0.003-0.002,0.017-0.005,0.031-0.008c0.005-0.001,0.021-0.003,0.025-0.004
		c0.052-0.01,0.113-0.018,0.173-0.025l0.052-0.007c0.075-0.007,0.15-0.01,0.226-0.01C17.502,9.497,17.504,9.497,17.507,9.497z"/>
</g>
</svg>
