<svg xmlns="http://www.w3.org/2000/svg" viewBox="0 0 24 24">
  <title>Artboard 1</title>
  <g>
    <path d="M14.886,13.985a2.50023,2.50023,0,1,0-3.463-3.465L10.33,9.427a1.50411,1.50411,0,0,0-2.122,0L6.76,10.875a1.00162,1.00162,0,0,0-.005,1.414,1.01419,1.01419,0,0,0,.16.131,1.37689,1.37689,0,0,1,.226.183,1.5,1.5,0,0,1-2.117,2.125,1.4179,1.4179,0,0,1-.189-.231,1.0002,1.0002,0,0,0-1.385-.284.97309.97309,0,0,0-.156.127L1.835,15.783a1.501,1.501,0,0,0,0,2.121l5.657,5.657a1.50034,1.50034,0,0,0,2.121,0l1.561-1.56a.99947.99947,0,0,0-.341-1.64,1.46884,1.46884,0,0,1-.512-.334,1.49945,1.49945,0,0,1,1.062-2.559,1.497,1.497,0,0,1,1.395.949.99957.99957,0,0,0,1.296.567.97265.97265,0,0,0,.343-.224l1.561-1.562a1.50056,1.50056,0,0,0,0-2.121Zm.385,2.505L13.71,18.051a2.50125,2.50125,0,0,0-4.092-.855,2.49865,2.49865,0,0,0,.851,4.096L8.907,22.853a.50093.50093,0,0,1-.707,0L2.543,17.196a.49977.49977,0,0,1-.002-.705L4,15.047a2.48575,2.48575,0,0,0,3.798.395,2.50526,2.50526,0,0,0,.057-3.54,2.53688,2.53688,0,0,0-.389-.32l1.449-1.449a.501.501,0,0,1,.707,0l1.6,1.6a.50038.50038,0,0,0,.354.147.50822.50822,0,0,0,.129-.017.50067.50067,0,0,0,.354-.354,1.5,1.5,0,1,1,1.837,1.837.50059.50059,0,0,0-.225.837l1.6,1.6A.50037.50037,0,0,1,15.271,16.49Z"/>
    <path d="M23.78223,5.97754a.4992.4992,0,0,0-.68457.17529L21.175,9.39642A9.997,9.997,0,1,0,1.51514,12.55371a.49983.49983,0,0,0,.48389.37646.49345.49345,0,0,0,.124-.01562.49953.49953,0,0,0,.36084-.60791,9.00108,9.00108,0,1,1,17.7085-2.70947l.00854.16156-2.77905-2.8559a.5.5,0,0,0-.7168.69727l3.707,3.80908.013.00885a1.64757,1.64757,0,0,0,.1601.105.48984.48984,0,0,0,.14.02838c.0155.00146.02966.00916.04529.00916l.0119-.00067c.005-.00012.0094.00238.01447.00214l.01483-.00385.01837-.001c.01257-.00153.0224-.01019.03473-.01263a.48839.48839,0,0,0,.1579-.0575.47858.47858,0,0,0,.04828-.03644.48605.48605,0,0,0,.10431-.10907c.007-.01007.01862-.01544.0249-.02606L23.957,6.6626A.4993.4993,0,0,0,23.78223,5.97754Z"/>
  </g>
</svg>
