<svg xmlns="http://www.w3.org/2000/svg" viewBox="0 0 24 24">
  <defs>
    <style>
      .a {
        fill: none;
        stroke: #000;
        stroke-linecap: round;
        stroke-linejoin: round;
      }
    </style>
  </defs>
  <title>Artboard 1</title>
  <g>
    <path d="M17.71094,21H16.00879a.5.5,0,0,1,0-1H17.71a.79982.79982,0,0,0,.44141-1.46875l-1.84277-1.22949a1.79909,1.79909,0,0,1-.27246-2.7832A1.69384,1.69384,0,0,1,17.31152,14h1.69727a.5.5,0,0,1,0,1h-1.7002a.70843.70843,0,0,0-.57031.23047.79926.79926,0,0,0,.12207,1.2373l1.84277,1.22949A1.7998,1.7998,0,0,1,17.71094,21Z"/>
    <path d="M17.5,11.004c-.02008,0-.03949.00281-.05951.003a6.52584,6.52584,0,0,0-6.41565,6.00629C11.01263,17.17584,11,17.33838,11,17.504c0,.17743.01263.35187.02667.52576A6.49742,6.49742,0,1,0,17.5,11.004Zm0,12a5.50169,5.50169,0,0,1-5.48785-5.25995C12.00867,17.66388,12,17.585,12,17.504a5.49384,5.49384,0,0,1,5.24652-5.48718c.08459-.00391.16791-.01282.25348-.01282a5.5,5.5,0,0,1,0,11Z"/>
    <path d="M1.542,24a1.50183,1.50183,0,0,1-1.5-1.5V1.5A1.50183,1.50183,0,0,1,1.542,0H14.835a1.51389,1.51389,0,0,1,1.064.45l3.703,3.696a1.48935,1.48935,0,0,1,.44,1.061V8.5a.5.5,0,0,1-1,0V5.207a.497.497,0,0,0-.146-.353l-3.707-3.7A.507.507,0,0,0,14.832,1H1.542a.50018.50018,0,0,0-.5.5v21a.50018.50018,0,0,0,.5.5h8a.5.5,0,1,1,0,1Z"/>
  </g>
  <g>
    <line class="a" x1="3.516" y1="4.504" x2="3.516" y2="8.504"/>
    <line class="a" x1="12.516" y1="4.504" x2="12.516" y2="8.504"/>
    <line class="a" x1="9.516" y1="11.504" x2="9.516" y2="15.504"/>
    <line class="a" x1="15.516" y1="4.504" x2="15.516" y2="8.504"/>
    <path class="a" d="M8.016,4.5A1.5,1.5,0,0,1,9.516,6V7a1.5,1.5,0,1,1-3,0V6A1.5,1.5,0,0,1,8.016,4.5Z"/>
    <path class="a" d="M5.016,11.5a1.5,1.5,0,0,1,1.5,1.5v1a1.5,1.5,0,0,1-3,0V13A1.5,1.5,0,0,1,5.016,11.5Z"/>
  </g>
</svg>
