<svg xmlns="http://www.w3.org/2000/svg" viewBox="0 0 24 24">
  <defs>
    <style>
      .a {
        fill: none;
      }
    </style>
  </defs>
  <title>Artboard 1</title>
  <path class="a" d="M11.56,8.147a1.49016,1.49016,0,0,1-1.06.439H7.327a.50108.50108,0,0,0-.354.146l-.5.5a.50037.50037,0,0,0,0,.707l7.586,7.586a.50218.50218,0,0,0,.708,0l.5-.5a.50388.50388,0,0,0,.146-.354V13.5a1.49261,1.49261,0,0,1,.439-1.061l.43762-.43762-4.292-4.292Z"/>
  <rect class="a" x="14.69224" y="5.7148" width="1.11469" height="6.06958" transform="translate(-1.72039 13.34578) rotate(-45)"/>
  <path class="a" d="M20.059,8.232a1.20589,1.20589,0,0,1,1.701-.006l.005.005a.20527.20527,0,0,0,.292,0l.793-.793a.5003.5003,0,0,0,0-.707L17.264,1.145a.50218.50218,0,0,0-.708,0L15.767,1.94a.20688.20688,0,0,0,0,.293,1.20962,1.20962,0,0,1,.001,1.707L14.20972,5.49792,18.5014,9.78961Z"/>
  <rect x="19.49579" y="11.2585" width="1.00663" height="7.4812" transform="translate(-4.74836 18.53463) rotate(-45)"/>
  <rect x="8.49788" y="0.26018" width="1.00663" height="7.48202" transform="translate(-0.19288 7.53672) rotate(-45)"/>
  <rect x="13.99623" y="6.46469" width="1.00663" height="6.06971" transform="translate(-2.47037 13.03508) rotate(-45)"/>
  <path d="M15.768,3.94a1.20962,1.20962,0,0,0-.001-1.707.20688.20688,0,0,1,0-.293l.78894-.795a.50218.50218,0,0,1,.708,0L22.85,6.731a.5003.5003,0,0,1,0,.707l-.793.793a.20527.20527,0,0,1-.292,0l-.005-.005a1.20589,1.20589,0,0,0-1.701.006L18.5014,9.78961l.7088.7088L20.768,8.941a.19859.19859,0,0,1,.146-.061.20492.20492,0,0,1,.146.06,1.20844,1.20844,0,0,0,1.707,0l.793-.792a1.501,1.501,0,0,0,0-2.121L17.974.441a1.50411,1.50411,0,0,0-2.122,0l-.793.793a1.20944,1.20944,0,0,0,0,1.707.20188.20188,0,0,1,.061.146.20646.20646,0,0,1-.061.147L13.50238,4.79059l.70734.70734Z"/>
  <path d="M15.852,12.439a1.49261,1.49261,0,0,0-.439,1.061v3.171a.50388.50388,0,0,1-.146.354l-.5.5a.50218.50218,0,0,1-.708,0L6.473,9.939a.50037.50037,0,0,1,0-.707l.5-.5a.50108.50108,0,0,1,.354-.146H10.5a1.49016,1.49016,0,0,0,1.06-.439l.43762-.43756-.707-.707-.4386.4386a.497.497,0,0,1-.353.146H7.327a1.49088,1.49088,0,0,0-1.061.439l-.5.5a1.50108,1.50108,0,0,0,0,2.121l3.439,3.439L.145,23.147A.49951.49951,0,0,0,.499,24a.51023.51023,0,0,0,.355-.144l9.06-9.061,3.439,3.439a1.504,1.504,0,0,0,2.12195,0l.5-.5a1.49256,1.49256,0,0,0,.439-1.061V13.502a.50352.50352,0,0,1,.146-.354l.43817-.438-.70856-.70856Z"/>
  <rect x="11.49672" y="6.50004" width="1.00663" height="0.99998" transform="translate(-1.43504 10.53556) rotate(-45)"/>
  <rect x="16.49649" y="11.49875" width="1.00663" height="1.00209" transform="translate(-3.50601 15.53534) rotate(-45)"/>
  <rect x="17.99658" y="9.99872" width="1.00663" height="1.00235" transform="translate(-2.00605 16.15675) rotate(-45)"/>
  <rect x="12.99681" y="5" width="1.00663" height="1.00024" transform="translate(0.06492 11.15698) rotate(-45)"/>
</svg>
