<?xml version="1.0" encoding="utf-8"?>
<!-- Generator: Adobe Illustrator 21.0.0, SVG Export Plug-In . SVG Version: 6.00 Build 0)  -->
<svg version="1.1" id="图层_1" xmlns="http://www.w3.org/2000/svg" xmlns:xlink="http://www.w3.org/1999/xlink" x="0px" y="0px"
	 width="120px" height="48px" viewBox="0 0 120 48" style="enable-background:new 0 0 120 48;" xml:space="preserve">
<g>
	<g>
		<path style="fill:#00A3FF;" d="M75.718,33.89c-0.764,0.756-2.125,1.613-4.361,1.689c-1.034,0.035-2.241,0.039-2.793,0.039
			c-0.603,0-5.918,0-12.012,0c4.37-4.245,8.182-7.947,8.615-8.367c0.396-0.385,1.287-1.237,2.056-1.929
			c1.687-1.519,3.206-1.825,4.28-1.815c1.683,0.016,3.214,0.703,4.308,1.813C78.152,27.712,78.097,31.536,75.718,33.89
			 M78.595,22.597c-1.795-1.83-4.296-2.983-7.077-2.984c-2.404,0-4.474,0.829-6.281,2.3c-0.788,0.641-1.614,1.409-2.653,2.419
			c-0.516,0.501-15.485,15.026-15.485,15.026c0.785,0.112,1.864,0.145,2.826,0.151c0.902,0.006,18.1,0.004,18.82,0.004
			c1.449,0,2.392-0.002,3.405-0.076c2.323-0.17,4.518-1.022,6.292-2.764C82.381,32.805,82.44,26.526,78.595,22.597z"/>
		<path style="fill:#00C8DC;" d="M54.445,21.663c-1.76-1.317-3.729-2.053-5.963-2.05c-2.781,0-5.283,1.153-7.077,2.984
			c-3.845,3.93-3.786,10.209,0.154,14.077c1.582,1.553,3.498,2.398,5.541,2.684l3.854-3.74c-0.623-0.003-1.518-0.011-2.311-0.038
			c-2.235-0.076-3.597-0.934-4.361-1.689c-2.379-2.354-2.434-6.178-0.094-8.57c1.094-1.11,2.625-1.797,4.308-1.813
			c1.055-0.004,2.486,0.302,4.103,1.643c0.772,0.64,2.486,2.147,3.239,2.825c0.038,0.035,0.084,0.038,0.129,0.001l2.654-2.589
			c0.046-0.045,0.043-0.105-0.002-0.146C57.343,24.088,55.534,22.474,54.445,21.663"/>
		<path style="fill:#006EFF;" d="M72.561,17.365C70.73,12.193,65.799,8.487,60,8.487c-6.652,0-12.165,4.892-13.164,11.264
			c0.535-0.09,1.085-0.138,1.646-0.138c0.781-0.001,1.529,0.09,2.248,0.263c0.014,0.003,0.028,0.005,0.042,0.008
			c0.901-4.302,4.705-7.498,9.228-7.498c3.767,0,7.072,2.272,8.562,5.492c0.023,0.051,0.063,0.067,0.104,0.056
			c1.121-0.308,2.464-0.487,3.762-0.391C72.554,17.552,72.602,17.481,72.561,17.365"/>
	</g>
</g>
</svg>
