<?xml version="1.0" encoding="UTF-8"?>
<svg width="110.37mm" height="110.37mm" version="1.1" viewBox="0 0 110.36904 110.36904" xmlns="http://www.w3.org/2000/svg" xmlns:cc="http://creativecommons.org/ns#" xmlns:dc="http://purl.org/dc/elements/1.1/" xmlns:rdf="http://www.w3.org/1999/02/22-rdf-syntax-ns#">
	<metadata>
		<rdf:RDF>
			<cc:Work rdf:about="">
				<dc:format>image/svg+xml</dc:format>
				<dc:type rdf:resource="http://purl.org/dc/dcmitype/StillImage"/>
				<dc:title/>
			</cc:Work>
		</rdf:RDF>
	</metadata>
	<g transform="translate(-43.089 -111.04)">
		<rect x="43.089" y="111.04" width="110.37" height="110.37" stroke-width=".26458"/>
		<g fill="#fff">
			<path d="m70.081 171.06q0-6.0035-2.3648-9.4046-2.3366-3.4306-6.4468-3.4306t-6.475 3.4306q-2.3366 3.401-2.3366 9.4046t2.3366 9.4341q2.3648 3.401 6.475 3.401t6.4468-3.401q2.3648-3.4306 2.3648-9.4341zm-17.623-11.563q1.6328-2.9574 4.1102-4.377 2.5055-1.4491 5.9683-1.4491 5.743 0 9.3184 4.791 3.6035 4.791 3.6035 12.599 0 7.8076-3.6035 12.599-3.5753 4.791-9.3184 4.791-3.4627 0-5.9683-1.4196-2.4774-1.4491-4.1102-4.4066v4.9685h-5.2081v-46.017h5.2081z"/>
			<path d="m97.744 163.14q-3.8287 0-6.0809 2.7504-2.224 2.7504-2.224 7.5414 0 4.7614 2.224 7.5414 2.2522 2.7504 6.0809 2.7504 3.8287 0 6.0528-2.7504 2.2522-2.78 2.2522-7.5414 0-4.791-2.2522-7.5414-2.224-2.7504-6.0528-2.7504zm11.289-18.72v5.4416q-2.1396-1.0647-4.3355-1.6266-2.1677-0.5619-4.3073-0.5619-5.6304 0-8.6146 3.9925-2.956 3.9925-3.3783 12.066 1.661-2.573 4.1665-3.9334 2.5055-1.39 5.5178-1.39 6.3343 0 9.9941 4.0517 3.6879 4.0221 3.6879 10.972 0 6.802-3.8287 10.913-3.8287 4.1108-10.191 4.1108-7.2914 0-11.148-5.8557-3.8568-5.8853-3.8568-17.035 0-10.469 4.7296-16.68 4.7296-6.2401 12.697-6.2401 2.1396 0 4.3073 0.44361 2.1959 0.44361 4.5607 1.3308z"/>
			<path d="m137.32 148.64-14.358 23.571h14.358zm-1.4921-5.205h7.1506v28.776h5.9964v4.9684h-5.9964v10.41h-5.6586v-10.41h-18.975v-5.7669z"/>
		</g>
	</g>
</svg>
