<svg id="svg2" xmlns="http://www.w3.org/2000/svg" height="145mm" width="145mm" version="1.1" viewBox="0 0 513.77953 513.77951">
 <g id="layer1" transform="translate(-87.403 -17.44)">
  <g id="text3336">
   <path id="path3372" d="m145.34 318.08v-51.12q0-10.98-3.06-15.84t-11.16-4.86q-5.94 0-10.98 4.14-4.86 3.96-6.48 10.26v57.42h-23.4v-126h23.4v46.08h0.72q4.32-5.76 10.62-9.18t16.02-3.42q6.84 0 12.06 1.8t8.64 5.94q3.6 4.14 5.22 11.34 1.8 7.02 1.8 17.46v55.98h-23.4z"/>
   <path id="path3374" d="m178.99 228.08h12.42v-16.92l23.4-6.66v23.58h21.96v19.8h-21.96v34.56q0 9.36 1.8 13.5 1.98 3.96 7.2 3.96 3.6 0 6.12-0.72 2.7-0.72 5.94-2.16l4.14 18q-4.86 2.34-11.34 3.96t-13.14 1.62q-12.42 0-18.36-6.3-5.76-6.48-5.76-21.06v-45.36h-12.42v-19.8z"/>
   <path id="path3376" d="m240.51 228.08h12.42v-16.92l23.4-6.66v23.58h21.96v19.8h-21.96v34.56q0 9.36 1.8 13.5 1.98 3.96 7.2 3.96 3.6 0 6.12-0.72 2.7-0.72 5.94-2.16l4.14 18q-4.86 2.34-11.34 3.96t-13.14 1.62q-12.42 0-18.36-6.3-5.76-6.48-5.76-21.06v-45.36h-12.42v-19.8z"/>
   <path id="path3378" d="m312.8 228.08h17.1l2.7 10.8h0.72q4.68-6.84 10.98-10.08 6.48-3.24 15.66-3.24 16.92 0 25.38 10.8 8.46 10.62 8.46 34.38 0 11.52-2.7 20.88-2.7 9.18-8.1 15.66-5.22 6.48-12.96 9.9-7.56 3.42-17.46 3.42-5.58 0-9.18-0.9-3.6-0.72-7.2-2.52v36.9h-23.4v-126zm40.14 17.28q-6.84 0-10.8 3.42-3.78 3.42-5.94 10.26v37.44q2.52 1.98 5.4 3.24 3.06 1.08 7.92 1.08 10.08 0 15.12-7.02 5.04-7.2 5.04-23.58 0-11.88-3.96-18.36t-12.78-6.48z"/>
   <path id="path3380" d="m416.66 241.04q0-6.3 3.96-9.9 3.96-3.78 10.44-3.78 6.84 0 10.8 3.78 3.96 3.6 3.96 9.9t-3.96 10.08-10.8 3.78q-6.48 0-10.44-3.78t-3.96-10.08zm0 65.16q0-6.3 3.96-9.9 3.96-3.78 10.44-3.78 6.84 0 10.8 3.78 3.96 3.6 3.96 9.9t-3.96 10.08-10.8 3.78q-6.48 0-10.44-3.78t-3.96-10.08z"/>
   <path id="path3382" d="m508.38 189.92 17.64 7.92-64.26 145.44-17.64-8.28 64.26-145.08z"/>
   <path id="path3384" d="m581.85 189.92 17.64 7.92-64.26 145.44-17.64-8.28 64.26-145.08z"/>
  </g>
  <text id="text3340" style="word-spacing:0px;letter-spacing:0px" xml:space="preserve" font-size="40px" font-stretch="condensed" line-height="125%" y="92.362206" x="-511.42856" font-family="Impact" fill="#000000"><tspan id="tspan3342" x="-511.42856" y="92.362206"/></text>
  <flowRoot id="flowRoot3344" style="word-spacing:0px;letter-spacing:0px" xml:space="preserve" font-size="40px" font-stretch="condensed" line-height="125%" font-family="Impact" fill="#000000"><flowRegion id="flowRegion3346"><rect id="rect3348" height="57.143" width="225.71" y="489.51" x="74.286"/></flowRegion><flowPara id="flowPara3350"/></flowRoot>
 </g>
</svg>
