<?xml version="1.0" encoding="utf-8"?>
<!-- Generated by IcoMoon.io -->
<!DOCTYPE svg PUBLIC "-//W3C//DTD SVG 1.1//EN" "http://www.w3.org/Graphics/SVG/1.1/DTD/svg11.dtd">
<svg version="1.1" xmlns="http://www.w3.org/2000/svg" xmlns:xlink="http://www.w3.org/1999/xlink" width="48" height="48" viewBox="0 0 48 48">
<path fill="#000000" d="M45.75 36h-0.75v-9.75c0-2.895-2.355-5.25-5.25-5.25h-12.75v-6h0.75c1.237 0 2.25-1.013 2.25-2.25v-7.5c0-1.238-1.013-2.25-2.25-2.25h-7.5c-1.237 0-2.25 1.012-2.25 2.25v7.5c0 1.237 1.013 2.25 2.25 2.25h0.75v6h-12.75c-2.895 0-5.25 2.355-5.25 5.25v9.75h-0.75c-1.237 0-2.25 1.013-2.25 2.25v7.5c0 1.237 1.013 2.25 2.25 2.25h7.5c1.238 0 2.25-1.013 2.25-2.25v-7.5c0-1.237-1.012-2.25-2.25-2.25h-0.75v-9h12v9h-0.75c-1.237 0-2.25 1.013-2.25 2.25v7.5c0 1.237 1.013 2.25 2.25 2.25h7.5c1.237 0 2.25-1.013 2.25-2.25v-7.5c0-1.237-1.013-2.25-2.25-2.25h-0.75v-9h12v9h-0.75c-1.237 0-2.25 1.013-2.25 2.25v7.5c0 1.237 1.013 2.25 2.25 2.25h7.5c1.237 0 2.25-1.013 2.25-2.25v-7.5c0-1.237-1.013-2.25-2.25-2.25z"></path>
</svg>
