<?xml version="1.0" encoding="utf-8"?>
<!-- Generated by IcoMoon.io -->
<!DOCTYPE svg PUBLIC "-//W3C//DTD SVG 1.1//EN" "http://www.w3.org/Graphics/SVG/1.1/DTD/svg11.dtd">
<svg version="1.1" xmlns="http://www.w3.org/2000/svg" xmlns:xlink="http://www.w3.org/1999/xlink" width="32" height="32" viewBox="0 0 32 32">
<path fill="#000000" d="M13.333 3.4v10.667q0 0.56-0.387 0.947t-0.947 0.387h-10.667q-0.56 0-0.947-0.387t-0.387-0.947v-10.667q0-0.56 0.387-0.947t0.947-0.387h10.667q0.56 0 0.947 0.387t0.387 0.947zM29.333 3.4v10.667q0 0.56-0.387 0.947t-0.947 0.387h-10.667q-0.56 0-0.947-0.387t-0.387-0.947v-10.667q0-0.56 0.387-0.947t0.947-0.387h10.667q0.56 0 0.947 0.387t0.387 0.947zM13.333 19.4v10.667q0 0.56-0.387 0.947t-0.947 0.387h-10.667q-0.56 0-0.947-0.387t-0.387-0.947v-10.667q0-0.56 0.387-0.947t0.947-0.387h10.667q0.56 0 0.947 0.387t0.387 0.947zM29.333 19.4v10.667q0 0.56-0.387 0.947t-0.947 0.387h-10.667q-0.56 0-0.947-0.387t-0.387-0.947v-10.667q0-0.56 0.387-0.947t0.947-0.387h10.667q0.56 0 0.947 0.387t0.387 0.947z"></path>
</svg>
