<?xml version="1.0" encoding="UTF-8" standalone="no"?>
<svg
   xmlns:dc="http://purl.org/dc/elements/1.1/"
   xmlns:cc="http://creativecommons.org/ns#"
   xmlns:rdf="http://www.w3.org/1999/02/22-rdf-syntax-ns#"
   xmlns:svg="http://www.w3.org/2000/svg"
   xmlns="http://www.w3.org/2000/svg"
   viewBox="0 0 482 439"
   height="439"
   width="482"
   xml:space="preserve"
   id="svg3718"
   version="1.1"><metadata
     id="metadata3724"><rdf:RDF><cc:Work
         rdf:about=""><dc:format>image/svg+xml</dc:format><dc:type
           rdf:resource="http://purl.org/dc/dcmitype/StillImage" /><dc:title></dc:title></cc:Work></rdf:RDF></metadata><defs
     id="defs3722"><clipPath
       id="clipPath3734"
       clipPathUnits="userSpaceOnUse"><path
         id="path3732"
         d="M 0,329.25 H 361.5 V 0 H 0 Z" /></clipPath></defs><g
     transform="matrix(1.3333333,0,0,-1.3333333,0,439)"
     id="g3726"><g
       id="g3728"><g
         clip-path="url(#clipPath3734)"
         id="g3730"><g
           transform="translate(344.626,78.6162)"
           id="g3736"><path
             id="path3738"
             style="fill:#066da5;fill-opacity:1;fill-rule:evenodd;stroke:none"
             d="m 0,0 c -0.915,0.881 -2.067,1.574 -3.455,2.083 -1.39,0.505 -2.909,0.858 -4.559,1.055 -1.652,0.196 -3.197,0.292 -4.634,0.292 -3.268,0 -6.342,-0.523 -9.217,-1.568 -2.876,-1.048 -5.539,-2.549 -7.992,-4.511 v 0.981 c 0,1.403 -0.497,2.605 -1.495,3.604 -0.995,0.997 -2.2,1.494 -3.603,1.494 -1.44,0 -2.656,-0.497 -3.653,-1.494 -0.996,-0.999 -1.496,-2.201 -1.496,-3.604 v -44.713 c 0,-1.406 0.5,-2.606 1.496,-3.603 0.997,-0.997 2.213,-1.495 3.653,-1.495 1.403,0 2.608,0.498 3.603,1.495 0.998,0.997 1.495,2.197 1.495,3.603 v 22.357 c 0,2.384 0.452,4.625 1.348,6.717 0.9,2.091 2.125,3.911 3.677,5.466 1.554,1.552 3.375,2.777 5.468,3.676 2.09,0.899 4.329,1.349 6.716,1.349 2.419,0 4.657,-0.409 6.717,-1.226 0.815,-0.36 1.536,-0.538 2.157,-0.538 0.716,0 1.387,0.128 2.01,0.392 0.618,0.26 1.16,0.627 1.618,1.102 0.457,0.473 0.824,1.021 1.102,1.644 0.278,0.618 0.418,1.289 0.418,2.009 C 1.374,-2.028 0.915,-0.883 0,0 m -88.54,-18.925 c 0.52,1.796 1.323,3.437 2.4,4.927 1.079,1.486 2.353,2.762 3.825,3.825 1.472,1.059 3.089,1.887 4.854,2.476 1.764,0.587 3.578,0.881 5.442,0.881 1.863,0 3.667,-0.294 5.415,-0.881 1.749,-0.589 3.352,-1.417 4.804,-2.476 1.456,-1.063 2.732,-2.339 3.824,-3.825 1.098,-1.49 1.922,-3.131 2.479,-4.927 z m 35.936,14.316 c -5.428,5.36 -11.9,8.039 -19.415,8.039 -7.585,0 -14.057,-2.679 -19.415,-8.039 -5.363,-5.364 -8.042,-11.832 -8.042,-19.415 0,-7.583 2.679,-14.055 8.042,-19.415 5.358,-5.361 11.83,-8.04 19.415,-8.04 6.894,0 12.875,2.222 17.944,6.667 0.98,1.012 1.471,2.237 1.471,3.677 0,1.472 -0.484,2.689 -1.449,3.654 -0.963,0.962 -2.179,1.446 -3.651,1.446 -1.274,-0.034 -2.402,-0.461 -3.382,-1.276 -1.538,-1.307 -3.206,-2.289 -5.002,-2.941 -1.801,-0.654 -3.774,-0.981 -5.931,-0.981 -1.898,0 -3.719,0.295 -5.469,0.883 -1.746,0.589 -3.351,1.412 -4.804,2.476 -1.454,1.061 -2.721,2.335 -3.798,3.824 -1.079,1.487 -1.898,3.129 -2.45,4.927 h 38.827 c 1.436,0 2.654,0.482 3.651,1.447 0.998,0.963 1.498,2.182 1.498,3.652 0,3.79 -0.673,7.311 -2.011,10.565 -1.342,3.252 -3.352,6.202 -6.029,8.85 m -51.511,2.941 c 0,0.687 -0.137,1.339 -0.415,1.96 -0.279,0.621 -0.646,1.168 -1.105,1.644 -0.458,0.471 -0.997,0.838 -1.618,1.103 -0.62,0.261 -1.291,0.391 -2.01,0.391 -1.013,0 -1.928,-0.263 -2.745,-0.783 l -29.316,-19.073 v 38.241 c 0,1.438 -0.5,2.655 -1.497,3.654 -0.995,0.995 -2.199,1.495 -3.604,1.495 -1.44,0 -2.656,-0.5 -3.651,-1.495 -0.997,-0.999 -1.497,-2.216 -1.497,-3.654 v -68.146 c 0,-1.405 0.5,-2.617 1.497,-3.628 0.995,-1.014 2.211,-1.52 3.651,-1.52 1.405,0 2.609,0.506 3.604,1.52 0.997,1.011 1.497,2.223 1.497,3.628 v 17.699 l 5.98,3.92 22.652,-25.443 c 0.912,-0.884 2.057,-1.324 3.429,-1.324 0.719,0 1.39,0.13 2.01,0.392 0.621,0.261 1.16,0.628 1.618,1.103 0.459,0.472 0.826,1.022 1.105,1.642 0.278,0.619 0.415,1.277 0.415,1.961 0,1.339 -0.475,2.532 -1.421,3.58 l -21.081,23.728 20.542,13.336 c 1.305,0.883 1.96,2.236 1.96,4.069 m -84.207,-10.173 c 1.568,1.552 3.398,2.777 5.49,3.676 2.093,0.899 4.332,1.349 6.719,1.349 2.156,0 4.148,-0.361 5.981,-1.078 1.828,-0.72 3.578,-1.784 5.244,-3.187 0.981,-0.785 2.092,-1.178 3.334,-1.178 1.471,0 2.688,0.49 3.653,1.472 0.964,0.981 1.447,2.207 1.447,3.677 0,1.535 -0.589,2.827 -1.766,3.874 -5.034,4.443 -10.997,6.666 -17.893,6.666 -7.586,0 -14.057,-2.679 -19.415,-8.039 -5.361,-5.364 -8.042,-11.832 -8.042,-19.415 0,-7.583 2.681,-14.055 8.042,-19.415 5.358,-5.361 11.829,-8.04 19.415,-8.04 6.862,0 12.827,2.222 17.893,6.667 1.079,1.081 1.617,2.335 1.617,3.775 0,1.473 -0.483,2.688 -1.444,3.653 -0.965,0.964 -2.184,1.447 -3.653,1.447 -1.242,-0.034 -2.321,-0.392 -3.236,-1.079 -1.634,-1.406 -3.368,-2.46 -5.196,-3.163 -1.833,-0.703 -3.825,-1.054 -5.981,-1.054 -2.387,0 -4.626,0.45 -6.719,1.348 -2.092,0.9 -3.922,2.125 -5.49,3.677 -1.57,1.552 -2.804,3.375 -3.701,5.468 -0.899,2.09 -1.349,4.329 -1.349,6.716 0,2.384 0.45,4.625 1.349,6.717 0.897,2.091 2.131,3.911 3.701,5.466 m -31.676,-18.827 c -0.899,-2.076 -2.127,-3.897 -3.678,-5.465 -1.552,-1.57 -3.376,-2.813 -5.466,-3.726 -2.092,-0.917 -4.331,-1.374 -6.718,-1.374 -2.419,0 -4.673,0.457 -6.764,1.374 -2.092,0.913 -3.906,2.147 -5.442,3.701 -1.538,1.552 -2.755,3.373 -3.654,5.466 -0.899,2.089 -1.348,4.315 -1.348,6.668 0,2.352 0.449,4.575 1.348,6.668 0.899,2.089 2.116,3.913 3.654,5.467 1.536,1.549 3.35,2.784 5.442,3.701 2.091,0.913 4.345,1.372 6.764,1.372 2.387,0 4.626,-0.459 6.718,-1.372 2.09,-0.917 3.914,-2.159 5.466,-3.726 1.551,-1.57 2.779,-3.392 3.678,-5.468 0.897,-2.076 1.347,-4.29 1.347,-6.642 0,-2.353 -0.45,-4.569 -1.347,-6.644 m 3.553,26.059 c -5.427,5.36 -11.898,8.039 -19.415,8.039 -7.583,0 -14.055,-2.679 -19.412,-8.039 -5.363,-5.364 -8.042,-11.832 -8.042,-19.415 0,-7.583 2.679,-14.055 8.042,-19.415 5.357,-5.361 11.829,-8.04 19.412,-8.04 7.517,0 13.988,2.679 19.415,8.04 5.361,5.295 8.042,11.767 8.042,19.415 -0.034,3.79 -0.712,7.304 -2.036,10.54 -1.323,3.236 -3.325,6.193 -6.006,8.875 m -63.398,-26.059 c -0.899,-2.076 -2.124,-3.897 -3.676,-5.465 -1.552,-1.57 -3.375,-2.813 -5.465,-3.726 -2.093,-0.917 -4.331,-1.374 -6.719,-1.374 -2.418,0 -4.673,0.457 -6.765,1.374 -2.093,0.913 -3.907,2.147 -5.441,3.701 -1.538,1.552 -2.754,3.373 -3.653,5.466 -0.899,2.089 -1.349,4.315 -1.349,6.668 0,2.352 0.45,4.575 1.349,6.668 0.899,2.089 2.115,3.913 3.653,5.467 1.534,1.549 3.348,2.784 5.441,3.701 2.092,0.913 4.347,1.372 6.765,1.372 2.388,0 4.626,-0.459 6.719,-1.372 2.09,-0.917 3.913,-2.159 5.465,-3.726 1.552,-1.57 2.777,-3.392 3.676,-5.468 0.9,-2.076 1.349,-4.29 1.349,-6.642 0,-2.353 -0.449,-4.569 -1.349,-6.644 m 6.449,57.632 c -1.472,0 -2.69,-0.485 -3.653,-1.447 -0.966,-0.965 -1.447,-2.182 -1.447,-3.651 V -2.6 c -4.968,4.022 -10.705,6.03 -17.209,6.03 -7.583,0 -14.054,-2.679 -19.415,-8.039 -5.36,-5.364 -8.039,-11.832 -8.039,-19.415 0,-7.583 2.679,-14.055 8.039,-19.415 5.361,-5.361 11.832,-8.04 19.415,-8.04 7.517,0 13.989,2.679 19.415,8.04 5.361,5.295 8.04,11.767 8.04,19.415 v 45.89 c 0,1.469 -0.498,2.686 -1.495,3.651 -0.997,0.962 -2.213,1.447 -3.651,1.447 m 142.279,113.243 h 25.102 v 22.82 h -25.102 z m -29.666,0 h 25.102 v 22.82 h -25.102 z m -29.665,0 h 25.102 v 22.82 h -25.102 z m -29.666,0 h 25.102 v 22.82 h -25.102 z m -29.666,0 h 25.102 v 22.82 h -25.102 z m 29.666,27.383 h 25.102 v 22.82 h -25.102 z m 29.666,0 h 25.102 v 22.82 h -25.102 z m 29.665,0 h 25.102 v 22.82 h -25.102 z m 0,27.384 h 25.102 v 22.82 h -25.102 z m 135.273,-44.843 -5.068,3.382 c -5.484,3.667 -18.077,5.011 -27.772,3.183 -1.248,9.13 -6.337,17.047 -15.592,24.203 l -5.322,3.548 -3.551,-5.326 c -4.545,-6.855 -6.816,-16.352 -6.072,-25.46 0.335,-3.203 1.388,-8.934 4.685,-13.973 -3.295,-1.77 -9.808,-4.209 -18.391,-4.045 h -165.087 l -0.323,-1.901 c -1.552,-9.153 -1.518,-37.714 17.025,-59.667 14.096,-16.686 35.229,-25.147 62.811,-25.147 59.795,0 104.033,27.525 124.749,77.557 8.146,-0.162 25.687,-0.047 34.697,17.167 0.234,0.395 0.775,1.429 2.349,4.69 z" /></g><g
           transform="translate(323.4053,29.5137)"
           id="g3740"><path
             id="path3742"
             style="fill:#066da5;fill-opacity:1;fill-rule:nonzero;stroke:none"
             d="M 0,0 H 0.233 C 0.507,0 0.728,0.091 0.728,0.312 0.728,0.507 0.585,0.638 0.272,0.638 0.143,0.638 0.052,0.624 0,0.61 Z m -0.013,-1.209 h -0.494 v 2.132 c 0.195,0.039 0.468,0.065 0.819,0.065 0.403,0 0.584,-0.065 0.741,-0.156 C 1.17,0.741 1.261,0.572 1.261,0.364 1.261,0.13 1.079,-0.052 0.819,-0.13 v -0.026 c 0.207,-0.077 0.325,-0.234 0.39,-0.52 0.064,-0.325 0.103,-0.455 0.156,-0.533 H 0.832 c -0.065,0.078 -0.104,0.272 -0.169,0.521 -0.039,0.233 -0.169,0.337 -0.442,0.337 h -0.234 z m -1.313,1.118 c 0,-0.949 0.702,-1.703 1.664,-1.703 0.935,0 1.625,0.754 1.625,1.69 0,0.949 -0.69,1.716 -1.638,1.716 -0.949,0 -1.651,-0.767 -1.651,-1.703 m 3.835,0 c 0,-1.209 -0.949,-2.158 -2.184,-2.158 -1.222,0 -2.197,0.949 -2.197,2.158 0,1.183 0.975,2.132 2.197,2.132 1.235,0 2.184,-0.949 2.184,-2.132" /></g></g></g></g></svg>