<?xml version="1.0" encoding="UTF-8" standalone="no"?>
<svg
   xmlns:dc="http://purl.org/dc/elements/1.1/"
   xmlns:cc="http://creativecommons.org/ns#"
   xmlns:rdf="http://www.w3.org/1999/02/22-rdf-syntax-ns#"
   xmlns:svg="http://www.w3.org/2000/svg"
   xmlns="http://www.w3.org/2000/svg"
   xmlns:sodipodi="http://sodipodi.sourceforge.net/DTD/sodipodi-0.dtd"
   xmlns:inkscape="http://www.inkscape.org/namespaces/inkscape"
   version="1.2"
   width="76.2mm"
   height="76.2mm"
   viewBox="0 0 7620 7620"
   preserveAspectRatio="xMidYMid"
   fill-rule="evenodd"
   clip-path="url(#presentation_clip_path)"
   stroke-width="28.222"
   stroke-linejoin="round"
   xml:space="preserve"
   id="svg2"
   inkscape:version="0.48.5 r10040"
   sodipodi:docname="openstack-logo-2.svg"><metadata
     id="metadata899"><rdf:RDF><cc:Work
         rdf:about=""><dc:format>image/svg+xml</dc:format><dc:type
           rdf:resource="http://purl.org/dc/dcmitype/StillImage" /><dc:title /></cc:Work></rdf:RDF></metadata><sodipodi:namedview
     pagecolor="#ffffff"
     bordercolor="#666666"
     borderopacity="1"
     objecttolerance="10"
     gridtolerance="10"
     guidetolerance="10"
     inkscape:pageopacity="0"
     inkscape:pageshadow="2"
     inkscape:window-width="1680"
     inkscape:window-height="1005"
     id="namedview897"
     showgrid="false"
     inkscape:zoom="2.5809027"
     inkscape:cx="103.09574"
     inkscape:cy="157.4204"
     inkscape:window-x="0"
     inkscape:window-y="0"
     inkscape:window-maximized="1"
     inkscape:current-layer="svg2" /><defs
     class="ClipPathGroup"
     id="defs4"><filter
       inkscape:collect="always"
       id="filter4132"><feGaussianBlur
         inkscape:collect="always"
         stdDeviation="32.166797"
         id="feGaussianBlur4134" /></filter><filter
       inkscape:collect="always"
       id="filter4294"
       x="-0.15251993"
       width="1.3050399"
       y="-0.15519565"
       height="1.3103913"><feGaussianBlur
         inkscape:collect="always"
         stdDeviation="0.84785644"
         id="feGaussianBlur4296" /></filter></defs><defs
     class="TextShapeIndex"
     id="defs9" /><defs
     class="EmbeddedBulletChars"
     id="defs13" /><defs
     class="TextEmbeddedBitmaps"
     id="defs42" /><g
     id="g3101"
     transform="translate(25.75,31.75)"><g
       id="g4355"><path
         transform="matrix(0.99775769,-0.06692979,0.67910941,0.73403706,280.50104,-39.283459)"
         style="opacity:0.8423423;fill:#000000;fill-opacity:0.44545456;stroke:none;filter:url(#filter4132)"
         d="m -1687.0513,4397.1519 431.8184,0 c 79.6968,0 143.857,64.1602 143.857,143.857 l 0,835.5527 c 0,79.6968 -65.0812,145.3097 -143.857,143.857 -581.8058,-5.2788 -581.7436,-0.9819 -573.352,-39.7273 l -2.3234,-939.6824 c -0.1967,-79.573 64.1602,-143.857 143.857,-143.857 z"
         id="rect3303"
         inkscape:connector-curvature="0"
         sodipodi:nodetypes="ssssccss" /><path
         d="m 4397,3390 -376,-372 c 1,0 3,-1 4,-1 l 377,372 c -2,1 -4,1 -5,1 z"
         id="path71"
         inkscape:connector-curvature="0"
         style="fill:#bb2c23;stroke:none" /><path
         d="m 4402,3389 -377,-372 c 5,0 10,-2 14,-3 l 377,372 c -5,2 -10,3 -14,3 z"
         id="path79"
         inkscape:connector-curvature="0"
         style="fill:#bd2d24;stroke:none" /><path
         d="m 4416,3386 -377,-372 c 8,-2 14,-5 21,-8 l 376,372 c -6,3 -13,6 -20,8 z"
         id="path87"
         inkscape:connector-curvature="0"
         style="fill:#c32e24;stroke:none" /><path
         d="m 4436,3378 -376,-372 c 5,-3 9,-5 13,-8 l 375,372 c -4,3 -8,6 -12,8 z"
         id="path95"
         inkscape:connector-curvature="0"
         style="fill:#bd2d24;stroke:none" /><path
         d="m 4448,3370 -376,-372 c 3,-2 5,-4 7,-6 l 376,372 c -2,2 -4,4 -7,6 z"
         id="path103"
         inkscape:connector-curvature="0"
         style="fill:#bb2c23;stroke:none" /><path
         d="m 4455,3364 -376,-372 c 2,-1 4,-3 6,-5 l 376,372 c -2,2 -4,4 -6,5 z"
         id="path111"
         inkscape:connector-curvature="0"
         style="fill:#b62b24;stroke:none" /><path
         d="m 4461,3359 -376,-372 c 1,-2 3,-3 4,-5 l 377,372 c -2,2 -3,3 -5,5 z"
         id="path119"
         inkscape:connector-curvature="0"
         style="fill:#b42924;stroke:none" /><path
         d="m 4466,3354 -377,-372 c 2,-2 3,-3 4,-5 l 377,372 c -2,2 -3,3 -4,5 z"
         id="path127"
         inkscape:connector-curvature="0"
         style="fill:#b02824;stroke:none" /><path
         d="m 4470,3349 -377,-372 c 2,-1 3,-3 4,-5 l 376,373 c -1,1 -2,3 -3,4 z"
         id="path135"
         inkscape:connector-curvature="0"
         style="fill:#ad2823;stroke:none" /><path
         d="m 4473,3345 -376,-373 c 1,-1 2,-3 3,-4 l 376,372 c -1,1 -2,3 -3,5 z"
         id="path143"
         inkscape:connector-curvature="0"
         style="fill:#a82722;stroke:none" /><path
         d="m 4476,3340 -376,-372 c 1,-2 2,-3 3,-5 l 376,372 c -1,2 -2,3 -3,5 z"
         id="path151"
         inkscape:connector-curvature="0"
         style="fill:#a52522;stroke:none" /><path
         d="m 4479,3335 -376,-372 c 0,-2 1,-3 2,-5 l 376,372 c -1,2 -1,4 -2,5 z"
         id="path159"
         inkscape:connector-curvature="0"
         style="fill:#a02421;stroke:none" /><path
         d="m 4481,3330 -376,-372 c 1,-1 2,-3 2,-5 l 376,372 c 0,2 -1,4 -2,5 z"
         id="path167"
         inkscape:connector-curvature="0"
         style="fill:#9b2420;stroke:none" /><path
         d="m 4483,3326 -376,-373 c 1,-1 2,-3 2,-5 l 376,373 c 0,1 -1,3 -2,5 z"
         id="path175"
         inkscape:connector-curvature="0"
         style="fill:#982420;stroke:none" /><path
         d="m 4485,3321 -376,-373 c 1,-1 1,-3 2,-5 l 376,372 c -1,2 -1,4 -2,6 z"
         id="path183"
         inkscape:connector-curvature="0"
         style="fill:#952220;stroke:none" /><path
         d="m 4487,3315 -376,-372 c 0,-1 1,-3 1,-5 l 377,372 c -1,2 -1,4 -2,5 z"
         id="path191"
         inkscape:connector-curvature="0"
         style="fill:#912120;stroke:none" /><path
         d="m 4489,3310 -377,-372 c 1,-2 1,-4 2,-6 l 376,372 c 0,2 -1,4 -1,6 z"
         id="path199"
         inkscape:connector-curvature="0"
         style="fill:#8e201e;stroke:none" /><path
         d="m 4490,3304 -376,-372 c 0,-2 0,-4 1,-7 l 376,372 c 0,2 -1,5 -1,7 z"
         id="path207"
         inkscape:connector-curvature="0"
         style="fill:#8b1f1e;stroke:none" /><path
         d="m 4491,3297 -376,-372 c 0,-2 0,-5 0,-7 l 376,371 c 0,3 0,6 0,8 z"
         id="path215"
         inkscape:connector-curvature="0"
         style="fill:#871f1c;stroke:none" /><path
         d="m 4491,3289 -376,-371 c 0,-1 0,-2 0,-3 l 376,373 0,1 z"
         id="path223"
         inkscape:connector-curvature="0"
         style="fill:#841f1c;stroke:none" /><path
         d="m 4491,3157 -376,-372 569,-50 375,371 -568,51 z"
         id="path231"
         inkscape:connector-curvature="0"
         style="fill:#871f1c;stroke:none" /><path
         d="m 4491,3157 -376,-372 569,-50 375,371 -568,51 z"
         id="path236"
         inkscape:connector-curvature="0"
         style="fill:#871f1c;stroke:none" /><path
         d="m 4491,3288 -376,-373 0,-130 376,371 0,132 z"
         id="path241"
         inkscape:connector-curvature="0"
         style="fill:#871f1c;stroke:none" /><path
         d="m 2999,3512 -376,-372 1399,-122 375,372 -1398,122 z"
         id="path246"
         inkscape:connector-curvature="0"
         style="fill:#c32e24;stroke:none" /><path
         d="m 2930,3488 -376,-372 c 1,2 2,3 4,3 l 376,373 c -1,-1 -3,-3 -4,-4 z"
         id="path251"
         inkscape:connector-curvature="0"
         style="fill:#912120;stroke:none" /><path
         d="m 2934,3492 -376,-373 c 2,2 4,4 6,6 l 376,372 c -2,-2 -4,-3 -6,-5 z"
         id="path259"
         inkscape:connector-curvature="0"
         style="fill:#952220;stroke:none" /><path
         d="m 2940,3497 -376,-372 c 1,1 3,2 5,3 l 377,372 c -2,-1 -4,-2 -6,-3 z"
         id="path267"
         inkscape:connector-curvature="0"
         style="fill:#982420;stroke:none" /><path
         d="m 2946,3500 -377,-372 c 2,1 4,2 6,3 l 376,372 c -2,0 -4,-1 -5,-3 z"
         id="path275"
         inkscape:connector-curvature="0"
         style="fill:#9b2420;stroke:none" /><path
         d="m 2951,3503 -376,-372 c 2,1 4,2 5,3 l 377,372 c -2,-1 -4,-2 -6,-3 z"
         id="path283"
         inkscape:connector-curvature="0"
         style="fill:#a02421;stroke:none" /><path
         d="m 2957,3506 -377,-372 c 2,0 4,1 6,2 l 376,372 c -2,-1 -3,-1 -5,-2 z"
         id="path291"
         inkscape:connector-curvature="0"
         style="fill:#a52522;stroke:none" /><path
         d="m 2962,3508 -376,-372 c 2,1 4,1 6,2 l 376,372 c -2,-1 -4,-1 -6,-2 z"
         id="path299"
         inkscape:connector-curvature="0"
         style="fill:#a82722;stroke:none" /><path
         d="m 2968,3510 -376,-372 c 2,0 4,1 6,1 l 376,372 c -2,0 -4,-1 -6,-1 z"
         id="path307"
         inkscape:connector-curvature="0"
         style="fill:#ad2823;stroke:none" /><path
         d="m 2974,3511 -376,-372 c 2,0 4,1 6,1 l 376,372 c -2,0 -4,0 -6,-1 z"
         id="path315"
         inkscape:connector-curvature="0"
         style="fill:#b02824;stroke:none" /><path
         d="m 2980,3512 -376,-372 c 2,0 4,0 7,0 l 376,373 c -2,0 -4,-1 -7,-1 z"
         id="path323"
         inkscape:connector-curvature="0"
         style="fill:#b42924;stroke:none" /><path
         d="m 2987,3513 -376,-373 c 2,1 5,1 7,1 l 377,372 c -3,0 -5,0 -8,0 z"
         id="path331"
         inkscape:connector-curvature="0"
         style="fill:#b62b24;stroke:none" /><path
         d="m 2995,3513 -377,-372 c 2,-1 3,-1 5,-1 l 376,372 c -2,1 -3,1 -4,1 z"
         id="path339"
         inkscape:connector-curvature="0"
         style="fill:#bb2c23;stroke:none" /><path
         style="fill:none;stroke:#000000;stroke-width:1.60000002;stroke-linecap:butt;stroke-linejoin:miter;stroke-miterlimit:4;stroke-opacity:1;stroke-dasharray:none;filter:url(#filter4294)"
         d="m 28.293332,142.33496 13.341571,13.11155"
         id="path4228"
         inkscape:connector-curvature="0"
         transform="matrix(28.222222,0,0,28.222222,1186.0949,-321.30847)" /><path
         d="m 2384,4075 -376,-373 c -27,-26 -44,-62 -47,-103 l 376,371 c 3,41 21,78 47,105 z"
         id="path347"
         inkscape:connector-curvature="0"
         style="fill:#7f1d1c;stroke:none" /><path
         d="m 2337,3971 -376,-372 c -1,-5 -1,-10 -1,-14 l 377,371 c -1,5 0,10 0,15 z"
         id="path355"
         inkscape:connector-curvature="0"
         style="fill:#841f1c;stroke:none" /><path
         d="m 5059,3106 -1,612 c 0,99 -81,187 -181,196 l -2362,207 c -99,8 -180,-65 -179,-165 l 1,-611 567,-50 0,131 c 0,51 42,90 94,85 l 1399,-122 c 52,-5 94,-50 94,-102 l 0,-131 568,-50 z"
         id="path363"
         inkscape:connector-curvature="0"
         style="fill:#d93023;stroke:none" /><path
         d="m 2337,3346 -376,-372 569,-50 375,372 -568,50 z"
         id="path368"
         inkscape:connector-curvature="0"
         style="fill:#871f1c;stroke:none" /><path
         d="m 2337,3346 -376,-372 569,-50 375,372 -568,50 z"
         id="path373"
         inkscape:connector-curvature="0"
         style="fill:#871f1c;stroke:none" /><path
         d="m 2337,3956 -377,-370 2,-612 376,371 -1,611 z"
         id="path378"
         inkscape:connector-curvature="0"
         style="fill:#871f1c;stroke:none" /><path
         d="m 5055,2075 4,900 -568,50 -4,-900 568,-50 z"
         id="path383"
         inkscape:connector-curvature="0"
         style="fill:#e63f46;stroke:none" /><path
         d="m 5055,2075 4,900 -568,50 -4,-900 568,-50 z"
         id="path388"
         inkscape:connector-curvature="0"
         style="fill:#e23535;stroke:none" /><path
         d="m 4492,3025 -376,-371 -4,-900 376,372 4,899 z"
         id="path393"
         inkscape:connector-curvature="0"
         style="fill:#871f1c;stroke:none" /><path
         d="m 4488,2126 -376,-372 568,-50 375,372 -567,50 z"
         id="path398"
         inkscape:connector-curvature="0"
         style="fill:#871f1c;stroke:none" /><path
         d="m 4488,2126 -376,-372 568,-50 375,372 -567,50 z"
         id="path403"
         inkscape:connector-curvature="0"
         style="fill:#871f1c;stroke:none" /><path
         d="m 2902,2264 3,900 -568,50 -4,-901 569,-49 z"
         id="path408"
         inkscape:connector-curvature="0"
         style="fill:#e63f46;stroke:none" /><path
         d="m 2902,2264 3,900 -568,50 -4,-901 569,-49 z"
         id="path413"
         inkscape:connector-curvature="0"
         style="fill:#e23535;stroke:none" /><path
         d="m 2338,3214 -376,-372 -4,-899 376,370 4,901 z"
         id="path418"
         inkscape:connector-curvature="0"
         style="fill:#871f1c;stroke:none" /><path
         d="m 2333,2314 -375,-371 569,-50 375,371 -569,50 z"
         id="path423"
         inkscape:connector-curvature="0"
         style="fill:#871f1c;stroke:none" /><path
         d="m 4491,1992 -376,-372 0,-113 376,372 0,113 z"
         id="path428"
         inkscape:connector-curvature="0"
         style="fill:#871f1c;stroke:none" /><path
         d="m 4491,1879 -376,-372 c 0,-3 0,-5 0,-7 l 376,372 c 0,2 0,5 0,7 z"
         id="path433"
         inkscape:connector-curvature="0"
         style="fill:#841f1c;stroke:none" /><path
         d="m 4491,1872 -376,-371 c -2,-23 -11,-42 -25,-56 l 376,372 c 14,14 23,33 25,55 z"
         id="path441"
         inkscape:connector-curvature="0"
         style="fill:#7f1d1c;stroke:none" /><path
         d="M 4880,1185 4504,813 c 3,0 5,0 8,0 l 376,372 c -3,0 -5,0 -8,0 z"
         id="path449"
         inkscape:connector-curvature="0"
         style="fill:#bb2c23;stroke:none" /><path
         d="M 4888,1186 4512,814 c 5,-1 10,-1 14,0 l 376,372 c -4,0 -9,0 -14,0 z"
         id="path457"
         inkscape:connector-curvature="0"
         style="fill:#b62b24;stroke:none" /><path
         d="M 4902,1185 4526,813 c 5,0 9,0 13,1 l 377,372 c -5,-1 -9,-1 -14,-1 z"
         id="path465"
         inkscape:connector-curvature="0"
         style="fill:#b42924;stroke:none" /><path
         d="M 4916,1186 4539,814 c 5,0 9,1 13,1 l 376,373 c -4,-1 -8,-2 -12,-2 z"
         id="path473"
         inkscape:connector-curvature="0"
         style="fill:#b02824;stroke:none" /><path
         d="M 4928,1188 4552,815 c 4,1 7,2 11,3 l 376,372 c -3,-1 -7,-2 -11,-2 z"
         id="path481"
         inkscape:connector-curvature="0"
         style="fill:#ad2823;stroke:none" /><path
         d="M 4939,1190 4563,818 c 4,1 7,2 11,3 l 376,372 c -3,-1 -7,-2 -11,-3 z"
         id="path489"
         inkscape:connector-curvature="0"
         style="fill:#a82722;stroke:none" /><path
         d="M 4950,1193 4574,821 c 4,1 7,3 11,4 l 376,372 c -3,-1 -7,-2 -11,-4 z"
         id="path497"
         inkscape:connector-curvature="0"
         style="fill:#a52522;stroke:none" /><path
         d="M 4961,1197 4585,825 c 3,2 7,4 11,5 l 376,372 c -4,-2 -7,-3 -11,-5 z"
         id="path505"
         inkscape:connector-curvature="0"
         style="fill:#a02421;stroke:none" /><path
         d="M 4972,1202 4596,830 c 3,2 7,4 10,6 l 376,372 c -3,-2 -7,-4 -10,-6 z"
         id="path513"
         inkscape:connector-curvature="0"
         style="fill:#9b2420;stroke:none" /><path
         d="M 4982,1208 4606,836 c 4,3 8,5 11,8 l 376,371 c -3,-2 -7,-5 -11,-7 z"
         id="path521"
         inkscape:connector-curvature="0"
         style="fill:#982420;stroke:none" /><path
         d="M 4993,1215 4617,844 c 4,2 8,5 12,9 l 376,371 c -4,-3 -8,-6 -12,-9 z"
         id="path529"
         inkscape:connector-curvature="0"
         style="fill:#952220;stroke:none" /><path
         d="M 5005,1224 4629,853 c 2,2 5,4 7,6 l 376,372 c -2,-2 -4,-4 -7,-7 z"
         id="path537"
         inkscape:connector-curvature="0"
         style="fill:#912120;stroke:none" /><path
         d="m 2337,2179 -376,-371 2,-594 376,372 -2,593 z"
         id="path545"
         inkscape:connector-curvature="0"
         style="fill:#871f1c;stroke:none" /><path
         d="m 2518,1391 -375,-371 2362,-207 375,372 -2362,206 z"
         id="path550"
         inkscape:connector-curvature="0"
         style="fill:#c32e24;stroke:none" /><path
         d="m 2518,1390 2362,-206 c 100,-8 180,65 180,165 l -2,593 -567,50 0,-113 c 0,-52 -42,-90 -93,-86 l -1399,122 c -52,4 -95,50 -95,102 l 0,113 -568,49 2,-593 c 0,-100 81,-187 180,-196 z"
         id="path555"
         inkscape:connector-curvature="0"
         style="fill:#e63f46;stroke:none" /><path
         d="m 2518,1390 2362,-206 c 100,-8 180,65 180,165 l -2,593 -567,50 0,-113 c 0,-52 -42,-90 -93,-86 l -1399,122 c -52,4 -95,50 -95,102 l 0,113 -568,49 2,-593 c 0,-100 81,-187 180,-196 z"
         id="path560"
         inkscape:connector-curvature="0"
         style="fill:#e63f46;stroke:none" /><path
         d="m 2339,1586 -376,-372 0,-4 376,372 c 0,2 0,3 0,4 z"
         id="path565"
         inkscape:connector-curvature="0"
         style="fill:#841f1c;stroke:none" /><path
         d="m 2339,1582 -376,-372 c 0,-5 0,-10 1,-15 l 376,373 c -1,4 -1,9 -1,14 z"
         id="path573"
         inkscape:connector-curvature="0"
         style="fill:#871f1c;stroke:none" /><path
         d="m 2340,1568 -376,-373 c 0,-4 1,-8 2,-12 l 376,372 c -1,4 -2,8 -2,13 z"
         id="path581"
         inkscape:connector-curvature="0"
         style="fill:#8b1f1e;stroke:none" /><path
         d="m 2342,1555 -376,-372 c 0,-4 1,-8 2,-12 l 376,373 c -1,3 -2,7 -2,11 z"
         id="path589"
         inkscape:connector-curvature="0"
         style="fill:#8e201e;stroke:none" /><path
         d="m 2344,1544 -376,-373 c 1,-3 2,-7 3,-10 l 376,372 c -1,3 -2,7 -3,11 z"
         id="path597"
         inkscape:connector-curvature="0"
         style="fill:#912120;stroke:none" /><path
         d="m 2347,1533 -376,-372 c 1,-3 2,-7 3,-10 l 376,372 c -1,3 -2,7 -3,10 z"
         id="path605"
         inkscape:connector-curvature="0"
         style="fill:#952220;stroke:none" /><path
         d="m 2350,1523 -376,-372 c 1,-3 2,-6 4,-10 l 376,373 c -1,3 -3,6 -4,9 z"
         id="path613"
         inkscape:connector-curvature="0"
         style="fill:#982420;stroke:none" /><path
         d="m 2354,1514 -376,-373 c 1,-3 2,-6 4,-9 l 376,372 c -1,3 -3,6 -4,10 z"
         id="path621"
         inkscape:connector-curvature="0"
         style="fill:#9b2420;stroke:none" /><path
         d="m 2358,1504 -376,-372 c 1,-3 3,-6 5,-9 l 376,372 c -2,3 -3,6 -5,9 z"
         id="path629"
         inkscape:connector-curvature="0"
         style="fill:#a02421;stroke:none" /><path
         d="m 2363,1495 -376,-372 c 1,-3 3,-6 5,-9 l 376,372 c -2,3 -4,6 -5,9 z"
         id="path637"
         inkscape:connector-curvature="0"
         style="fill:#a52522;stroke:none" /><path
         d="m 2368,1486 -376,-372 c 2,-3 4,-6 6,-9 l 376,372 c -2,3 -4,6 -6,9 z"
         id="path645"
         inkscape:connector-curvature="0"
         style="fill:#a82722;stroke:none" /><path
         d="m 2374,1477 -376,-372 c 2,-3 4,-6 6,-9 l 376,372 c -2,3 -4,6 -6,9 z"
         id="path653"
         inkscape:connector-curvature="0"
         style="fill:#ad2823;stroke:none" /><path
         d="m 2380,1468 -376,-372 c 2,-3 5,-6 8,-9 l 376,372 c -3,3 -5,6 -8,9 z"
         id="path661"
         inkscape:connector-curvature="0"
         style="fill:#b02824;stroke:none" /><path
         d="m 2388,1459 -376,-372 c 3,-3 5,-6 8,-10 l 377,373 c -3,3 -6,6 -9,9 z"
         id="path669"
         inkscape:connector-curvature="0"
         style="fill:#b42924;stroke:none" /><path
         d="m 2397,1450 -377,-373 c 4,-3 7,-6 11,-10 l 376,372 c -3,4 -7,7 -10,11 z"
         id="path677"
         inkscape:connector-curvature="0"
         style="fill:#b62b24;stroke:none" /><path
         d="m 2407,1439 -376,-372 c 4,-3 9,-7 14,-11 l 376,372 c -5,4 -9,8 -14,11 z"
         id="path685"
         inkscape:connector-curvature="0"
         style="fill:#bb2c23;stroke:none" /><path
         d="m 2421,1428 -376,-372 c 7,-5 15,-10 23,-14 l 377,371 c -9,5 -16,10 -24,15 z"
         id="path693"
         inkscape:connector-curvature="0"
         style="fill:#bd2d24;stroke:none" /><path
         d="m 2445,1413 -377,-372 c 13,-6 26,-12 39,-16 l 376,372 c -13,4 -26,10 -38,16 z"
         id="path701"
         inkscape:connector-curvature="0"
         style="fill:#c32e24;stroke:none" /><path
         d="m 2483,1397 -376,-372 c 9,-2 18,-4 27,-5 l 376,372 c -9,1 -18,3 -27,5 z"
         id="path709"
         inkscape:connector-curvature="0"
         style="fill:#bd2d24;stroke:none" /><path
         d="m 2510,1392 -376,-372 c 3,-1 6,-1 9,-1 l 376,372 c -3,0 -6,0 -9,1 z"
         id="path717"
         inkscape:connector-curvature="0"
         style="fill:#bb2c23;stroke:none" /></g><g
       id="open-stack-text"><path
         id="path740"
         style="fill:#666769;stroke:none"
         d="m 3045,5108 c 0,-100 -6,-151 -7,-219 l 117,0 7,103 3,0 c 37,-68 105,-115 194,-115 118,0 205,86 205,290 l 0,568 -134,0 0,-544 c 0,-101 -20,-200 -118,-200 -56,0 -110,47 -126,136 -5,21 -7,47 -7,77 l 0,531 -134,0 0,-627 z m -274,117 c 1,-168 -61,-243 -126,-243 -89,0 -133,127 -138,243 l 264,0 z m -266,99 c 0,260 103,315 199,315 60,0 107,-15 140,-32 l 23,99 c -47,24 -119,40 -187,40 -203,0 -307,-167 -307,-425 0,-273 117,-444 286,-444 171,0 242,182 242,370 0,33 -3,56 -5,77 l -391,0 z m -660,102 c 0,25 2,49 7,70 27,121 89,142 125,142 112,0 149,-154 149,-324 0,-175 -42,-322 -150,-322 -62,0 -118,75 -125,152 -4,19 -6,42 -6,65 l 0,217 z m -132,-273 c 0,-129 -5,-204 -7,-264 l 119,0 6,109 4,0 c 47,-90 114,-121 181,-121 148,0 244,155 244,433 0,315 -129,439 -262,439 -81,0 -126,-50 -149,-97 l -4,0 0,419 -132,0 0,-918 z m -569,159 c 0,140 24,330 146,330 117,0 141,-197 141,-330 0,-129 -24,-328 -144,-328 -121,0 -143,199 -143,328 z m 421,0 c 0,326 -150,437 -282,437 -152,0 -274,-139 -274,-435 0,-308 138,-437 283,-437 153,0 273,142 273,435 z"
         inkscape:connector-curvature="0" /><path
         id="path765"
         style="fill:#d02a25;stroke:none"
         d="m 5996,5282 3,0 c 16,-33 30,-66 46,-94 l 167,-299 145,0 -223,356 244,490 -150,0 -183,-399 -49,79 0,320 -134,0 0,-1209 134,0 0,756 z m -246,432 c -30,18 -80,32 -141,32 -185,0 -309,-150 -309,-429 0,-243 122,-440 334,-440 46,0 95,12 119,26 l -26,110 c -17,-9 -52,-22 -97,-22 -136,0 -195,160 -195,326 0,197 75,316 199,316 36,0 67,-7 97,-23 l 19,104 z m -733,-418 c -70,0 -233,14 -233,197 0,112 56,151 103,151 60,0 109,-44 124,-128 4,-16 6,-33 6,-49 l 0,-171 z m 131,246 c 0,65 1,139 8,193 l -120,0 -9,-90 -5,0 c -37,66 -96,104 -169,104 -113,0 -201,-95 -201,-242 0,-213 171,-305 361,-307 l 0,-26 c 0,-114 -30,-190 -134,-190 -53,0 -100,15 -141,43 l -30,-94 c 37,-26 115,-56 199,-56 169,0 241,110 241,299 l 0,366 z m -727,-850 0,198 163,0 0,102 -163,0 0,502 c 0,110 39,140 88,140 22,0 40,-2 54,-5 l 7,103 c -25,9 -56,14 -100,14 -54,0 -101,-14 -132,-51 -35,-38 -51,-96 -51,-213 l 0,-490 -104,0 0,-102 104,0 0,-143 134,-55 z m -692,903 c 30,19 82,44 136,44 75,0 124,-48 124,-123 0,-65 -23,-108 -108,-166 -110,-70 -169,-143 -169,-239 0,-138 101,-234 232,-234 67,0 116,23 151,44 l -35,101 c -33,-23 -68,-38 -115,-38 -71,0 -108,52 -108,108 0,56 21,87 105,145 99,63 176,139 176,256 0,171 -116,253 -256,253 -61,0 -130,-19 -166,-49 l 33,-102 z"
         inkscape:connector-curvature="0" /><path
         d="m 6508,5672 8,0 c 9,0 16,-3 16,-10 0,-7 -4,-11 -15,-11 -4,0 -7,1 -9,1 l 0,20 z m 0,39 -16,0 0,-69 c 6,-1 15,-3 27,-3 13,0 19,3 23,6 5,3 7,8 7,15 0,8 -6,14 -14,16 l 0,1 c 7,2 10,8 12,17 2,11 4,14 5,17 l -16,0 c -3,-3 -4,-9 -6,-17 -1,-7 -5,-11 -14,-11 l -8,0 0,28 z m -43,-36 c 0,31 24,55 54,55 30,1 53,-24 53,-55 0,-31 -23,-57 -53,-57 -30,0 -54,26 -54,57 z m 125,0 c 0,39 -31,70 -71,70 -40,0 -72,-31 -72,-70 0,-39 32,-70 72,-70 40,0 71,31 71,70 z"
         id="registered-text"
         inkscape:connector-curvature="0"
         style="fill:#ceccc9;stroke:none" /></g><g
       id="g6904"><path
         d="m 6430,6632 c 0,46 -37,83 -83,83 l -5257,0 c -46,0 -83,-37 -83,-83 l 0,-612 c 0,-46 37,-83 83,-83 l 5257,0 c 46,0 83,37 83,83 l 0,612 z"
         id="path770"
         inkscape:connector-curvature="0"
         style="fill:#f4f8f9;stroke:none" /><path
         d="m 6430,6632 c 0,46 -37,83 -83,83 l -5257,0 c -46,0 -83,-37 -83,-83 l 0,-612 c 0,-46 37,-83 83,-83 l 5257,0 c 46,0 83,37 83,83 l 0,612 z"
         id="path772"
         inkscape:connector-curvature="0"
         style="fill:none;stroke:#ffffff;stroke-width:57;stroke-linejoin:round" /><path
         d="m 1653,6486 c -12,5 -32,9 -56,9 -75,0 -129,-53 -129,-167 0,-134 75,-176 137,-176 22,0 40,4 47,9 l -10,32 c -9,-4 -18,-7 -38,-7 -41,0 -90,35 -90,138 0,103 44,137 91,137 17,0 31,-4 40,-7 l 8,32 z"
         id="path777"
         inkscape:connector-curvature="0"
         style="fill:#6890a0;stroke:none" /><path
         d="m 1781,6155 44,0 0,304 109,0 0,33 -153,0 0,-337 z"
         id="path784"
         inkscape:connector-curvature="0"
         style="fill:#6890a0;stroke:none" /><path
         d="m 2069,6323 c 0,70 15,139 64,139 49,0 62,-73 62,-140 0,-63 -13,-137 -62,-137 -49,0 -64,70 -64,138 z m 172,-3 c 0,127 -49,176 -111,176 -64,0 -107,-60 -107,-174 0,-111 47,-171 113,-171 66,0 105,62 105,169 z"
         id="path791"
         inkscape:connector-curvature="0"
         style="fill:#6890a0;stroke:none" /><path
         d="m 2422,6155 0,226 c 0,60 23,81 52,81 32,0 53,-22 53,-81 l 0,-226 44,0 0,220 c 0,87 -41,121 -98,121 -57,0 -96,-33 -96,-116 l 0,-225 45,0 z"
         id="path803"
         inkscape:connector-curvature="0"
         style="fill:#6890a0;stroke:none" /><path
         d="m 2767,6461 c 6,1 12,1 16,1 49,0 95,-31 95,-145 0,-86 -29,-132 -91,-132 -7,0 -14,0 -20,2 l 0,274 z m -43,-301 c 16,-4 37,-6 58,-6 41,0 69,9 90,25 31,22 53,66 53,137 0,77 -22,118 -47,142 -25,24 -62,36 -106,36 -18,0 -36,-1 -48,-4 l 0,-330 z"
         id="path810"
         inkscape:connector-curvature="0"
         style="fill:#6890a0;stroke:none" /><path
         d="m 3228,6447 c 12,8 36,14 54,14 41,0 66,-23 66,-57 0,-31 -22,-50 -52,-70 -31,-18 -72,-50 -72,-94 0,-51 40,-88 101,-88 25,0 45,7 55,13 l -11,32 c -9,-6 -25,-11 -46,-11 -38,0 -56,25 -56,48 0,33 20,46 56,69 47,29 68,60 68,97 0,58 -46,95 -109,95 -26,0 -53,-8 -64,-15 l 10,-33 z"
         id="path819"
         inkscape:connector-curvature="0"
         style="fill:#6890a0;stroke:none" /><path
         d="m 3557,6323 c 0,70 15,139 65,139 49,0 62,-73 62,-140 0,-63 -13,-137 -63,-137 -49,0 -64,70 -64,138 z m 173,-3 c 0,127 -49,176 -111,176 -65,0 -108,-60 -108,-174 0,-111 46,-171 114,-171 65,0 105,62 105,169 z"
         id="path826"
         inkscape:connector-curvature="0"
         style="fill:#6890a0;stroke:none" /><path
         d="m 3866,6155 148,0 0,33 -103,0 0,119 96,0 0,32 -96,0 0,153 -45,0 0,-337 z"
         id="path838"
         inkscape:connector-curvature="0"
         style="fill:#6890a0;stroke:none" /><path
         d="m 4193,6189 -70,0 0,-34 185,0 0,34 -71,0 0,303 -44,0 0,-303 z"
         id="path845"
         inkscape:connector-curvature="0"
         style="fill:#6890a0;stroke:none" /><path
         d="m 4493,6492 -73,-337 45,0 32,163 c 9,42 15,80 20,121 l 1,0 c 6,-42 14,-79 24,-122 l 35,-162 37,0 36,159 c 8,40 17,78 22,125 l 2,0 c 6,-48 13,-85 20,-123 l 33,-161 43,0 -76,337 -43,0 -36,-164 c -8,-35 -15,-73 -20,-110 l -1,0 c -6,38 -12,75 -22,112 l -37,162 -42,0 z"
         id="path852"
         inkscape:connector-curvature="0"
         style="fill:#6890a0;stroke:none" /><path
         d="m 5002,6360 -19,-85 c -6,-24 -12,-52 -17,-78 l -2,0 c -4,27 -10,56 -15,78 l -20,85 73,0 z m -80,31 -25,101 -42,0 87,-337 50,0 85,337 -43,0 -25,-101 -87,0 z"
         id="path859"
         inkscape:connector-curvature="0"
         style="fill:#6890a0;stroke:none" /><path
         d="m 5253,6316 19,0 c 41,0 70,-27 70,-67 0,-40 -19,-64 -66,-65 -9,0 -17,1 -23,2 l 0,130 z m -43,-156 c 18,-4 41,-6 62,-6 38,0 68,7 88,23 19,17 27,41 27,67 0,43 -23,71 -63,87 l 0,1 c 30,7 44,31 52,75 10,46 17,74 23,85 l -45,0 c -6,-10 -13,-42 -20,-83 -10,-46 -26,-63 -64,-63 l -17,0 0,146 -43,0 0,-332 z"
         id="path868"
         inkscape:connector-curvature="0"
         style="fill:#6890a0;stroke:none" /><path
         d="m 5668,6332 -97,0 0,126 110,0 0,34 -154,0 0,-337 148,0 0,33 -104,0 0,112 97,0 0,32 z"
         id="path877"
         inkscape:connector-curvature="0"
         style="fill:#6890a0;stroke:none" /></g></g></svg>