<?xml version="1.0" encoding="utf-8"?>
<!-- Generator: Adobe Illustrator 16.0.4, SVG Export Plug-In . SVG Version: 6.00 Build 0)  -->
<!DOCTYPE svg PUBLIC "-//W3C//DTD SVG 1.1//EN" "http://www.w3.org/Graphics/SVG/1.1/DTD/svg11.dtd">
<svg version="1.1" id="Layer_1" xmlns="http://www.w3.org/2000/svg" xmlns:xlink="http://www.w3.org/1999/xlink" x="0px" y="0px"
	 width="512px" height="512px" viewBox="0 0 512 512" enable-background="new 0 0 512 512" xml:space="preserve">
<path d="M28.302,224L80,141.283L131.698,224H160L80,96L0,224H28.302z M128,320l32-32v-32H0v32l32,32H128z M348.302,224L400,141.283
	L451.698,224H480L400,96l-80,128H348.302z M320,288l32,32h96l32-32v-32H320V288z M256,416V125.258
	c13.635-4.821,24.438-15.623,29.258-29.258H400h16V64H285.258C278.667,45.359,260.898,32,240,32c-20.898,0-38.667,13.359-45.258,32
	H64v32h16h114.742c4.821,13.635,15.623,24.437,29.258,29.258V416H64l-32,64h416l-32-64H256z M216.8,80
	c0-12.813,10.387-23.2,23.2-23.2s23.2,10.387,23.2,23.2s-10.388,23.2-23.2,23.2C227.187,103.2,216.8,92.813,216.8,80z"/>
</svg>
