<svg xmlns="http://www.w3.org/2000/svg" viewBox="0 0 100 100">
  <defs>
    <style>
      .a {
        fill: #ffaa26;
      }

      .b {
        fill: #f7f7fb;
      }

      .c {
        opacity: 0.2;
      }

      .d {
        fill: #0c0f13;
      }

      .e {
        fill: #f37865;
      }

      .f {
        fill: #ebebea;
      }

      .g {
        fill: #e4caa6;
      }

      .h {
        fill: #454b54;
      }
    </style>
  </defs>
  <title>Artboard 1</title>
  <g>
    <circle class="a" cx="50" cy="50" r="39"/>
    <path class="b" d="M49.73379,59.53038H32.32355A11.5886,11.5886,0,0,1,20.71672,47.97679h0A11.63407,11.63407,0,0,1,32.32355,36.37H49.73379"/>
    <g class="c">
      <path class="d" d="M32.32355,59.53038H49.73379V53.19454H32.32355a11.6264,11.6264,0,0,1-11.18089-8.41229,12.50491,12.50491,0,0,0-.42594,3.19454A11.5886,11.5886,0,0,0,32.32355,59.53038Z"/>
    </g>
    <path class="e" d="M61.28737,68.20887h0c0-6.38908-5.21775-8.6785-11.60683-8.6785h0V36.37h0c6.38908,0,11.60683-2.28942,11.60683-8.6785h2.87509v40.5174Z"/>
    <g class="c">
      <path class="d" d="M49.73379,53.19454v6.33584c6.38908,0,11.60683,2.28942,11.60683,8.6785h-.05324V61.873h.05324C61.28737,55.484,56.12287,53.19454,49.73379,53.19454Z"/>
    </g>
    <path class="f" d="M61.28737,66.77133V64.32219a11.78808,11.78808,0,0,0-2.60887-1.91672C60.329,64.37543,61.28737,64.00273,61.28737,66.77133Z"/>
    <path class="g" d="M32.32355,59.53038a2.61311,2.61311,0,0,1,2.60887,2.60887V73.32014a3.57654,3.57654,0,0,0,3.35427,3.62048,3.4781,3.4781,0,0,0,3.56724-3.46075V62.13925a2.61311,2.61311,0,0,1,2.60887-2.60887"/>
    <g class="c">
      <path class="d" d="M44.4628,59.53038H32.32355a2.61311,2.61311,0,0,1,2.60887,2.60887v2.28942h6.97475V62.13925A2.53507,2.53507,0,0,1,44.4628,59.53038Z"/>
    </g>
    <g>
      <path class="h" d="M79.28326,46.37952H74.06555a1.59726,1.59726,0,1,0,0,3.19452h5.21771a1.59726,1.59726,0,1,0,0-3.19452Z"/>
      <path class="h" d="M74.06555,43.77063a1.6811,1.6811,0,0,0,1.0116-.37268l3.46075-2.87512a1.58837,1.58837,0,1,0-2.02325-2.4491l-3.46075,2.87506a1.54794,1.54794,0,0,0-.213,2.23621A1.592,1.592,0,0,0,74.06555,43.77063Z"/>
      <path class="h" d="M75.07715,52.5556a1.58839,1.58839,0,0,0-2.02325,2.44916l3.46075,2.87506a1.40545,1.40545,0,0,0,1.01166.37274,1.59627,1.59627,0,0,0,1.0116-2.82184Z"/>
      <path class="h" d="M65.813,40.75214V27.69147a3.02674,3.02674,0,0,0-6.03552-.33728,1.70268,1.70268,0,0,0-.03412.33728c0,4.6853-3.35425,7.08124-10.00958,7.08124H32.32355a13.17749,13.17749,0,1,0,0,26.35492,1.0109,1.0109,0,0,1,1.0116,1.0116V73.32013a5.20327,5.20327,0,0,0,4.89832,5.21771h.15973a5.0902,5.0902,0,0,0,5.058-5.058V66.755a7.37806,7.37806,0,0,0,5.62744-5.62738h.60193c6.65527,0,10.00958,2.39594,10.00958,7.08124a1.65288,1.65288,0,0,0,.10553.5755,3.02638,3.02638,0,0,0,2.98248,2.51257A3.07954,3.07954,0,0,0,65.813,68.20886V55.19733a7.39612,7.39612,0,0,0,0-14.44519ZM40.20343,73.47986a1.766,1.766,0,0,1-.53241,1.33105,2.101,2.101,0,0,1-1.33112.53241h-.05322a1.95141,1.95141,0,0,1-1.81024-2.02319V62.13922a5.89929,5.89929,0,0,0-.10645-1.0116h3.93988a6.52565,6.52565,0,0,0-.10645,1.0116Zm3.24774-10.05627V62.13922a1.01094,1.01094,0,0,1,1.0116-1.0116h1.28436A4.16058,4.16058,0,0,1,43.45117,63.42358Zm6.22937-5.49048a1.67161,1.67161,0,0,0-.40094.05322H48.05829a1.5368,1.5368,0,0,0-.80188,0h-2.3927a1.67161,1.67161,0,0,0-.40094-.05322H32.32355a1.6978,1.6978,0,0,0-.34332.03595,9.98186,9.98186,0,0,1-9.52759-8.395H25.615a1.60178,1.60178,0,0,0,1.59729-1.59723A1.56875,1.56875,0,0,0,25.615,46.37952H22.45264a9.94253,9.94253,0,0,1,.42786-1.70374h4.17206a1.59729,1.59729,0,0,0,0-3.19458H24.71014a9.97724,9.97724,0,0,1,7.6134-3.514h15.813v8.14606a1.59726,1.59726,0,1,0,3.19452,0v-8.196c6.24341-.38422,10.19373-3.07233,11.28735-7.60529V65.728C61.512,60.73,56.9162,57.93311,49.68054,57.93311ZM65.813,51.86346V44.09009a4.19965,4.19965,0,0,1,0,7.77338Z"/>
    </g>
  </g>
</svg>
