<svg xmlns="http://www.w3.org/2000/svg" viewBox="0 0 20 20">
  <defs>
    <style>
      .a {
        fill: #fff;
      }

      .b {
        fill: #bfdd9b;
      }
    </style>
  </defs>
  <title>Artboard 1</title>
  <path class="a" d="M7.91669,16.25H2.5a.83307.83307,0,0,1-.83331-.83331V4.37585a.20835.20835,0,0,1,.20746-.20917H18.125a.20839.20839,0,0,1,.20831.20831V8.75A.83334.83334,0,0,0,20,8.75V2.5A2.49981,2.49981,0,0,0,17.5,0H2.5A2.49981,2.49981,0,0,0,0,2.5V15.41669a2.49985,2.49985,0,0,0,2.5,2.5H7.91669a.83334.83334,0,0,0,0-1.66669Z"/>
  <path class="b" d="M15.417,10.83331a4.58334,4.58334,0,1,0,4.58331,4.58337A4.58338,4.58338,0,0,0,15.417,10.83331Zm2.76337,3.3692-2.6825,3.73163a.8177.8177,0,0,1-.59253.335c-.02167.00165-.04248.0025-.065.0025a.81462.81462,0,0,1-.5733-.23749L12.73785,16.505a.81082.81082,0,0,1,1.14667-1.14667l.85413.85419,2.125-2.95752a.8111.8111,0,0,1,1.31671.94751Z"/>
</svg>
