<svg xmlns="http://www.w3.org/2000/svg" viewBox="0 0 180 180"><defs><style>.cls-1{fill:#b2bde1;}.cls-2{fill:#fff;}.cls-3{fill:#facacb;}.cls-4{fill:#a7d16a;}.cls-5{fill:#7cd2f6;}.cls-6{fill:#f5c86e;}.cls-7{fill:#f15c5d;}.cls-8{fill:#464b55;}.cls-9{fill:none;}</style></defs><g id="Layer_3" data-name="Layer 3"><circle class="cls-1" cx="90" cy="90" r="80"/></g><g id="Layer_4" data-name="Layer 4"><path class="cls-2" d="M41.76,148.54H32.89A11.08,11.08,0,0,1,21.8,137.45V42.72A11.08,11.08,0,0,1,32.89,31.63H147.11A11.08,11.08,0,0,1,158.2,42.72v94.73a11.08,11.08,0,0,1-11.09,11.09H41.76Z"/><path class="cls-3" d="M147.11,31.63H32.89A11.08,11.08,0,0,0,21.8,42.72v8.87H158.2V42.72A11.08,11.08,0,0,0,147.11,31.63Z"/><rect class="cls-4" x="34.55" y="117.85" width="17.74" height="30.5"/><rect class="cls-5" x="96.65" y="110.64" width="17.74" height="37.71"/><rect class="cls-6" x="65.6" y="87.19" width="17.74" height="61.16"/><rect class="cls-7" x="127.71" y="83.05" width="17.74" height="65.29"/><path class="cls-8" d="M80.6,44.38h62.63a2.78,2.78,0,0,0,0-5.55H80.6a2.78,2.78,0,0,0,0,5.55Z"/><path class="cls-8" d="M47.86,44.38a2.93,2.93,0,0,0,2-.81,2.75,2.75,0,0,0,.8-2,2.84,2.84,0,0,0-.8-2,2.74,2.74,0,0,0-2-.81,2.93,2.93,0,0,0-2,.81,2.81,2.81,0,0,0,0,3.93A2.93,2.93,0,0,0,47.86,44.38Z"/><path class="cls-8" d="M36.77,44.38a2.93,2.93,0,0,0,2-.81,2.75,2.75,0,0,0,.8-2,2.84,2.84,0,0,0-.8-2,2.74,2.74,0,0,0-2-.81,2.93,2.93,0,0,0-2,.81,2.81,2.81,0,0,0,0,3.93A2.93,2.93,0,0,0,36.77,44.38Z"/><path class="cls-8" d="M59,44.38a2.93,2.93,0,0,0,2-.81,2.75,2.75,0,0,0,.8-2,2.84,2.84,0,0,0-.8-2,2.74,2.74,0,0,0-2-.81,2.93,2.93,0,0,0-2,.81,2.72,2.72,0,0,0-.8,2,2.84,2.84,0,0,0,.8,2A2.93,2.93,0,0,0,59,44.38Z"/><path class="cls-8" d="M127.71,104.15a2.91,2.91,0,0,0-2,.81,2.73,2.73,0,0,0-.81,2,2.85,2.85,0,0,0,.81,2,2.73,2.73,0,0,0,2,.81,2.85,2.85,0,0,0,2-.81,2.72,2.72,0,0,0,.81-2,2.77,2.77,0,0,0-2.77-2.78Z"/><path class="cls-8" d="M58.2,69.33a2.92,2.92,0,0,0,2-.8,2.78,2.78,0,0,0,.8-2,2.86,2.86,0,0,0-.8-2,2.73,2.73,0,0,0-2-.8,2.92,2.92,0,0,0-2,.8,2.73,2.73,0,0,0-.8,2,2.73,2.73,0,0,0,2.77,2.77Z"/><path class="cls-8" d="M34.55,69.33H47.86a2.77,2.77,0,0,0,0-5.54H34.55a2.77,2.77,0,1,0,0,5.54Z"/><path class="cls-8" d="M47.86,82.64a2.78,2.78,0,0,0,0-5.55H34.55a2.78,2.78,0,0,0,0,5.55Z"/><path class="cls-9" d="M155.43,48.81V42.72a8.34,8.34,0,0,0-8.32-8.32H32.89a8.34,8.34,0,0,0-8.32,8.32v6.12l.28,0Z"/><rect class="cls-9" x="68.37" y="89.96" width="12.2" height="55.62"/><rect class="cls-9" x="99.43" y="113.41" width="12.2" height="32.16"/><rect class="cls-9" x="37.32" y="120.62" width="12.2" height="24.95"/><path class="cls-8" d="M147.11,28H32.89A14.78,14.78,0,0,0,18.13,42.72v98.59a10.58,10.58,0,0,0,9.15,10.48V152H150.5v-.14h.8a10.58,10.58,0,0,0,10.57-10.57V42.72A14.78,14.78,0,0,0,147.11,28Zm6.61,2.57a13.67,13.67,0,0,0-2.49-1.05A13.67,13.67,0,0,1,153.72,30.53ZM32.89,34.4H147.11a8.12,8.12,0,0,1,2.76.47,8.12,8.12,0,0,0-2.76-.47H32.89a8.12,8.12,0,0,0-2.76.47A8.12,8.12,0,0,1,32.89,34.4ZM48.63,144.68H38.21V121.51H48.63Zm14.2-57.49v58.38h0V87.19a2.76,2.76,0,0,1,.81-2A2.76,2.76,0,0,0,62.83,87.19Zm16.85,57.49H69.26V90.85H79.68Zm31.06,0H100.32V114.3h10.42Zm43.8-3.37a3.25,3.25,0,0,1-3.24,3.24h-2.19V83.05a3.67,3.67,0,0,0-3.66-3.66H127.71A3.68,3.68,0,0,0,124,83.05v14a3.67,3.67,0,0,0,7.33,0V86.72h10.42v58H131.37v-29a3.67,3.67,0,1,0-7.33,0v29h-6v-34A3.66,3.66,0,0,0,114.4,107H96.65A3.66,3.66,0,0,0,93,110.64v34H87V87.19a3.67,3.67,0,0,0-3.66-3.67H65.6a3.67,3.67,0,0,0-3.66,3.67v57.49H56V117.85a3.67,3.67,0,0,0-3.67-3.66H34.55a3.66,3.66,0,0,0-3.66,3.66v26.7H28.7a3.25,3.25,0,0,1-3.24-3.24V55.25H154.54Zm-26-41.61a2.68,2.68,0,0,1-1.65,0,2.68,2.68,0,0,0,1.65,0Zm26-51.78H25.46v-5.2a7.43,7.43,0,0,1,7.43-7.43H147.11a7.43,7.43,0,0,1,7.43,7.43ZM161,141.33a9.57,9.57,0,0,1-.72,3.64,9.57,9.57,0,0,0,.72-3.64V42.72a14,14,0,0,0-.36-3.13,14,14,0,0,1,.36,3.13Z"/></g></svg>