<svg viewBox="0 0 100 100" fill="none" xmlns="http://www.w3.org/2000/svg">
  <path
    d="M50 89C71.5391 89 89 71.5391 89 50C89 28.4609 71.5391 11 50 11C28.4609 11 11 28.4609 11 50C11 71.5391 28.4609 89 50 89Z"
    fill="#9CEB60" fill-opacity="0.6" />
  <path d="M30.1997 40.6L36.0997 29.5H63.4997L69.7997 40.8L30.1997 40.6Z" fill="#AA8D72" />
  <path
    d="M31.4998 40.4H68.0998C68.4946 40.4097 68.8705 40.5708 69.1498 40.85C69.429 41.1293 69.5901 41.5052 69.5998 41.9V68.5C69.5901 68.8948 69.429 69.2708 69.1498 69.55C68.8705 69.8293 68.4946 69.9904 68.0998 70H31.4998C31.105 69.9904 30.729 69.8293 30.4498 69.55C30.1705 69.2708 30.0094 68.8948 29.9998 68.5V41.9C29.9961 41.702 30.0323 41.5053 30.1064 41.3217C30.1805 41.138 30.2908 40.9712 30.4308 40.8311C30.5709 40.6911 30.7377 40.5807 30.9214 40.5067C31.105 40.4326 31.3018 40.3963 31.4998 40.4Z"
    fill="#F0D5A8" />
  <path opacity="0.7"
    d="M30 56.7L46.3 40.4H32C31.47 40.4016 30.9622 40.6128 30.5875 40.9875C30.2128 41.3623 30.0016 41.8701 30 42.4V56.7Z"
    fill="#FFF5E3" />
  <path
    d="M63.6 29.5L69.8 40.8V68.5C69.7904 68.8948 69.6292 69.2707 69.35 69.55C69.0707 69.8292 68.6948 69.9904 68.3 70H31.5C31.1052 69.9904 30.7293 69.8292 30.45 69.55C30.1708 69.2707 30.0096 68.8948 30 68.5V40.7L36.2 29.5H63.6Z"
    stroke="#191816" stroke-linecap="round" stroke-linejoin="round" />
  <path d="M63.3997 57.3H50.1997V63.6H63.3997V57.3Z" fill="white" stroke="#191816" stroke-linecap="round"
    stroke-linejoin="round" />
  <path d="M30 40.7H69.7" stroke="#191816" stroke-linecap="round" stroke-linejoin="round" />
  <path d="M49.7998 29.6V40.6" stroke="#191816" stroke-linecap="round" stroke-linejoin="round" />
  <path
    d="M60.8931 39.9352L56.1984 35.2535C56.0248 35.0779 55.8181 34.9384 55.5902 34.8432C55.3623 34.748 55.1179 34.6989 54.8709 34.6987C54.6239 34.6986 54.3794 34.7474 54.1514 34.8424C53.9234 34.9374 53.7166 35.0766 53.5427 35.252L53.5413 35.2535L51.5507 37.2586C51.1982 37.6144 51.0003 38.095 51 38.5959C50.9997 39.0968 51.1971 39.5775 51.5493 39.9337L51.5507 39.9352L60.1889 48.6271C60.3625 48.8027 60.5692 48.9422 60.7971 49.0374C61.025 49.1326 61.2694 49.1817 61.5164 49.1818C61.7634 49.182 62.0079 49.1332 62.2359 49.0382C62.4639 48.9432 62.6707 48.804 62.8446 48.6286L62.846 48.6271L79.1552 32.2365C79.5077 31.8806 79.7056 31.4001 79.7059 30.8992C79.7061 30.3983 79.5087 29.9175 79.1566 29.5613L79.1551 29.5599L77.1646 27.5548C76.9909 27.3791 76.7842 27.2397 76.5563 27.1445C76.3285 27.0492 76.084 27.0001 75.837 27C75.5901 26.9999 75.3455 27.0487 75.1176 27.1437C74.8896 27.2386 74.6827 27.3779 74.5089 27.5533L74.5074 27.5548L62.2169 39.9352C62.1301 40.0224 62.0269 40.0915 61.9133 40.1387C61.7998 40.1859 61.678 40.2102 61.555 40.2102C61.432 40.2102 61.3102 40.1859 61.1966 40.1387C61.083 40.0915 60.9799 40.0224 60.8931 39.9352Z"
    fill="#6DD627" />
  <path
    d="M78.1691 28.5575L59.2498 47.6342L51.6069 39.9354C51.2543 39.5796 51.0564 39.099 51.0562 38.5981C51.0559 38.0972 51.2533 37.6165 51.6054 37.2603L51.6069 37.2588L53.6162 35.2537C53.7898 35.0781 53.9966 34.9386 54.2244 34.8434C54.4523 34.7482 54.6968 34.6991 54.9437 34.6989C55.1907 34.6988 55.4352 34.7476 55.6632 34.8426C55.8912 34.9376 56.0981 35.0768 56.2719 35.2522L56.2734 35.2537L60.968 39.9354C61.0548 40.0226 61.1579 40.0917 61.2715 40.1389C61.3851 40.1861 61.5069 40.2104 61.6299 40.2104C61.753 40.2104 61.8747 40.1861 61.9883 40.1389C62.1019 40.0917 62.2051 40.0226 62.2919 39.9354L74.5918 27.5549C74.7654 27.3806 74.9717 27.2423 75.1989 27.1479C75.4261 27.0535 75.6697 27.0049 75.9157 27.0049C76.1617 27.0049 76.4053 27.0535 76.6325 27.1479C76.8597 27.2423 77.066 27.3806 77.2396 27.5549L78.1691 28.5575Z"
    fill="#9CEB60" />
  <path
    d="M60.8931 39.9352L56.1984 35.2535C56.0248 35.0779 55.8181 34.9384 55.5902 34.8432C55.3623 34.748 55.1179 34.6989 54.8709 34.6987C54.6239 34.6986 54.3794 34.7474 54.1514 34.8424C53.9234 34.9374 53.7166 35.0766 53.5427 35.252L53.5413 35.2535L51.5507 37.2586C51.1982 37.6144 51.0003 38.095 51 38.5959C50.9997 39.0968 51.1971 39.5775 51.5493 39.9337L51.5507 39.9352L60.1889 48.6271C60.3625 48.8027 60.5692 48.9422 60.7971 49.0374C61.025 49.1326 61.2694 49.1817 61.5164 49.1818C61.7634 49.182 62.0079 49.1332 62.2359 49.0382C62.4639 48.9432 62.6707 48.804 62.8446 48.6286L62.846 48.6271L79.1552 32.2365C79.5077 31.8806 79.7056 31.4001 79.7059 30.8992C79.7061 30.3983 79.5087 29.9175 79.1566 29.5613L79.1551 29.5599L77.1646 27.5548C76.9909 27.3791 76.7842 27.2397 76.5563 27.1445C76.3285 27.0492 76.084 27.0001 75.837 27C75.5901 26.9999 75.3455 27.0487 75.1176 27.1437C74.8896 27.2386 74.6827 27.3779 74.5089 27.5533L74.5074 27.5548L62.2169 39.9352C62.1301 40.0224 62.0269 40.0915 61.9133 40.1387C61.7998 40.1859 61.678 40.2102 61.555 40.2102C61.432 40.2102 61.3102 40.1859 61.1966 40.1387C61.083 40.0915 60.9799 40.0224 60.8931 39.9352Z"
    stroke="#191816" stroke-linecap="round" stroke-linejoin="round" />
</svg>