<svg xmlns="http://www.w3.org/2000/svg" xmlns:xlink="http://www.w3.org/1999/xlink" viewBox="0 0 100 100">
  <defs>
    <style>
      .a {
        fill: #e8f4fa;
      }

      .b {
        fill: #191816;
        opacity: 0.15;
      }

      .b, .g, .i, .p {
        isolation: isolate;
      }

      .c, .h, .j {
        fill: #fff;
      }

      .d, .m {
        fill: none;
      }

      .d, .h {
        stroke: #191816;
        stroke-linejoin: round;
      }

      .d, .h, .m {
        stroke-linecap: round;
      }

      .e {
        fill: #aa8d72;
      }

      .f {
        fill: #f0d5a8;
      }

      .g {
        fill: #fff5e3;
        opacity: 0.7;
      }

      .i {
        opacity: 0.25;
        fill: url(#a);
      }

      .j, .k, .m, .n, .o {
        stroke: #000;
      }

      .k, .l {
        fill: #ab1aff;
      }

      .n {
        fill: #8d19e0;
      }

      .o {
        fill: #b06cff;
      }

      .p {
        opacity: 0.3;
      }
    </style>
    <linearGradient id="a" x1="-315.73497" y1="47.90682" x2="-316.20917" y2="47.16722" gradientTransform="translate(4135.6998 -846.69995) scale(12.9 19)" gradientUnits="userSpaceOnUse">
      <stop offset="0.0012" stop-opacity="0"/>
      <stop offset="1"/>
    </linearGradient>
  </defs>
  <title>Artboard 1</title>
  <circle class="a" cx="50" cy="50" r="39"/>
  <ellipse class="b" cx="50" cy="79" rx="29" ry="1.9"/>
  <g>
    <path class="c" d="M74.3,39.1A9.83227,9.83227,0,0,0,58.7,29a19.91189,19.91189,0,0,0-28-2.2,20.14825,20.14825,0,0,0-7,15v.1a4.8687,4.8687,0,0,0-1.2-.1,9.9,9.9,0,0,0,0,19.8H67.1A12.39779,12.39779,0,0,0,79.5,49.20442V49.1A12.7929,12.7929,0,0,0,74.3,39.1Z"/>
    <path class="a" d="M67.1,55.2H22.4A10.01262,10.01262,0,0,1,13,48.5a8.5915,8.5915,0,0,0-.5,3.2,9.902,9.902,0,0,0,9.8,9.9H67.1A12.39779,12.39779,0,0,0,79.5,49.20442V49.2h0a11.23528,11.23528,0,0,0-.4-3.2A12.51207,12.51207,0,0,1,67.1,55.2Z"/>
    <path class="d" d="M74.3,39.1A9.83227,9.83227,0,0,0,58.7,29a19.91189,19.91189,0,0,0-28-2.2,20.14825,20.14825,0,0,0-7,15v.1a4.8687,4.8687,0,0,0-1.2-.1,9.9,9.9,0,0,0,0,19.8H67.1A12.39779,12.39779,0,0,0,79.5,49.20442V49.1A12.7929,12.7929,0,0,0,74.3,39.1Z"/>
  </g>
  <g>
    <polygon class="e" points="33.15 40.9 38.15 31.4 61.65 31.4 67.05 41.1 33.15 40.9"/>
    <path class="f" d="M34.25,40.7h31.4a1.32372,1.32372,0,0,1,1.3,1.3V64.8a1.32372,1.32372,0,0,1-1.3,1.3H34.25a1.32372,1.32372,0,0,1-1.3-1.3V42A1.32372,1.32372,0,0,1,34.25,40.7Z"/>
    <path class="g" d="M32.95,54.7l14-14H34.65a1.75238,1.75238,0,0,0-1.7,1.7Z"/>
    <path class="d" d="M61.75,31.4l5.3,9.7V64.8a1.32372,1.32372,0,0,1-1.3,1.3H34.25a1.32372,1.32372,0,0,1-1.3-1.3V41l5.3-9.6Z"/>
    <rect class="h" x="50.25" y="55.2" width="11.3" height="5.4"/>
    <line class="d" x1="32.95" y1="41" x2="66.95" y2="41"/>
    <line class="d" x1="49.95" y1="31.5" x2="49.95" y2="40.9"/>
  </g>
  <path class="i" d="M67,65V55.3a8.02783,8.02783,0,0,0-5.4,1.4l-5.3-9.9s-2.1.3-2.2.1l4.5,11.3c-2.5,2.4-2.8,6.2-2.8,7.5l9.8.1Z"/>
  <g>
    <path class="j" d="M60.2,40.2s-4.8,5.5-5.4,6.2c-.9,1,1.1,2.5,1.9,1.6,1-1.1,5.3-6,5.3-6Z"/>
    <path class="k" d="M73.5,42.8c-2.9,3.4-8.8,3.1-13-.6-4.3-3.7-5.4-9.4-2.5-12.8s9.4-3.7,13.7,0C75.9,33,76.4,39.4,73.5,42.8Z"/>
    <polygon class="l" points="61.2 32.7 74.9 19.5 81 24.7 69.3 40.1 61.2 32.7"/>
    <line class="m" x1="74.7" y1="19.6" x2="63.2" y2="30.7"/>
    <line class="m" x1="80.8" y1="24.9" x2="71" y2="38"/>
    <ellipse class="n" cx="78.52499" cy="20.8702" rx="5.79988" ry="8.49982" transform="translate(13.42667 69.49064) rotate(-51.63907)"/>
    <ellipse class="o" cx="79.90907" cy="19.32849" rx="5.79988" ry="8.49982" transform="translate(15.16064 69.99101) rotate(-51.63907)"/>
    <path class="p" d="M75.6,26,66.7,37.2l-2.5,7.1s7.2,2.8,10.2-3a8.52976,8.52976,0,0,0,0-8.2l4.2-5.6,4.8-.1.7-1.1-5.4-1.2Z"/>
  </g>
</svg>
