<svg xmlns="http://www.w3.org/2000/svg" xmlns:xlink="http://www.w3.org/1999/xlink" viewBox="0 0 100 100">
  <defs>
    <style>
      .a {
        fill: #e8f4fa;
      }

      .b {
        fill: #191816;
        opacity: 0.15;
      }

      .b, .g, .i, .p {
        isolation: isolate;
      }

      .c, .h, .j {
        fill: #fff;
      }

      .d, .m {
        fill: none;
      }

      .d, .h {
        stroke: #191816;
        stroke-linejoin: round;
      }

      .d, .h, .m {
        stroke-linecap: round;
      }

      .e {
        fill: #aa8d72;
      }

      .f {
        fill: #f0d5a8;
      }

      .g {
        fill: #fff5e3;
        opacity: 0.7;
      }

      .i {
        opacity: 0.2;
        fill: url(#a);
      }

      .j, .k, .m, .n, .o {
        stroke: #000;
      }

      .k, .l {
        fill: #ab1aff;
      }

      .n {
        fill: #8d19e0;
      }

      .o {
        fill: #b06cff;
      }

      .p {
        opacity: 0.3;
      }
    </style>
    <linearGradient id="a" x1="-661.46714" y1="79.95166" x2="-663.91212" y2="81.73176" gradientTransform="matrix(6.4, 0, 0, -4.4, 4302.90009, 418.60011)" gradientUnits="userSpaceOnUse">
      <stop offset="0.0012" stop-opacity="0"/>
      <stop offset="1"/>
    </linearGradient>
  </defs>
  <title>Artboard 1</title>
  <circle class="a" cx="50" cy="50" r="39"/>
  <ellipse class="b" cx="48" cy="79" rx="25" ry="1.9"/>
  <g>
    <path class="c" d="M69.8,39.1A9.83227,9.83227,0,0,0,54.2,29a19.91911,19.91911,0,0,0-28-2.2,20.14824,20.14824,0,0,0-7,15v.1a4.86871,4.86871,0,0,0-1.2-.1,9.9,9.9,0,0,0,0,19.8H62.6A12.39779,12.39779,0,0,0,75,49.2h0v-.1A12.64283,12.64283,0,0,0,69.8,39.1Z"/>
    <path class="a" d="M62.6,55.2H17.9a10.01262,10.01262,0,0,1-9.4-6.7A8.5915,8.5915,0,0,0,8,51.7a9.96753,9.96753,0,0,0,9.8,9.9H62.6A12.39779,12.39779,0,0,0,75,49.2h0a11.23541,11.23541,0,0,0-.4-3.2A12.51207,12.51207,0,0,1,62.6,55.2Z"/>
    <path class="d" d="M69.8,39.1A9.83227,9.83227,0,0,0,54.2,29a19.91911,19.91911,0,0,0-28-2.2,20.14824,20.14824,0,0,0-7,15v.1a4.86871,4.86871,0,0,0-1.2-.1,9.9,9.9,0,0,0,0,19.8H62.6A12.39779,12.39779,0,0,0,75,49.2h0v-.1A12.64283,12.64283,0,0,0,69.8,39.1Z"/>
  </g>
  <g>
    <polygon class="e" points="14.1 58.1 16.4 47.7 39.1 41.5 46.8 49.4 14.1 58.1"/>
    <path class="f" d="M15.2,57.6l30.3-8.3a1.28413,1.28413,0,0,1,1.6.9h0l6,22a1.28413,1.28413,0,0,1-.9,1.6h0L21.9,82a1.28413,1.28413,0,0,1-1.6-.9h0l-6-22C14,58.5,14.5,57.8,15.2,57.6Z"/>
    <path class="g" d="M17.6,71.4l9.8-17.2L15.5,57.5a1.7914,1.7914,0,0,0-1.2,2.1Z"/>
    <path class="d" d="M39.3,41.5l7.6,7.9,6.2,22.9a1.28413,1.28413,0,0,1-.9,1.6h0L21.9,82.1a1.28413,1.28413,0,0,1-1.6-.9h0l-6.2-23,2.6-10.6Z"/>
    <rect class="h" x="34.89912" y="65.79665" width="11.29955" height="5.39979" transform="translate(-16.53598 13.02307) rotate(-15.19532)"/>
    <line class="d" x1="14" y1="58.2" x2="46.8" y2="49.3"/>
    <line class="d" x1="27.9" y1="44.7" x2="30.3" y2="53.7"/>
  </g>
  <path class="i" d="M53.9,57.6s-.2.5-.4.3L57.1,62h2.8Z"/>
  <g>
    <polygon class="j" points="65.1 34.7 59.8 40.9 56.7 46.4 61.7 42.4 66.9 36.4 65.1 34.7"/>
    <path class="k" d="M78.4,37.3c-2.9,3.4-8.8,3.1-13-.6C61.1,33,60,27.3,62.9,23.9s9.4-3.7,13.7,0C80.8,27.5,81.3,33.9,78.4,37.3Z"/>
    <polygon class="l" points="66.1 27.2 79.8 14 85.9 19.2 74.2 34.6 66.1 27.2"/>
    <line class="m" x1="79.6" y1="14.1" x2="68.1" y2="25.3"/>
    <line class="m" x1="85.7" y1="19.4" x2="75.9" y2="32.5"/>
    <ellipse class="n" cx="83.52523" cy="15.27453" rx="5.79988" ry="8.49982" transform="translate(19.71135 71.28849) rotate(-51.63907)"/>
    <ellipse class="o" cx="84.76846" cy="13.8169" rx="5.79988" ry="8.49982" transform="translate(21.32597 71.71032) rotate(-51.63907)"/>
    <path class="p" d="M80.5,20.5,71.6,31.7l-2.5,7.1s7.2,2.8,10.2-3a8.52976,8.52976,0,0,0,0-8.2L83.5,22l4.8-.1.7-1.1-5.4-1.2Z"/>
  </g>
  <path class="m" d="M18.2,82.4a2.55979,2.55979,0,0,0,2.5,2"/>
  <path class="m" d="M16.4,83.4a3.84366,3.84366,0,0,0,3.7,2.9"/>
  <path class="m" d="M41.7,39.6a3.13833,3.13833,0,0,0-3.8-1"/>
</svg>
