<?xml version="1.0" encoding="utf-8"?>
<svg id="svg" style="display: block;" width="8.144439697in" height="8.144439697265625in" viewBox="0 0 733 733" xmlns="http://www.w3.org/2000/svg">
  <g id="svgg" transform="matrix(0.899975, 0, 0, 0.880208, 24.716227, 22.115379)">
    <path id="path0" d="M 277.817 113.112 C 277.817 113.824 278.303 114.407 278.897 114.407 C 279.489 114.407 291.725 126.149 306.088 140.502 C 320.449 154.855 332.199 166.13 332.199 165.557 C 332.199 164.345 279.837 111.817 278.628 111.817 C 278.183 111.817 277.817 112.4 277.817 113.112 M 471.617 133.363 C 451.16 153.76 448.279 157.136 451.322 157.136 C 452.034 157.136 452.617 156.511 452.617 155.749 C 452.617 153.955 455.911 150.662 457.704 150.662 C 458.466 150.662 459.091 150.037 459.091 149.275 C 459.091 147.481 462.385 144.188 464.178 144.188 C 464.94 144.188 465.565 143.563 465.565 142.801 C 465.565 141.007 468.859 137.714 470.652 137.714 C 471.414 137.714 472.039 137.089 472.039 136.326 C 472.039 134.533 475.333 131.239 477.126 131.239 C 477.889 131.239 478.513 130.615 478.513 129.852 C 478.513 128.059 481.807 124.765 483.6 124.765 C 484.363 124.765 484.987 124.141 484.987 123.378 C 484.987 121.585 488.281 118.291 490.074 118.291 C 490.837 118.291 491.461 117.466 491.461 116.458 C 491.461 115.448 492.19 114.363 493.08 114.044 C 493.97 113.727 494.363 113.099 493.952 112.651 C 493.541 112.202 483.49 121.522 471.617 133.363 M 425.649 178.764 C 414.022 190.497 404.833 200.42 405.228 200.816 C 405.625 201.213 414.426 193.002 424.788 182.572 C 435.15 172.143 444.194 163.61 444.885 163.61 C 445.576 163.61 446.143 162.736 446.143 161.668 C 446.143 160.599 446.726 159.725 447.438 159.725 C 448.15 159.725 448.733 159.143 448.733 158.431 C 448.733 155.783 446.314 157.913 425.649 178.764 M 333.534 166.926 C 333.601 168.885 337.278 173.206 338.142 172.34 C 338.578 171.906 337.71 170.236 336.213 168.63 C 334.718 167.025 333.512 166.258 333.534 166.926 M 339.968 173.523 C 339.968 174.26 341.133 175.917 342.558 177.205 C 343.982 178.494 345.147 179.143 345.147 178.647 C 345.147 178.151 343.982 176.493 342.558 174.965 C 341.133 173.436 339.968 172.787 339.968 173.523 M 346.442 179.997 C 346.442 180.734 347.608 182.391 349.032 183.679 C 350.456 184.968 351.621 185.617 351.621 185.122 C 351.621 184.625 350.456 182.967 349.032 181.439 C 347.608 179.91 346.442 179.261 346.442 179.997 M 352.916 186.471 C 352.916 187.208 354.082 188.865 355.506 190.154 C 356.93 191.442 358.096 192.091 358.096 191.596 C 358.096 191.099 356.93 189.441 355.506 187.913 C 354.082 186.384 352.916 185.735 352.916 186.471 M 400.854 208.605 C 400.87 210.563 402.059 213.622 403.498 215.402 L 406.115 218.639 L 404.076 213.528 C 402.956 210.718 402.33 207.659 402.686 206.73 C 403.042 205.803 402.768 205.044 402.079 205.044 C 401.389 205.044 400.837 206.646 400.854 208.605 M 175.527 214.598 C 175.527 215.995 264.858 305.188 265.555 304.489 C 265.835 304.211 245.693 283.618 220.795 258.729 C 195.897 233.839 175.527 213.98 175.527 214.598 M 579.206 231.348 C 570.138 240.642 562.935 248.464 563.201 248.729 C 563.468 248.996 570.304 242.595 578.395 234.506 C 595.063 217.84 598.538 214.035 596.866 214.279 C 596.222 214.373 588.275 222.055 579.206 231.348 M 374.928 243.241 C 373.256 245.021 372.572 246.478 373.408 246.478 C 374.244 246.478 374.928 245.895 374.928 245.183 C 374.928 244.471 375.802 243.888 376.87 243.888 C 377.939 243.888 378.813 243.014 378.813 241.946 C 378.813 239.35 378.478 239.462 374.928 243.241 M 394.35 242.038 C 394.35 243.409 398.036 246.478 399.682 246.478 C 400.611 246.478 400.117 245.363 398.533 243.888 C 395.736 241.283 394.35 240.669 394.35 242.038 M 400.824 248.512 C 400.824 249.783 404.455 252.952 405.911 252.952 C 406.674 252.952 407.298 253.577 407.298 254.339 C 407.298 256.226 411.118 259.923 412.076 258.965 C 412.499 258.541 410.502 255.849 407.635 252.984 C 402.712 248.059 400.824 246.821 400.824 248.512 M 558.151 252.944 C 556.859 254.373 556.225 255.542 556.741 255.542 C 558.107 255.542 561.797 251.641 561.097 250.94 C 560.77 250.613 559.444 251.515 558.151 252.944 M 358.95 259.196 C 356.505 261.899 356.212 263.311 358.096 263.311 C 358.808 263.311 359.39 262.485 359.39 261.477 C 359.39 260.467 360.119 259.382 361.009 259.064 C 361.899 258.746 362.284 258.112 361.863 257.654 C 361.444 257.196 360.133 257.89 358.95 259.196 M 551.677 259.418 C 550.385 260.847 549.751 262.016 550.267 262.016 C 551.633 262.016 555.323 258.115 554.623 257.414 C 554.296 257.087 552.97 257.989 551.677 259.418 M 413.773 260.569 C 413.773 262.579 417.511 266.476 418.497 265.492 C 418.89 265.099 417.989 263.463 416.492 261.857 C 414.986 260.24 413.773 259.666 413.773 260.569 M 352.476 265.67 C 350.03 268.373 349.737 269.785 351.621 269.785 C 352.334 269.785 352.916 268.959 352.916 267.951 C 352.916 266.941 353.645 265.857 354.535 265.538 C 355.425 265.22 355.81 264.586 355.389 264.128 C 354.97 263.67 353.659 264.364 352.476 265.67 M 545.203 265.892 C 543.911 267.321 543.277 268.49 543.793 268.49 C 545.159 268.49 548.849 264.589 548.148 263.888 C 547.822 263.561 546.496 264.463 545.203 265.892 M 420.247 267.043 C 420.247 269.053 423.985 272.95 424.971 271.966 C 425.364 271.573 424.463 269.937 422.966 268.331 C 421.461 266.714 420.247 266.14 420.247 267.043 M 319.835 298.364 C 287.083 331.194 290.123 328.051 291.107 328.051 C 291.532 328.051 303.6 316.398 317.924 302.155 C 332.248 287.912 344.524 276.259 345.206 276.259 C 345.885 276.259 346.442 275.433 346.442 274.425 C 346.442 273.415 347.171 272.331 348.061 272.012 C 348.951 271.694 349.359 271.083 348.969 270.654 C 348.579 270.225 335.469 282.694 319.835 298.364 M 538.729 272.366 C 537.437 273.795 536.803 274.964 537.319 274.964 C 538.685 274.964 542.375 271.063 541.674 270.362 C 541.347 270.036 540.022 270.937 538.729 272.366 M 426.721 273.517 C 426.721 275.527 430.46 279.425 431.445 278.44 C 431.838 278.047 430.937 276.411 429.44 274.805 C 427.935 273.188 426.721 272.614 426.721 273.517 M 532.255 278.84 C 530.963 280.269 530.329 281.438 530.845 281.438 C 532.211 281.438 535.901 277.537 535.2 276.837 C 534.873 276.51 533.548 277.411 532.255 278.84 M 433.195 279.991 C 433.195 282.001 436.934 285.899 437.919 284.915 C 438.313 284.521 437.411 282.885 435.914 281.279 C 434.409 279.662 433.195 279.088 433.195 279.991 M 525.781 285.314 C 524.489 286.743 523.854 287.912 524.371 287.912 C 525.737 287.912 529.427 284.011 528.726 283.311 C 528.399 282.984 527.074 283.885 525.781 285.314 M 439.709 286.049 C 439.776 288.008 443.453 292.329 444.317 291.463 C 444.753 291.029 443.885 289.359 442.388 287.753 C 440.892 286.148 439.687 285.381 439.709 286.049 M 519.306 291.788 C 518.015 293.218 517.38 294.386 517.897 294.386 C 519.263 294.386 522.953 290.486 522.252 289.785 C 521.925 289.458 520.6 290.359 519.306 291.788 M 446.183 292.523 C 446.25 294.482 449.927 298.803 450.791 297.937 C 451.227 297.503 450.359 295.833 448.862 294.228 C 447.367 292.622 446.161 291.855 446.183 292.523 M 512.832 298.262 C 511.541 299.692 510.906 300.86 511.423 300.86 C 512.789 300.86 516.479 296.96 515.778 296.259 C 515.451 295.932 514.126 296.833 512.832 298.262 M 225.557 300.213 C 225.966 301.281 227.154 302.155 228.198 302.155 C 229.843 302.155 229.836 301.898 228.151 300.213 C 227.083 299.145 225.895 298.271 225.51 298.271 C 225.126 298.271 225.146 299.145 225.557 300.213 M 452.657 298.997 C 452.724 300.956 456.401 305.277 457.265 304.411 C 457.701 303.977 456.833 302.307 455.336 300.702 C 453.841 299.096 452.635 298.329 452.657 298.997 M 474.629 322.406 C 474.629 323.507 478.839 326.663 480.376 326.716 C 481.045 326.739 480.341 325.591 478.811 324.167 C 475.958 321.508 474.629 320.949 474.629 322.406 M 482.721 339.133 C 480.815 341.203 480.655 342.294 482.259 342.294 C 483.364 342.294 485.432 338.398 484.694 337.707 C 484.499 337.526 483.612 338.167 482.721 339.133 M 288.176 340.355 C 288.176 341.491 380.203 433.268 380.771 432.7 C 381.239 432.231 289.453 339.705 288.52 339.705 C 288.331 339.705 288.176 339.998 288.176 340.355 M 471.355 352.69 C 466.428 357.654 462.793 361.716 463.277 361.716 C 464.385 361.716 481.281 344.631 480.724 344.073 C 480.498 343.848 476.281 347.724 471.355 352.69 M 270.048 351.358 C 270.048 352.07 270.922 352.653 271.99 352.653 C 273.059 352.653 273.933 352.07 273.933 351.358 C 273.933 350.646 273.059 350.063 271.99 350.063 C 270.922 350.063 270.048 350.646 270.048 351.358 M 498.583 351.358 C 498.143 352.07 499.017 352.653 500.525 352.653 C 502.034 352.653 502.908 352.07 502.467 351.358 C 502.027 350.646 501.153 350.063 500.525 350.063 C 499.897 350.063 499.023 350.646 498.583 351.358 M 262.279 355.89 C 260.607 357.67 259.923 359.127 260.759 359.127 C 261.595 359.127 262.279 358.544 262.279 357.832 C 262.279 357.12 263.153 356.537 264.221 356.537 C 265.29 356.537 266.164 355.663 266.164 354.595 C 266.164 351.999 265.829 352.111 262.279 355.89 M 510.884 357.631 C 510.884 358.454 511.466 359.127 512.179 359.127 C 512.891 359.127 513.473 360.001 513.473 361.069 C 513.473 362.137 514.056 363.011 514.768 363.011 C 516.841 363.011 516.27 361.011 513.473 358.479 C 512.005 357.151 510.884 356.783 510.884 357.631 M 255.158 363.011 C 253.829 364.479 253.462 365.601 254.31 365.601 C 255.132 365.601 255.805 365.018 255.805 364.306 C 255.805 363.594 256.679 363.011 257.747 363.011 C 258.816 363.011 259.69 362.429 259.69 361.716 C 259.69 359.643 257.689 360.215 255.158 363.011 M 458.45 365.593 C 457.159 367.022 456.524 368.191 457.04 368.191 C 458.406 368.191 462.097 364.29 461.396 363.589 C 461.069 363.262 459.743 364.164 458.45 365.593 M 517.358 364.07 C 517.358 364.911 517.94 365.601 518.653 365.601 C 519.365 365.601 519.947 366.226 519.947 366.988 C 519.947 367.752 520.779 369.209 521.797 370.225 C 522.814 371.243 524.27 372.075 525.034 372.075 C 525.797 372.075 526.421 372.7 526.421 373.462 C 526.421 375.255 529.715 378.549 531.508 378.549 C 532.271 378.549 532.896 379.174 532.896 379.936 C 532.896 380.7 533.727 382.157 534.746 383.173 C 535.762 384.191 537.219 385.023 537.983 385.023 C 538.745 385.023 539.37 385.648 539.37 386.41 C 539.37 387.174 540.202 388.631 541.22 389.647 C 542.236 390.665 543.693 391.497 544.457 391.497 C 545.219 391.497 545.844 392.122 545.844 392.884 C 545.844 394.772 549.663 398.468 550.622 397.508 C 551.046 397.084 543.735 389.044 534.375 379.638 C 525.015 370.233 517.358 363.227 517.358 364.07 M 213.39 404.662 C 192.555 425.421 175.737 442.636 176.017 442.918 C 176.299 443.198 187.384 432.617 200.654 419.405 C 213.924 406.192 225.353 395.382 226.05 395.382 C 226.748 395.382 227.319 394.757 227.319 393.995 C 227.319 392.201 230.613 388.908 232.406 388.908 C 233.169 388.908 233.793 388.283 233.793 387.521 C 233.793 385.727 237.087 382.434 238.88 382.434 C 239.643 382.434 240.267 381.809 240.267 381.046 C 240.267 379.253 243.561 375.959 245.354 375.959 C 246.117 375.959 246.741 375.335 246.741 374.572 C 246.741 372.779 250.035 369.485 251.828 369.485 C 252.591 369.485 253.216 368.903 253.216 368.191 C 253.216 365.268 249.689 368.496 213.39 404.662 M 451.976 372.067 C 450.685 373.496 450.05 374.665 450.566 374.665 C 451.932 374.665 455.623 370.764 454.922 370.063 C 454.595 369.736 453.269 370.638 451.976 372.067 M 445.502 378.541 C 444.21 379.97 443.576 381.139 444.092 381.139 C 445.458 381.139 449.149 377.238 448.448 376.537 C 448.121 376.21 446.795 377.112 445.502 378.541 M 439.028 385.015 C 437.736 386.444 437.102 387.613 437.618 387.613 C 438.984 387.613 442.674 383.712 441.974 383.011 C 441.647 382.684 440.321 383.586 439.028 385.015 M 432.554 391.489 C 431.262 392.918 430.628 394.087 431.144 394.087 C 432.51 394.087 436.2 390.186 435.5 389.485 C 435.173 389.158 433.847 390.06 432.554 391.489 M 426.08 397.963 C 424.788 399.392 424.154 400.561 424.67 400.561 C 426.036 400.561 429.726 396.66 429.025 395.959 C 428.699 395.633 427.373 396.534 426.08 397.963 M 552.358 398.698 C 552.425 400.656 556.102 404.978 556.966 404.112 C 557.401 403.678 556.534 402.008 555.037 400.402 C 553.541 398.797 552.336 398.03 552.358 398.698 M 419.606 404.437 C 418.314 405.866 417.68 407.035 418.196 407.035 C 419.562 407.035 423.252 403.134 422.551 402.434 C 422.224 402.107 420.899 403.008 419.606 404.437 M 558.832 405.172 C 558.899 407.131 562.576 411.452 563.44 410.586 C 563.876 410.152 563.008 408.482 561.511 406.876 C 560.015 405.271 558.81 404.504 558.832 405.172 M 413.132 410.911 C 411.84 412.341 411.206 413.509 411.722 413.509 C 413.088 413.509 416.778 409.608 416.077 408.908 C 415.75 408.581 414.425 409.482 413.132 410.911 M 565.306 411.646 C 565.373 413.605 569.05 417.926 569.914 417.06 C 570.35 416.626 569.482 414.956 567.985 413.35 C 566.49 411.745 565.284 410.978 565.306 411.646 M 85.566 434.786 C 66.519 453.731 63.015 457.533 64.608 457.533 C 65.123 457.533 102.549 420.376 106.131 416.309 C 107.487 414.77 108.229 413.509 107.779 413.509 C 107.329 413.509 97.333 423.084 85.566 434.786 M 609.375 462.778 C 582.267 489.876 560.087 512.574 560.087 513.218 C 560.087 513.862 582.519 491.952 609.937 464.53 C 656.176 418.28 660.786 413.509 659.226 413.509 C 658.918 413.509 636.486 435.68 609.375 462.778 M 686.686 436.652 C 699.308 449.38 709.927 459.528 710.284 459.205 C 710.638 458.881 709.91 457.871 708.665 456.96 C 707.419 456.05 706.401 454.891 706.401 454.385 C 706.401 453.067 702.919 449.764 701.532 449.764 C 700.89 449.764 699.585 448.307 698.632 446.527 C 697.679 444.747 696.222 443.29 695.395 443.29 C 694.568 443.29 693.111 441.833 692.158 440.053 C 691.204 438.272 689.748 436.816 688.921 436.816 C 688.094 436.816 686.637 435.359 685.684 433.579 C 684.73 431.798 683.274 430.342 682.447 430.342 C 681.62 430.342 680.163 428.885 679.21 427.105 C 678.256 425.324 676.8 423.868 675.973 423.868 C 675.146 423.868 673.689 422.411 672.736 420.631 C 671.782 418.85 670.29 417.394 669.418 417.394 C 668.547 417.394 667.498 416.52 667.089 415.451 C 666.677 414.383 665.755 413.509 665.038 413.509 C 664.321 413.509 674.061 423.923 686.686 436.652 M 114.67 415.268 C 114.67 416.476 131.671 433.195 132.28 432.587 C 132.574 432.29 129.506 428.739 125.459 424.691 C 116.917 416.149 114.67 414.187 114.67 415.268 M 406.658 417.385 C 405.366 418.815 404.732 419.983 405.248 419.983 C 406.614 419.983 410.304 416.083 409.603 415.382 C 409.276 415.055 407.951 415.956 406.658 417.385 M 400.183 423.859 C 398.892 425.289 398.257 426.457 398.774 426.457 C 400.14 426.457 403.83 422.557 403.129 421.856 C 402.802 421.529 401.477 422.43 400.183 423.859 M 393.379 429.612 C 390.607 430.89 389.37 432.978 391.437 432.891 C 392.806 432.833 397.515 429.159 396.846 428.671 C 396.542 428.45 394.982 428.874 393.379 429.612 M 132.798 435.521 C 132.798 436.233 133.623 436.816 134.632 436.816 C 135.641 436.816 136.726 437.544 137.045 438.434 C 137.362 439.324 138.097 439.609 138.676 439.069 C 139.256 438.527 138.607 437.235 137.236 436.196 C 134.284 433.962 132.798 433.737 132.798 435.521 M 139.272 441.995 C 139.272 442.707 140.146 443.29 141.214 443.29 C 142.282 443.29 143.156 443.872 143.156 444.585 C 143.156 445.297 143.83 445.879 144.652 445.879 C 145.5 445.879 145.132 444.758 143.804 443.29 C 141.272 440.493 139.272 439.922 139.272 441.995 M 368.454 444.997 C 368.454 446.02 369.283 447.545 370.294 448.385 C 371.806 449.639 372.01 449.432 371.432 447.228 C 370.586 443.989 368.454 442.393 368.454 444.997 M 401.687 445.447 C 400.353 446.783 400.669 452.354 402.079 452.354 C 402.768 452.354 402.995 451.471 402.581 450.395 C 402.168 449.317 402.548 447.569 403.427 446.511 C 404.974 444.646 403.432 443.704 401.687 445.447 M 145.746 448.361 C 145.746 449.133 146.371 449.764 147.133 449.764 C 148.926 449.764 152.22 453.058 152.22 454.851 C 152.22 455.613 152.845 456.238 153.607 456.238 C 155.4 456.238 158.694 459.532 158.694 461.325 C 158.694 462.087 159.319 462.712 160.081 462.712 C 161.874 462.712 165.168 466.006 165.168 467.799 C 165.168 468.561 165.793 469.186 166.555 469.186 C 168.349 469.186 171.642 472.48 171.642 474.273 C 171.642 475.035 172.267 475.66 173.029 475.66 C 174.823 475.66 178.116 478.954 178.116 480.747 C 178.116 481.51 178.741 482.134 179.503 482.134 C 181.297 482.134 184.59 485.428 184.59 487.221 C 184.59 487.984 185.215 488.608 185.977 488.608 C 187.771 488.608 191.064 491.902 191.064 493.695 C 191.064 494.458 191.647 495.082 192.359 495.082 C 195.436 495.082 192.424 491.588 171.024 470.326 C 148.734 448.179 145.746 445.583 145.746 448.361 M 403.414 455.173 C 403.414 456.524 492.751 546.017 493.426 545.342 C 493.739 545.03 473.614 524.404 448.705 499.507 C 423.794 474.611 403.414 454.662 403.414 455.173 M 353.533 470.727 C 347.854 476.56 344.272 480.529 345.576 479.545 C 350.183 476.075 365.622 460.122 364.374 460.122 C 364.092 460.122 359.214 464.894 353.533 470.727 M 705.086 476.327 C 702.681 478.808 701.139 480.839 701.658 480.839 C 702.914 480.839 710.594 472.948 709.958 472.311 C 709.685 472.038 707.493 473.846 705.086 476.327 M 65.467 474.861 C 65.467 476.079 372.003 782.531 373.222 782.531 C 374.46 782.531 384.843 792.984 215.65 623.917 C 44.022 452.418 65.467 473.702 65.467 474.861 M 696.696 484.716 C 695.405 486.145 694.77 487.314 695.286 487.314 C 696.652 487.314 700.343 483.413 699.642 482.712 C 699.315 482.385 697.989 483.287 696.696 484.716 M 690.222 491.19 C 688.93 492.619 688.296 493.788 688.812 493.788 C 690.178 493.788 693.869 489.887 693.168 489.186 C 692.841 488.859 691.515 489.761 690.222 491.19 M 194.949 496.377 C 194.949 497.089 195.532 497.672 196.244 497.672 C 196.956 497.672 197.538 498.546 197.538 499.614 C 197.538 500.683 198.163 501.556 198.926 501.556 C 200.719 501.556 204.013 504.85 204.013 506.643 C 204.013 507.406 204.574 508.031 205.262 508.031 C 205.948 508.031 217.956 519.427 231.945 533.356 C 245.934 547.285 257.629 558.43 257.937 558.124 C 258.49 557.569 196.627 495.082 195.525 495.082 C 195.208 495.082 194.949 495.665 194.949 496.377 M 326.379 497.664 C 325.087 499.093 324.453 500.262 324.969 500.262 C 326.335 500.262 330.026 496.361 329.325 495.66 C 328.998 495.333 327.672 496.235 326.379 497.664 M 683.748 497.664 C 682.456 499.093 681.822 500.262 682.338 500.262 C 683.704 500.262 687.394 496.361 686.694 495.66 C 686.367 495.333 685.041 496.235 683.748 497.664 M 320.162 503.618 C 317.576 507.082 318.353 507.819 321.389 504.782 C 322.464 503.708 323.152 502.304 322.915 501.665 C 322.681 501.026 321.441 501.904 320.162 503.618 M 677.274 504.138 C 675.982 505.567 675.348 506.736 675.864 506.736 C 677.23 506.736 680.92 502.835 680.22 502.134 C 679.893 501.807 678.567 502.709 677.274 504.138 M 313.688 510.093 C 311.102 513.556 311.879 514.293 314.915 511.256 C 315.99 510.182 316.678 508.778 316.441 508.139 C 316.207 507.5 314.967 508.379 313.688 510.093 M 670.8 510.612 C 669.508 512.041 668.874 513.21 669.39 513.21 C 670.756 513.21 674.446 509.309 673.746 508.608 C 673.419 508.281 672.093 509.183 670.8 510.612 M 306.957 517.086 C 305.665 518.515 305.031 519.684 305.547 519.684 C 306.913 519.684 310.603 515.783 309.903 515.082 C 309.576 514.755 308.25 515.657 306.957 517.086 M 664.326 517.086 C 663.034 518.515 662.4 519.684 662.916 519.684 C 664.282 519.684 667.972 515.783 667.271 515.082 C 666.944 514.755 665.619 515.657 664.326 517.086 M 300.483 523.56 C 299.191 524.989 298.557 526.158 299.073 526.158 C 300.439 526.158 304.129 522.257 303.428 521.557 C 303.102 521.23 301.776 522.131 300.483 523.56 M 657.852 523.56 C 656.56 524.989 655.926 526.158 656.442 526.158 C 657.808 526.158 661.498 522.257 660.797 521.557 C 660.47 521.23 659.145 522.131 657.852 523.56 M 294.009 530.034 C 292.717 531.463 292.083 532.632 292.599 532.632 C 293.965 532.632 297.655 528.731 296.954 528.031 C 296.627 527.704 295.302 528.605 294.009 530.034 M 651.378 530.034 C 650.086 531.463 649.452 532.632 649.968 532.632 C 651.334 532.632 655.024 528.731 654.323 528.031 C 653.996 527.704 652.671 528.605 651.378 530.034 M 287.535 536.508 C 286.243 537.938 285.609 539.106 286.125 539.106 C 287.491 539.106 291.181 535.206 290.48 534.505 C 290.153 534.178 288.828 535.079 287.535 536.508 M 644.904 536.508 C 643.612 537.938 642.977 539.106 643.494 539.106 C 644.86 539.106 648.55 535.206 647.849 534.505 C 647.522 534.178 646.197 535.079 644.904 536.508 M 490.579 581.379 C 466.237 605.818 446.718 626.013 447.203 626.254 C 447.689 626.495 468.004 606.705 492.348 582.275 C 516.693 557.847 536.212 537.654 535.725 537.402 C 535.238 537.148 514.922 556.939 490.579 581.379 M 281.061 542.982 C 279.769 544.412 279.134 545.58 279.651 545.58 C 281.017 545.58 284.707 541.68 284.006 540.979 C 283.679 540.652 282.354 541.553 281.061 542.982 M 638.429 542.982 C 637.138 544.412 636.503 545.58 637.02 545.58 C 638.386 545.58 642.076 541.68 641.375 540.979 C 641.048 540.652 639.723 541.553 638.429 542.982 M 631.955 549.457 C 630.664 550.886 630.029 552.054 630.546 552.054 C 631.912 552.054 635.602 548.154 634.901 547.453 C 634.574 547.126 633.249 548.027 631.955 549.457 M 290.314 554.767 C 289.035 556.259 288.222 557.711 288.506 557.994 C 288.787 558.277 290.283 557.057 291.827 555.282 C 293.369 553.506 294.183 552.054 293.635 552.054 C 293.084 552.054 291.591 553.275 290.314 554.767 M 625.481 555.931 C 624.19 557.36 623.555 558.528 624.072 558.528 C 625.438 558.528 629.128 554.628 628.427 553.927 C 628.1 553.6 626.774 554.501 625.481 555.931 M 258.395 561.118 C 258.395 561.83 259.269 562.413 260.337 562.413 C 261.405 562.413 262.279 562.995 262.279 563.708 C 262.279 564.42 262.953 565.002 263.775 565.002 C 264.623 565.002 264.255 563.881 262.927 562.413 C 260.395 559.616 258.395 559.045 258.395 561.118 M 604.712 576.701 C 595.5 585.933 588.328 593.488 588.775 593.488 C 589.863 593.488 622.432 560.882 621.888 560.338 C 621.655 560.103 613.927 567.467 604.712 576.701 M 264.869 567.592 C 264.869 568.304 265.494 568.887 266.256 568.887 C 268.049 568.887 271.343 572.181 271.343 573.974 C 271.343 574.736 271.968 575.361 272.73 575.361 C 274.523 575.361 277.817 578.655 277.817 580.448 C 277.817 581.21 278.442 581.835 279.204 581.835 C 280.997 581.835 284.291 585.129 284.291 586.922 C 284.291 587.684 284.916 588.309 285.678 588.309 C 287.471 588.309 290.765 591.603 290.765 593.396 C 290.765 594.158 291.39 594.783 292.152 594.783 C 293.946 594.783 297.239 598.077 297.239 599.87 C 297.239 600.633 297.864 601.257 298.626 601.257 C 300.42 601.257 303.713 604.551 303.713 606.344 C 303.713 607.107 304.338 607.731 305.1 607.731 C 306.894 607.731 310.187 611.025 310.187 612.818 C 310.187 613.581 310.812 614.205 311.574 614.205 C 313.368 614.205 316.661 617.499 316.661 619.292 C 316.661 620.055 317.21 620.679 317.879 620.679 C 318.549 620.679 331.447 632.933 346.543 647.909 C 361.637 662.886 374.24 674.885 374.549 674.576 C 375.271 673.854 267.402 566.297 265.955 566.297 C 265.358 566.297 264.869 566.88 264.869 567.592 M 584.047 597.365 C 582.756 598.794 582.121 599.962 582.637 599.962 C 584.004 599.962 587.694 596.062 586.993 595.361 C 586.666 595.034 585.34 595.936 584.047 597.365 M 577.573 603.839 C 576.282 605.268 575.647 606.437 576.163 606.437 C 577.529 606.437 581.22 602.536 580.519 601.835 C 580.192 601.508 578.866 602.41 577.573 603.839 M 571.099 610.313 C 569.807 611.742 569.173 612.911 569.689 612.911 C 571.055 612.911 574.746 609.01 574.045 608.309 C 573.718 607.982 572.392 608.884 571.099 610.313 M 564.625 616.787 C 563.333 618.216 562.699 619.385 563.215 619.385 C 564.581 619.385 568.271 615.484 567.571 614.783 C 567.244 614.456 565.918 615.358 564.625 616.787 M 558.151 623.261 C 556.859 624.69 556.225 625.859 556.741 625.859 C 558.107 625.859 561.797 621.958 561.097 621.257 C 560.77 620.93 559.444 621.832 558.151 623.261 M 441.935 629.852 C 440.689 631.216 440.106 632.315 440.64 632.292 C 441.996 632.234 446.143 628.986 446.143 627.982 C 446.143 626.482 444.238 627.328 441.935 629.852 M 551.677 629.735 C 550.385 631.164 549.751 632.333 550.267 632.333 C 551.633 632.333 555.323 628.432 554.623 627.731 C 554.296 627.404 552.97 628.306 551.677 629.735 M 435.461 636.326 C 434.214 637.69 433.632 638.789 434.166 638.766 C 435.522 638.708 439.669 635.46 439.669 634.456 C 439.669 632.956 437.764 633.802 435.461 636.326 M 545.203 636.209 C 543.911 637.638 543.277 638.807 543.793 638.807 C 545.159 638.807 548.849 634.906 548.148 634.205 C 547.822 633.878 546.496 634.78 545.203 636.209 M 428.76 642.769 C 427.389 644.15 426.806 645.263 427.465 645.241 C 428.99 645.187 433.195 642.025 433.195 640.93 C 433.195 639.427 431.291 640.217 428.76 642.769 M 538.729 642.683 C 537.437 644.112 536.803 645.281 537.319 645.281 C 538.685 645.281 542.375 641.38 541.674 640.68 C 541.347 640.353 540.022 641.254 538.729 642.683 M 532.255 649.157 C 530.963 650.586 530.329 651.755 530.845 651.755 C 532.211 651.755 535.901 647.854 535.2 647.154 C 534.873 646.827 533.548 647.728 532.255 649.157 M 416.556 655.128 C 413.46 658.354 411.215 661.283 411.571 661.639 C 412.327 662.395 422.836 651.724 422.836 650.2 C 422.836 648.643 422.627 648.806 416.556 655.128 M 525.781 655.631 C 524.489 657.061 523.854 658.229 524.371 658.229 C 525.737 658.229 529.427 654.328 528.726 653.628 C 528.399 653.301 527.074 654.202 525.781 655.631 M 382.05 659.524 C 382.49 660.236 384.563 660.819 386.658 660.819 C 388.752 660.819 390.466 660.236 390.466 659.524 C 390.466 658.812 388.393 658.229 385.858 658.229 C 383.115 658.229 381.574 658.754 382.05 659.524 M 519.306 662.105 C 518.015 663.535 517.38 664.703 517.897 664.703 C 519.263 664.703 522.953 660.803 522.252 660.102 C 521.925 659.775 520.6 660.676 519.306 662.105 M 406.866 664.918 C 405.562 666.343 404.838 667.854 405.262 668.277 C 406.047 669.062 409.772 664.844 409.848 663.085 C 409.903 661.753 409.595 661.942 406.866 664.918 M 512.832 668.58 C 511.541 670.009 510.906 671.177 511.423 671.177 C 512.789 671.177 516.479 667.277 515.778 666.576 C 515.451 666.249 514.126 667.15 512.832 668.58 M 402.119 669.806 C 402.119 670.561 401.245 671.177 400.177 671.177 C 399.109 671.177 398.244 672.197 398.254 673.443 C 398.267 674.824 398.646 675.16 399.225 674.304 C 399.75 673.531 401.271 672.301 402.61 671.569 C 404.227 670.685 404.552 669.939 403.581 669.337 C 402.776 668.842 402.119 669.052 402.119 669.806 M 506.358 675.054 C 505.067 676.483 504.432 677.651 504.949 677.651 C 506.315 677.651 510.005 673.751 509.304 673.05 C 508.977 672.723 507.652 673.624 506.358 675.054 M 485.604 696.025 C 479.925 701.858 476.343 705.826 477.647 704.842 C 482.254 701.372 497.693 685.42 496.445 685.42 C 496.163 685.42 491.285 690.192 485.604 696.025 M 458.45 722.962 C 457.159 724.391 456.524 725.56 457.04 725.56 C 458.406 725.56 462.097 721.659 461.396 720.958 C 461.069 720.631 459.743 721.533 458.45 722.962 M 452.233 728.916 C 449.647 732.38 450.424 733.116 453.46 730.08 C 454.535 729.005 455.223 727.602 454.987 726.963 C 454.752 726.323 453.512 727.202 452.233 728.916 M 445.759 735.39 C 443.173 738.854 443.95 739.59 446.986 736.554 C 448.061 735.479 448.749 734.076 448.512 733.437 C 448.278 732.797 447.038 733.676 445.759 735.39 M 439.028 742.384 C 437.736 743.813 437.102 744.982 437.618 744.982 C 438.984 744.982 442.674 741.081 441.974 740.38 C 441.647 740.053 440.321 740.955 439.028 742.384 M 432.554 748.858 C 431.262 750.287 430.628 751.456 431.144 751.456 C 432.51 751.456 436.2 747.555 435.5 746.854 C 435.173 746.527 433.847 747.429 432.554 748.858 M 426.08 755.332 C 424.788 756.761 424.154 757.93 424.67 757.93 C 426.036 757.93 429.726 754.029 429.025 753.328 C 428.699 753.001 427.373 753.903 426.08 755.332 M 419.606 761.806 C 418.314 763.235 417.68 764.404 418.196 764.404 C 419.562 764.404 423.252 760.503 422.551 759.802 C 422.224 759.476 420.899 760.377 419.606 761.806 M 413.132 768.28 C 411.84 769.709 411.206 770.878 411.722 770.878 C 413.088 770.878 416.778 766.977 416.077 766.277 C 415.75 765.95 414.425 766.851 413.132 768.28 M 406.183 774.874 C 404.503 776.237 403.815 777.352 404.659 777.352 C 406.316 777.352 410.5 773.646 409.718 772.87 C 409.456 772.61 407.865 773.511 406.183 774.874" stroke="none" fill="#000000" fill-rule="evenodd"/>
    <path id="path1" d="M 288.176 80.505 C 288.176 81.324 289.975 83.898 292.177 86.224 L 296.177 90.453 L 292.552 85.274 C 290.56 82.425 288.758 79.851 288.551 79.555 C 288.345 79.257 288.176 79.686 288.176 80.505 M 317.956 112.264 C 317.956 112.73 319.122 114.277 320.546 115.702 C 321.97 117.126 323.136 117.799 323.136 117.197 C 323.136 116.595 321.97 115.048 320.546 113.759 C 319.122 112.471 317.956 111.798 317.956 112.264 M 402.555 207.074 C 402.126 208.189 402.435 209.762 403.242 210.57 C 404.335 211.662 404.709 211.144 404.709 208.54 C 404.709 204.644 403.739 203.984 402.555 207.074 M 314.719 267.195 C 313.431 268.619 312.669 269.785 313.026 269.785 C 313.382 269.785 315.019 268.619 316.661 267.195 C 318.304 265.771 319.067 264.605 318.354 264.605 C 317.644 264.605 316.008 265.771 314.719 267.195 M 316.315 366.896 C 317.534 368.32 318.979 369.485 319.526 369.485 C 320.073 369.485 319.523 368.32 318.303 366.896 C 317.084 365.471 315.639 364.306 315.091 364.306 C 314.544 364.306 315.095 365.471 316.315 366.896 M 430.555 416.463 C 429.461 417.33 425.992 420.954 422.849 424.515 C 417.481 430.597 417.621 430.521 425.164 423.261 C 429.581 419.01 433.195 415.369 433.195 415.168 C 433.195 414.547 432.619 414.83 430.555 416.463 M 162.578 430.989 C 160.351 432.263 159.999 432.854 161.449 432.886 C 162.608 432.91 164.281 432.057 165.168 430.989 C 167.139 428.613 166.733 428.613 162.578 430.989 M 314.043 533.093 C 293.271 553.691 286.886 560.417 288.823 559.655 C 290.339 559.061 334.342 514.505 333.415 514.505 C 333.07 514.505 324.353 522.869 314.043 533.093 M 382.373 678.566 C 383.976 678.873 386.598 678.873 388.2 678.566 C 389.802 678.257 388.491 678.004 385.287 678.004 C 382.082 678.004 380.771 678.257 382.373 678.566" stroke="none" fill="#232e46" fill-rule="evenodd"/>
    <path id="path2" d="M 372.866 -6.11 C 370.018 -2.708 367.25 -0.162 366.716 -0.453 C 366.182 -0.746 365.745 -0.495 365.745 0.102 C 365.745 1.196 343.744 23.665 316.263 50.632 C 308.103 58.641 300.947 64.759 300.361 64.228 C 299.775 63.697 299.662 64.281 300.109 65.528 C 300.557 66.774 300.447 67.794 299.866 67.794 C 299.285 67.794 297.467 68.959 295.825 70.383 C 294.182 71.807 293.29 72.973 293.844 72.973 C 294.395 72.973 294.122 73.847 293.235 74.915 C 292.348 75.983 292.131 76.867 292.753 76.877 C 293.374 76.888 293.143 77.367 292.238 77.942 C 290.644 78.953 297.055 89.745 299.928 90.887 C 300.528 91.126 300.682 91.869 300.269 92.537 C 299.855 93.206 300.06 93.594 300.726 93.398 C 301.391 93.203 320.455 111.542 343.09 134.153 C 381.676 172.698 384.532 175.263 388.854 175.263 C 393.182 175.263 396.186 172.549 437.937 130.916 C 486.858 82.134 487.509 81.316 483.644 73.567 C 482.238 70.747 481.062 68.867 481.035 69.388 C 481.006 69.911 462.364 51.702 439.606 28.925 L 398.228 -12.485 L 388.137 -12.391 L 378.045 -12.299 L 372.866 -6.11 M 235.931 147.332 C 216.308 166.865 199.908 182.5 199.484 182.076 C 199.06 181.653 198.714 182.147 198.714 183.176 C 198.714 185.347 194.117 189.657 192.997 188.537 C 192.579 188.121 192.239 188.509 192.239 189.403 C 192.239 190.294 189.035 194.104 185.118 197.867 C 174.055 208.496 173.612 207.554 203.893 237.765 C 218.136 251.976 229.789 264.021 229.789 264.533 C 229.789 265.044 231.246 266.242 233.026 267.195 C 234.806 268.148 236.263 269.704 236.263 270.651 C 236.263 271.599 236.76 272.374 237.367 272.374 C 237.976 272.374 245.696 279.56 254.523 288.344 C 271.544 305.277 273.447 306.612 278.032 304.853 C 286.212 301.713 370.924 214.333 370.924 209.035 C 370.924 202.317 281.779 111.817 275.161 111.817 C 272.241 111.817 265.254 118.142 235.931 147.332 M 452.562 158.062 L 406.659 204.175 L 407.01 209.464 C 407.321 214.156 408.451 215.818 416.992 224.142 C 422.289 229.305 426.182 233.54 425.641 233.549 C 425.101 233.561 425.455 234.074 426.428 234.69 C 427.4 235.305 443.45 251.003 462.095 269.574 C 480.74 288.145 497.424 303.872 499.17 304.525 C 504.573 306.54 507.41 304.335 535.351 276.425 C 550.244 261.548 562.751 249.694 563.141 250.084 C 563.533 250.474 563.851 250.092 563.851 249.233 C 563.851 248.375 571.717 239.946 581.331 230.503 C 602.497 209.713 602.785 208.826 592.014 197.647 C 578.735 183.864 508.352 114.022 506.658 112.949 C 501.232 109.508 499.23 111.178 452.562 158.062 M 158.375 239.45 C 156.503 240.431 142.75 253.467 127.814 268.417 C 112.879 283.369 100.288 295.231 99.837 294.778 C 99.383 294.325 99.013 294.545 99.013 295.267 C 99.013 297.251 94.339 302.229 93.379 301.268 C 92.916 300.807 92.539 301.108 92.539 301.94 C 92.539 302.77 86.712 309.276 79.591 316.398 C 61.117 334.872 61.16 336.246 80.809 355.586 C 88.599 363.252 96.172 371.052 97.64 372.917 C 99.107 374.783 100.308 375.825 100.308 375.234 C 100.308 374.645 101.764 376.136 103.545 378.549 C 105.325 380.962 106.782 382.582 106.782 382.149 C 106.782 381.715 116.833 391.528 129.117 403.958 C 157.297 432.468 158.817 433.682 163.779 431.625 C 167.502 430.084 251.659 347.452 256.001 341.077 C 260.839 333.972 260.98 334.152 213.28 286.277 C 164.804 237.625 163.684 236.67 158.375 239.45 M 388.349 238.436 C 386.895 238.646 383.691 240.541 381.227 242.645 C 378.766 244.749 376.314 246.473 375.779 246.475 C 375.245 246.476 374.808 247.015 374.808 247.672 C 374.808 249.103 367.26 256.836 365.864 256.836 C 365.327 256.836 364.108 258.293 363.155 260.074 C 362.202 261.854 360.897 263.311 360.255 263.311 C 358.741 263.311 355.386 266.666 355.386 268.179 C 355.386 268.822 353.929 270.126 352.149 271.079 C 350.369 272.033 348.912 273.253 348.912 273.794 C 348.912 274.928 299.36 324.652 295.617 327.273 C 286.928 333.36 287.25 333.794 338.94 385.559 C 370.48 417.146 387.13 432.931 388.904 432.931 C 391.667 432.931 483.573 342.505 483.573 339.787 C 483.573 339.03 484.155 338.41 484.868 338.41 C 486.653 338.41 486.491 335.051 484.544 331.72 C 483.139 329.314 397.107 242.835 392.656 239.352 C 391.741 238.636 389.804 238.225 388.349 238.436 M 567.856 283.056 C 512.52 337.96 515.231 334.352 522.741 343.065 C 527.75 348.877 607.056 427.498 610.465 430.033 C 617.3 435.113 616.855 435.459 665.831 386.676 C 722.002 330.723 719.049 336.966 698.719 317.12 C 691.484 310.057 685.564 303.508 685.564 302.569 C 685.564 301.629 684.836 300.85 683.945 300.838 C 683.055 300.825 668.689 287.132 652.022 270.409 C 634.341 252.67 620.721 240.004 619.328 240.004 C 618.013 240.004 616.939 239.421 616.939 238.709 C 616.939 234.965 610.062 241.179 567.856 283.056 M 246.285 377.254 C 232.723 390.785 221.135 401.856 220.53 401.856 C 219.926 401.856 219.431 402.375 219.431 403.01 C 219.431 403.643 210.108 413.522 198.714 424.963 C 182.268 441.474 177.996 446.48 177.996 449.238 C 177.996 454.94 269.296 545.58 275.04 545.58 C 281.977 545.58 370.924 455.765 370.924 448.76 C 370.924 441.654 282.291 352.653 275.214 352.653 C 271.395 352.653 268.321 355.267 246.285 377.254 M 452.556 398.57 C 400.423 450.583 401.94 448.382 411.484 458.209 C 414.101 460.904 416.242 463.602 416.242 464.206 C 416.242 464.808 416.809 465.302 417.502 465.302 C 418.194 465.302 436.801 483.364 458.847 505.441 C 493.012 539.652 499.486 545.58 502.686 545.58 C 507.433 545.58 597.992 456.353 599.095 450.591 C 599.994 445.881 600.381 446.321 557.66 403.487 C 536.523 382.293 519.363 364.517 519.528 363.982 C 519.693 363.448 519.221 363.011 518.479 363.011 C 517.736 363.011 515.878 361.846 514.351 360.422 C 512.821 358.997 512.109 357.832 512.766 357.832 C 513.425 357.832 511.788 356.667 509.131 355.242 C 500.37 350.547 501.75 349.49 452.556 398.57 M 110.666 414.809 C 110.666 415.524 100.761 426.009 88.654 438.111 C 57.527 469.223 47.719 451.828 159.222 563.282 C 210.14 614.178 251.801 656.363 251.801 657.025 C 251.801 657.687 252.338 658.229 252.994 658.229 C 253.651 658.229 282.198 686.197 316.435 720.38 L 378.681 782.531 L 389.071 782.531 L 399.462 782.531 L 556.257 625.737 C 708.761 473.236 713.035 468.828 712.378 464.779 C 711.714 460.686 674.479 421.278 671.276 421.278 C 670.588 421.278 670.026 420.695 670.026 419.983 C 670.026 418.965 666.164 414.288 664.523 413.318 C 663.861 412.926 632.477 444.996 632.477 446.064 C 632.477 446.674 631.986 447.174 631.386 447.174 C 630.785 447.174 615.249 462.178 596.863 480.516 C 578.475 498.854 562.942 513.712 562.346 513.534 C 561.749 513.356 561.262 514.084 561.262 515.152 C 561.262 516.22 560.388 517.094 559.319 517.094 C 558.251 517.094 557.523 517.823 557.701 518.713 C 557.879 519.603 557.296 520.186 556.406 520.008 C 555.516 519.83 554.788 520.558 554.788 521.626 C 554.788 522.694 553.914 523.568 552.845 523.568 C 551.777 523.568 551.049 524.297 551.227 525.187 C 551.405 526.077 550.822 526.66 549.932 526.482 C 549.042 526.304 548.314 527.032 548.314 528.1 C 548.314 529.168 547.44 530.042 546.371 530.042 C 545.303 530.042 544.575 530.771 544.753 531.661 C 544.931 532.551 544.348 533.134 543.458 532.956 C 542.568 532.778 541.839 533.506 541.839 534.574 C 541.839 535.642 540.965 536.516 539.897 536.516 C 538.829 536.516 538.101 537.012 538.279 537.617 C 538.457 538.222 534.378 542.897 529.215 548.002 C 524.052 553.108 519.828 557.857 519.828 558.554 C 519.828 559.252 519.329 559.823 518.719 559.823 C 518.11 559.823 502.543 574.827 484.126 593.165 C 465.709 611.503 450.184 626.36 449.626 626.182 C 449.069 626.004 448.613 626.441 448.613 627.154 C 448.613 628.961 443.816 633.577 442.895 632.656 C 442.479 632.241 442.139 632.574 442.139 633.398 C 442.139 635.55 437.987 640.089 436.728 639.312 C 436.144 638.949 435.665 639.265 435.665 640.011 C 435.665 642.058 431.469 646.537 430.254 645.786 C 429.67 645.423 429.191 646.037 429.191 647.147 C 429.191 648.257 428.317 649.165 427.248 649.165 C 426.18 649.165 425.452 649.623 425.63 650.185 C 426.046 651.494 415.27 662.114 413.523 662.114 C 412.798 662.114 412.5 662.593 412.863 663.177 C 413.614 664.392 409.136 668.588 407.088 668.588 C 406.342 668.588 406.026 669.067 406.389 669.651 C 409.809 675.185 387.946 680.828 379.164 676.68 C 374.386 674.422 115.845 417.206 115.845 414.71 C 115.845 414.05 114.68 413.509 113.256 413.509 C 111.831 413.509 110.666 414.093 110.666 414.809 M 387.757 466.328 C 384.694 466.776 303.982 545.545 294.507 557.332 C 291.061 561.618 290.917 562.22 292.58 565.425 C 293.568 567.328 294.007 568.887 293.554 568.887 C 293.102 568.887 294.706 570.344 297.119 572.124 C 299.533 573.904 301.023 575.361 300.434 575.361 C 299.843 575.361 300.753 576.457 302.456 577.795 C 304.157 579.135 323.11 597.781 344.573 619.229 C 382.734 657.368 383.71 658.229 388.778 658.229 C 393.933 658.229 479.324 576.431 484.544 566.493 C 487.488 560.887 486.465 559.642 443.11 516.104 C 395.598 468.391 392.526 465.629 387.757 466.328" stroke="none" fill="#323a4e" fill-rule="evenodd"/>
    <path id="path3" d="M 352.873 470.157 L 345.795 477.602 L 353.24 470.525 C 360.158 463.95 361.278 462.712 360.318 462.712 C 360.115 462.712 356.765 466.062 352.873 470.157 M 484.944 695.455 L 477.866 702.9 L 485.311 695.822 C 492.229 689.248 493.349 688.01 492.389 688.01 C 492.187 688.01 488.836 691.36 484.944 695.455 M 407.865 772.497 L 404.061 776.705 L 408.27 772.901 C 412.193 769.357 413.073 768.288 412.073 768.288 C 411.85 768.288 409.956 770.182 407.865 772.497" stroke="none" fill="#17172e" fill-rule="evenodd"/>
    <path id="path4" stroke="none" fill="#282843" fill-rule="evenodd"/>
    <path style="stroke: black; fill: none;"/>
    <path d="M 834.825 201.32 L 834.825 201.32 Z" style="stroke: black; fill: none;"/>
  </g>
</svg>
