<?xml version="1.0" encoding="UTF-8" standalone="no"?>
<!-- Generator: Adobe Illustrator 18.1.1, SVG Export Plug-In . SVG Version: 6.00 Build 0)  -->

<svg
   xmlns:dc="http://purl.org/dc/elements/1.1/"
   xmlns:cc="http://creativecommons.org/ns#"
   xmlns:rdf="http://www.w3.org/1999/02/22-rdf-syntax-ns#"
   xmlns:svg="http://www.w3.org/2000/svg"
   xmlns="http://www.w3.org/2000/svg"
   xmlns:xlink="http://www.w3.org/1999/xlink"
   xmlns:sodipodi="http://sodipodi.sourceforge.net/DTD/sodipodi-0.dtd"
   xmlns:inkscape="http://www.inkscape.org/namespaces/inkscape"
   version="1.1"
   x="0px"
   y="0px"
   width="128px"
   height="128px"
   viewBox="15 15 96 96"
   style="enable-background:new 0 0 128 128;"
   xml:space="preserve"
   id="svg3064"
   inkscape:version="0.48.4 r9939"
   sodipodi:docname="appengine.logo.svg"><metadata
     id="metadata3103"><rdf:RDF><cc:Work
         rdf:about=""><dc:format>image/svg+xml</dc:format><dc:type
           rdf:resource="http://purl.org/dc/dcmitype/StillImage" /><dc:title /></cc:Work></rdf:RDF></metadata><defs
     id="defs3101" /><sodipodi:namedview
     pagecolor="#ffffff"
     bordercolor="#666666"
     borderopacity="1"
     objecttolerance="10"
     gridtolerance="10"
     guidetolerance="10"
     inkscape:pageopacity="0"
     inkscape:pageshadow="2"
     inkscape:window-width="1920"
     inkscape:window-height="1147"
     id="namedview3099"
     showgrid="false"
     inkscape:zoom="7.5390625"
     inkscape:cx="43.904663"
     inkscape:cy="64"
     inkscape:window-x="1920"
     inkscape:window-y="0"
     inkscape:window-maximized="1"
     inkscape:current-layer="svg3064" /><g
     id="BASE"
     transform="matrix(0.5,0,0,0.5,31.336638,15.154304)"><linearGradient
       id="SVGID_1_"
       gradientUnits="userSpaceOnUse"
       x1="63.999699"
       y1="7.0335999"
       x2="63.999699"
       y2="120.7894"><stop
         offset="0"
         style="stop-color:#4387FD"
         id="stop3068" /><stop
         offset="1"
         style="stop-color:#4683EA"
         id="stop3070" /></linearGradient><path
       style="fill:url(#SVGID_1_)"
       d="M 27.7906,115.2166 1.54,69.7493 c -2.0541,-3.5578 -2.0541,-7.9412 0,-11.499 L 27.7906,12.7831 c 2.0541,-3.5578 5.8503,-5.7495 9.9585,-5.7495 h 52.5012 c 4.1082,0 7.9044,2.1917 9.9585,5.7495 l 26.2506,45.4672 c 2.0541,3.5578 2.0541,7.9412 0,11.499 l -26.2506,45.4672 c -2.0541,3.5578 -5.8503,5.7495 -9.9585,5.7495 H 37.7491 c -4.1082,1e-4 -7.9043,-2.1916 -9.9585,-5.7494 z"
       id="path3072"
       inkscape:connector-curvature="0" /></g><g
     id="shadow"
     transform="matrix(0.5,0,0,0.5,31.336638,15.154304)"><g
       id="g3075"><defs
         id="defs3077"><path
           id="SVGID_5_"
           d="M 27.7911,115.2166 1.5406,69.7493 c -2.0541,-3.5578 -2.0541,-7.9412 0,-11.499 L 27.7911,12.7831 c 2.0541,-3.5578 5.8502,-5.7495 9.9585,-5.7495 h 52.501 c 4.1082,0 7.9044,2.1917 9.9585,5.7495 l 26.2505,45.4672 c 2.0541,3.5578 2.0541,7.9412 0,11.499 l -26.2505,45.4672 c -2.0541,3.5578 -5.8502,5.7495 -9.9585,5.7495 h -52.501 c -4.1083,1e-4 -7.9044,-2.1916 -9.9585,-5.7494 z"
           inkscape:connector-curvature="0" /></defs><clipPath
         id="SVGID_2_"><use
           xlink:href="#SVGID_5_"
           style="overflow:visible"
           id="use3081"
           x="0"
           y="0"
           width="128"
           height="128" /></clipPath><polygon
         style="opacity:0.07000002"
         points="100.5729,61.7707 65.6823,26.8801 58.5202,37.3534 64.5208,43.354 49.25,48.9165 43.2832,64.0956 37.4271,58.2395 26.8775,67.5051 81.2681,121.8957 97.6671,122.0415 121.2031,81.9218 101.2656,61.9843 "
         id="polygon3083"
         clip-path="url(#SVGID_2_)" /></g></g><g
     id="art"
     transform="matrix(0.5,0,0,0.5,31.336638,15.154304)"><g
       id="g3086"><path
         style="fill:#ffffff"
         d="m 63.9988,40.9577 c -12.7278,0 -23.0452,10.3167 -23.0452,23.0464 0,12.726 10.3174,23.0463 23.0452,23.0463 12.7273,0 23.0446,-10.3203 23.0446,-23.0463 0,-12.7297 -10.3173,-23.0464 -23.0446,-23.0464 m 0,40.531 c -9.6584,0 -17.4876,-7.8286 -17.4876,-17.4846 0,-9.6584 7.8291,-17.4877 17.4876,-17.4877 9.6578,0 17.4858,7.8292 17.4858,17.4877 0,9.656 -7.828,17.4846 -17.4858,17.4846"
         id="path3088"
         inkscape:connector-curvature="0" /><path
         style="fill:#ffffff"
         d="m 100.1431,61.274 -9.6079,-3.0195 c 0.3997,1.8539 0.615,3.7759 0.615,5.7478 0,1.3791 -0.1047,2.7337 -0.3021,4.0569 h 9.295 c 0.8587,-0.2515 1.4327,-0.7846 1.4327,-1.5765 v -3.6345 c 1e-4,-0.7907 -0.574,-1.3388 -1.4327,-1.5742"
         id="path3090"
         inkscape:connector-curvature="0" /><path
         style="fill:#ffffff"
         d="m 63.9923,36.8497 c 1.9303,0 3.8119,0.2046 5.6285,0.5884 L 66.1765,27.8652 C 65.925,27.0046 65.3913,26.4312 64.6,26.4312 h -1.4392 c -0.7913,0 -1.3407,0.5734 -1.5761,1.434 l -2.9924,9.5236 c 1.7449,-0.352 3.5502,-0.5391 5.4,-0.5391"
         id="path3092"
         inkscape:connector-curvature="0" /><path
         style="fill:#ffffff"
         d="m 36.8468,64.0023 c 0,-1.9719 0.2154,-3.8932 0.6145,-5.7478 L 27.854,61.274 c -0.8587,0.2354 -1.4322,0.7835 -1.4322,1.5754 v 3.6344 c 0,0.7907 0.5735,1.3238 1.4322,1.5753 h 9.2955 c -0.198,-1.3225 -0.3027,-2.6777 -0.3027,-4.0568"
         id="path3094"
         inkscape:connector-curvature="0" /><path
         style="fill:#ffffff"
         d="m 72.2276,56.4819 -2.1802,2.1794 v -0.0048 c -1.5651,-1.5639 -3.6549,-2.4274 -5.8687,-2.4274 -2.2192,0 -4.303,0.8659 -5.8704,2.4322 -3.2362,3.2355 -3.2362,8.5037 0,11.7399 l -2.1802,2.1783 c 2.0627,2.0609 4.9096,3.3383 8.0483,3.3383 6.2803,0 11.3896,-5.1081 11.3896,-11.3895 0,-3.14 -1.277,-5.9862 -3.3384,-8.0464 m -4.4992,11.2523 c -1.0278,1.0302 -2.3799,1.5459 -3.7284,1.5459 -1.3526,0 -2.7012,-0.5156 -3.7313,-1.5459 -2.0616,-2.0615 -2.0616,-5.4018 0,-7.4639 1.0301,-1.0314 2.3787,-1.544 3.7313,-1.544 1.3485,0 2.7006,0.5127 3.7284,1.544 2.0616,2.0609 2.0616,5.4024 0,7.4639"
         id="path3096"
         inkscape:connector-curvature="0" /></g></g><g
     id="Guides"
     style="display:none;" /><g
     style="fill:#000000;stroke:none"
     transform="matrix(0.015625,0,0,-0.015625,11.956093,110.74645)"
     id="g3194"><path
       inkscape:connector-curvature="0"
       d="M 761,1673 C 746,1643 440,878 440,869 c 0,-5 12,-9 28,-9 26,0 30,8 83,143 l 57,142 169,3 170,2 55,-142 c 54,-139 56,-143 87,-146 17,-2 31,-1 31,2 0,3 -63,167 -141,363 -77,197 -150,382 -161,411 -20,53 -40,66 -57,35 z m 109,-321 c 29,-78 51,-144 48,-147 -3,-3 -68,-4 -145,-3 l -140,3 68,175 c 37,96 70,184 74,195 4,16 9,9 23,-30 10,-27 42,-114 72,-193 z"
       id="path3196" /><path
       inkscape:connector-curvature="0"
       d="m 2870,1270 0,-410 225,0 225,0 0,25 0,25 -196,2 -195,3 0,175 0,175 186,3 c 186,2 186,2 183,25 -3,22 -6,22 -186,27 l -183,5 0,150 0,150 195,3 196,2 0,25 0,25 -225,0 -225,0 0,-410 z"
       id="path3198" /><path
       inkscape:connector-curvature="0"
       d="m 1383,1469 c -18,-5 -49,-25 -69,-44 -20,-19 -38,-35 -39,-35 -1,0 -5,18 -9,40 -5,31 -11,40 -26,40 -20,0 -20,-8 -20,-445 l 0,-445 25,0 26,0 -3,185 c -2,102 0,185 3,185 4,0 14,-12 24,-26 45,-69 195,-95 290,-50 59,28 74,43 112,116 25,50 28,64 28,165 0,64 -6,130 -14,157 -17,59 -72,125 -125,149 -45,20 -147,24 -203,8 z m 204,-67 c 52,-37 77,-102 81,-214 8,-192 -59,-288 -201,-288 -79,0 -136,32 -167,95 -22,45 -25,62 -25,170 0,108 3,125 25,170 35,71 89,97 185,93 53,-2 78,-9 102,-26 z"
       id="path3200" /><path
       inkscape:connector-curvature="0"
       d="m 2045,1461 c -22,-10 -51,-30 -64,-45 -33,-35 -41,-33 -41,14 0,36 -2,40 -25,40 l -25,0 0,-446 0,-445 28,3 27,3 -2,184 -3,185 38,-37 c 66,-64 169,-84 265,-51 62,21 122,89 144,163 23,77 22,210 -2,286 -23,72 -84,138 -141,154 -60,17 -154,13 -199,-8 z m 188,-45 c 41,-16 81,-63 98,-113 8,-22 14,-82 14,-139 0,-92 -2,-105 -30,-160 -39,-75 -85,-104 -168,-104 -32,0 -72,6 -90,14 -42,17 -83,66 -97,114 -13,48 -13,226 1,275 13,49 63,105 103,116 47,14 133,13 169,-3 z"
       id="path3202" /><path
       inkscape:connector-curvature="0"
       d="m 3658,1470 c -41,-12 -95,-48 -103,-67 -5,-15 -7,-15 -15,-3 -6,8 -10,27 -10,43 0,22 -4,27 -25,27 l -25,0 0,-305 0,-305 30,0 30,0 0,206 c 0,236 6,269 61,319 42,38 97,51 180,43 59,-6 104,-42 119,-97 5,-20 10,-134 10,-253 l 0,-218 25,0 25,0 0,233 c -1,291 -11,325 -105,368 -42,20 -147,24 -197,9 z"
       id="path3204" /><path
       inkscape:connector-curvature="0"
       d="m 4247,1466 c -134,-49 -166,-219 -62,-323 l 43,-43 -34,-34 c -43,-43 -46,-88 -8,-127 l 26,-27 -45,-20 c -70,-31 -104,-100 -88,-174 20,-89 98,-131 241,-131 194,0 293,68 293,201 0,61 -20,95 -74,127 -28,16 -59,21 -165,25 -88,4 -137,10 -148,19 -24,20 -19,65 9,99 23,27 31,30 103,34 91,5 128,23 176,81 28,35 31,45 31,111 0,52 -5,79 -17,99 -28,41 -23,47 37,47 41,0 57,4 62,15 3,9 4,17 2,19 -2,2 -80,6 -174,9 -133,5 -178,4 -208,-7 z m 173,-46 c 49,-25 73,-69 73,-135 0,-95 -46,-144 -142,-152 -103,-8 -171,52 -171,152 0,123 126,193 240,135 z m 62,-540 c 56,-16 81,-54 75,-113 -8,-86 -68,-125 -202,-134 -161,-11 -241,44 -221,151 15,77 71,105 216,106 52,0 112,-5 132,-10 z"
       id="path3206" /><path
       inkscape:connector-curvature="0"
       d="m 5156,1465 c -21,-7 -54,-28 -72,-46 l -33,-32 -7,41 c -6,36 -10,42 -30,42 l -24,0 0,-305 0,-305 30,0 30,0 0,203 c 0,111 5,219 11,240 14,51 63,104 107,117 54,15 139,12 176,-5 66,-31 71,-53 74,-317 l 3,-238 25,0 24,0 0,238 c 0,208 -3,242 -19,277 -22,48 -44,69 -94,90 -45,19 -149,19 -201,0 z"
       id="path3208" /><path
       inkscape:connector-curvature="0"
       d="m 5796,1465 c -49,-17 -96,-63 -132,-128 -23,-43 -28,-66 -32,-148 -6,-117 13,-188 65,-249 59,-69 102,-85 218,-85 118,1 178,18 183,53 4,26 5,26 -66,6 -83,-24 -198,-16 -250,19 -48,31 -89,110 -94,177 l -3,45 219,3 219,2 -5,78 c -6,92 -29,144 -88,195 -58,49 -150,62 -234,32 z m 185,-58 c 38,-25 74,-91 83,-154 l 6,-43 -191,0 -192,0 7,41 c 12,76 60,145 116,168 48,19 134,13 171,-12 z"
       id="path3210" /><path
       inkscape:connector-curvature="0"
       d="m 4740,1165 0,-305 30,0 30,0 0,305 0,305 -30,0 -30,0 0,-305 z"
       id="path3212" /></g></svg>