<svg xmlns="http://www.w3.org/2000/svg" xmlns:xlink="http://www.w3.org/1999/xlink" viewBox="0 0 14.37557 15.52748">
  <defs>
    <style>
      .a {
        fill: #de4d53;
      }

      .b {
        fill: #eeac3c;
      }

      .c {
        fill: #96c25e;
      }

      .d {
        fill: #49a9df;
      }

      .e {
        fill: #8f429b;
      }

      .f {
        opacity: 0.25;
        fill: url(#a);
      }

      .g {
        fill: url(#b);
      }

      .h {
        fill: url(#c);
      }

      .i {
        fill: #fff;
      }
    </style>
    <linearGradient id="a" x1="5.51119" y1="9.27236" x2="5.9233" y2="9.32662" gradientUnits="userSpaceOnUse">
      <stop offset="0.26839" stop-color="#441b19"/>
      <stop offset="0.73261" stop-color="#441b19" stop-opacity="0"/>
    </linearGradient>
    <linearGradient id="b" x1="5.00789" y1="7.58774" x2="7.13963" y2="6.85373" gradientUnits="userSpaceOnUse">
      <stop offset="0.21861" stop-color="#4b0726" stop-opacity="0"/>
      <stop offset="1" stop-color="#4b0726" stop-opacity="0.6"/>
    </linearGradient>
    <linearGradient id="c" x1="4.24719" y1="15.7319" x2="6.15272" y2="0.21263" gradientUnits="userSpaceOnUse">
      <stop offset="0.35048" stop-color="#ff0"/>
      <stop offset="0.40939" stop-color="#ffff1c"/>
      <stop offset="0.53687" stop-color="#ffff64"/>
      <stop offset="0.72174" stop-color="#ffffd5"/>
      <stop offset="0.7878" stop-color="#fff"/>
    </linearGradient>
  </defs>
  <path class="a" d="M5.7,15.16747a.5.5,0,0,0,.43.56H6.2a.50007.50007,0,0,0,.5-.44L7.91827,6.45482,7.198,4.30693Z" transform="translate(-0.7 -0.2)"/>
  <path class="b" d="M6.58716,1.48546,4.7,15.16747a.5.5,0,0,0,.43.56H5.2a.50007.50007,0,0,0,.5-.44L7.3075,3.63335Z" transform="translate(-0.7 -0.2)"/>
  <path class="c" d="M3.20043,15.72258a.557.557,0,0,1-.06885-.00488.49923.49923,0,0,1-.42676-.56348l2-14.50049A.49241.49241,0,0,1,5.2683.227a.4995.4995,0,0,1,.42676.56348l-2,14.50049A.49982.49982,0,0,1,3.20043,15.72258Z" transform="translate(-0.7 -0.2)"/>
  <path class="d" d="M2.20043,15.72258a.557.557,0,0,1-.06885-.00488.49923.49923,0,0,1-.42676-.56348l2-14.50049A.49241.49241,0,0,1,4.2683.227a.4995.4995,0,0,1,.42676.56348l-2,14.50049A.49982.49982,0,0,1,2.20043,15.72258Z" transform="translate(-0.7 -0.2)"/>
  <path class="e" d="M1.20043,15.72258a.557.557,0,0,1-.06885-.00488.49923.49923,0,0,1-.42676-.56348l2-14.50049A.49241.49241,0,0,1,3.2683.227a.4995.4995,0,0,1,.42676.56348l-2,14.50049A.49982.49982,0,0,1,1.20043,15.72258Z" transform="translate(-0.7 -0.2)"/>
  <path class="f" d="M6.6712,3.77776,6.397,2.95122l-1.68982,12.242a.49324.49324,0,0,0,.21478.43933.51145.51145,0,0,0,.16754-.31134Z" transform="translate(-0.7 -0.2)"/>
  <polygon class="g" points="5.692 2.719 5.02 7.591 6.46 11.721 7.11 7.005 5.692 2.719"/>
  <path class="h" d="M4.20043,15.72258a.557.557,0,0,1-.06885-.00488.49923.49923,0,0,1-.42676-.56348l2-14.50049A.49241.49241,0,0,1,6.2683.227a.4995.4995,0,0,1,.42676.56348l-2,14.50049A.49982.49982,0,0,1,4.20043,15.72258Z" transform="translate(-0.7 -0.2)"/>
  <path class="i" d="M13.07062.66277A.55391.55391,0,0,0,12.59216.2a.5261.5261,0,0,0-.53333.4549l-2.513,8.61346L6.68512.6278a.48865.48865,0,0,1,.00995.16266L6.37059,2.86276,9.101,11.10332a.49483.49483,0,0,0,.4834.34277.50023.50023,0,0,0,.47119-.35937l2.34375-8.00879,1.68115,12.18652a.49939.49939,0,0,0,.49463.43164.47593.47593,0,0,0,.06885-.00488.4995.4995,0,0,0,.42676-.56348Z" transform="translate(-0.7 -0.2)"/>
</svg>
